solid clone_test
facet normal 0.0 0.0 -1.0 
outer loop
vertex 0.0 2.0816681711721685e-17 -0.5 
vertex -9.977894457309405e-17 -0.7071067811865476 -0.5 
vertex -0.7071067811865476 5.884003000792043e-17 -0.5 
endloop
endfacet
facet normal 0.0 0.0 -1.0 
outer loop
vertex 0.0 2.0816681711721685e-17 -0.5 
vertex -0.7071067811865476 5.884003000792043e-17 -0.5 
vertex 7.341226667400463e-17 0.7071067811865476 -0.5 
endloop
endfacet
facet normal 0.0 -0.0 -1.0 
outer loop
vertex 0.0 2.0816681711721685e-17 -0.5 
vertex 7.341226667400463e-17 0.7071067811865476 -0.5 
vertex 0.7071067811865476 -2.7755575615628914e-17 -0.5 
endloop
endfacet
facet normal -0.0 0.0 -1.0 
outer loop
vertex 0.0 2.0816681711721685e-17 -0.5 
vertex 0.7071067811865476 -2.7755575615628914e-17 -0.5 
vertex -9.977894457309405e-17 -0.7071067811865476 -0.5 
endloop
endfacet
facet normal 0.0 0.0 1.0 
outer loop
vertex 2.8108394723554008e-18 2.7755575615628914e-17 0.5 
vertex 0.7071067811865476 -2.7755575615628914e-17 0.5 
vertex 7.341226667400463e-17 0.7071067811865476 0.5 
endloop
endfacet
facet normal 0.0 0.0 1.0 
outer loop
vertex 2.8108394723554008e-18 2.7755575615628914e-17 0.5 
vertex 7.341226667400463e-17 0.7071067811865476 0.5 
vertex -0.7071067811865476 5.884003000792043e-17 0.5 
endloop
endfacet
facet normal 0.0 0.0 1.0 
outer loop
vertex 2.8108394723554008e-18 2.7755575615628914e-17 0.5 
vertex -0.7071067811865476 5.884003000792043e-17 0.5 
vertex -9.977894457309405e-17 -0.7071067811865476 0.5 
endloop
endfacet
facet normal 0.0 0.0 1.0 
outer loop
vertex 2.8108394723554008e-18 2.7755575615628914e-17 0.5 
vertex -9.977894457309405e-17 -0.7071067811865476 0.5 
vertex 0.7071067811865476 -2.7755575615628914e-17 0.5 
endloop
endfacet
facet normal -0.7071067811865477 -0.7071067811865475 1.1102230246251565e-16 
outer loop
vertex -0.35355339059327384 -0.35355339059327373 0.0 
vertex -0.7071067811865476 5.884003000792043e-17 -0.5 
vertex -9.977894457309405e-17 -0.7071067811865476 -0.5 
endloop
endfacet
facet normal -0.7071067811865477 -0.7071067811865475 0.0 
outer loop
vertex -0.35355339059327384 -0.35355339059327373 0.0 
vertex -9.977894457309405e-17 -0.7071067811865476 -0.5 
vertex -9.977894457309405e-17 -0.7071067811865476 0.5 
endloop
endfacet
facet normal -0.7071067811865477 -0.7071067811865475 0.0 
outer loop
vertex -0.35355339059327384 -0.35355339059327373 0.0 
vertex -9.977894457309405e-17 -0.7071067811865476 0.5 
vertex -0.7071067811865476 5.884003000792043e-17 0.5 
endloop
endfacet
facet normal -0.7071067811865476 -0.7071067811865475 -0.0 
outer loop
vertex -0.35355339059327384 -0.35355339059327373 0.0 
vertex -0.7071067811865476 5.884003000792043e-17 0.5 
vertex -0.7071067811865476 5.884003000792043e-17 -0.5 
endloop
endfacet
facet normal -0.7071067811865475 0.7071067811865477 1.1102230246251565e-16 
outer loop
vertex -0.35355339059327373 0.35355339059327384 0.0 
vertex 7.341226667400463e-17 0.7071067811865476 -0.5 
vertex -0.7071067811865476 5.884003000792043e-17 -0.5 
endloop
endfacet
facet normal -0.7071067811865475 0.7071067811865476 0.0 
outer loop
vertex -0.35355339059327373 0.35355339059327384 0.0 
vertex -0.7071067811865476 5.884003000792043e-17 -0.5 
vertex -0.7071067811865476 5.884003000792043e-17 0.5 
endloop
endfacet
facet normal -0.7071067811865475 0.7071067811865477 0.0 
outer loop
vertex -0.35355339059327373 0.35355339059327384 0.0 
vertex -0.7071067811865476 5.884003000792043e-17 0.5 
vertex 7.341226667400463e-17 0.7071067811865476 0.5 
endloop
endfacet
facet normal -0.7071067811865475 0.7071067811865476 0.0 
outer loop
vertex -0.35355339059327373 0.35355339059327384 0.0 
vertex 7.341226667400463e-17 0.7071067811865476 0.5 
vertex 7.341226667400463e-17 0.7071067811865476 -0.5 
endloop
endfacet
facet normal 0.7071067811865476 0.7071067811865475 -1.1102230246251565e-16 
outer loop
vertex 0.35355339059327384 0.3535533905932738 0.0 
vertex 0.7071067811865476 -2.7755575615628914e-17 -0.5 
vertex 7.341226667400463e-17 0.7071067811865476 -0.5 
endloop
endfacet
facet normal 0.7071067811865476 0.7071067811865476 -0.0 
outer loop
vertex 0.35355339059327384 0.3535533905932738 0.0 
vertex 7.341226667400463e-17 0.7071067811865476 -0.5 
vertex 7.341226667400463e-17 0.7071067811865476 0.5 
endloop
endfacet
facet normal 0.7071067811865476 0.7071067811865475 1.1102230246251565e-16 
outer loop
vertex 0.35355339059327384 0.3535533905932738 0.0 
vertex 7.341226667400463e-17 0.7071067811865476 0.5 
vertex 0.7071067811865476 -2.7755575615628914e-17 0.5 
endloop
endfacet
facet normal 0.7071067811865477 0.7071067811865475 0.0 
outer loop
vertex 0.35355339059327384 0.3535533905932738 0.0 
vertex 0.7071067811865476 -2.7755575615628914e-17 0.5 
vertex 0.7071067811865476 -2.7755575615628914e-17 -0.5 
endloop
endfacet
facet normal 0.7071067811865475 -0.7071067811865476 0.0 
outer loop
vertex 0.35355339059327373 -0.3535533905932738 0.0 
vertex -9.977894457309405e-17 -0.7071067811865476 -0.5 
vertex 0.7071067811865476 -2.7755575615628914e-17 -0.5 
endloop
endfacet
facet normal 0.7071067811865475 -0.7071067811865477 0.0 
outer loop
vertex 0.35355339059327373 -0.3535533905932738 0.0 
vertex 0.7071067811865476 -2.7755575615628914e-17 -0.5 
vertex 0.7071067811865476 -2.7755575615628914e-17 0.5 
endloop
endfacet
facet normal 0.7071067811865475 -0.7071067811865476 0.0 
outer loop
vertex 0.35355339059327373 -0.3535533905932738 0.0 
vertex 0.7071067811865476 -2.7755575615628914e-17 0.5 
vertex -9.977894457309405e-17 -0.7071067811865476 0.5 
endloop
endfacet
facet normal 0.7071067811865475 -0.7071067811865476 0.0 
outer loop
vertex 0.35355339059327373 -0.3535533905932738 0.0 
vertex -9.977894457309405e-17 -0.7071067811865476 0.5 
vertex -9.977894457309405e-17 -0.7071067811865476 -0.5 
endloop
endfacet
endsolid clone_test
