solid dodec-test
facet normal 0.0 0.0 -1.0 
outer loop
vertex 6.661338147750939e-17 0.0 -1.1135163644116068 
vertex 0.85065080835204 3.3306690738754695e-17 -1.1135163644116068 
vertex 0.2628655560595669 -0.8090169943749473 -1.1135163644116068 
endloop
endfacet
facet normal 0.0 0.0 -1.0 
outer loop
vertex 6.661338147750939e-17 0.0 -1.1135163644116068 
vertex 0.2628655560595669 -0.8090169943749473 -1.1135163644116068 
vertex -0.6881909602355866 -0.5000000000000001 -1.1135163644116068 
endloop
endfacet
facet normal 0.0 0.0 -1.0 
outer loop
vertex 6.661338147750939e-17 0.0 -1.1135163644116068 
vertex -0.6881909602355866 -0.5000000000000001 -1.1135163644116068 
vertex -0.6881909602355867 0.49999999999999994 -1.1135163644116068 
endloop
endfacet
facet normal 0.0 0.0 -1.0 
outer loop
vertex 6.661338147750939e-17 0.0 -1.1135163644116068 
vertex -0.6881909602355867 0.49999999999999994 -1.1135163644116068 
vertex 0.26286555605956674 0.8090169943749475 -1.1135163644116068 
endloop
endfacet
facet normal 0.0 -0.0 -1.0 
outer loop
vertex 6.661338147750939e-17 0.0 -1.1135163644116068 
vertex 0.26286555605956674 0.8090169943749475 -1.1135163644116068 
vertex 0.85065080835204 3.3306690738754695e-17 -1.1135163644116068 
endloop
endfacet
facet normal 0.7236067977499789 -0.5257311121191336 -0.447213595499958 
outer loop
vertex 0.8057480106940815 -0.5854101966249685 -0.4979796569765561 
vertex 0.42532540417602 -1.3090169943749475 -0.26286555605956685 
vertex 0.2628655560595669 -0.8090169943749473 -1.1135163644116068 
endloop
endfacet
facet normal 0.7236067977499789 -0.5257311121191336 -0.447213595499958 
outer loop
vertex 0.8057480106940815 -0.5854101966249685 -0.4979796569765561 
vertex 0.2628655560595669 -0.8090169943749473 -1.1135163644116068 
vertex 0.85065080835204 3.3306690738754695e-17 -1.1135163644116068 
endloop
endfacet
facet normal 0.7236067977499789 -0.5257311121191336 -0.447213595499958 
outer loop
vertex 0.8057480106940815 -0.5854101966249685 -0.4979796569765561 
vertex 0.85065080835204 3.3306690738754695e-17 -1.1135163644116068 
vertex 1.3763819204711738 1.1002121498571744e-16 -0.26286555605956685 
endloop
endfacet
facet normal 0.7236067977499789 -0.5257311121191337 -0.4472135954999579 
outer loop
vertex 0.8057480106940815 -0.5854101966249685 -0.4979796569765561 
vertex 1.3763819204711738 1.1002121498571744e-16 -0.26286555605956685 
vertex 1.113516364411607 -0.8090169943749472 0.26286555605956696 
endloop
endfacet
facet normal 0.7236067977499788 -0.5257311121191338 -0.4472135954999578 
outer loop
vertex 0.8057480106940815 -0.5854101966249685 -0.4979796569765561 
vertex 1.113516364411607 -0.8090169943749472 0.26286555605956696 
vertex 0.42532540417602 -1.3090169943749475 -0.26286555605956685 
endloop
endfacet
facet normal -0.2763932022500211 -0.85065080835204 -0.44721359549995776 
outer loop
vertex -0.30776835371752503 -0.947213595499958 -0.4979796569765561 
vertex -1.1135163644116062 -0.8090169943749475 -0.26286555605956685 
vertex -0.6881909602355866 -0.5000000000000001 -1.1135163644116068 
endloop
endfacet
facet normal -0.27639320225002095 -0.8506508083520401 -0.4472135954999579 
outer loop
vertex -0.30776835371752503 -0.947213595499958 -0.4979796569765561 
vertex -0.6881909602355866 -0.5000000000000001 -1.1135163644116068 
vertex 0.2628655560595669 -0.8090169943749473 -1.1135163644116068 
endloop
endfacet
facet normal -0.27639320225002106 -0.85065080835204 -0.44721359549995804 
outer loop
vertex -0.30776835371752503 -0.947213595499958 -0.4979796569765561 
vertex 0.2628655560595669 -0.8090169943749473 -1.1135163644116068 
vertex 0.42532540417602 -1.3090169943749475 -0.26286555605956685 
endloop
endfacet
facet normal -0.27639320225002134 -0.8506508083520401 -0.4472135954999575 
outer loop
vertex -0.30776835371752503 -0.947213595499958 -0.4979796569765561 
vertex 0.42532540417602 -1.3090169943749475 -0.26286555605956685 
vertex -0.4253254041760194 -1.3090169943749472 0.2628655560595672 
endloop
endfacet
facet normal -0.27639320225002106 -0.8506508083520403 -0.4472135954999574 
outer loop
vertex -0.30776835371752503 -0.947213595499958 -0.4979796569765561 
vertex -0.4253254041760194 -1.3090169943749472 0.2628655560595672 
vertex -1.1135163644116062 -0.8090169943749475 -0.26286555605956685 
endloop
endfacet
facet normal -0.894427190999916 -1.6132484859218386e-16 -0.4472135954999578 
outer loop
vertex -0.9959593139531119 -1.4876988529977099e-16 -0.4979796569765561 
vertex -1.1135163644116066 0.8090169943749472 -0.26286555605956685 
vertex -0.6881909602355867 0.49999999999999994 -1.1135163644116068 
endloop
endfacet
facet normal -0.894427190999916 -9.930136612989093e-17 -0.4472135954999578 
outer loop
vertex -0.9959593139531119 -1.4876988529977099e-16 -0.4979796569765561 
vertex -0.6881909602355867 0.49999999999999994 -1.1135163644116068 
vertex -0.6881909602355866 -0.5000000000000001 -1.1135163644116068 
endloop
endfacet
facet normal -0.8944271909999161 -3.226496971843678e-16 -0.4472135954999577 
outer loop
vertex -0.9959593139531119 -1.4876988529977099e-16 -0.4979796569765561 
vertex -0.6881909602355866 -0.5000000000000001 -1.1135163644116068 
vertex -1.1135163644116062 -0.8090169943749475 -0.26286555605956685 
endloop
endfacet
facet normal -0.8944271909999161 -2.722356819993103e-16 -0.44721359549995765 
outer loop
vertex -0.9959593139531119 -1.4876988529977099e-16 -0.4979796569765561 
vertex -1.1135163644116062 -0.8090169943749475 -0.26286555605956685 
vertex -1.3763819204711731 -4.1078251911130794e-16 0.26286555605956696 
endloop
endfacet
facet normal -0.8944271909999161 -2.0165606074022978e-16 -0.4472135954999577 
outer loop
vertex -0.9959593139531119 -1.4876988529977099e-16 -0.4979796569765561 
vertex -1.3763819204711731 -4.1078251911130794e-16 0.26286555605956696 
vertex -1.1135163644116066 0.8090169943749472 -0.26286555605956685 
endloop
endfacet
facet normal -0.276393202250021 0.8506508083520399 -0.44721359549995787 
outer loop
vertex -0.3077683537175254 0.947213595499958 -0.4979796569765561 
vertex 0.4253254041760198 1.3090169943749475 -0.26286555605956685 
vertex 0.26286555605956674 0.8090169943749475 -1.1135163644116068 
endloop
endfacet
facet normal -0.2763932022500211 0.8506508083520399 -0.44721359549995804 
outer loop
vertex -0.3077683537175254 0.947213595499958 -0.4979796569765561 
vertex 0.26286555605956674 0.8090169943749475 -1.1135163644116068 
vertex -0.6881909602355867 0.49999999999999994 -1.1135163644116068 
endloop
endfacet
facet normal -0.27639320225002134 0.85065080835204 -0.4472135954999579 
outer loop
vertex -0.3077683537175254 0.947213595499958 -0.4979796569765561 
vertex -0.6881909602355867 0.49999999999999994 -1.1135163644116068 
vertex -1.1135163644116066 0.8090169943749472 -0.26286555605956685 
endloop
endfacet
facet normal -0.2763932022500213 0.85065080835204 -0.44721359549995776 
outer loop
vertex -0.3077683537175254 0.947213595499958 -0.4979796569765561 
vertex -1.1135163644116066 0.8090169943749472 -0.26286555605956685 
vertex -0.42532540417602027 1.3090169943749472 0.26286555605956674 
endloop
endfacet
facet normal -0.2763932022500211 0.85065080835204 -0.4472135954999578 
outer loop
vertex -0.3077683537175254 0.947213595499958 -0.4979796569765561 
vertex -0.42532540417602027 1.3090169943749472 0.26286555605956674 
vertex 0.4253254041760198 1.3090169943749475 -0.26286555605956685 
endloop
endfacet
facet normal 0.7236067977499787 0.5257311121191338 -0.447213595499958 
outer loop
vertex 0.8057480106940813 0.5854101966249685 -0.4979796569765561 
vertex 1.3763819204711738 1.1002121498571744e-16 -0.26286555605956685 
vertex 0.85065080835204 3.3306690738754695e-17 -1.1135163644116068 
endloop
endfacet
facet normal 0.7236067977499789 0.5257311121191336 -0.44721359549995787 
outer loop
vertex 0.8057480106940813 0.5854101966249685 -0.4979796569765561 
vertex 0.85065080835204 3.3306690738754695e-17 -1.1135163644116068 
vertex 0.26286555605956674 0.8090169943749475 -1.1135163644116068 
endloop
endfacet
facet normal 0.7236067977499789 0.5257311121191336 -0.4472135954999578 
outer loop
vertex 0.8057480106940813 0.5854101966249685 -0.4979796569765561 
vertex 0.26286555605956674 0.8090169943749475 -1.1135163644116068 
vertex 0.4253254041760198 1.3090169943749475 -0.26286555605956685 
endloop
endfacet
facet normal 0.7236067977499789 0.5257311121191336 -0.44721359549995765 
outer loop
vertex 0.8057480106940813 0.5854101966249685 -0.4979796569765561 
vertex 0.4253254041760198 1.3090169943749475 -0.26286555605956685 
vertex 1.1135163644116064 0.8090169943749475 0.26286555605956696 
endloop
endfacet
facet normal 0.7236067977499788 0.525731112119134 -0.44721359549995765 
outer loop
vertex 0.8057480106940813 0.5854101966249685 -0.4979796569765561 
vertex 1.1135163644116064 0.8090169943749475 0.26286555605956696 
vertex 1.3763819204711738 1.1002121498571744e-16 -0.26286555605956685 
endloop
endfacet
facet normal 0.2763932022500212 -0.8506508083520399 0.4472135954999577 
outer loop
vertex 0.30776835371752503 -0.947213595499958 0.4979796569765565 
vertex 0.42532540417602 -1.3090169943749475 -0.26286555605956685 
vertex 1.113516364411607 -0.8090169943749472 0.26286555605956696 
endloop
endfacet
facet normal 0.2763932022500213 -0.8506508083520398 0.4472135954999581 
outer loop
vertex 0.30776835371752503 -0.947213595499958 0.4979796569765565 
vertex 1.113516364411607 -0.8090169943749472 0.26286555605956696 
vertex 0.6881909602355857 -0.49999999999999967 1.1135163644116077 
endloop
endfacet
facet normal 0.2763932022500211 -0.8506508083520398 0.4472135954999582 
outer loop
vertex 0.30776835371752503 -0.947213595499958 0.4979796569765565 
vertex 0.6881909602355857 -0.49999999999999967 1.1135163644116077 
vertex -0.26286555605956835 -0.8090169943749477 1.1135163644116073 
endloop
endfacet
facet normal 0.276393202250021 -0.8506508083520398 0.44721359549995804 
outer loop
vertex 0.30776835371752503 -0.947213595499958 0.4979796569765565 
vertex -0.26286555605956835 -0.8090169943749477 1.1135163644116073 
vertex -0.4253254041760194 -1.3090169943749472 0.2628655560595672 
endloop
endfacet
facet normal 0.2763932022500211 -0.8506508083520399 0.44721359549995787 
outer loop
vertex 0.30776835371752503 -0.947213595499958 0.4979796569765565 
vertex -0.4253254041760194 -1.3090169943749472 0.2628655560595672 
vertex 0.42532540417602 -1.3090169943749475 -0.26286555605956685 
endloop
endfacet
facet normal -0.7236067977499789 -0.5257311121191339 0.44721359549995743 
outer loop
vertex -0.8057480106940813 -0.5854101966249685 0.49797965697655633 
vertex -1.1135163644116062 -0.8090169943749475 -0.26286555605956685 
vertex -0.4253254041760194 -1.3090169943749472 0.2628655560595672 
endloop
endfacet
facet normal -0.7236067977499797 -0.525731112119134 0.44721359549995615 
outer loop
vertex -0.8057480106940813 -0.5854101966249685 0.49797965697655633 
vertex -0.4253254041760194 -1.3090169943749472 0.2628655560595672 
vertex -0.26286555605956835 -0.8090169943749477 1.1135163644116073 
endloop
endfacet
facet normal -0.7236067977499803 -0.525731112119132 0.44721359549995754 
outer loop
vertex -0.8057480106940813 -0.5854101966249685 0.49797965697655633 
vertex -0.26286555605956835 -0.8090169943749477 1.1135163644116073 
vertex -0.8506508083520395 5.329070518200751e-16 1.1135163644116068 
endloop
endfacet
facet normal -0.7236067977499789 -0.5257311121191331 0.44721359549995854 
outer loop
vertex -0.8057480106940813 -0.5854101966249685 0.49797965697655633 
vertex -0.8506508083520395 5.329070518200751e-16 1.1135163644116068 
vertex -1.3763819204711731 -4.1078251911130794e-16 0.26286555605956696 
endloop
endfacet
facet normal -0.7236067977499792 -0.5257311121191338 0.44721359549995743 
outer loop
vertex -0.8057480106940813 -0.5854101966249685 0.49797965697655633 
vertex -1.3763819204711731 -4.1078251911130794e-16 0.26286555605956696 
vertex -1.1135163644116062 -0.8090169943749475 -0.26286555605956685 
endloop
endfacet
facet normal -0.723606797749979 0.5257311121191334 0.44721359549995787 
outer loop
vertex -0.8057480106940812 0.5854101966249685 0.49797965697655594 
vertex -1.1135163644116066 0.8090169943749472 -0.26286555605956685 
vertex -1.3763819204711731 -4.1078251911130794e-16 0.26286555605956696 
endloop
endfacet
facet normal -0.7236067977499792 0.5257311121191336 0.4472135954999575 
outer loop
vertex -0.8057480106940812 0.5854101966249685 0.49797965697655594 
vertex -1.3763819204711731 -4.1078251911130794e-16 0.26286555605956696 
vertex -0.8506508083520395 5.329070518200751e-16 1.1135163644116068 
endloop
endfacet
facet normal -0.7236067977499785 0.5257311121191341 0.4472135954999581 
outer loop
vertex -0.8057480106940812 0.5854101966249685 0.49797965697655594 
vertex -0.8506508083520395 5.329070518200751e-16 1.1135163644116068 
vertex -0.2628655560595662 0.8090169943749475 1.1135163644116064 
endloop
endfacet
facet normal -0.7236067977499788 0.5257311121191334 0.4472135954999586 
outer loop
vertex -0.8057480106940812 0.5854101966249685 0.49797965697655594 
vertex -0.2628655560595662 0.8090169943749475 1.1135163644116064 
vertex -0.42532540417602027 1.3090169943749472 0.26286555605956674 
endloop
endfacet
facet normal -0.7236067977499792 0.5257311121191334 0.44721359549995787 
outer loop
vertex -0.8057480106940812 0.5854101966249685 0.49797965697655594 
vertex -0.42532540417602027 1.3090169943749472 0.26286555605956674 
vertex -1.1135163644116066 0.8090169943749472 -0.26286555605956685 
endloop
endfacet
facet normal 0.2763932022500207 0.85065080835204 0.4472135954999578 
outer loop
vertex 0.30776835371752526 0.947213595499958 0.49797965697655605 
vertex 0.4253254041760198 1.3090169943749475 -0.26286555605956685 
vertex -0.42532540417602027 1.3090169943749472 0.26286555605956674 
endloop
endfacet
facet normal 0.2763932022500208 0.8506508083520401 0.4472135954999577 
outer loop
vertex 0.30776835371752526 0.947213595499958 0.49797965697655605 
vertex -0.42532540417602027 1.3090169943749472 0.26286555605956674 
vertex -0.2628655560595662 0.8090169943749475 1.1135163644116064 
endloop
endfacet
facet normal 0.27639320225002134 0.8506508083520398 0.4472135954999581 
outer loop
vertex 0.30776835371752526 0.947213595499958 0.49797965697655605 
vertex -0.2628655560595662 0.8090169943749475 1.1135163644116064 
vertex 0.6881909602355866 0.4999999999999996 1.1135163644116068 
endloop
endfacet
facet normal 0.27639320225002106 0.8506508083520397 0.44721359549995826 
outer loop
vertex 0.30776835371752526 0.947213595499958 0.49797965697655605 
vertex 0.6881909602355866 0.4999999999999996 1.1135163644116068 
vertex 1.1135163644116064 0.8090169943749475 0.26286555605956696 
endloop
endfacet
facet normal 0.27639320225002106 0.85065080835204 0.44721359549995787 
outer loop
vertex 0.30776835371752526 0.947213595499958 0.49797965697655605 
vertex 1.1135163644116064 0.8090169943749475 0.26286555605956696 
vertex 0.4253254041760198 1.3090169943749475 -0.26286555605956685 
endloop
endfacet
facet normal 0.8944271909999159 2.823184850363216e-16 0.4472135954999583 
outer loop
vertex 0.9959593139531119 6.661338147750939e-17 0.49797965697655633 
vertex 1.3763819204711738 1.1002121498571744e-16 -0.26286555605956685 
vertex 1.1135163644116064 0.8090169943749475 0.26286555605956696 
endloop
endfacet
facet normal 0.8944271909999159 1.8149045466620693e-16 0.4472135954999579 
outer loop
vertex 0.9959593139531119 6.661338147750939e-17 0.49797965697655633 
vertex 1.1135163644116064 0.8090169943749475 0.26286555605956696 
vertex 0.6881909602355866 0.4999999999999996 1.1135163644116068 
endloop
endfacet
facet normal 0.8944271909999157 -3.9720546451956357e-16 0.44721359549995826 
outer loop
vertex 0.9959593139531119 6.661338147750939e-17 0.49797965697655633 
vertex 0.6881909602355866 0.4999999999999996 1.1135163644116068 
vertex 0.6881909602355857 -0.49999999999999967 1.1135163644116077 
endloop
endfacet
facet normal 0.8944271909999155 2.419872728882755e-16 0.44721359549995876 
outer loop
vertex 0.9959593139531119 6.661338147750939e-17 0.49797965697655633 
vertex 0.6881909602355857 -0.49999999999999967 1.1135163644116077 
vertex 1.113516364411607 -0.8090169943749472 0.26286555605956696 
endloop
endfacet
facet normal 0.8944271909999159 4.4364333362850545e-16 0.4472135954999583 
outer loop
vertex 0.9959593139531119 6.661338147750939e-17 0.49797965697655633 
vertex 1.113516364411607 -0.8090169943749472 0.26286555605956696 
vertex 1.3763819204711738 1.1002121498571744e-16 -0.26286555605956685 
endloop
endfacet
facet normal -2.610290882520841e-16 3.592757177872432e-16 1.0 
outer loop
vertex -3.774758283725532e-16 4.4408920985006264e-17 1.113516364411607 
vertex -0.8506508083520395 5.329070518200751e-16 1.1135163644116068 
vertex -0.26286555605956835 -0.8090169943749477 1.1135163644116073 
endloop
endfacet
facet normal -6.217624161640686e-16 4.764850811134911e-16 1.0 
outer loop
vertex -3.774758283725532e-16 4.4408920985006264e-17 1.113516364411607 
vertex -0.26286555605956835 -0.8090169943749477 1.1135163644116073 
vertex 0.6881909602355857 -0.49999999999999967 1.1135163644116077 
endloop
endfacet
facet normal -3.2264969718436786e-16 8.88178419700126e-16 1.0 
outer loop
vertex -3.774758283725532e-16 4.4408920985006264e-17 1.113516364411607 
vertex 0.6881909602355857 -0.49999999999999967 1.1135163644116077 
vertex 0.6881909602355866 0.4999999999999996 1.1135163644116068 
endloop
endfacet
facet normal -2.229454575244672e-16 7.50947306837914e-16 1.0 
outer loop
vertex -3.774758283725532e-16 4.4408920985006264e-17 1.113516364411607 
vertex 0.6881909602355866 0.4999999999999996 1.1135163644116068 
vertex -0.2628655560595662 0.8090169943749475 1.1135163644116064 
endloop
endfacet
facet normal -2.610290882520838e-16 7.385731851104506e-16 1.0 
outer loop
vertex -3.774758283725532e-16 4.4408920985006264e-17 1.113516364411607 
vertex -0.2628655560595662 0.8090169943749475 1.1135163644116064 
vertex -0.8506508083520395 5.329070518200751e-16 1.1135163644116068 
endloop
endfacet
endsolid dodec-test
