solid smooth_test
facet normal 0.2247546138235924 -0.22451152056854198 -0.9481982602267361 
outer loop
vertex 0.5000000000000001 0.4999999999999999 0.125 
vertex -0.026622672763841993 0.026622672763841993 0.11225771559163777 
vertex 0.023858208596628832 0.9761417914033711 -0.10060090122416672 
endloop
endfacet
facet normal 0.22451152056854198 -0.22475461382359244 -0.9481982602267361 
outer loop
vertex 0.5000000000000001 0.4999999999999999 0.125 
vertex 0.023858208596628832 0.9761417914033711 -0.10060090122416672 
vertex 0.9733773272361581 1.026622672763842 0.1122577155916378 
endloop
endfacet
facet normal 0.224730153244934 -0.2249487738092431 -0.9481004205168494 
outer loop
vertex 0.5000000000000001 0.4999999999999999 0.125 
vertex 0.9733773272361581 1.026622672763842 0.1122577155916378 
vertex 1.0293871369310554 -0.029387136931055165 0.37608547004089116 
endloop
endfacet
facet normal 0.22494877380924322 -0.22473015324493406 -0.9481004205168494 
outer loop
vertex 0.5000000000000001 0.4999999999999999 0.125 
vertex 1.0293871369310554 -0.029387136931055165 0.37608547004089116 
vertex -0.026622672763841993 0.026622672763841993 0.11225771559163777 
endloop
endfacet
endsolid smooth_test
