solid smooth-test
facet normal 5.0075887761036454e-05 -0.39422914935154435 -0.9190121736375221 
outer loop
vertex -8.326672684688674e-17 -0.5656848337445304 -0.9086713470604832 
vertex 1.1011428314305904e-16 -3.053903336639767e-19 -1.1513334762524037 
vertex 0.6246253095513139 -0.6246253095513141 -0.8833535841689608 
endloop
endfacet
facet normal 6.326146616395316e-05 -0.39411115265079394 -0.9190627809645268 
outer loop
vertex -8.326672684688674e-17 -0.5656848337445304 -0.9086713470604832 
vertex 0.6246253095513139 -0.6246253095513141 -0.8833535841689608 
vertex -1.109703511084174e-16 -1.013488715875493 -0.7166447436516071 
endloop
endfacet
facet normal -6.326146616362824e-05 -0.39411115265079383 -0.9190627809645265 
outer loop
vertex -8.326672684688674e-17 -0.5656848337445304 -0.9086713470604832 
vertex -1.109703511084174e-16 -1.013488715875493 -0.7166447436516071 
vertex -0.6246253095513142 -0.6246253095513141 -0.883353584168961 
endloop
endfacet
facet normal -5.007588776071159e-05 -0.3942291493515444 -0.9190121736375221 
outer loop
vertex -8.326672684688674e-17 -0.5656848337445304 -0.9086713470604832 
vertex -0.6246253095513142 -0.6246253095513141 -0.883353584168961 
vertex 1.1011428314305904e-16 -3.053903336639767e-19 -1.1513334762524037 
endloop
endfacet
facet normal -0.39411115265079383 -6.326146616355984e-05 -0.9190627809645265 
outer loop
vertex -0.5656848337445304 -2.7831923199044906e-17 -0.9086713470604832 
vertex -0.6246253095513142 -0.6246253095513141 -0.883353584168961 
vertex -1.013488715875493 1.0390496695105352e-16 -0.7166447436516071 
endloop
endfacet
facet normal -0.3941111526507939 6.326146616412986e-05 -0.9190627809645268 
outer loop
vertex -0.5656848337445304 -2.7831923199044906e-17 -0.9086713470604832 
vertex -1.013488715875493 1.0390496695105352e-16 -0.7166447436516071 
vertex -0.6246253095513141 0.6246253095513139 -0.8833535841689607 
endloop
endfacet
facet normal -0.39422914935154424 5.0075887761207893e-05 -0.9190121736375221 
outer loop
vertex -0.5656848337445304 -2.7831923199044906e-17 -0.9086713470604832 
vertex -0.6246253095513141 0.6246253095513139 -0.8833535841689607 
vertex 1.1011428314305904e-16 -3.053903336639767e-19 -1.1513334762524037 
endloop
endfacet
facet normal -0.3942291493515443 -5.007588776067548e-05 -0.9190121736375222 
outer loop
vertex -0.5656848337445304 -2.7831923199044906e-17 -0.9086713470604832 
vertex 1.1011428314305904e-16 -3.053903336639767e-19 -1.1513334762524037 
vertex -0.6246253095513142 -0.6246253095513141 -0.883353584168961 
endloop
endfacet
facet normal -6.326146616381637e-05 0.3941111526507936 -0.9190627809645266 
outer loop
vertex 5.5284146401393675e-17 0.5656848337445302 -0.908671347060483 
vertex -0.6246253095513141 0.6246253095513139 -0.8833535841689607 
vertex 1.461301240603119e-16 1.0134887158754926 -0.7166447436516071 
endloop
endfacet
facet normal 6.326146616367387e-05 0.3941111526507936 -0.9190627809645266 
outer loop
vertex 5.5284146401393675e-17 0.5656848337445302 -0.908671347060483 
vertex 1.461301240603119e-16 1.0134887158754926 -0.7166447436516071 
vertex 0.6246253095513141 0.6246253095513139 -0.8833535841689608 
endloop
endfacet
facet normal 5.007588776065745e-05 0.39422914935154474 -0.919012173637522 
outer loop
vertex 5.5284146401393675e-17 0.5656848337445302 -0.908671347060483 
vertex 0.6246253095513141 0.6246253095513139 -0.8833535841689608 
vertex 1.1011428314305904e-16 -3.053903336639767e-19 -1.1513334762524037 
endloop
endfacet
facet normal -5.0075887760819885e-05 0.3942291493515448 -0.919012173637522 
outer loop
vertex 5.5284146401393675e-17 0.5656848337445302 -0.908671347060483 
vertex 1.1011428314305904e-16 -3.053903336639767e-19 -1.1513334762524037 
vertex -0.6246253095513141 0.6246253095513139 -0.8833535841689607 
endloop
endfacet
facet normal 0.3942291493515446 5.00758877607477e-05 -0.919012173637522 
outer loop
vertex 0.5656848337445303 -5.551115123125783e-17 -0.9086713470604831 
vertex 1.1011428314305904e-16 -3.053903336639767e-19 -1.1513334762524037 
vertex 0.6246253095513141 0.6246253095513139 -0.8833535841689608 
endloop
endfacet
facet normal 0.3941111526507936 6.326146616375934e-05 -0.9190627809645268 
outer loop
vertex 0.5656848337445303 -5.551115123125783e-17 -0.9086713470604831 
vertex 0.6246253095513141 0.6246253095513139 -0.8833535841689608 
vertex 1.013488715875493 7.634590297918761e-18 -0.7166447436516071 
endloop
endfacet
facet normal 0.3941111526507935 -6.326146616390182e-05 -0.9190627809645268 
outer loop
vertex 0.5656848337445303 -5.551115123125783e-17 -0.9086713470604831 
vertex 1.013488715875493 7.634590297918761e-18 -0.7166447436516071 
vertex 0.6246253095513139 -0.6246253095513141 -0.8833535841689608 
endloop
endfacet
facet normal 0.3942291493515446 -5.0075887760910124e-05 -0.9190121736375221 
outer loop
vertex 0.5656848337445303 -5.551115123125783e-17 -0.9086713470604831 
vertex 0.6246253095513139 -0.6246253095513141 -0.8833535841689608 
vertex 1.1011428314305904e-16 -3.053903336639767e-19 -1.1513334762524037 
endloop
endfacet
facet normal 0.39422914935154457 5.0075887760846956e-05 0.9190121736375221 
outer loop
vertex 0.5656848337445304 -6.152621453402636e-17 0.9086713470604831 
vertex 0.6246253095513141 0.6246253095513139 0.8833535841689608 
vertex 1.0982351240018412e-16 -5.421010862427522e-20 1.1513334762524037 
endloop
endfacet
facet normal 0.3942291493515446 -5.007588776045894e-05 0.9190121736375221 
outer loop
vertex 0.5656848337445304 -6.152621453402636e-17 0.9086713470604831 
vertex 1.0982351240018412e-16 -5.421010862427522e-20 1.1513334762524037 
vertex 0.6246253095513141 -0.6246253095513141 0.883353584168961 
endloop
endfacet
facet normal 0.3941111526507937 -6.326146616349146e-05 0.9190627809645268 
outer loop
vertex 0.5656848337445304 -6.152621453402636e-17 0.9086713470604831 
vertex 0.6246253095513141 -0.6246253095513141 0.883353584168961 
vertex 1.013488715875493 -2.406025321107415e-17 0.7166447436516071 
endloop
endfacet
facet normal 0.3941111526507937 6.326146616381067e-05 0.9190627809645269 
outer loop
vertex 0.5656848337445304 -6.152621453402636e-17 0.9086713470604831 
vertex 1.013488715875493 -2.406025321107415e-17 0.7166447436516071 
vertex 0.6246253095513141 0.6246253095513139 0.8833535841689608 
endloop
endfacet
facet normal -6.32614661636739e-05 0.3941111526507937 0.9190627809645269 
outer loop
vertex 1.1102230246251565e-16 0.5656848337445302 0.908671347060483 
vertex 9.58638008384527e-17 1.0134887158754926 0.7166447436516071 
vertex -0.6246253095513139 0.6246253095513139 0.8833535841689608 
endloop
endfacet
facet normal -5.0075887760657464e-05 0.3942291493515448 0.919012173637522 
outer loop
vertex 1.1102230246251565e-16 0.5656848337445302 0.908671347060483 
vertex -0.6246253095513139 0.6246253095513139 0.8833535841689608 
vertex 1.0982351240018412e-16 -5.421010862427522e-20 1.1513334762524037 
endloop
endfacet
facet normal 5.007588776067551e-05 0.3942291493515448 0.919012173637522 
outer loop
vertex 1.1102230246251565e-16 0.5656848337445302 0.908671347060483 
vertex 1.0982351240018412e-16 -5.421010862427522e-20 1.1513334762524037 
vertex 0.6246253095513141 0.6246253095513139 0.8833535841689608 
endloop
endfacet
facet normal 6.32614661636511e-05 0.3941111526507937 0.9190627809645269 
outer loop
vertex 1.1102230246251565e-16 0.5656848337445302 0.908671347060483 
vertex 0.6246253095513141 0.6246253095513139 0.8833535841689608 
vertex 9.58638008384527e-17 1.0134887158754926 0.7166447436516071 
endloop
endfacet
facet normal -0.39422914935154457 -5.0075887760549186e-05 0.9190121736375221 
outer loop
vertex -0.5656848337445302 2.3046637117526508e-17 0.9086713470604831 
vertex -0.6246253095513141 -0.6246253095513139 0.8833535841689609 
vertex 1.0982351240018412e-16 -5.421010862427522e-20 1.1513334762524037 
endloop
endfacet
facet normal -0.3942291493515446 5.00758877608199e-05 0.9190121736375221 
outer loop
vertex -0.5656848337445302 2.3046637117526508e-17 0.9086713470604831 
vertex 1.0982351240018412e-16 -5.421010862427522e-20 1.1513334762524037 
vertex -0.6246253095513139 0.6246253095513139 0.8833535841689608 
endloop
endfacet
facet normal -0.39411115265079394 6.326146616379354e-05 0.9190627809645268 
outer loop
vertex -0.5656848337445302 2.3046637117526508e-17 0.9086713470604831 
vertex -0.6246253095513139 0.6246253095513139 0.8833535841689608 
vertex -1.013488715875493 9.218654847010603e-17 0.7166447436516069 
endloop
endfacet
facet normal -0.39411115265079383 -6.326146616349142e-05 0.9190627809645265 
outer loop
vertex -0.5656848337445302 2.3046637117526508e-17 0.9086713470604831 
vertex -1.013488715875493 9.218654847010603e-17 0.7166447436516069 
vertex -0.6246253095513141 -0.6246253095513139 0.8833535841689609 
endloop
endfacet
facet normal 6.326146616358263e-05 -0.3941111526507937 0.9190627809645268 
outer loop
vertex 2.7755575615628914e-17 -0.5656848337445303 0.9086713470604832 
vertex -1.4456028966473393e-17 -1.013488715875493 0.7166447436516071 
vertex 0.6246253095513141 -0.6246253095513141 0.883353584168961 
endloop
endfacet
facet normal 5.0075887760630386e-05 -0.39422914935154446 0.9190121736375221 
outer loop
vertex 2.7755575615628914e-17 -0.5656848337445303 0.9086713470604832 
vertex 0.6246253095513141 -0.6246253095513141 0.883353584168961 
vertex 1.0982351240018412e-16 -5.421010862427522e-20 1.1513334762524037 
endloop
endfacet
facet normal -5.007588776096425e-05 -0.3942291493515444 0.9190121736375221 
outer loop
vertex 2.7755575615628914e-17 -0.5656848337445303 0.9086713470604832 
vertex 1.0982351240018412e-16 -5.421010862427522e-20 1.1513334762524037 
vertex -0.6246253095513141 -0.6246253095513139 0.8833535841689609 
endloop
endfacet
facet normal -6.326146616387332e-05 -0.3941111526507938 0.9190627809645268 
outer loop
vertex 2.7755575615628914e-17 -0.5656848337445303 0.9086713470604832 
vertex -0.6246253095513141 -0.6246253095513139 0.8833535841689609 
vertex -1.4456028966473393e-17 -1.013488715875493 0.7166447436516071 
endloop
endfacet
facet normal -0.8469793525917336 -0.4527001273524277 -0.27872669584807164 
outer loop
vertex -0.9253700882486477 -0.35968525450411737 -0.39999958195514207 
vertex -0.8141157084651558 -0.8141157084651556 -1.3877787807814457e-17 
vertex -1.2492506191026278 9.71445146547012e-17 -1.3877787807814457e-17 
endloop
endfacet
facet normal -0.8469627318146625 -0.45278831769770445 -0.27863393596891045 
outer loop
vertex -0.9253700882486477 -0.35968525450411737 -0.39999958195514207 
vertex -1.2492506191026278 9.71445146547012e-17 -1.3877787807814457e-17 
vertex -1.013488715875493 1.0390496695105352e-16 -0.7166447436516071 
endloop
endfacet
facet normal -0.8468994703484987 -0.4528515791638682 -0.27872340119233485 
outer loop
vertex -0.9253700882486477 -0.35968525450411737 -0.39999958195514207 
vertex -1.013488715875493 1.0390496695105352e-16 -0.7166447436516071 
vertex -0.6246253095513142 -0.6246253095513141 -0.883353584168961 
endloop
endfacet
facet normal -0.8469292767039728 -0.4527502032401886 -0.2787975138476908 
outer loop
vertex -0.9253700882486477 -0.35968525450411737 -0.39999958195514207 
vertex -0.6246253095513142 -0.6246253095513141 -0.883353584168961 
vertex -0.8141157084651558 -0.8141157084651556 -1.3877787807814457e-17 
endloop
endfacet
facet normal -0.45285157916386837 -0.8468994703484986 -0.2787234011923348 
outer loop
vertex -0.3596852545041176 -0.9253700882486476 -0.39999958195514207 
vertex -0.6246253095513142 -0.6246253095513141 -0.883353584168961 
vertex -1.109703511084174e-16 -1.013488715875493 -0.7166447436516071 
endloop
endfacet
facet normal -0.4527883176977047 -0.8469627318146624 -0.2786339359689104 
outer loop
vertex -0.3596852545041176 -0.9253700882486476 -0.39999958195514207 
vertex -1.109703511084174e-16 -1.013488715875493 -0.7166447436516071 
vertex -1.1102230246251565e-16 -1.2492506191026278 0.0 
endloop
endfacet
facet normal -0.4527001273524279 -0.8469793525917335 -0.2787266958480715 
outer loop
vertex -0.3596852545041176 -0.9253700882486476 -0.39999958195514207 
vertex -1.1102230246251565e-16 -1.2492506191026278 0.0 
vertex -0.8141157084651558 -0.8141157084651556 -1.3877787807814457e-17 
endloop
endfacet
facet normal -0.4527502032401888 -0.8469292767039728 -0.2787975138476908 
outer loop
vertex -0.3596852545041176 -0.9253700882486476 -0.39999958195514207 
vertex -0.8141157084651558 -0.8141157084651556 -1.3877787807814457e-17 
vertex -0.6246253095513142 -0.6246253095513141 -0.883353584168961 
endloop
endfacet
facet normal -0.4527883176977049 -0.8469627318146622 0.2786339359689104 
outer loop
vertex -0.3596852545041175 -0.9253700882486475 0.399999581955142 
vertex -1.1102230246251565e-16 -1.2492506191026278 0.0 
vertex -1.4456028966473393e-17 -1.013488715875493 0.7166447436516071 
endloop
endfacet
facet normal -0.45285157916386864 -0.8468994703484983 0.27872340119233474 
outer loop
vertex -0.3596852545041175 -0.9253700882486475 0.399999581955142 
vertex -1.4456028966473393e-17 -1.013488715875493 0.7166447436516071 
vertex -0.6246253095513141 -0.6246253095513139 0.8833535841689609 
endloop
endfacet
facet normal -0.4527502032401886 -0.8469292767039728 0.2787975138476911 
outer loop
vertex -0.3596852545041175 -0.9253700882486475 0.399999581955142 
vertex -0.6246253095513141 -0.6246253095513139 0.8833535841689609 
vertex -0.8141157084651558 -0.8141157084651556 -1.3877787807814457e-17 
endloop
endfacet
facet normal -0.45270012735242793 -0.8469793525917335 0.27872669584807197 
outer loop
vertex -0.3596852545041175 -0.9253700882486475 0.399999581955142 
vertex -0.8141157084651558 -0.8141157084651556 -1.3877787807814457e-17 
vertex -1.1102230246251565e-16 -1.2492506191026278 0.0 
endloop
endfacet
facet normal -0.8469292767039728 -0.4527502032401887 0.27879751384769114 
outer loop
vertex -0.9253700882486477 -0.35968525450411737 0.39999958195514196 
vertex -0.8141157084651558 -0.8141157084651556 -1.3877787807814457e-17 
vertex -0.6246253095513141 -0.6246253095513139 0.8833535841689609 
endloop
endfacet
facet normal -0.8468994703484984 -0.45285157916386837 0.2787234011923351 
outer loop
vertex -0.9253700882486477 -0.35968525450411737 0.39999958195514196 
vertex -0.6246253095513141 -0.6246253095513139 0.8833535841689609 
vertex -1.013488715875493 9.218654847010603e-17 0.7166447436516069 
endloop
endfacet
facet normal -0.8469627318146625 -0.45278831769770445 0.27863393596891056 
outer loop
vertex -0.9253700882486477 -0.35968525450411737 0.39999958195514196 
vertex -1.013488715875493 9.218654847010603e-17 0.7166447436516069 
vertex -1.2492506191026278 9.71445146547012e-17 -1.3877787807814457e-17 
endloop
endfacet
facet normal -0.8469793525917336 -0.45270012735242776 0.2787266958480717 
outer loop
vertex -0.9253700882486477 -0.35968525450411737 0.39999958195514196 
vertex -1.2492506191026278 9.71445146547012e-17 -1.3877787807814457e-17 
vertex -0.8141157084651558 -0.8141157084651556 -1.3877787807814457e-17 
endloop
endfacet
facet normal -0.45285157916386815 0.8468994703484987 -0.27872340119233496 
outer loop
vertex -0.3596852545041173 0.9253700882486474 -0.39999958195514196 
vertex 1.461301240603119e-16 1.0134887158754926 -0.7166447436516071 
vertex -0.6246253095513141 0.6246253095513139 -0.8833535841689607 
endloop
endfacet
facet normal -0.45275020324018866 0.8469292767039728 -0.2787975138476908 
outer loop
vertex -0.3596852545041173 0.9253700882486474 -0.39999958195514196 
vertex -0.6246253095513141 0.6246253095513139 -0.8833535841689607 
vertex -0.8141157084651554 0.8141157084651555 0.0 
endloop
endfacet
facet normal -0.452700127352428 0.8469793525917334 -0.2787266958480719 
outer loop
vertex -0.3596852545041173 0.9253700882486474 -0.39999958195514196 
vertex -0.8141157084651554 0.8141157084651555 0.0 
vertex 1.6653345369377348e-16 1.2492506191026278 0.0 
endloop
endfacet
facet normal -0.45278831769770456 0.8469627318146622 -0.2786339359689109 
outer loop
vertex -0.3596852545041173 0.9253700882486474 -0.39999958195514196 
vertex 1.6653345369377348e-16 1.2492506191026278 0.0 
vertex 1.461301240603119e-16 1.0134887158754926 -0.7166447436516071 
endloop
endfacet
facet normal -0.8469793525917334 0.45270012735242826 -0.27872669584807175 
outer loop
vertex -0.9253700882486475 0.35968525450411737 -0.39999958195514196 
vertex -1.2492506191026278 9.71445146547012e-17 -1.3877787807814457e-17 
vertex -0.8141157084651554 0.8141157084651555 0.0 
endloop
endfacet
facet normal -0.8469292767039727 0.4527502032401889 -0.2787975138476907 
outer loop
vertex -0.9253700882486475 0.35968525450411737 -0.39999958195514196 
vertex -0.8141157084651554 0.8141157084651555 0.0 
vertex -0.6246253095513141 0.6246253095513139 -0.8833535841689607 
endloop
endfacet
facet normal -0.8468994703484984 0.45285157916386876 -0.2787234011923346 
outer loop
vertex -0.9253700882486475 0.35968525450411737 -0.39999958195514196 
vertex -0.6246253095513141 0.6246253095513139 -0.8833535841689607 
vertex -1.013488715875493 1.0390496695105352e-16 -0.7166447436516071 
endloop
endfacet
facet normal -0.8469627318146622 0.45278831769770506 -0.2786339359689103 
outer loop
vertex -0.9253700882486475 0.35968525450411737 -0.39999958195514196 
vertex -1.013488715875493 1.0390496695105352e-16 -0.7166447436516071 
vertex -1.2492506191026278 9.71445146547012e-17 -1.3877787807814457e-17 
endloop
endfacet
facet normal -0.8468994703484984 0.45285157916386887 0.27872340119233485 
outer loop
vertex -0.9253700882486475 0.35968525450411737 0.39999958195514196 
vertex -1.013488715875493 9.218654847010603e-17 0.7166447436516069 
vertex -0.6246253095513139 0.6246253095513139 0.8833535841689608 
endloop
endfacet
facet normal -0.8469292767039726 0.4527502032401889 0.27879751384769086 
outer loop
vertex -0.9253700882486475 0.35968525450411737 0.39999958195514196 
vertex -0.6246253095513139 0.6246253095513139 0.8833535841689608 
vertex -0.8141157084651554 0.8141157084651555 0.0 
endloop
endfacet
facet normal -0.8469793525917334 0.45270012735242826 0.2787266958480717 
outer loop
vertex -0.9253700882486475 0.35968525450411737 0.39999958195514196 
vertex -0.8141157084651554 0.8141157084651555 0.0 
vertex -1.2492506191026278 9.71445146547012e-17 -1.3877787807814457e-17 
endloop
endfacet
facet normal -0.8469627318146621 0.45278831769770506 0.2786339359689104 
outer loop
vertex -0.9253700882486475 0.35968525450411737 0.39999958195514196 
vertex -1.2492506191026278 9.71445146547012e-17 -1.3877787807814457e-17 
vertex -1.013488715875493 9.218654847010603e-17 0.7166447436516069 
endloop
endfacet
facet normal -0.45270012735242804 0.8469793525917335 0.27872669584807175 
outer loop
vertex -0.35968525450411726 0.9253700882486475 0.39999958195514196 
vertex 1.6653345369377348e-16 1.2492506191026278 0.0 
vertex -0.8141157084651554 0.8141157084651555 0.0 
endloop
endfacet
facet normal -0.4527502032401889 0.8469292767039728 0.27879751384769097 
outer loop
vertex -0.35968525450411726 0.9253700882486475 0.39999958195514196 
vertex -0.8141157084651554 0.8141157084651555 0.0 
vertex -0.6246253095513139 0.6246253095513139 0.8833535841689608 
endloop
endfacet
facet normal -0.45285157916386815 0.8468994703484987 0.2787234011923352 
outer loop
vertex -0.35968525450411726 0.9253700882486475 0.39999958195514196 
vertex -0.6246253095513139 0.6246253095513139 0.8833535841689608 
vertex 9.58638008384527e-17 1.0134887158754926 0.7166447436516071 
endloop
endfacet
facet normal -0.45278831769770445 0.8469627318146622 0.2786339359689109 
outer loop
vertex -0.35968525450411726 0.9253700882486475 0.39999958195514196 
vertex 9.58638008384527e-17 1.0134887158754926 0.7166447436516071 
vertex 1.6653345369377348e-16 1.2492506191026278 0.0 
endloop
endfacet
facet normal 0.8469292767039727 0.4527502032401888 -0.2787975138476909 
outer loop
vertex 0.9253700882486477 0.35968525450411737 -0.39999958195514196 
vertex 0.6246253095513141 0.6246253095513139 -0.8833535841689608 
vertex 0.8141157084651556 0.8141157084651557 0.0 
endloop
endfacet
facet normal 0.8469793525917333 0.4527001273524282 -0.278726695848072 
outer loop
vertex 0.9253700882486477 0.35968525450411737 -0.39999958195514196 
vertex 0.8141157084651556 0.8141157084651557 0.0 
vertex 1.2492506191026282 -1.3877787807814457e-17 -1.3877787807814457e-17 
endloop
endfacet
facet normal 0.8469627318146622 0.452788317697705 -0.27863393596891084 
outer loop
vertex 0.9253700882486477 0.35968525450411737 -0.39999958195514196 
vertex 1.2492506191026282 -1.3877787807814457e-17 -1.3877787807814457e-17 
vertex 1.013488715875493 7.634590297918761e-18 -0.7166447436516071 
endloop
endfacet
facet normal 0.8468994703484984 0.45285157916386853 -0.278723401192335 
outer loop
vertex 0.9253700882486477 0.35968525450411737 -0.39999958195514196 
vertex 1.013488715875493 7.634590297918761e-18 -0.7166447436516071 
vertex 0.6246253095513141 0.6246253095513139 -0.8833535841689608 
endloop
endfacet
facet normal 0.45285157916386826 0.8468994703484987 -0.27872340119233496 
outer loop
vertex 0.3596852545041175 0.9253700882486474 -0.39999958195514196 
vertex 0.6246253095513141 0.6246253095513139 -0.8833535841689608 
vertex 1.461301240603119e-16 1.0134887158754926 -0.7166447436516071 
endloop
endfacet
facet normal 0.4527883176977048 0.8469627318146622 -0.27863393596891084 
outer loop
vertex 0.3596852545041175 0.9253700882486474 -0.39999958195514196 
vertex 1.461301240603119e-16 1.0134887158754926 -0.7166447436516071 
vertex 1.6653345369377348e-16 1.2492506191026278 0.0 
endloop
endfacet
facet normal 0.45270012735242793 0.8469793525917334 -0.2787266958480723 
outer loop
vertex 0.3596852545041175 0.9253700882486474 -0.39999958195514196 
vertex 1.6653345369377348e-16 1.2492506191026278 0.0 
vertex 0.8141157084651556 0.8141157084651557 0.0 
endloop
endfacet
facet normal 0.45275020324018844 0.846929276703973 -0.2787975138476911 
outer loop
vertex 0.3596852545041175 0.9253700882486474 -0.39999958195514196 
vertex 0.8141157084651556 0.8141157084651557 0.0 
vertex 0.6246253095513141 0.6246253095513139 -0.8833535841689608 
endloop
endfacet
facet normal 0.45278831769770445 0.8469627318146623 0.27863393596891095 
outer loop
vertex 0.3596852545041175 0.9253700882486475 0.39999958195514196 
vertex 1.6653345369377348e-16 1.2492506191026278 0.0 
vertex 9.58638008384527e-17 1.0134887158754926 0.7166447436516071 
endloop
endfacet
facet normal 0.45285157916386815 0.8468994703484987 0.27872340119233524 
outer loop
vertex 0.3596852545041175 0.9253700882486475 0.39999958195514196 
vertex 9.58638008384527e-17 1.0134887158754926 0.7166447436516071 
vertex 0.6246253095513141 0.6246253095513139 0.8833535841689608 
endloop
endfacet
facet normal 0.4527502032401885 0.8469292767039728 0.27879751384769114 
outer loop
vertex 0.3596852545041175 0.9253700882486475 0.39999958195514196 
vertex 0.6246253095513141 0.6246253095513139 0.8833535841689608 
vertex 0.8141157084651556 0.8141157084651557 0.0 
endloop
endfacet
facet normal 0.45270012735242793 0.8469793525917334 0.2787266958480721 
outer loop
vertex 0.3596852545041175 0.9253700882486475 0.39999958195514196 
vertex 0.8141157084651556 0.8141157084651557 0.0 
vertex 1.6653345369377348e-16 1.2492506191026278 0.0 
endloop
endfacet
facet normal 0.8469292767039726 0.4527502032401889 0.27879751384769097 
outer loop
vertex 0.9253700882486477 0.35968525450411737 0.39999958195514196 
vertex 0.8141157084651556 0.8141157084651557 0.0 
vertex 0.6246253095513141 0.6246253095513139 0.8833535841689608 
endloop
endfacet
facet normal 0.8468994703484984 0.4528515791638684 0.27872340119233496 
outer loop
vertex 0.9253700882486477 0.35968525450411737 0.39999958195514196 
vertex 0.6246253095513141 0.6246253095513139 0.8833535841689608 
vertex 1.013488715875493 -2.406025321107415e-17 0.7166447436516071 
endloop
endfacet
facet normal 0.8469627318146622 0.452788317697705 0.2786339359689109 
outer loop
vertex 0.9253700882486477 0.35968525450411737 0.39999958195514196 
vertex 1.013488715875493 -2.406025321107415e-17 0.7166447436516071 
vertex 1.2492506191026282 -1.3877787807814457e-17 -1.3877787807814457e-17 
endloop
endfacet
facet normal 0.8469793525917333 0.4527001273524282 0.2787266958480719 
outer loop
vertex 0.9253700882486477 0.35968525450411737 0.39999958195514196 
vertex 1.2492506191026282 -1.3877787807814457e-17 -1.3877787807814457e-17 
vertex 0.8141157084651556 0.8141157084651557 0.0 
endloop
endfacet
facet normal 0.4527502032401886 -0.8469292767039729 -0.2787975138476908 
outer loop
vertex 0.35968525450411726 -0.9253700882486475 -0.39999958195514196 
vertex 0.6246253095513139 -0.6246253095513141 -0.8833535841689608 
vertex 0.8141157084651554 -0.8141157084651556 -1.3877787807814457e-17 
endloop
endfacet
facet normal 0.452700127352428 -0.8469793525917335 -0.27872669584807186 
outer loop
vertex 0.35968525450411726 -0.9253700882486475 -0.39999958195514196 
vertex 0.8141157084651554 -0.8141157084651556 -1.3877787807814457e-17 
vertex -1.1102230246251565e-16 -1.2492506191026278 0.0 
endloop
endfacet
facet normal 0.452788317697705 -0.8469627318146622 -0.27863393596891034 
outer loop
vertex 0.35968525450411726 -0.9253700882486475 -0.39999958195514196 
vertex -1.1102230246251565e-16 -1.2492506191026278 0.0 
vertex -1.109703511084174e-16 -1.013488715875493 -0.7166447436516071 
endloop
endfacet
facet normal 0.4528515791638687 -0.8468994703484987 -0.2787234011923346 
outer loop
vertex 0.35968525450411726 -0.9253700882486475 -0.39999958195514196 
vertex -1.109703511084174e-16 -1.013488715875493 -0.7166447436516071 
vertex 0.6246253095513139 -0.6246253095513141 -0.8833535841689608 
endloop
endfacet
facet normal 0.8469793525917332 -0.4527001273524285 -0.27872669584807175 
outer loop
vertex 0.9253700882486477 -0.3596852545041174 -0.39999958195514196 
vertex 1.2492506191026282 -1.3877787807814457e-17 -1.3877787807814457e-17 
vertex 0.8141157084651554 -0.8141157084651556 -1.3877787807814457e-17 
endloop
endfacet
facet normal 0.8469292767039726 -0.45275020324018933 -0.2787975138476909 
outer loop
vertex 0.9253700882486477 -0.3596852545041174 -0.39999958195514196 
vertex 0.8141157084651554 -0.8141157084651556 -1.3877787807814457e-17 
vertex 0.6246253095513139 -0.6246253095513141 -0.8833535841689608 
endloop
endfacet
facet normal 0.8468994703484983 -0.45285157916386853 -0.27872340119233513 
outer loop
vertex 0.9253700882486477 -0.3596852545041174 -0.39999958195514196 
vertex 0.6246253095513139 -0.6246253095513141 -0.8833535841689608 
vertex 1.013488715875493 7.634590297918761e-18 -0.7166447436516071 
endloop
endfacet
facet normal 0.8469627318146622 -0.4527883176977049 -0.2786339359689109 
outer loop
vertex 0.9253700882486477 -0.3596852545041174 -0.39999958195514196 
vertex 1.013488715875493 7.634590297918761e-18 -0.7166447436516071 
vertex 1.2492506191026282 -1.3877787807814457e-17 -1.3877787807814457e-17 
endloop
endfacet
facet normal 0.8468994703484987 -0.4528515791638684 0.2787234011923348 
outer loop
vertex 0.9253700882486476 -0.3596852545041174 0.39999958195514207 
vertex 1.013488715875493 -2.406025321107415e-17 0.7166447436516071 
vertex 0.6246253095513141 -0.6246253095513141 0.883353584168961 
endloop
endfacet
facet normal 0.8469292767039728 -0.45275020324018905 0.2787975138476906 
outer loop
vertex 0.9253700882486476 -0.3596852545041174 0.39999958195514207 
vertex 0.6246253095513141 -0.6246253095513141 0.883353584168961 
vertex 0.8141157084651554 -0.8141157084651556 -1.3877787807814457e-17 
endloop
endfacet
facet normal 0.8469793525917332 -0.4527001273524285 0.2787266958480718 
outer loop
vertex 0.9253700882486476 -0.3596852545041174 0.39999958195514207 
vertex 0.8141157084651554 -0.8141157084651556 -1.3877787807814457e-17 
vertex 1.2492506191026282 -1.3877787807814457e-17 -1.3877787807814457e-17 
endloop
endfacet
facet normal 0.8469627318146621 -0.452788317697705 0.27863393596891084 
outer loop
vertex 0.9253700882486476 -0.3596852545041174 0.39999958195514207 
vertex 1.2492506191026282 -1.3877787807814457e-17 -1.3877787807814457e-17 
vertex 1.013488715875493 -2.406025321107415e-17 0.7166447436516071 
endloop
endfacet
facet normal 0.452700127352428 -0.8469793525917335 0.27872669584807175 
outer loop
vertex 0.35968525450411737 -0.9253700882486475 0.39999958195514207 
vertex -1.1102230246251565e-16 -1.2492506191026278 0.0 
vertex 0.8141157084651554 -0.8141157084651556 -1.3877787807814457e-17 
endloop
endfacet
facet normal 0.4527502032401886 -0.8469292767039729 0.27879751384769064 
outer loop
vertex 0.35968525450411737 -0.9253700882486475 0.39999958195514207 
vertex 0.8141157084651554 -0.8141157084651556 -1.3877787807814457e-17 
vertex 0.6246253095513141 -0.6246253095513141 0.883353584168961 
endloop
endfacet
facet normal 0.45285157916386853 -0.8468994703484987 0.2787234011923344 
outer loop
vertex 0.35968525450411737 -0.9253700882486475 0.39999958195514207 
vertex 0.6246253095513141 -0.6246253095513141 0.883353584168961 
vertex -1.4456028966473393e-17 -1.013488715875493 0.7166447436516071 
endloop
endfacet
facet normal 0.4527883176977049 -0.8469627318146622 0.27863393596891023 
outer loop
vertex 0.35968525450411737 -0.9253700882486475 0.39999958195514207 
vertex -1.4456028966473393e-17 -1.013488715875493 0.7166447436516071 
vertex -1.1102230246251565e-16 -1.2492506191026278 0.0 
endloop
endfacet
endsolid smooth-test
