solid test
facet normal -0.9664722666629794 -0.007835276719326982 0.25665144887581326 
outer loop
vertex 0.061985333962814915 0.5793775485616012 0.3893964188660936 
vertex 0.042642973145213814 0.2855168671772612 0.30758766559567674 
vertex 0.13952868498447235 0.8996835188627719 0.6911799641293975 
endloop
endfacet
facet normal -0.9664722666629795 -0.007835276719326762 0.2566514488758131 
outer loop
vertex 0.061985333962814915 0.5793775485616012 0.3893964188660936 
vertex 0.13952868498447235 0.8996835188627719 0.6911799641293975 
vertex 0.0037843437587585793 0.5529322596447704 0.1694216268732064 
endloop
endfacet
facet normal -0.9664722666629796 -0.007835276719326923 0.2566514488758131 
outer loop
vertex 0.061985333962814915 0.5793775485616012 0.3893964188660936 
vertex 0.0037843437587585793 0.5529322596447704 0.1694216268732064 
vertex 0.042642973145213814 0.2855168671772612 0.30758766559567674 
endloop
endfacet
facet normal -0.2840619804128322 0.8309632336601831 -0.4783397282151586 
outer loop
vertex 0.18940578621866286 0.7689966424375393 0.4345335466487324 
vertex 0.13952868498447235 0.8996835188627719 0.6911799641293975 
vertex 0.4249043299127576 0.8543741488050759 0.44299904894359343 
endloop
endfacet
facet normal -0.2840619804128323 0.8309632336601834 -0.47833972821515797 
outer loop
vertex 0.18940578621866286 0.7689966424375393 0.4345335466487324 
vertex 0.4249043299127576 0.8543741488050759 0.44299904894359343 
vertex 0.0037843437587585793 0.5529322596447704 0.1694216268732064 
endloop
endfacet
facet normal -0.28406198041283137 0.8309632336601833 -0.4783397282151586 
outer loop
vertex 0.18940578621866286 0.7689966424375393 0.4345335466487324 
vertex 0.0037843437587585793 0.5529322596447704 0.1694216268732064 
vertex 0.13952868498447235 0.8996835188627719 0.6911799641293975 
endloop
endfacet
facet normal 0.1713323648562072 0.5200638787572032 -0.8367668628505748 
outer loop
vertex 0.47332800838365974 0.5460980729204367 0.26131557753166773 
vertex 0.4249043299127576 0.8543741488050759 0.44299904894359343 
vertex 0.9912953514794631 0.23098781031146387 0.17152605677820343 
endloop
endfacet
facet normal 0.17133236485620731 0.5200638787572035 -0.8367668628505746 
outer loop
vertex 0.47332800838365974 0.5460980729204367 0.26131557753166773 
vertex 0.9912953514794631 0.23098781031146387 0.17152605677820343 
vertex 0.0037843437587585793 0.5529322596447704 0.1694216268732064 
endloop
endfacet
facet normal 0.17133236485620734 0.5200638787572032 -0.8367668628505747 
outer loop
vertex 0.47332800838365974 0.5460980729204367 0.26131557753166773 
vertex 0.0037843437587585793 0.5529322596447704 0.1694216268732064 
vertex 0.4249043299127576 0.8543741488050759 0.44299904894359343 
endloop
endfacet
facet normal -0.07206256352837448 -0.22738785792657415 -0.971134259000929 
outer loop
vertex 0.48005516377212465 0.27201449462210414 0.19985613409418201 
vertex 0.9912953514794631 0.23098781031146387 0.17152605677820343 
vertex 0.44508579607815235 0.032123413910078114 0.2586207186311362 
endloop
endfacet
facet normal -0.07206256352837448 -0.22738785792657412 -0.9711342590009289 
outer loop
vertex 0.48005516377212465 0.27201449462210414 0.19985613409418201 
vertex 0.44508579607815235 0.032123413910078114 0.2586207186311362 
vertex 0.0037843437587585793 0.5529322596447704 0.1694216268732064 
endloop
endfacet
facet normal -0.07206256352837447 -0.2273878579265741 -0.971134259000929 
outer loop
vertex 0.48005516377212465 0.27201449462210414 0.19985613409418201 
vertex 0.0037843437587585793 0.5529322596447704 0.1694216268732064 
vertex 0.9912953514794631 0.23098781031146387 0.17152605677820343 
endloop
endfacet
facet normal -0.39043087049520375 -0.46673842771406293 -0.7935483447524555 
outer loop
vertex 0.1638377043273749 0.29019084691070324 0.24521000370000645 
vertex 0.44508579607815235 0.032123413910078114 0.2586207186311362 
vertex 0.042642973145213814 0.2855168671772612 0.30758766559567674 
endloop
endfacet
facet normal -0.39043087049520364 -0.4667384277140627 -0.7935483447524557 
outer loop
vertex 0.1638377043273749 0.29019084691070324 0.24521000370000645 
vertex 0.042642973145213814 0.2855168671772612 0.30758766559567674 
vertex 0.0037843437587585793 0.5529322596447704 0.1694216268732064 
endloop
endfacet
facet normal -0.3904308704952034 -0.46673842771406254 -0.793548344752456 
outer loop
vertex 0.1638377043273749 0.29019084691070324 0.24521000370000645 
vertex 0.0037843437587585793 0.5529322596447704 0.1694216268732064 
vertex 0.44508579607815235 0.032123413910078114 0.2586207186311362 
endloop
endfacet
facet normal -0.6789039923745591 -0.30891662645318907 0.6660779887060265 
outer loop
vertex 0.20143540981708294 0.6582024774431524 0.642283608783187 
vertex 0.4221345713215626 0.7894070462894242 0.9280831966244868 
vertex 0.13952868498447235 0.8996835188627719 0.6911799641293975 
endloop
endfacet
facet normal -0.678903992374559 -0.30891662645318896 0.6660779887060265 
outer loop
vertex 0.20143540981708294 0.6582024774431524 0.642283608783187 
vertex 0.13952868498447235 0.8996835188627719 0.6911799641293975 
vertex 0.042642973145213814 0.2855168671772612 0.30758766559567674 
endloop
endfacet
facet normal -0.6789039923745591 -0.308916626453189 0.6660779887060265 
outer loop
vertex 0.20143540981708294 0.6582024774431524 0.642283608783187 
vertex 0.042642973145213814 0.2855168671772612 0.30758766559567674 
vertex 0.4221345713215626 0.7894070462894242 0.9280831966244868 
endloop
endfacet
facet normal -0.42820722772927056 -0.7711335274349876 0.47115990171711963 
outer loop
vertex 0.28871855980333266 0.16365499786900503 0.33178236381529325 
vertex 0.44508579607815235 0.032123413910078114 0.2586207186311362 
vertex 0.3784269101866319 0.17332471251967574 0.4291387072190668 
endloop
endfacet
facet normal -0.42820722772927045 -0.7711335274349875 0.47115990171711963 
outer loop
vertex 0.28871855980333266 0.16365499786900503 0.33178236381529325 
vertex 0.3784269101866319 0.17332471251967574 0.4291387072190668 
vertex 0.042642973145213814 0.2855168671772612 0.30758766559567674 
endloop
endfacet
facet normal -0.42820722772927056 -0.7711335274349878 0.47115990171711947 
outer loop
vertex 0.28871855980333266 0.16365499786900503 0.33178236381529325 
vertex 0.042642973145213814 0.2855168671772612 0.30758766559567674 
vertex 0.44508579607815235 0.032123413910078114 0.2586207186311362 
endloop
endfacet
facet normal -0.4404134477397476 -0.5459598195891348 0.7127158413029612 
outer loop
vertex 0.2810681515511361 0.41608287532878707 0.5549365231464102 
vertex 0.3784269101866319 0.17332471251967574 0.4291387072190668 
vertex 0.4221345713215626 0.7894070462894242 0.9280831966244868 
endloop
endfacet
facet normal -0.4404134477397481 -0.5459598195891346 0.7127158413029612 
outer loop
vertex 0.2810681515511361 0.41608287532878707 0.5549365231464102 
vertex 0.4221345713215626 0.7894070462894242 0.9280831966244868 
vertex 0.042642973145213814 0.2855168671772612 0.30758766559567674 
endloop
endfacet
facet normal -0.44041344773974783 -0.5459598195891349 0.7127158413029612 
outer loop
vertex 0.2810681515511361 0.41608287532878707 0.5549365231464102 
vertex 0.042642973145213814 0.2855168671772612 0.30758766559567674 
vertex 0.3784269101866319 0.17332471251967574 0.4291387072190668 
endloop
endfacet
facet normal 0.6815475025735721 -0.24130889764179636 0.6908422523663615 
outer loop
vertex 0.7156982406590707 0.3457510848937875 0.48350165053655664 
vertex 0.7336647991761864 0.016858398080474513 0.35089569820697974 
vertex 0.9912953514794631 0.23098781031146387 0.17152605677820343 
endloop
endfacet
facet normal 0.6815475025735723 -0.24130889764179647 0.6908422523663615 
outer loop
vertex 0.7156982406590707 0.3457510848937875 0.48350165053655664 
vertex 0.9912953514794631 0.23098781031146387 0.17152605677820343 
vertex 0.4221345713215626 0.7894070462894242 0.9280831966244868 
endloop
endfacet
facet normal 0.6815475025735723 -0.2413088976417963 0.6908422523663615 
outer loop
vertex 0.7156982406590707 0.3457510848937875 0.48350165053655664 
vertex 0.4221345713215626 0.7894070462894242 0.9280831966244868 
vertex 0.7336647991761864 0.016858398080474513 0.35089569820697974 
endloop
endfacet
facet normal 0.7209411831348331 -0.1739992216659035 0.6707966020484949 
outer loop
vertex 0.7100198042219777 0.6202461341799369 0.574798480014541 
vertex 0.9912953514794631 0.23098781031146387 0.17152605677820343 
vertex 0.7166294898649072 0.840343545938923 0.6247861866409328 
endloop
endfacet
facet normal 0.7209411831348327 -0.1739992216659036 0.6707966020484953 
outer loop
vertex 0.7100198042219777 0.6202461341799369 0.574798480014541 
vertex 0.7166294898649072 0.840343545938923 0.6247861866409328 
vertex 0.4221345713215626 0.7894070462894242 0.9280831966244868 
endloop
endfacet
facet normal 0.720941183134832 -0.1739992216659054 0.6707966020484956 
outer loop
vertex 0.7100198042219777 0.6202461341799369 0.574798480014541 
vertex 0.4221345713215626 0.7894070462894242 0.9280831966244868 
vertex 0.9912953514794631 0.23098781031146387 0.17152605677820343 
endloop
endfacet
facet normal 0.13052772255086975 0.9492499375961385 0.2861591683301627 
outer loop
vertex 0.42609758205698073 0.8431447036970398 0.7480164491316058 
vertex 0.7166294898649072 0.840343545938923 0.6247861866409328 
vertex 0.13952868498447235 0.8996835188627719 0.6911799641293975 
endloop
endfacet
facet normal 0.13052772255086936 0.9492499375961381 0.2861591683301643 
outer loop
vertex 0.42609758205698073 0.8431447036970398 0.7480164491316058 
vertex 0.13952868498447235 0.8996835188627719 0.6911799641293975 
vertex 0.4221345713215626 0.7894070462894242 0.9280831966244868 
endloop
endfacet
facet normal 0.13052772255087042 0.9492499375961378 0.2861591683301643 
outer loop
vertex 0.42609758205698073 0.8431447036970398 0.7480164491316058 
vertex 0.4221345713215626 0.7894070462894242 0.9280831966244868 
vertex 0.7166294898649072 0.840343545938923 0.6247861866409328 
endloop
endfacet
facet normal -0.1027535040459859 -0.6216153254077647 0.7765539933735904 
outer loop
vertex 0.511408760228127 0.3265300522965248 0.5693725340168444 
vertex 0.3784269101866319 0.17332471251967574 0.4291387072190668 
vertex 0.7336647991761864 0.016858398080474513 0.35089569820697974 
endloop
endfacet
facet normal -0.1027535040459865 -0.6216153254077648 0.7765539933735903 
outer loop
vertex 0.511408760228127 0.3265300522965248 0.5693725340168444 
vertex 0.7336647991761864 0.016858398080474513 0.35089569820697974 
vertex 0.4221345713215626 0.7894070462894242 0.9280831966244868 
endloop
endfacet
facet normal -0.10275350404598564 -0.6216153254077648 0.7765539933735904 
outer loop
vertex 0.511408760228127 0.3265300522965248 0.5693725340168444 
vertex 0.4221345713215626 0.7894070462894242 0.9280831966244868 
vertex 0.3784269101866319 0.17332471251967574 0.4291387072190668 
endloop
endfacet
facet normal -0.22360498525386016 -0.7918547750006754 0.5683017032160388 
outer loop
vertex 0.5190591684803235 0.07410217483674279 0.3462183746857275 
vertex 0.44508579607815235 0.032123413910078114 0.2586207186311362 
vertex 0.7336647991761864 0.016858398080474513 0.35089569820697974 
endloop
endfacet
facet normal -0.22360498525386027 -0.7918547750006758 0.5683017032160383 
outer loop
vertex 0.5190591684803235 0.07410217483674279 0.3462183746857275 
vertex 0.7336647991761864 0.016858398080474513 0.35089569820697974 
vertex 0.3784269101866319 0.17332471251967574 0.4291387072190668 
endloop
endfacet
facet normal -0.22360498525385986 -0.7918547750006756 0.5683017032160388 
outer loop
vertex 0.5190591684803235 0.07410217483674279 0.3462183746857275 
vertex 0.3784269101866319 0.17332471251967574 0.4291387072190668 
vertex 0.44508579607815235 0.032123413910078114 0.2586207186311362 
endloop
endfacet
facet normal 0.4217153315325513 0.6558285198300517 -0.6261350746667317 
outer loop
vertex 0.7109430570857093 0.6419018350184876 0.4131037641209099 
vertex 0.9912953514794631 0.23098781031146387 0.17152605677820343 
vertex 0.4249043299127576 0.8543741488050759 0.44299904894359343 
endloop
endfacet
facet normal 0.4217153315325514 0.6558285198300519 -0.6261350746667317 
outer loop
vertex 0.7109430570857093 0.6419018350184876 0.4131037641209099 
vertex 0.4249043299127576 0.8543741488050759 0.44299904894359343 
vertex 0.7166294898649072 0.840343545938923 0.6247861866409328 
endloop
endfacet
facet normal 0.42171533153255153 0.6558285198300517 -0.6261350746667317 
outer loop
vertex 0.7109430570857093 0.6419018350184876 0.4131037641209099 
vertex 0.7166294898649072 0.840343545938923 0.6247861866409328 
vertex 0.9912953514794631 0.23098781031146387 0.17152605677820343 
endloop
endfacet
facet normal 0.0936236458495054 0.9928826488097102 -0.07361153870460685 
outer loop
vertex 0.42702083492071236 0.8648004045355903 0.5863217332379745 
vertex 0.4249043299127576 0.8543741488050759 0.44299904894359343 
vertex 0.13952868498447235 0.8996835188627719 0.6911799641293975 
endloop
endfacet
facet normal 0.09362364584950546 0.9928826488097104 -0.07361153870460688 
outer loop
vertex 0.42702083492071236 0.8648004045355903 0.5863217332379745 
vertex 0.13952868498447235 0.8996835188627719 0.6911799641293975 
vertex 0.7166294898649072 0.840343545938923 0.6247861866409328 
endloop
endfacet
facet normal 0.09362364584950543 0.9928826488097102 -0.07361153870460686 
outer loop
vertex 0.42702083492071236 0.8648004045355903 0.5863217332379745 
vertex 0.7166294898649072 0.840343545938923 0.6247861866409328 
vertex 0.4249043299127576 0.8543741488050759 0.44299904894359343 
endloop
endfacet
facet normal 0.16758663077380223 -0.7437225858853764 -0.6471409710641527 
outer loop
vertex 0.7233486489112674 0.0933232074340055 0.2603474912054398 
vertex 0.9912953514794631 0.23098781031146387 0.17152605677820343 
vertex 0.7336647991761864 0.016858398080474513 0.35089569820697974 
endloop
endfacet
facet normal 0.1675866307738024 -0.7437225858853764 -0.6471409710641525 
outer loop
vertex 0.7233486489112674 0.0933232074340055 0.2603474912054398 
vertex 0.7336647991761864 0.016858398080474513 0.35089569820697974 
vertex 0.44508579607815235 0.032123413910078114 0.2586207186311362 
endloop
endfacet
facet normal 0.16758663077380243 -0.7437225858853764 -0.6471409710641525 
outer loop
vertex 0.7233486489112674 0.0933232074340055 0.2603474912054398 
vertex 0.44508579607815235 0.032123413910078114 0.2586207186311362 
vertex 0.9912953514794631 0.23098781031146387 0.17152605677820343 
endloop
endfacet
endsolid test
