solid test
facet normal -0.5000000000000002 -0.49999999999999983 -0.7071067811865474 
outer loop
vertex -4.714045207910316 -4.714045207910316 -27.475468957064283 
vertex 1.3322676295501878e-15 2.590520390792032e-16 -34.14213562373095 
vertex -9.325336317687452e-16 -14.142135623730951 -24.14213562373095 
endloop
endfacet
facet normal -0.5 -0.49999999999999983 -0.7071067811865476 
outer loop
vertex -4.714045207910316 -4.714045207910316 -27.475468957064283 
vertex -9.325336317687452e-16 -14.142135623730951 -24.14213562373095 
vertex -14.14213562373095 9.917634293875492e-16 -24.14213562373095 
endloop
endfacet
facet normal -0.5 -0.5000000000000001 -0.7071067811865476 
outer loop
vertex -4.714045207910316 -4.714045207910316 -27.475468957064283 
vertex -14.14213562373095 9.917634293875492e-16 -24.14213562373095 
vertex 1.3322676295501878e-15 2.590520390792032e-16 -34.14213562373095 
endloop
endfacet
facet normal -0.49999999999999994 0.5000000000000001 -0.7071067811865476 
outer loop
vertex -4.714045207910315 4.714045207910318 -27.475468957064283 
vertex 1.3322676295501878e-15 2.590520390792032e-16 -34.14213562373095 
vertex -14.14213562373095 9.917634293875492e-16 -24.14213562373095 
endloop
endfacet
facet normal -0.49999999999999994 0.5 -0.7071067811865475 
outer loop
vertex -4.714045207910315 4.714045207910318 -27.475468957064283 
vertex -14.14213562373095 9.917634293875492e-16 -24.14213562373095 
vertex 2.5312905931732285e-15 14.142135623730951 -24.14213562373095 
endloop
endfacet
facet normal -0.5000000000000001 0.5 -0.7071067811865476 
outer loop
vertex -4.714045207910315 4.714045207910318 -27.475468957064283 
vertex 2.5312905931732285e-15 14.142135623730951 -24.14213562373095 
vertex 1.3322676295501878e-15 2.590520390792032e-16 -34.14213562373095 
endloop
endfacet
facet normal 0.5 0.49999999999999994 -0.7071067811865477 
outer loop
vertex 4.71404520791032 4.714045207910317 -27.475468957064283 
vertex 1.3322676295501878e-15 2.590520390792032e-16 -34.14213562373095 
vertex 2.5312905931732285e-15 14.142135623730951 -24.14213562373095 
endloop
endfacet
facet normal 0.49999999999999983 0.49999999999999983 -0.7071067811865478 
outer loop
vertex 4.71404520791032 4.714045207910317 -27.475468957064283 
vertex 2.5312905931732285e-15 14.142135623730951 -24.14213562373095 
vertex 14.142135623730955 -7.401486830834376e-16 -24.14213562373095 
endloop
endfacet
facet normal 0.5 0.5000000000000001 -0.7071067811865475 
outer loop
vertex 4.71404520791032 4.714045207910317 -27.475468957064283 
vertex 14.142135623730955 -7.401486830834376e-16 -24.14213562373095 
vertex 1.3322676295501878e-15 2.590520390792032e-16 -34.14213562373095 
endloop
endfacet
facet normal 0.4999999999999998 -0.5000000000000001 -0.7071067811865475 
outer loop
vertex 4.714045207910318 -4.714045207910317 -27.475468957064283 
vertex 1.3322676295501878e-15 2.590520390792032e-16 -34.14213562373095 
vertex 14.142135623730955 -7.401486830834376e-16 -24.14213562373095 
endloop
endfacet
facet normal 0.4999999999999997 -0.49999999999999983 -0.7071067811865478 
outer loop
vertex 4.714045207910318 -4.714045207910317 -27.475468957064283 
vertex 14.142135623730955 -7.401486830834376e-16 -24.14213562373095 
vertex -9.325336317687452e-16 -14.142135623730951 -24.14213562373095 
endloop
endfacet
facet normal 0.5000000000000001 -0.5000000000000001 -0.7071067811865476 
outer loop
vertex 4.714045207910318 -4.714045207910317 -27.475468957064283 
vertex -9.325336317687452e-16 -14.142135623730951 -24.14213562373095 
vertex 1.3322676295501878e-15 2.590520390792032e-16 -34.14213562373095 
endloop
endfacet
facet normal 0.49999999999999994 0.5000000000000001 0.7071067811865475 
outer loop
vertex 4.71404520791032 4.714045207910317 27.475468957064283 
vertex 1.5432234314580643e-15 4.440892098500626e-16 34.14213562373095 
vertex 14.142135623730955 -7.401486830834376e-16 24.14213562373095 
endloop
endfacet
facet normal 0.5 0.5 0.7071067811865476 
outer loop
vertex 4.71404520791032 4.714045207910317 27.475468957064283 
vertex 14.142135623730955 -7.401486830834376e-16 24.14213562373095 
vertex 2.5312905931732285e-15 14.142135623730951 24.14213562373095 
endloop
endfacet
facet normal 0.5000000000000001 0.49999999999999994 0.7071067811865476 
outer loop
vertex 4.71404520791032 4.714045207910317 27.475468957064283 
vertex 2.5312905931732285e-15 14.142135623730951 24.14213562373095 
vertex 1.5432234314580643e-15 4.440892098500626e-16 34.14213562373095 
endloop
endfacet
facet normal -0.5000000000000001 0.5000000000000001 0.7071067811865476 
outer loop
vertex -4.714045207910315 4.714045207910318 27.475468957064283 
vertex 1.5432234314580643e-15 4.440892098500626e-16 34.14213562373095 
vertex 2.5312905931732285e-15 14.142135623730951 24.14213562373095 
endloop
endfacet
facet normal -0.49999999999999983 0.49999999999999994 0.7071067811865477 
outer loop
vertex -4.714045207910315 4.714045207910318 27.475468957064283 
vertex 2.5312905931732285e-15 14.142135623730951 24.14213562373095 
vertex -14.14213562373095 9.917634293875492e-16 24.14213562373095 
endloop
endfacet
facet normal -0.5 0.5000000000000001 0.7071067811865476 
outer loop
vertex -4.714045207910315 4.714045207910318 27.475468957064283 
vertex -14.14213562373095 9.917634293875492e-16 24.14213562373095 
vertex 1.5432234314580643e-15 4.440892098500626e-16 34.14213562373095 
endloop
endfacet
facet normal -0.5000000000000001 -0.5000000000000001 0.7071067811865476 
outer loop
vertex -4.714045207910316 -4.714045207910316 27.475468957064283 
vertex 1.5432234314580643e-15 4.440892098500626e-16 34.14213562373095 
vertex -14.14213562373095 9.917634293875492e-16 24.14213562373095 
endloop
endfacet
facet normal -0.4999999999999998 -0.4999999999999996 0.7071067811865479 
outer loop
vertex -4.714045207910316 -4.714045207910316 27.475468957064283 
vertex -14.14213562373095 9.917634293875492e-16 24.14213562373095 
vertex -9.325336317687452e-16 -14.142135623730951 24.14213562373095 
endloop
endfacet
facet normal -0.5000000000000001 -0.49999999999999994 0.7071067811865476 
outer loop
vertex -4.714045207910316 -4.714045207910316 27.475468957064283 
vertex -9.325336317687452e-16 -14.142135623730951 24.14213562373095 
vertex 1.5432234314580643e-15 4.440892098500626e-16 34.14213562373095 
endloop
endfacet
facet normal 0.5000000000000001 -0.5000000000000001 0.7071067811865476 
outer loop
vertex 4.714045207910318 -4.714045207910317 27.475468957064283 
vertex 1.5432234314580643e-15 4.440892098500626e-16 34.14213562373095 
vertex -9.325336317687452e-16 -14.142135623730951 24.14213562373095 
endloop
endfacet
facet normal 0.4999999999999998 -0.49999999999999994 0.7071067811865478 
outer loop
vertex 4.714045207910318 -4.714045207910317 27.475468957064283 
vertex -9.325336317687452e-16 -14.142135623730951 24.14213562373095 
vertex 14.142135623730955 -7.401486830834376e-16 24.14213562373095 
endloop
endfacet
facet normal 0.49999999999999983 -0.5000000000000003 0.7071067811865475 
outer loop
vertex 4.714045207910318 -4.714045207910317 27.475468957064283 
vertex 14.142135623730955 -7.401486830834376e-16 24.14213562373095 
vertex 1.5432234314580643e-15 4.440892098500626e-16 34.14213562373095 
endloop
endfacet
facet normal -0.5000000000000001 -0.49999999999999983 -0.7071067811865475 
outer loop
vertex -19.428090415820638 -19.428090415820634 -6.666666666666667 
vertex -24.142135623730955 -24.14213562373095 0.0 
vertex -24.142135623730955 -9.999999999999996 -10.0 
endloop
endfacet
facet normal -0.49999999999999994 -0.49999999999999983 -0.7071067811865478 
outer loop
vertex -19.428090415820638 -19.428090415820634 -6.666666666666667 
vertex -24.142135623730955 -9.999999999999996 -10.0 
vertex -10.000000000000002 -24.14213562373095 -10.0 
endloop
endfacet
facet normal -0.49999999999999994 -0.5000000000000001 -0.7071067811865476 
outer loop
vertex -19.428090415820638 -19.428090415820634 -6.666666666666667 
vertex -10.000000000000002 -24.14213562373095 -10.0 
vertex -24.142135623730955 -24.14213562373095 0.0 
endloop
endfacet
facet normal 0.0 -1.0 0.0 
outer loop
vertex -14.714045207910319 -24.14213562373095 0.0 
vertex -24.142135623730955 -24.14213562373095 0.0 
vertex -10.000000000000002 -24.14213562373095 -10.0 
endloop
endfacet
facet normal 0.0 -1.0 0.0 
outer loop
vertex -14.714045207910319 -24.14213562373095 0.0 
vertex -10.000000000000002 -24.14213562373095 -10.0 
vertex -10.000000000000002 -24.14213562373095 10.0 
endloop
endfacet
facet normal 0.0 -1.0 0.0 
outer loop
vertex -14.714045207910319 -24.14213562373095 0.0 
vertex -10.000000000000002 -24.14213562373095 10.0 
vertex -24.142135623730955 -24.14213562373095 0.0 
endloop
endfacet
facet normal -0.49999999999999994 -0.5000000000000001 0.7071067811865476 
outer loop
vertex -19.428090415820638 -19.428090415820634 6.666666666666667 
vertex -24.142135623730955 -24.14213562373095 0.0 
vertex -10.000000000000002 -24.14213562373095 10.0 
endloop
endfacet
facet normal -0.49999999999999994 -0.49999999999999983 0.7071067811865478 
outer loop
vertex -19.428090415820638 -19.428090415820634 6.666666666666667 
vertex -10.000000000000002 -24.14213562373095 10.0 
vertex -24.142135623730955 -9.999999999999996 10.0 
endloop
endfacet
facet normal -0.5000000000000001 -0.49999999999999983 0.7071067811865475 
outer loop
vertex -19.428090415820638 -19.428090415820634 6.666666666666667 
vertex -24.142135623730955 -9.999999999999996 10.0 
vertex -24.142135623730955 -24.14213562373095 0.0 
endloop
endfacet
facet normal -1.0 0.0 0.0 
outer loop
vertex -24.142135623730955 -14.714045207910317 0.0 
vertex -24.142135623730955 -24.14213562373095 0.0 
vertex -24.142135623730955 -9.999999999999996 10.0 
endloop
endfacet
facet normal -1.0 0.0 -0.0 
outer loop
vertex -24.142135623730955 -14.714045207910317 0.0 
vertex -24.142135623730955 -9.999999999999996 10.0 
vertex -24.142135623730955 -9.999999999999996 -10.0 
endloop
endfacet
facet normal -1.0 0.0 0.0 
outer loop
vertex -24.142135623730955 -14.714045207910317 0.0 
vertex -24.142135623730955 -9.999999999999996 -10.0 
vertex -24.142135623730955 -24.14213562373095 0.0 
endloop
endfacet
facet normal -0.49999999999999983 0.5000000000000001 -0.7071067811865475 
outer loop
vertex -19.428090415820634 19.428090415820634 -6.666666666666667 
vertex -24.14213562373095 24.14213562373095 0.0 
vertex -9.999999999999996 24.14213562373095 -10.0 
endloop
endfacet
facet normal -0.49999999999999994 0.5000000000000001 -0.7071067811865477 
outer loop
vertex -19.428090415820634 19.428090415820634 -6.666666666666667 
vertex -9.999999999999996 24.14213562373095 -10.0 
vertex -24.14213562373095 10.000000000000002 -10.0 
endloop
endfacet
facet normal -0.5 0.5000000000000001 -0.7071067811865475 
outer loop
vertex -19.428090415820634 19.428090415820634 -6.666666666666667 
vertex -24.14213562373095 10.000000000000002 -10.0 
vertex -24.14213562373095 24.14213562373095 0.0 
endloop
endfacet
facet normal -1.0 -0.0 0.0 
outer loop
vertex -24.14213562373095 14.714045207910317 0.0 
vertex -24.14213562373095 24.14213562373095 0.0 
vertex -24.14213562373095 10.000000000000002 -10.0 
endloop
endfacet
facet normal -1.0 0.0 0.0 
outer loop
vertex -24.14213562373095 14.714045207910317 0.0 
vertex -24.14213562373095 10.000000000000002 -10.0 
vertex -24.14213562373095 10.000000000000002 10.0 
endloop
endfacet
facet normal -1.0 0.0 0.0 
outer loop
vertex -24.14213562373095 14.714045207910317 0.0 
vertex -24.14213562373095 10.000000000000002 10.0 
vertex -24.14213562373095 24.14213562373095 0.0 
endloop
endfacet
facet normal -0.49999999999999994 0.5000000000000001 0.7071067811865475 
outer loop
vertex -19.428090415820634 19.428090415820634 6.666666666666667 
vertex -24.14213562373095 24.14213562373095 0.0 
vertex -24.14213562373095 10.000000000000002 10.0 
endloop
endfacet
facet normal -0.49999999999999994 0.5000000000000001 0.7071067811865477 
outer loop
vertex -19.428090415820634 19.428090415820634 6.666666666666667 
vertex -24.14213562373095 10.000000000000002 10.0 
vertex -9.999999999999996 24.14213562373095 10.0 
endloop
endfacet
facet normal -0.49999999999999994 0.5000000000000001 0.7071067811865476 
outer loop
vertex -19.428090415820634 19.428090415820634 6.666666666666667 
vertex -9.999999999999996 24.14213562373095 10.0 
vertex -24.14213562373095 24.14213562373095 0.0 
endloop
endfacet
facet normal 0.0 1.0 0.0 
outer loop
vertex -14.714045207910317 24.14213562373095 0.0 
vertex -24.14213562373095 24.14213562373095 0.0 
vertex -9.999999999999996 24.14213562373095 10.0 
endloop
endfacet
facet normal 0.0 1.0 0.0 
outer loop
vertex -14.714045207910317 24.14213562373095 0.0 
vertex -9.999999999999996 24.14213562373095 10.0 
vertex -9.999999999999996 24.14213562373095 -10.0 
endloop
endfacet
facet normal 0.0 1.0 0.0 
outer loop
vertex -14.714045207910317 24.14213562373095 0.0 
vertex -9.999999999999996 24.14213562373095 -10.0 
vertex -24.14213562373095 24.14213562373095 0.0 
endloop
endfacet
facet normal 0.5000000000000001 0.49999999999999994 -0.7071067811865476 
outer loop
vertex 19.428090415820634 19.428090415820634 -6.666666666666667 
vertex 24.14213562373095 24.14213562373095 0.0 
vertex 24.14213562373095 9.999999999999998 -10.0 
endloop
endfacet
facet normal 0.5000000000000001 0.5 -0.7071067811865475 
outer loop
vertex 19.428090415820634 19.428090415820634 -6.666666666666667 
vertex 24.14213562373095 9.999999999999998 -10.0 
vertex 10.000000000000002 24.14213562373095 -10.0 
endloop
endfacet
facet normal 0.5000000000000001 0.5 -0.7071067811865475 
outer loop
vertex 19.428090415820634 19.428090415820634 -6.666666666666667 
vertex 10.000000000000002 24.14213562373095 -10.0 
vertex 24.14213562373095 24.14213562373095 0.0 
endloop
endfacet
facet normal 0.0 1.0 0.0 
outer loop
vertex 14.714045207910317 24.14213562373095 0.0 
vertex 24.14213562373095 24.14213562373095 0.0 
vertex 10.000000000000002 24.14213562373095 -10.0 
endloop
endfacet
facet normal 0.0 1.0 0.0 
outer loop
vertex 14.714045207910317 24.14213562373095 0.0 
vertex 10.000000000000002 24.14213562373095 -10.0 
vertex 10.000000000000002 24.14213562373095 10.0 
endloop
endfacet
facet normal 0.0 1.0 0.0 
outer loop
vertex 14.714045207910317 24.14213562373095 0.0 
vertex 10.000000000000002 24.14213562373095 10.0 
vertex 24.14213562373095 24.14213562373095 0.0 
endloop
endfacet
facet normal 0.5000000000000001 0.49999999999999994 0.7071067811865475 
outer loop
vertex 19.428090415820634 19.428090415820634 6.666666666666667 
vertex 24.14213562373095 24.14213562373095 0.0 
vertex 10.000000000000002 24.14213562373095 10.0 
endloop
endfacet
facet normal 0.5 0.49999999999999994 0.7071067811865477 
outer loop
vertex 19.428090415820634 19.428090415820634 6.666666666666667 
vertex 10.000000000000002 24.14213562373095 10.0 
vertex 24.14213562373095 9.999999999999998 10.0 
endloop
endfacet
facet normal 0.5000000000000001 0.49999999999999994 0.7071067811865476 
outer loop
vertex 19.428090415820634 19.428090415820634 6.666666666666667 
vertex 24.14213562373095 9.999999999999998 10.0 
vertex 24.14213562373095 24.14213562373095 0.0 
endloop
endfacet
facet normal 1.0 0.0 0.0 
outer loop
vertex 24.14213562373095 14.714045207910317 0.0 
vertex 24.14213562373095 24.14213562373095 0.0 
vertex 24.14213562373095 9.999999999999998 10.0 
endloop
endfacet
facet normal 1.0 0.0 0.0 
outer loop
vertex 24.14213562373095 14.714045207910317 0.0 
vertex 24.14213562373095 9.999999999999998 10.0 
vertex 24.14213562373095 9.999999999999998 -10.0 
endloop
endfacet
facet normal 1.0 0.0 0.0 
outer loop
vertex 24.14213562373095 14.714045207910317 0.0 
vertex 24.14213562373095 9.999999999999998 -10.0 
vertex 24.14213562373095 24.14213562373095 0.0 
endloop
endfacet
facet normal 0.49999999999999994 -0.5000000000000001 -0.7071067811865476 
outer loop
vertex 19.428090415820634 -19.428090415820634 -6.666666666666667 
vertex 24.14213562373095 -24.14213562373095 0.0 
vertex 9.999999999999998 -24.14213562373095 -10.0 
endloop
endfacet
facet normal 0.49999999999999994 -0.5 -0.7071067811865477 
outer loop
vertex 19.428090415820634 -19.428090415820634 -6.666666666666667 
vertex 9.999999999999998 -24.14213562373095 -10.0 
vertex 24.14213562373095 -10.0 -10.0 
endloop
endfacet
facet normal 0.5000000000000001 -0.5 -0.7071067811865476 
outer loop
vertex 19.428090415820634 -19.428090415820634 -6.666666666666667 
vertex 24.14213562373095 -10.0 -10.0 
vertex 24.14213562373095 -24.14213562373095 0.0 
endloop
endfacet
facet normal 1.0 -0.0 0.0 
outer loop
vertex 24.14213562373095 -14.714045207910317 0.0 
vertex 24.14213562373095 -24.14213562373095 0.0 
vertex 24.14213562373095 -10.0 -10.0 
endloop
endfacet
facet normal 1.0 0.0 -0.0 
outer loop
vertex 24.14213562373095 -14.714045207910317 0.0 
vertex 24.14213562373095 -10.0 -10.0 
vertex 24.14213562373095 -10.0 10.0 
endloop
endfacet
facet normal 1.0 0.0 0.0 
outer loop
vertex 24.14213562373095 -14.714045207910317 0.0 
vertex 24.14213562373095 -10.0 10.0 
vertex 24.14213562373095 -24.14213562373095 0.0 
endloop
endfacet
facet normal 0.5 -0.5 0.7071067811865476 
outer loop
vertex 19.428090415820634 -19.428090415820634 6.666666666666667 
vertex 24.14213562373095 -24.14213562373095 0.0 
vertex 24.14213562373095 -10.0 10.0 
endloop
endfacet
facet normal 0.49999999999999983 -0.49999999999999994 0.7071067811865478 
outer loop
vertex 19.428090415820634 -19.428090415820634 6.666666666666667 
vertex 24.14213562373095 -10.0 10.0 
vertex 9.999999999999998 -24.14213562373095 10.0 
endloop
endfacet
facet normal 0.49999999999999994 -0.5000000000000001 0.7071067811865476 
outer loop
vertex 19.428090415820634 -19.428090415820634 6.666666666666667 
vertex 9.999999999999998 -24.14213562373095 10.0 
vertex 24.14213562373095 -24.14213562373095 0.0 
endloop
endfacet
facet normal 0.0 -1.0 0.0 
outer loop
vertex 14.714045207910317 -24.14213562373095 0.0 
vertex 24.14213562373095 -24.14213562373095 0.0 
vertex 9.999999999999998 -24.14213562373095 10.0 
endloop
endfacet
facet normal 0.0 -1.0 0.0 
outer loop
vertex 14.714045207910317 -24.14213562373095 0.0 
vertex 9.999999999999998 -24.14213562373095 10.0 
vertex 9.999999999999998 -24.14213562373095 -10.0 
endloop
endfacet
facet normal 0.0 -1.0 0.0 
outer loop
vertex 14.714045207910317 -24.14213562373095 0.0 
vertex 9.999999999999998 -24.14213562373095 -10.0 
vertex 24.14213562373095 -24.14213562373095 0.0 
endloop
endfacet
facet normal 0.75 -0.15824829046386304 -0.6422285251880866 
outer loop
vertex 3.3333333333333317 -22.419346449045594 -18.209894507845842 
vertex -1.7763568394002505e-15 -28.973768099674878 -20.487547899806575 
vertex -9.325336317687452e-16 -14.142135623730951 -24.14213562373095 
endloop
endfacet
facet normal 0.75 -0.15824829046386304 -0.6422285251880866 
outer loop
vertex 3.3333333333333317 -22.419346449045594 -18.209894507845842 
vertex -9.325336317687452e-16 -14.142135623730951 -24.14213562373095 
vertex 9.999999999999998 -24.14213562373095 -10.0 
endloop
endfacet
facet normal 0.75 -0.1582482904638631 -0.6422285251880866 
outer loop
vertex 3.3333333333333317 -22.419346449045594 -18.209894507845842 
vertex 9.999999999999998 -24.14213562373095 -10.0 
vertex -1.7763568394002505e-15 -28.973768099674878 -20.487547899806575 
endloop
endfacet
facet normal 5.538132536784663e-16 -0.9082482904638631 0.41843164659173415 
outer loop
vertex -1.7763568394002505e-15 -25.75267978237893 -13.495849299935523 
vertex -1.7763568394002505e-15 -28.973768099674878 -20.487547899806575 
vertex 9.999999999999998 -24.14213562373095 -10.0 
endloop
endfacet
facet normal 0.0 -0.9082482904638626 0.4184316465917356 
outer loop
vertex -1.7763568394002505e-15 -25.75267978237893 -13.495849299935523 
vertex 9.999999999999998 -24.14213562373095 -10.0 
vertex -10.000000000000002 -24.14213562373095 -10.0 
endloop
endfacet
facet normal -5.538132536784663e-16 -0.9082482904638631 0.41843164659173415 
outer loop
vertex -1.7763568394002505e-15 -25.75267978237893 -13.495849299935523 
vertex -10.000000000000002 -24.14213562373095 -10.0 
vertex -1.7763568394002505e-15 -28.973768099674878 -20.487547899806575 
endloop
endfacet
facet normal -0.7500000000000002 -0.15824829046386304 -0.6422285251880866 
outer loop
vertex -3.3333333333333353 -22.419346449045594 -18.209894507845842 
vertex -1.7763568394002505e-15 -28.973768099674878 -20.487547899806575 
vertex -10.000000000000002 -24.14213562373095 -10.0 
endloop
endfacet
facet normal -0.7500000000000001 -0.15824829046386268 -0.6422285251880865 
outer loop
vertex -3.3333333333333353 -22.419346449045594 -18.209894507845842 
vertex -10.000000000000002 -24.14213562373095 -10.0 
vertex -9.325336317687452e-16 -14.142135623730951 -24.14213562373095 
endloop
endfacet
facet normal -0.75 -0.15824829046386296 -0.6422285251880867 
outer loop
vertex -3.3333333333333353 -22.419346449045594 -18.209894507845842 
vertex -9.325336317687452e-16 -14.142135623730951 -24.14213562373095 
vertex -1.7763568394002505e-15 -28.973768099674878 -20.487547899806575 
endloop
endfacet
facet normal -0.15824829046386313 -0.7499999999999999 -0.6422285251880866 
outer loop
vertex -22.419346449045594 -3.3333333333333304 -18.209894507845842 
vertex -28.973768099674878 3.882378029468027e-15 -20.487547899806575 
vertex -14.14213562373095 9.917634293875492e-16 -24.14213562373095 
endloop
endfacet
facet normal -0.1582482904638632 -0.7499999999999999 -0.6422285251880866 
outer loop
vertex -22.419346449045594 -3.3333333333333304 -18.209894507845842 
vertex -14.14213562373095 9.917634293875492e-16 -24.14213562373095 
vertex -24.142135623730955 -9.999999999999996 -10.0 
endloop
endfacet
facet normal -0.1582482904638631 -0.75 -0.6422285251880866 
outer loop
vertex -22.419346449045594 -3.3333333333333304 -18.209894507845842 
vertex -24.142135623730955 -9.999999999999996 -10.0 
vertex -28.973768099674878 3.882378029468027e-15 -20.487547899806575 
endloop
endfacet
facet normal -0.9082482904638634 -2.769066268392333e-16 0.4184316465917342 
outer loop
vertex -25.75267978237893 2.960594732333751e-15 -13.495849299935523 
vertex -28.973768099674878 3.882378029468027e-15 -20.487547899806575 
vertex -24.142135623730955 -9.999999999999996 -10.0 
endloop
endfacet
facet normal -0.9082482904638628 1.6133730626390682e-16 0.4184316465917352 
outer loop
vertex -25.75267978237893 2.960594732333751e-15 -13.495849299935523 
vertex -24.142135623730955 -9.999999999999996 -10.0 
vertex -24.14213562373095 10.000000000000002 -10.0 
endloop
endfacet
facet normal -0.9082482904638634 5.538132536784666e-16 0.4184316465917342 
outer loop
vertex -25.75267978237893 2.960594732333751e-15 -13.495849299935523 
vertex -24.14213562373095 10.000000000000002 -10.0 
vertex -28.973768099674878 3.882378029468027e-15 -20.487547899806575 
endloop
endfacet
facet normal -0.1582482904638628 0.75 -0.6422285251880866 
outer loop
vertex -22.41934644904559 3.3333333333333357 -18.209894507845842 
vertex -28.973768099674878 3.882378029468027e-15 -20.487547899806575 
vertex -24.14213562373095 10.000000000000002 -10.0 
endloop
endfacet
facet normal -0.15824829046386277 0.7500000000000001 -0.6422285251880866 
outer loop
vertex -22.41934644904559 3.3333333333333357 -18.209894507845842 
vertex -24.14213562373095 10.000000000000002 -10.0 
vertex -14.14213562373095 9.917634293875492e-16 -24.14213562373095 
endloop
endfacet
facet normal -0.15824829046386282 0.7500000000000001 -0.6422285251880867 
outer loop
vertex -22.41934644904559 3.3333333333333357 -18.209894507845842 
vertex -14.14213562373095 9.917634293875492e-16 -24.14213562373095 
vertex -28.973768099674878 3.882378029468027e-15 -20.487547899806575 
endloop
endfacet
facet normal -0.75 0.15824829046386296 -0.6422285251880866 
outer loop
vertex -3.3333333333333304 22.419346449045594 -18.209894507845842 
vertex 2.3684757858670005e-15 28.973768099674878 -20.487547899806575 
vertex 2.5312905931732285e-15 14.142135623730951 -24.14213562373095 
endloop
endfacet
facet normal -0.7500000000000002 0.158248290463863 -0.6422285251880865 
outer loop
vertex -3.3333333333333304 22.419346449045594 -18.209894507845842 
vertex 2.5312905931732285e-15 14.142135623730951 -24.14213562373095 
vertex -9.999999999999996 24.14213562373095 -10.0 
endloop
endfacet
facet normal -0.7500000000000002 0.15824829046386277 -0.6422285251880866 
outer loop
vertex -3.3333333333333304 22.419346449045594 -18.209894507845842 
vertex -9.999999999999996 24.14213562373095 -10.0 
vertex 2.3684757858670005e-15 28.973768099674878 -20.487547899806575 
endloop
endfacet
facet normal -5.538132536784666e-16 0.9082482904638634 0.4184316465917342 
outer loop
vertex 2.3684757858670005e-15 25.75267978237893 -13.495849299935523 
vertex 2.3684757858670005e-15 28.973768099674878 -20.487547899806575 
vertex -9.999999999999996 24.14213562373095 -10.0 
endloop
endfacet
facet normal -0.0 0.9082482904638626 0.4184316465917356 
outer loop
vertex 2.3684757858670005e-15 25.75267978237893 -13.495849299935523 
vertex -9.999999999999996 24.14213562373095 -10.0 
vertex 10.000000000000002 24.14213562373095 -10.0 
endloop
endfacet
facet normal 5.538132536784663e-16 0.9082482904638631 0.41843164659173415 
outer loop
vertex 2.3684757858670005e-15 25.75267978237893 -13.495849299935523 
vertex 10.000000000000002 24.14213562373095 -10.0 
vertex 2.3684757858670005e-15 28.973768099674878 -20.487547899806575 
endloop
endfacet
facet normal 0.7500000000000002 0.15824829046386304 -0.6422285251880866 
outer loop
vertex 3.3333333333333353 22.419346449045594 -18.209894507845842 
vertex 2.3684757858670005e-15 28.973768099674878 -20.487547899806575 
vertex 10.000000000000002 24.14213562373095 -10.0 
endloop
endfacet
facet normal 0.7500000000000001 0.15824829046386268 -0.6422285251880865 
outer loop
vertex 3.3333333333333353 22.419346449045594 -18.209894507845842 
vertex 10.000000000000002 24.14213562373095 -10.0 
vertex 2.5312905931732285e-15 14.142135623730951 -24.14213562373095 
endloop
endfacet
facet normal 0.7500000000000001 0.158248290463863 -0.6422285251880866 
outer loop
vertex 3.3333333333333353 22.419346449045594 -18.209894507845842 
vertex 2.5312905931732285e-15 14.142135623730951 -24.14213562373095 
vertex 2.3684757858670005e-15 28.973768099674878 -20.487547899806575 
endloop
endfacet
facet normal 0.1582482904638632 0.75 -0.6422285251880867 
outer loop
vertex 22.419346449045594 3.333333333333332 -18.209894507845842 
vertex 28.973768099674878 -5.921189464667501e-16 -20.48754789980657 
vertex 14.142135623730955 -7.401486830834376e-16 -24.14213562373095 
endloop
endfacet
facet normal 0.15824829046386307 0.7500000000000001 -0.6422285251880866 
outer loop
vertex 22.419346449045594 3.333333333333332 -18.209894507845842 
vertex 14.142135623730955 -7.401486830834376e-16 -24.14213562373095 
vertex 24.14213562373095 9.999999999999998 -10.0 
endloop
endfacet
facet normal 0.15824829046386316 0.75 -0.6422285251880866 
outer loop
vertex 22.419346449045594 3.333333333333332 -18.209894507845842 
vertex 24.14213562373095 9.999999999999998 -10.0 
vertex 28.973768099674878 -5.921189464667501e-16 -20.48754789980657 
endloop
endfacet
facet normal 0.9082482904638631 5.538132536784667e-16 0.41843164659173426 
outer loop
vertex 25.75267978237893 -5.921189464667501e-16 -13.495849299935523 
vertex 28.973768099674878 -5.921189464667501e-16 -20.48754789980657 
vertex 24.14213562373095 9.999999999999998 -10.0 
endloop
endfacet
facet normal 0.9082482904638626 0.0 0.4184316465917356 
outer loop
vertex 25.75267978237893 -5.921189464667501e-16 -13.495849299935523 
vertex 24.14213562373095 9.999999999999998 -10.0 
vertex 24.14213562373095 -10.0 -10.0 
endloop
endfacet
facet normal 0.9082482904638634 -5.076621492052612e-16 0.4184316465917344 
outer loop
vertex 25.75267978237893 -5.921189464667501e-16 -13.495849299935523 
vertex 24.14213562373095 -10.0 -10.0 
vertex 28.973768099674878 -5.921189464667501e-16 -20.48754789980657 
endloop
endfacet
facet normal 0.15824829046386332 -0.75 -0.6422285251880866 
outer loop
vertex 22.419346449045594 -3.3333333333333335 -18.209894507845842 
vertex 28.973768099674878 -5.921189464667501e-16 -20.48754789980657 
vertex 24.14213562373095 -10.0 -10.0 
endloop
endfacet
facet normal 0.15824829046386277 -0.75 -0.6422285251880867 
outer loop
vertex 22.419346449045594 -3.3333333333333335 -18.209894507845842 
vertex 24.14213562373095 -10.0 -10.0 
vertex 14.142135623730955 -7.401486830834376e-16 -24.14213562373095 
endloop
endfacet
facet normal 0.1582482904638632 -0.7499999999999999 -0.6422285251880867 
outer loop
vertex 22.419346449045594 -3.3333333333333335 -18.209894507845842 
vertex 14.142135623730955 -7.401486830834376e-16 -24.14213562373095 
vertex 28.973768099674878 -5.921189464667501e-16 -20.48754789980657 
endloop
endfacet
facet normal 0.15824829046386324 -0.7499999999999999 0.6422285251880868 
outer loop
vertex 22.419346449045594 -3.333333333333334 18.209894507845842 
vertex 28.973768099674878 -5.921189464667501e-16 20.48754789980657 
vertex 14.142135623730955 -7.401486830834376e-16 24.14213562373095 
endloop
endfacet
facet normal 0.15824829046386316 -0.75 0.6422285251880867 
outer loop
vertex 22.419346449045594 -3.333333333333334 18.209894507845842 
vertex 14.142135623730955 -7.401486830834376e-16 24.14213562373095 
vertex 24.14213562373095 -10.0 10.0 
endloop
endfacet
facet normal 0.1582482904638635 -0.7499999999999999 0.6422285251880866 
outer loop
vertex 22.419346449045594 -3.333333333333334 18.209894507845842 
vertex 24.14213562373095 -10.0 10.0 
vertex 28.973768099674878 -5.921189464667501e-16 20.48754789980657 
endloop
endfacet
facet normal 0.9082482904638634 -5.538132536784667e-16 -0.4184316465917344 
outer loop
vertex 25.75267978237893 -5.921189464667501e-16 13.495849299935523 
vertex 28.973768099674878 -5.921189464667501e-16 20.48754789980657 
vertex 24.14213562373095 -10.0 10.0 
endloop
endfacet
facet normal 0.9082482904638626 0.0 -0.4184316465917356 
outer loop
vertex 25.75267978237893 -5.921189464667501e-16 13.495849299935523 
vertex 24.14213562373095 -10.0 10.0 
vertex 24.14213562373095 9.999999999999998 10.0 
endloop
endfacet
facet normal 0.9082482904638631 5.076621492052612e-16 -0.41843164659173426 
outer loop
vertex 25.75267978237893 -5.921189464667501e-16 13.495849299935523 
vertex 24.14213562373095 9.999999999999998 10.0 
vertex 28.973768099674878 -5.921189464667501e-16 20.48754789980657 
endloop
endfacet
facet normal 0.15824829046386338 0.75 0.6422285251880866 
outer loop
vertex 22.419346449045594 3.3333333333333326 18.209894507845842 
vertex 28.973768099674878 -5.921189464667501e-16 20.48754789980657 
vertex 24.14213562373095 9.999999999999998 10.0 
endloop
endfacet
facet normal 0.15824829046386316 0.75 0.6422285251880867 
outer loop
vertex 22.419346449045594 3.3333333333333326 18.209894507845842 
vertex 24.14213562373095 9.999999999999998 10.0 
vertex 14.142135623730955 -7.401486830834376e-16 24.14213562373095 
endloop
endfacet
facet normal 0.15824829046386324 0.7499999999999998 0.6422285251880868 
outer loop
vertex 22.419346449045594 3.3333333333333326 18.209894507845842 
vertex 14.142135623730955 -7.401486830834376e-16 24.14213562373095 
vertex 28.973768099674878 -5.921189464667501e-16 20.48754789980657 
endloop
endfacet
facet normal 0.7499999999999999 0.158248290463863 0.6422285251880866 
outer loop
vertex 3.3333333333333357 22.419346449045594 18.209894507845842 
vertex 2.3684757858670005e-15 28.973768099674878 20.487547899806575 
vertex 2.5312905931732285e-15 14.142135623730951 24.14213562373095 
endloop
endfacet
facet normal 0.75 0.15824829046386304 0.6422285251880866 
outer loop
vertex 3.3333333333333357 22.419346449045594 18.209894507845842 
vertex 2.5312905931732285e-15 14.142135623730951 24.14213562373095 
vertex 10.000000000000002 24.14213562373095 10.0 
endloop
endfacet
facet normal 0.75 0.1582482904638631 0.6422285251880866 
outer loop
vertex 3.3333333333333357 22.419346449045594 18.209894507845842 
vertex 10.000000000000002 24.14213562373095 10.0 
vertex 2.3684757858670005e-15 28.973768099674878 20.487547899806575 
endloop
endfacet
facet normal 5.538132536784663e-16 0.9082482904638631 -0.41843164659173415 
outer loop
vertex 2.3684757858670005e-15 25.75267978237893 13.495849299935523 
vertex 2.3684757858670005e-15 28.973768099674878 20.487547899806575 
vertex 10.000000000000002 24.14213562373095 10.0 
endloop
endfacet
facet normal 0.0 0.9082482904638626 -0.4184316465917356 
outer loop
vertex 2.3684757858670005e-15 25.75267978237893 13.495849299935523 
vertex 10.000000000000002 24.14213562373095 10.0 
vertex -9.999999999999996 24.14213562373095 10.0 
endloop
endfacet
facet normal -5.538132536784666e-16 0.9082482904638634 -0.4184316465917342 
outer loop
vertex 2.3684757858670005e-15 25.75267978237893 13.495849299935523 
vertex -9.999999999999996 24.14213562373095 10.0 
vertex 2.3684757858670005e-15 28.973768099674878 20.487547899806575 
endloop
endfacet
facet normal -0.7500000000000002 0.1582482904638631 0.6422285251880866 
outer loop
vertex -3.333333333333331 22.419346449045594 18.209894507845842 
vertex 2.3684757858670005e-15 28.973768099674878 20.487547899806575 
vertex -9.999999999999996 24.14213562373095 10.0 
endloop
endfacet
facet normal -0.7500000000000001 0.15824829046386304 0.6422285251880866 
outer loop
vertex -3.333333333333331 22.419346449045594 18.209894507845842 
vertex -9.999999999999996 24.14213562373095 10.0 
vertex 2.5312905931732285e-15 14.142135623730951 24.14213562373095 
endloop
endfacet
facet normal -0.75 0.15824829046386296 0.6422285251880866 
outer loop
vertex -3.333333333333331 22.419346449045594 18.209894507845842 
vertex 2.5312905931732285e-15 14.142135623730951 24.14213562373095 
vertex 2.3684757858670005e-15 28.973768099674878 20.487547899806575 
endloop
endfacet
facet normal -0.15824829046386282 0.7499999999999999 0.6422285251880866 
outer loop
vertex -22.419346449045594 3.3333333333333357 18.209894507845842 
vertex -28.973768099674878 3.882378029468027e-15 20.487547899806575 
vertex -14.14213562373095 9.917634293875492e-16 24.14213562373095 
endloop
endfacet
facet normal -0.15824829046386266 0.7500000000000002 0.6422285251880865 
outer loop
vertex -22.419346449045594 3.3333333333333357 18.209894507845842 
vertex -14.14213562373095 9.917634293875492e-16 24.14213562373095 
vertex -24.14213562373095 10.000000000000002 10.0 
endloop
endfacet
facet normal -0.15824829046386277 0.7500000000000002 0.6422285251880866 
outer loop
vertex -22.419346449045594 3.3333333333333357 18.209894507845842 
vertex -24.14213562373095 10.000000000000002 10.0 
vertex -28.973768099674878 3.882378029468027e-15 20.487547899806575 
endloop
endfacet
facet normal -0.9082482904638631 5.538132536784663e-16 -0.41843164659173415 
outer loop
vertex -25.75267978237893 2.960594732333751e-15 13.495849299935523 
vertex -28.973768099674878 3.882378029468027e-15 20.487547899806575 
vertex -24.14213562373095 10.000000000000002 10.0 
endloop
endfacet
facet normal -0.9082482904638628 1.6133730626390682e-16 -0.4184316465917352 
outer loop
vertex -25.75267978237893 2.960594732333751e-15 13.495849299935523 
vertex -24.14213562373095 10.000000000000002 10.0 
vertex -24.142135623730955 -9.999999999999996 10.0 
endloop
endfacet
facet normal -0.9082482904638631 -2.7690662683923316e-16 -0.41843164659173415 
outer loop
vertex -25.75267978237893 2.960594732333751e-15 13.495849299935523 
vertex -24.142135623730955 -9.999999999999996 10.0 
vertex -28.973768099674878 3.882378029468027e-15 20.487547899806575 
endloop
endfacet
facet normal -0.15824829046386318 -0.75 0.6422285251880864 
outer loop
vertex -22.419346449045594 -3.3333333333333304 18.209894507845842 
vertex -28.973768099674878 3.882378029468027e-15 20.487547899806575 
vertex -24.142135623730955 -9.999999999999996 10.0 
endloop
endfacet
facet normal -0.15824829046386304 -0.75 0.6422285251880866 
outer loop
vertex -22.419346449045594 -3.3333333333333304 18.209894507845842 
vertex -24.142135623730955 -9.999999999999996 10.0 
vertex -14.14213562373095 9.917634293875492e-16 24.14213562373095 
endloop
endfacet
facet normal -0.15824829046386316 -0.75 0.6422285251880866 
outer loop
vertex -22.419346449045594 -3.3333333333333304 18.209894507845842 
vertex -14.14213562373095 9.917634293875492e-16 24.14213562373095 
vertex -28.973768099674878 3.882378029468027e-15 20.487547899806575 
endloop
endfacet
facet normal -0.7499999999999999 -0.15824829046386296 0.6422285251880867 
outer loop
vertex -3.3333333333333353 -22.419346449045594 18.209894507845842 
vertex -1.7763568394002505e-15 -28.973768099674878 20.487547899806575 
vertex -9.325336317687452e-16 -14.142135623730951 24.14213562373095 
endloop
endfacet
facet normal -0.7500000000000002 -0.1582482904638628 0.6422285251880865 
outer loop
vertex -3.3333333333333353 -22.419346449045594 18.209894507845842 
vertex -9.325336317687452e-16 -14.142135623730951 24.14213562373095 
vertex -10.000000000000002 -24.14213562373095 10.0 
endloop
endfacet
facet normal -0.75 -0.1582482904638631 0.6422285251880866 
outer loop
vertex -3.3333333333333353 -22.419346449045594 18.209894507845842 
vertex -10.000000000000002 -24.14213562373095 10.0 
vertex -1.7763568394002505e-15 -28.973768099674878 20.487547899806575 
endloop
endfacet
facet normal -5.538132536784663e-16 -0.9082482904638631 -0.41843164659173415 
outer loop
vertex -1.7763568394002505e-15 -25.75267978237893 13.495849299935523 
vertex -1.7763568394002505e-15 -28.973768099674878 20.487547899806575 
vertex -10.000000000000002 -24.14213562373095 10.0 
endloop
endfacet
facet normal 0.0 -0.9082482904638626 -0.4184316465917356 
outer loop
vertex -1.7763568394002505e-15 -25.75267978237893 13.495849299935523 
vertex -10.000000000000002 -24.14213562373095 10.0 
vertex 9.999999999999998 -24.14213562373095 10.0 
endloop
endfacet
facet normal 5.538132536784663e-16 -0.9082482904638631 -0.41843164659173415 
outer loop
vertex -1.7763568394002505e-15 -25.75267978237893 13.495849299935523 
vertex 9.999999999999998 -24.14213562373095 10.0 
vertex -1.7763568394002505e-15 -28.973768099674878 20.487547899806575 
endloop
endfacet
facet normal 0.7500000000000002 -0.15824829046386304 0.6422285251880866 
outer loop
vertex 3.3333333333333317 -22.419346449045594 18.209894507845842 
vertex -1.7763568394002505e-15 -28.973768099674878 20.487547899806575 
vertex 9.999999999999998 -24.14213562373095 10.0 
endloop
endfacet
facet normal 0.7500000000000001 -0.15824829046386268 0.6422285251880865 
outer loop
vertex 3.3333333333333317 -22.419346449045594 18.209894507845842 
vertex 9.999999999999998 -24.14213562373095 10.0 
vertex -9.325336317687452e-16 -14.142135623730951 24.14213562373095 
endloop
endfacet
facet normal 0.75 -0.15824829046386302 0.6422285251880865 
outer loop
vertex 3.3333333333333317 -22.419346449045594 18.209894507845842 
vertex -9.325336317687452e-16 -14.142135623730951 24.14213562373095 
vertex -1.7763568394002505e-15 -28.973768099674878 20.487547899806575 
endloop
endfacet
facet normal 0.1464466094067262 -0.8535533905932737 -0.5000000000000001 
outer loop
vertex -9.023689270621825 -18.45177968644246 -19.428090415820634 
vertex -17.071067811865476 -17.071067811865476 -24.14213562373095 
vertex -9.325336317687452e-16 -14.142135623730951 -24.14213562373095 
endloop
endfacet
facet normal 0.14644660940672644 -0.8535533905932737 -0.49999999999999983 
outer loop
vertex -9.023689270621825 -18.45177968644246 -19.428090415820634 
vertex -9.325336317687452e-16 -14.142135623730951 -24.14213562373095 
vertex -10.000000000000002 -24.14213562373095 -10.0 
endloop
endfacet
facet normal 0.14644660940672596 -0.8535533905932738 -0.49999999999999994 
outer loop
vertex -9.023689270621825 -18.45177968644246 -19.428090415820634 
vertex -10.000000000000002 -24.14213562373095 -10.0 
vertex -17.071067811865476 -17.071067811865476 -24.14213562373095 
endloop
endfacet
facet normal -0.7071067811865476 -0.7071067811865474 0.0 
outer loop
vertex -17.071067811865476 -17.071067811865476 -14.714045207910317 
vertex -17.071067811865476 -17.071067811865476 -24.14213562373095 
vertex -10.000000000000002 -24.14213562373095 -10.0 
endloop
endfacet
facet normal -0.7071067811865475 -0.7071067811865475 0.0 
outer loop
vertex -17.071067811865476 -17.071067811865476 -14.714045207910317 
vertex -10.000000000000002 -24.14213562373095 -10.0 
vertex -24.142135623730955 -9.999999999999996 -10.0 
endloop
endfacet
facet normal -0.7071067811865476 -0.7071067811865476 0.0 
outer loop
vertex -17.071067811865476 -17.071067811865476 -14.714045207910317 
vertex -24.142135623730955 -9.999999999999996 -10.0 
vertex -17.071067811865476 -17.071067811865476 -24.14213562373095 
endloop
endfacet
facet normal -0.8535533905932737 0.14644660940672616 -0.5000000000000001 
outer loop
vertex -18.45177968644246 -9.023689270621825 -19.428090415820634 
vertex -17.071067811865476 -17.071067811865476 -24.14213562373095 
vertex -24.142135623730955 -9.999999999999996 -10.0 
endloop
endfacet
facet normal -0.8535533905932736 0.14644660940672635 -0.5000000000000001 
outer loop
vertex -18.45177968644246 -9.023689270621825 -19.428090415820634 
vertex -24.142135623730955 -9.999999999999996 -10.0 
vertex -14.14213562373095 9.917634293875492e-16 -24.14213562373095 
endloop
endfacet
facet normal -0.8535533905932736 0.14644660940672627 -0.5000000000000001 
outer loop
vertex -18.45177968644246 -9.023689270621825 -19.428090415820634 
vertex -14.14213562373095 9.917634293875492e-16 -24.14213562373095 
vertex -17.071067811865476 -17.071067811865476 -24.14213562373095 
endloop
endfacet
facet normal 0.0 0.0 -1.0 
outer loop
vertex -10.40440114519881 -10.40440114519881 -24.14213562373095 
vertex -17.071067811865476 -17.071067811865476 -24.14213562373095 
vertex -14.14213562373095 9.917634293875492e-16 -24.14213562373095 
endloop
endfacet
facet normal 0.0 0.0 -1.0 
outer loop
vertex -10.40440114519881 -10.40440114519881 -24.14213562373095 
vertex -14.14213562373095 9.917634293875492e-16 -24.14213562373095 
vertex -9.325336317687452e-16 -14.142135623730951 -24.14213562373095 
endloop
endfacet
facet normal -0.0 0.0 -1.0 
outer loop
vertex -10.40440114519881 -10.40440114519881 -24.14213562373095 
vertex -9.325336317687452e-16 -14.142135623730951 -24.14213562373095 
vertex -17.071067811865476 -17.071067811865476 -24.14213562373095 
endloop
endfacet
facet normal -0.14644660940672605 -0.8535533905932738 -0.5 
outer loop
vertex 9.023689270621825 -18.45177968644246 -19.428090415820634 
vertex 17.071067811865476 -17.071067811865476 -24.14213562373095 
vertex 9.999999999999998 -24.14213562373095 -10.0 
endloop
endfacet
facet normal -0.1464466094067264 -0.8535533905932737 -0.49999999999999983 
outer loop
vertex 9.023689270621825 -18.45177968644246 -19.428090415820634 
vertex 9.999999999999998 -24.14213562373095 -10.0 
vertex -9.325336317687452e-16 -14.142135623730951 -24.14213562373095 
endloop
endfacet
facet normal -0.1464466094067262 -0.8535533905932737 -0.5000000000000001 
outer loop
vertex 9.023689270621825 -18.45177968644246 -19.428090415820634 
vertex -9.325336317687452e-16 -14.142135623730951 -24.14213562373095 
vertex 17.071067811865476 -17.071067811865476 -24.14213562373095 
endloop
endfacet
facet normal 0.0 0.0 -1.0 
outer loop
vertex 10.40440114519881 -10.40440114519881 -24.14213562373095 
vertex 17.071067811865476 -17.071067811865476 -24.14213562373095 
vertex -9.325336317687452e-16 -14.142135623730951 -24.14213562373095 
endloop
endfacet
facet normal 0.0 0.0 -1.0 
outer loop
vertex 10.40440114519881 -10.40440114519881 -24.14213562373095 
vertex -9.325336317687452e-16 -14.142135623730951 -24.14213562373095 
vertex 14.142135623730955 -7.401486830834376e-16 -24.14213562373095 
endloop
endfacet
facet normal 0.0 -0.0 -1.0 
outer loop
vertex 10.40440114519881 -10.40440114519881 -24.14213562373095 
vertex 14.142135623730955 -7.401486830834376e-16 -24.14213562373095 
vertex 17.071067811865476 -17.071067811865476 -24.14213562373095 
endloop
endfacet
facet normal 0.8535533905932738 0.14644660940672605 -0.49999999999999994 
outer loop
vertex 18.45177968644246 -9.023689270621825 -19.428090415820634 
vertex 17.071067811865476 -17.071067811865476 -24.14213562373095 
vertex 14.142135623730955 -7.401486830834376e-16 -24.14213562373095 
endloop
endfacet
facet normal 0.8535533905932738 0.14644660940672602 -0.49999999999999994 
outer loop
vertex 18.45177968644246 -9.023689270621825 -19.428090415820634 
vertex 14.142135623730955 -7.401486830834376e-16 -24.14213562373095 
vertex 24.14213562373095 -10.0 -10.0 
endloop
endfacet
facet normal 0.8535533905932738 0.146446609406726 -0.49999999999999994 
outer loop
vertex 18.45177968644246 -9.023689270621825 -19.428090415820634 
vertex 24.14213562373095 -10.0 -10.0 
vertex 17.071067811865476 -17.071067811865476 -24.14213562373095 
endloop
endfacet
facet normal 0.7071067811865476 -0.7071067811865476 0.0 
outer loop
vertex 17.071067811865476 -17.071067811865476 -14.714045207910317 
vertex 17.071067811865476 -17.071067811865476 -24.14213562373095 
vertex 24.14213562373095 -10.0 -10.0 
endloop
endfacet
facet normal 0.7071067811865475 -0.7071067811865476 0.0 
outer loop
vertex 17.071067811865476 -17.071067811865476 -14.714045207910317 
vertex 24.14213562373095 -10.0 -10.0 
vertex 9.999999999999998 -24.14213562373095 -10.0 
endloop
endfacet
facet normal 0.7071067811865475 -0.7071067811865475 0.0 
outer loop
vertex 17.071067811865476 -17.071067811865476 -14.714045207910317 
vertex 9.999999999999998 -24.14213562373095 -10.0 
vertex 17.071067811865476 -17.071067811865476 -24.14213562373095 
endloop
endfacet
facet normal 1.507288760336424e-16 -0.7071067811865475 -0.7071067811865476 
outer loop
vertex -1.7763568394002505e-15 -27.475468957064283 -6.666666666666667 
vertex -1.7763568394002505e-15 -34.14213562373095 0.0 
vertex -10.000000000000002 -24.14213562373095 -10.0 
endloop
endfacet
facet normal 0.0 -0.7071067811865476 -0.7071067811865475 
outer loop
vertex -1.7763568394002505e-15 -27.475468957064283 -6.666666666666667 
vertex -10.000000000000002 -24.14213562373095 -10.0 
vertex 9.999999999999998 -24.14213562373095 -10.0 
endloop
endfacet
facet normal -7.53644380168212e-17 -0.7071067811865475 -0.7071067811865476 
outer loop
vertex -1.7763568394002505e-15 -27.475468957064283 -6.666666666666667 
vertex 9.999999999999998 -24.14213562373095 -10.0 
vertex -1.7763568394002505e-15 -34.14213562373095 0.0 
endloop
endfacet
facet normal 0.7071067811865477 -0.7071067811865474 3.014577520672848e-16 
outer loop
vertex 6.666666666666664 -27.475468957064283 0.0 
vertex -1.7763568394002505e-15 -34.14213562373095 0.0 
vertex 9.999999999999998 -24.14213562373095 -10.0 
endloop
endfacet
facet normal 0.7071067811865472 -0.7071067811865477 0.0 
outer loop
vertex 6.666666666666664 -27.475468957064283 0.0 
vertex 9.999999999999998 -24.14213562373095 -10.0 
vertex 9.999999999999998 -24.14213562373095 10.0 
endloop
endfacet
facet normal 0.7071067811865477 -0.7071067811865474 -2.260933140504636e-16 
outer loop
vertex 6.666666666666664 -27.475468957064283 0.0 
vertex 9.999999999999998 -24.14213562373095 10.0 
vertex -1.7763568394002505e-15 -34.14213562373095 0.0 
endloop
endfacet
facet normal -1.507288760336424e-16 -0.7071067811865475 0.7071067811865476 
outer loop
vertex -1.7763568394002505e-15 -27.475468957064283 6.666666666666667 
vertex -1.7763568394002505e-15 -34.14213562373095 0.0 
vertex 9.999999999999998 -24.14213562373095 10.0 
endloop
endfacet
facet normal 0.0 -0.7071067811865476 0.7071067811865475 
outer loop
vertex -1.7763568394002505e-15 -27.475468957064283 6.666666666666667 
vertex 9.999999999999998 -24.14213562373095 10.0 
vertex -10.000000000000002 -24.14213562373095 10.0 
endloop
endfacet
facet normal 7.53644380168212e-17 -0.7071067811865475 0.7071067811865476 
outer loop
vertex -1.7763568394002505e-15 -27.475468957064283 6.666666666666667 
vertex -10.000000000000002 -24.14213562373095 10.0 
vertex -1.7763568394002505e-15 -34.14213562373095 0.0 
endloop
endfacet
facet normal -0.7071067811865476 -0.7071067811865475 -1.507288760336424e-16 
outer loop
vertex -6.666666666666669 -27.475468957064283 0.0 
vertex -1.7763568394002505e-15 -34.14213562373095 0.0 
vertex -10.000000000000002 -24.14213562373095 10.0 
endloop
endfacet
facet normal -0.7071067811865475 -0.7071067811865476 -0.0 
outer loop
vertex -6.666666666666669 -27.475468957064283 0.0 
vertex -10.000000000000002 -24.14213562373095 10.0 
vertex -10.000000000000002 -24.14213562373095 -10.0 
endloop
endfacet
facet normal -0.7071067811865476 -0.7071067811865475 7.53644380168212e-17 
outer loop
vertex -6.666666666666669 -27.475468957064283 0.0 
vertex -10.000000000000002 -24.14213562373095 -10.0 
vertex -1.7763568394002505e-15 -34.14213562373095 0.0 
endloop
endfacet
facet normal -0.8535533905932736 -0.14644660940672627 -0.5000000000000002 
outer loop
vertex -18.45177968644246 9.023689270621825 -19.428090415820634 
vertex -17.071067811865476 17.071067811865476 -24.14213562373095 
vertex -14.14213562373095 9.917634293875492e-16 -24.14213562373095 
endloop
endfacet
facet normal -0.8535533905932737 -0.14644660940672666 -0.4999999999999998 
outer loop
vertex -18.45177968644246 9.023689270621825 -19.428090415820634 
vertex -14.14213562373095 9.917634293875492e-16 -24.14213562373095 
vertex -24.14213562373095 10.000000000000002 -10.0 
endloop
endfacet
facet normal -0.8535533905932738 -0.14644660940672596 -0.49999999999999994 
outer loop
vertex -18.45177968644246 9.023689270621825 -19.428090415820634 
vertex -24.14213562373095 10.000000000000002 -10.0 
vertex -17.071067811865476 17.071067811865476 -24.14213562373095 
endloop
endfacet
facet normal -0.7071067811865474 0.7071067811865476 0.0 
outer loop
vertex -17.071067811865476 17.071067811865476 -14.714045207910317 
vertex -17.071067811865476 17.071067811865476 -24.14213562373095 
vertex -24.14213562373095 10.000000000000002 -10.0 
endloop
endfacet
facet normal -0.7071067811865474 0.7071067811865477 1.507288760336424e-16 
outer loop
vertex -17.071067811865476 17.071067811865476 -14.714045207910317 
vertex -24.14213562373095 10.000000000000002 -10.0 
vertex -9.999999999999996 24.14213562373095 -10.0 
endloop
endfacet
facet normal -0.7071067811865474 0.7071067811865477 0.0 
outer loop
vertex -17.071067811865476 17.071067811865476 -14.714045207910317 
vertex -9.999999999999996 24.14213562373095 -10.0 
vertex -17.071067811865476 17.071067811865476 -24.14213562373095 
endloop
endfacet
facet normal 0.14644660940672605 0.8535533905932738 -0.5 
outer loop
vertex -9.023689270621823 18.45177968644246 -19.428090415820634 
vertex -17.071067811865476 17.071067811865476 -24.14213562373095 
vertex -9.999999999999996 24.14213562373095 -10.0 
endloop
endfacet
facet normal 0.14644660940672646 0.8535533905932738 -0.49999999999999994 
outer loop
vertex -9.023689270621823 18.45177968644246 -19.428090415820634 
vertex -9.999999999999996 24.14213562373095 -10.0 
vertex 2.5312905931732285e-15 14.142135623730951 -24.14213562373095 
endloop
endfacet
facet normal 0.14644660940672619 0.8535533905932737 -0.5000000000000001 
outer loop
vertex -9.023689270621823 18.45177968644246 -19.428090415820634 
vertex 2.5312905931732285e-15 14.142135623730951 -24.14213562373095 
vertex -17.071067811865476 17.071067811865476 -24.14213562373095 
endloop
endfacet
facet normal 0.0 0.0 -1.0 
outer loop
vertex -10.404401145198806 10.40440114519881 -24.14213562373095 
vertex -17.071067811865476 17.071067811865476 -24.14213562373095 
vertex 2.5312905931732285e-15 14.142135623730951 -24.14213562373095 
endloop
endfacet
facet normal 0.0 0.0 -1.0 
outer loop
vertex -10.404401145198806 10.40440114519881 -24.14213562373095 
vertex 2.5312905931732285e-15 14.142135623730951 -24.14213562373095 
vertex -14.14213562373095 9.917634293875492e-16 -24.14213562373095 
endloop
endfacet
facet normal 0.0 0.0 -1.0 
outer loop
vertex -10.404401145198806 10.40440114519881 -24.14213562373095 
vertex -14.14213562373095 9.917634293875492e-16 -24.14213562373095 
vertex -17.071067811865476 17.071067811865476 -24.14213562373095 
endloop
endfacet
facet normal -0.7071067811865474 -1.507288760336424e-16 -0.7071067811865476 
outer loop
vertex -27.475468957064283 3.552713678800501e-15 -6.666666666666667 
vertex -34.14213562373095 4.440892098500626e-15 0.0 
vertex -24.14213562373095 10.000000000000002 -10.0 
endloop
endfacet
facet normal -0.7071067811865477 1.2560739669470205e-16 -0.7071067811865472 
outer loop
vertex -27.475468957064283 3.552713678800501e-15 -6.666666666666667 
vertex -24.14213562373095 10.000000000000002 -10.0 
vertex -24.142135623730955 -9.999999999999996 -10.0 
endloop
endfacet
facet normal -0.7071067811865475 3.7682219008410596e-16 -0.7071067811865476 
outer loop
vertex -27.475468957064283 3.552713678800501e-15 -6.666666666666667 
vertex -24.142135623730955 -9.999999999999996 -10.0 
vertex -34.14213562373095 4.440892098500626e-15 0.0 
endloop
endfacet
facet normal -0.7071067811865475 -0.7071067811865475 3.0145775206728473e-16 
outer loop
vertex -27.475468957064283 -6.666666666666663 0.0 
vertex -34.14213562373095 4.440892098500626e-15 0.0 
vertex -24.142135623730955 -9.999999999999996 -10.0 
endloop
endfacet
facet normal -0.7071067811865479 -0.707106781186547 0.0 
outer loop
vertex -27.475468957064283 -6.666666666666663 0.0 
vertex -24.142135623730955 -9.999999999999996 -10.0 
vertex -24.142135623730955 -9.999999999999996 10.0 
endloop
endfacet
facet normal -0.7071067811865475 -0.7071067811865476 -3.7682219008410596e-16 
outer loop
vertex -27.475468957064283 -6.666666666666663 0.0 
vertex -24.142135623730955 -9.999999999999996 10.0 
vertex -34.14213562373095 4.440892098500626e-15 0.0 
endloop
endfacet
facet normal -0.7071067811865474 4.521866281009272e-16 0.7071067811865476 
outer loop
vertex -27.475468957064283 2.960594732333751e-15 6.666666666666667 
vertex -34.14213562373095 4.440892098500626e-15 0.0 
vertex -24.142135623730955 -9.999999999999996 10.0 
endloop
endfacet
facet normal -0.7071067811865478 1.2560739669470205e-16 0.7071067811865472 
outer loop
vertex -27.475468957064283 2.960594732333751e-15 6.666666666666667 
vertex -24.142135623730955 -9.999999999999996 10.0 
vertex -24.14213562373095 10.000000000000002 10.0 
endloop
endfacet
facet normal -0.7071067811865474 -7.53644380168212e-17 0.7071067811865477 
outer loop
vertex -27.475468957064283 2.960594732333751e-15 6.666666666666667 
vertex -24.14213562373095 10.000000000000002 10.0 
vertex -34.14213562373095 4.440892098500626e-15 0.0 
endloop
endfacet
facet normal -0.7071067811865472 0.7071067811865477 -1.507288760336424e-16 
outer loop
vertex -27.475468957064283 6.666666666666669 0.0 
vertex -34.14213562373095 4.440892098500626e-15 0.0 
vertex -24.14213562373095 10.000000000000002 10.0 
endloop
endfacet
facet normal -0.7071067811865476 0.7071067811865475 0.0 
outer loop
vertex -27.475468957064283 6.666666666666669 0.0 
vertex -24.14213562373095 10.000000000000002 10.0 
vertex -24.14213562373095 10.000000000000002 -10.0 
endloop
endfacet
facet normal -0.7071067811865472 0.7071067811865477 2.260933140504636e-16 
outer loop
vertex -27.475468957064283 6.666666666666669 0.0 
vertex -24.14213562373095 10.000000000000002 -10.0 
vertex -34.14213562373095 4.440892098500626e-15 0.0 
endloop
endfacet
facet normal -0.14644660940672624 0.8535533905932737 -0.5000000000000001 
outer loop
vertex 9.023689270621828 18.45177968644246 -19.428090415820634 
vertex 17.071067811865476 17.071067811865476 -24.14213562373095 
vertex 2.5312905931732285e-15 14.142135623730951 -24.14213562373095 
endloop
endfacet
facet normal -0.14644660940672632 0.8535533905932737 -0.49999999999999994 
outer loop
vertex 9.023689270621828 18.45177968644246 -19.428090415820634 
vertex 2.5312905931732285e-15 14.142135623730951 -24.14213562373095 
vertex 10.000000000000002 24.14213562373095 -10.0 
endloop
endfacet
facet normal -0.14644660940672607 0.853553390593274 -0.5 
outer loop
vertex 9.023689270621828 18.45177968644246 -19.428090415820634 
vertex 10.000000000000002 24.14213562373095 -10.0 
vertex 17.071067811865476 17.071067811865476 -24.14213562373095 
endloop
endfacet
facet normal 0.7071067811865476 0.7071067811865474 -0.0 
outer loop
vertex 17.071067811865476 17.071067811865476 -14.714045207910317 
vertex 17.071067811865476 17.071067811865476 -24.14213562373095 
vertex 10.000000000000002 24.14213562373095 -10.0 
endloop
endfacet
facet normal 0.7071067811865477 0.7071067811865474 0.0 
outer loop
vertex 17.071067811865476 17.071067811865476 -14.714045207910317 
vertex 10.000000000000002 24.14213562373095 -10.0 
vertex 24.14213562373095 9.999999999999998 -10.0 
endloop
endfacet
facet normal 0.7071067811865475 0.7071067811865475 0.0 
outer loop
vertex 17.071067811865476 17.071067811865476 -14.714045207910317 
vertex 24.14213562373095 9.999999999999998 -10.0 
vertex 17.071067811865476 17.071067811865476 -24.14213562373095 
endloop
endfacet
facet normal 0.8535533905932738 -0.14644660940672605 -0.5 
outer loop
vertex 18.45177968644246 9.023689270621825 -19.428090415820634 
vertex 17.071067811865476 17.071067811865476 -24.14213562373095 
vertex 24.14213562373095 9.999999999999998 -10.0 
endloop
endfacet
facet normal 0.8535533905932738 -0.14644660940672616 -0.5 
outer loop
vertex 18.45177968644246 9.023689270621825 -19.428090415820634 
vertex 24.14213562373095 9.999999999999998 -10.0 
vertex 14.142135623730955 -7.401486830834376e-16 -24.14213562373095 
endloop
endfacet
facet normal 0.8535533905932738 -0.14644660940672605 -0.49999999999999994 
outer loop
vertex 18.45177968644246 9.023689270621825 -19.428090415820634 
vertex 14.142135623730955 -7.401486830834376e-16 -24.14213562373095 
vertex 17.071067811865476 17.071067811865476 -24.14213562373095 
endloop
endfacet
facet normal 0.0 0.0 -1.0 
outer loop
vertex 10.404401145198811 10.40440114519881 -24.14213562373095 
vertex 17.071067811865476 17.071067811865476 -24.14213562373095 
vertex 14.142135623730955 -7.401486830834376e-16 -24.14213562373095 
endloop
endfacet
facet normal 0.0 0.0 -1.0 
outer loop
vertex 10.404401145198811 10.40440114519881 -24.14213562373095 
vertex 14.142135623730955 -7.401486830834376e-16 -24.14213562373095 
vertex 2.5312905931732285e-15 14.142135623730951 -24.14213562373095 
endloop
endfacet
facet normal 0.0 0.0 -1.0 
outer loop
vertex 10.404401145198811 10.40440114519881 -24.14213562373095 
vertex 2.5312905931732285e-15 14.142135623730951 -24.14213562373095 
vertex 17.071067811865476 17.071067811865476 -24.14213562373095 
endloop
endfacet
facet normal -1.507288760336424e-16 0.7071067811865475 -0.7071067811865476 
outer loop
vertex 2.3684757858670005e-15 27.475468957064283 -6.666666666666667 
vertex 2.6645352591003757e-15 34.14213562373095 0.0 
vertex 10.000000000000002 24.14213562373095 -10.0 
endloop
endfacet
facet normal 0.0 0.7071067811865476 -0.7071067811865475 
outer loop
vertex 2.3684757858670005e-15 27.475468957064283 -6.666666666666667 
vertex 10.000000000000002 24.14213562373095 -10.0 
vertex -9.999999999999996 24.14213562373095 -10.0 
endloop
endfacet
facet normal 7.536443801682121e-17 0.7071067811865475 -0.7071067811865475 
outer loop
vertex 2.3684757858670005e-15 27.475468957064283 -6.666666666666667 
vertex -9.999999999999996 24.14213562373095 -10.0 
vertex 2.6645352591003757e-15 34.14213562373095 0.0 
endloop
endfacet
facet normal -0.7071067811865477 0.7071067811865474 3.014577520672848e-16 
outer loop
vertex -6.666666666666663 27.475468957064283 0.0 
vertex 2.6645352591003757e-15 34.14213562373095 0.0 
vertex -9.999999999999996 24.14213562373095 -10.0 
endloop
endfacet
facet normal -0.7071067811865475 0.7071067811865476 0.0 
outer loop
vertex -6.666666666666663 27.475468957064283 0.0 
vertex -9.999999999999996 24.14213562373095 -10.0 
vertex -9.999999999999996 24.14213562373095 10.0 
endloop
endfacet
facet normal -0.7071067811865476 0.7071067811865475 -7.53644380168212e-17 
outer loop
vertex -6.666666666666663 27.475468957064283 0.0 
vertex -9.999999999999996 24.14213562373095 10.0 
vertex 2.6645352591003757e-15 34.14213562373095 0.0 
endloop
endfacet
facet normal 1.507288760336424e-16 0.7071067811865475 0.7071067811865476 
outer loop
vertex 2.960594732333751e-15 27.475468957064283 6.666666666666667 
vertex 2.6645352591003757e-15 34.14213562373095 0.0 
vertex -9.999999999999996 24.14213562373095 10.0 
endloop
endfacet
facet normal -0.0 0.7071067811865476 0.7071067811865475 
outer loop
vertex 2.960594732333751e-15 27.475468957064283 6.666666666666667 
vertex -9.999999999999996 24.14213562373095 10.0 
vertex 10.000000000000002 24.14213562373095 10.0 
endloop
endfacet
facet normal -7.536443801682121e-17 0.7071067811865475 0.7071067811865475 
outer loop
vertex 2.960594732333751e-15 27.475468957064283 6.666666666666667 
vertex 10.000000000000002 24.14213562373095 10.0 
vertex 2.6645352591003757e-15 34.14213562373095 0.0 
endloop
endfacet
facet normal 0.7071067811865477 0.7071067811865474 -3.014577520672848e-16 
outer loop
vertex 6.666666666666669 27.475468957064283 0.0 
vertex 2.6645352591003757e-15 34.14213562373095 0.0 
vertex 10.000000000000002 24.14213562373095 10.0 
endloop
endfacet
facet normal 0.7071067811865475 0.7071067811865476 0.0 
outer loop
vertex 6.666666666666669 27.475468957064283 0.0 
vertex 10.000000000000002 24.14213562373095 10.0 
vertex 10.000000000000002 24.14213562373095 -10.0 
endloop
endfacet
facet normal 0.7071067811865476 0.7071067811865475 7.53644380168212e-17 
outer loop
vertex 6.666666666666669 27.475468957064283 0.0 
vertex 10.000000000000002 24.14213562373095 -10.0 
vertex 2.6645352591003757e-15 34.14213562373095 0.0 
endloop
endfacet
facet normal 0.7071067811865475 1.507288760336424e-16 -0.7071067811865476 
outer loop
vertex 27.475468957064283 -5.921189464667501e-16 -6.666666666666667 
vertex 34.14213562373095 -8.881784197001252e-16 0.0 
vertex 24.14213562373095 -10.0 -10.0 
endloop
endfacet
facet normal 0.7071067811865476 0.0 -0.7071067811865475 
outer loop
vertex 27.475468957064283 -5.921189464667501e-16 -6.666666666666667 
vertex 24.14213562373095 -10.0 -10.0 
vertex 24.14213562373095 9.999999999999998 -10.0 
endloop
endfacet
facet normal 0.7071067811865475 -7.536443801682121e-17 -0.7071067811865475 
outer loop
vertex 27.475468957064283 -5.921189464667501e-16 -6.666666666666667 
vertex 24.14213562373095 9.999999999999998 -10.0 
vertex 34.14213562373095 -8.881784197001252e-16 0.0 
endloop
endfacet
facet normal 0.7071067811865474 0.7071067811865477 3.014577520672848e-16 
outer loop
vertex 27.475468957064283 6.666666666666664 0.0 
vertex 34.14213562373095 -8.881784197001252e-16 0.0 
vertex 24.14213562373095 9.999999999999998 -10.0 
endloop
endfacet
facet normal 0.7071067811865477 0.7071067811865472 -0.0 
outer loop
vertex 27.475468957064283 6.666666666666664 0.0 
vertex 24.14213562373095 9.999999999999998 -10.0 
vertex 24.14213562373095 9.999999999999998 10.0 
endloop
endfacet
facet normal 0.7071067811865474 0.7071067811865477 -2.260933140504636e-16 
outer loop
vertex 27.475468957064283 6.666666666666664 0.0 
vertex 24.14213562373095 9.999999999999998 10.0 
vertex 34.14213562373095 -8.881784197001252e-16 0.0 
endloop
endfacet
facet normal 0.7071067811865475 -1.507288760336424e-16 0.7071067811865476 
outer loop
vertex 27.475468957064283 -1.1842378929335002e-15 6.666666666666667 
vertex 34.14213562373095 -8.881784197001252e-16 0.0 
vertex 24.14213562373095 9.999999999999998 10.0 
endloop
endfacet
facet normal 0.7071067811865476 0.0 0.7071067811865475 
outer loop
vertex 27.475468957064283 -1.1842378929335002e-15 6.666666666666667 
vertex 24.14213562373095 9.999999999999998 10.0 
vertex 24.14213562373095 -10.0 10.0 
endloop
endfacet
facet normal 0.7071067811865475 7.536443801682121e-17 0.7071067811865475 
outer loop
vertex 27.475468957064283 -1.1842378929335002e-15 6.666666666666667 
vertex 24.14213562373095 -10.0 10.0 
vertex 34.14213562373095 -8.881784197001252e-16 0.0 
endloop
endfacet
facet normal 0.7071067811865474 -0.7071067811865477 -3.014577520672848e-16 
outer loop
vertex 27.475468957064283 -6.666666666666667 0.0 
vertex 34.14213562373095 -8.881784197001252e-16 0.0 
vertex 24.14213562373095 -10.0 10.0 
endloop
endfacet
facet normal 0.7071067811865476 -0.7071067811865475 0.0 
outer loop
vertex 27.475468957064283 -6.666666666666667 0.0 
vertex 24.14213562373095 -10.0 10.0 
vertex 24.14213562373095 -10.0 -10.0 
endloop
endfacet
facet normal 0.7071067811865475 -0.7071067811865476 7.53644380168212e-17 
outer loop
vertex 27.475468957064283 -6.666666666666667 0.0 
vertex 24.14213562373095 -10.0 -10.0 
vertex 34.14213562373095 -8.881784197001252e-16 0.0 
endloop
endfacet
facet normal 0.8535533905932738 -0.14644660940672605 0.49999999999999994 
outer loop
vertex 18.45177968644246 9.023689270621825 19.428090415820634 
vertex 17.071067811865476 17.071067811865476 24.14213562373095 
vertex 14.142135623730955 -7.401486830834376e-16 24.14213562373095 
endloop
endfacet
facet normal 0.8535533905932738 -0.146446609406726 0.49999999999999994 
outer loop
vertex 18.45177968644246 9.023689270621825 19.428090415820634 
vertex 14.142135623730955 -7.401486830834376e-16 24.14213562373095 
vertex 24.14213562373095 9.999999999999998 10.0 
endloop
endfacet
facet normal 0.8535533905932738 -0.14644660940672602 0.5 
outer loop
vertex 18.45177968644246 9.023689270621825 19.428090415820634 
vertex 24.14213562373095 9.999999999999998 10.0 
vertex 17.071067811865476 17.071067811865476 24.14213562373095 
endloop
endfacet
facet normal 0.7071067811865476 0.7071067811865475 0.0 
outer loop
vertex 17.071067811865476 17.071067811865476 14.714045207910317 
vertex 17.071067811865476 17.071067811865476 24.14213562373095 
vertex 24.14213562373095 9.999999999999998 10.0 
endloop
endfacet
facet normal 0.7071067811865477 0.7071067811865474 0.0 
outer loop
vertex 17.071067811865476 17.071067811865476 14.714045207910317 
vertex 24.14213562373095 9.999999999999998 10.0 
vertex 10.000000000000002 24.14213562373095 10.0 
endloop
endfacet
facet normal 0.7071067811865477 0.7071067811865474 0.0 
outer loop
vertex 17.071067811865476 17.071067811865476 14.714045207910317 
vertex 10.000000000000002 24.14213562373095 10.0 
vertex 17.071067811865476 17.071067811865476 24.14213562373095 
endloop
endfacet
facet normal -0.14644660940672605 0.8535533905932738 0.49999999999999994 
outer loop
vertex 9.023689270621826 18.45177968644246 19.428090415820634 
vertex 17.071067811865476 17.071067811865476 24.14213562373095 
vertex 10.000000000000002 24.14213562373095 10.0 
endloop
endfacet
facet normal -0.14644660940672646 0.8535533905932737 0.49999999999999983 
outer loop
vertex 9.023689270621826 18.45177968644246 19.428090415820634 
vertex 10.000000000000002 24.14213562373095 10.0 
vertex 2.5312905931732285e-15 14.142135623730951 24.14213562373095 
endloop
endfacet
facet normal -0.14644660940672624 0.8535533905932737 0.5000000000000001 
outer loop
vertex 9.023689270621826 18.45177968644246 19.428090415820634 
vertex 2.5312905931732285e-15 14.142135623730951 24.14213562373095 
vertex 17.071067811865476 17.071067811865476 24.14213562373095 
endloop
endfacet
facet normal 0.0 0.0 1.0 
outer loop
vertex 10.404401145198811 10.40440114519881 24.14213562373095 
vertex 17.071067811865476 17.071067811865476 24.14213562373095 
vertex 2.5312905931732285e-15 14.142135623730951 24.14213562373095 
endloop
endfacet
facet normal 0.0 0.0 1.0 
outer loop
vertex 10.404401145198811 10.40440114519881 24.14213562373095 
vertex 2.5312905931732285e-15 14.142135623730951 24.14213562373095 
vertex 14.142135623730955 -7.401486830834376e-16 24.14213562373095 
endloop
endfacet
facet normal 0.0 -0.0 1.0 
outer loop
vertex 10.404401145198811 10.40440114519881 24.14213562373095 
vertex 14.142135623730955 -7.401486830834376e-16 24.14213562373095 
vertex 17.071067811865476 17.071067811865476 24.14213562373095 
endloop
endfacet
facet normal 0.8535533905932738 0.14644660940672605 0.5 
outer loop
vertex 18.45177968644246 -9.023689270621825 19.428090415820634 
vertex 17.071067811865476 -17.071067811865476 24.14213562373095 
vertex 24.14213562373095 -10.0 10.0 
endloop
endfacet
facet normal 0.8535533905932738 0.14644660940672619 0.49999999999999994 
outer loop
vertex 18.45177968644246 -9.023689270621825 19.428090415820634 
vertex 24.14213562373095 -10.0 10.0 
vertex 14.142135623730955 -7.401486830834376e-16 24.14213562373095 
endloop
endfacet
facet normal 0.8535533905932738 0.14644660940672605 0.49999999999999994 
outer loop
vertex 18.45177968644246 -9.023689270621825 19.428090415820634 
vertex 14.142135623730955 -7.401486830834376e-16 24.14213562373095 
vertex 17.071067811865476 -17.071067811865476 24.14213562373095 
endloop
endfacet
facet normal 0.0 0.0 1.0 
outer loop
vertex 10.40440114519881 -10.40440114519881 24.14213562373095 
vertex 17.071067811865476 -17.071067811865476 24.14213562373095 
vertex 14.142135623730955 -7.401486830834376e-16 24.14213562373095 
endloop
endfacet
facet normal 0.0 0.0 1.0 
outer loop
vertex 10.40440114519881 -10.40440114519881 24.14213562373095 
vertex 14.142135623730955 -7.401486830834376e-16 24.14213562373095 
vertex -9.325336317687452e-16 -14.142135623730951 24.14213562373095 
endloop
endfacet
facet normal -0.0 0.0 1.0 
outer loop
vertex 10.40440114519881 -10.40440114519881 24.14213562373095 
vertex -9.325336317687452e-16 -14.142135623730951 24.14213562373095 
vertex 17.071067811865476 -17.071067811865476 24.14213562373095 
endloop
endfacet
facet normal -0.1464466094067262 -0.8535533905932737 0.5000000000000001 
outer loop
vertex 9.023689270621825 -18.45177968644246 19.428090415820634 
vertex 17.071067811865476 -17.071067811865476 24.14213562373095 
vertex -9.325336317687452e-16 -14.142135623730951 24.14213562373095 
endloop
endfacet
facet normal -0.14644660940672632 -0.8535533905932737 0.49999999999999994 
outer loop
vertex 9.023689270621825 -18.45177968644246 19.428090415820634 
vertex -9.325336317687452e-16 -14.142135623730951 24.14213562373095 
vertex 9.999999999999998 -24.14213562373095 10.0 
endloop
endfacet
facet normal -0.14644660940672602 -0.8535533905932738 0.5 
outer loop
vertex 9.023689270621825 -18.45177968644246 19.428090415820634 
vertex 9.999999999999998 -24.14213562373095 10.0 
vertex 17.071067811865476 -17.071067811865476 24.14213562373095 
endloop
endfacet
facet normal 0.7071067811865475 -0.7071067811865476 0.0 
outer loop
vertex 17.071067811865476 -17.071067811865476 14.714045207910317 
vertex 17.071067811865476 -17.071067811865476 24.14213562373095 
vertex 9.999999999999998 -24.14213562373095 10.0 
endloop
endfacet
facet normal 0.7071067811865475 -0.7071067811865476 -1.507288760336424e-16 
outer loop
vertex 17.071067811865476 -17.071067811865476 14.714045207910317 
vertex 9.999999999999998 -24.14213562373095 10.0 
vertex 24.14213562373095 -10.0 10.0 
endloop
endfacet
facet normal 0.7071067811865475 -0.7071067811865475 0.0 
outer loop
vertex 17.071067811865476 -17.071067811865476 14.714045207910317 
vertex 24.14213562373095 -10.0 10.0 
vertex 17.071067811865476 -17.071067811865476 24.14213562373095 
endloop
endfacet
facet normal 0.1464466094067262 0.8535533905932737 0.5000000000000001 
outer loop
vertex -9.023689270621821 18.45177968644246 19.428090415820634 
vertex -17.071067811865472 17.071067811865476 24.14213562373095 
vertex 2.5312905931732285e-15 14.142135623730951 24.14213562373095 
endloop
endfacet
facet normal 0.1464466094067264 0.8535533905932738 0.49999999999999983 
outer loop
vertex -9.023689270621821 18.45177968644246 19.428090415820634 
vertex 2.5312905931732285e-15 14.142135623730951 24.14213562373095 
vertex -9.999999999999996 24.14213562373095 10.0 
endloop
endfacet
facet normal 0.146446609406726 0.8535533905932738 0.49999999999999994 
outer loop
vertex -9.023689270621821 18.45177968644246 19.428090415820634 
vertex -9.999999999999996 24.14213562373095 10.0 
vertex -17.071067811865472 17.071067811865476 24.14213562373095 
endloop
endfacet
facet normal -0.7071067811865476 0.7071067811865476 0.0 
outer loop
vertex -17.071067811865472 17.071067811865476 14.714045207910317 
vertex -17.071067811865472 17.071067811865476 24.14213562373095 
vertex -9.999999999999996 24.14213562373095 10.0 
endloop
endfacet
facet normal -0.7071067811865474 0.7071067811865477 3.014577520672848e-16 
outer loop
vertex -17.071067811865472 17.071067811865476 14.714045207910317 
vertex -9.999999999999996 24.14213562373095 10.0 
vertex -24.14213562373095 10.000000000000002 10.0 
endloop
endfacet
facet normal -0.7071067811865472 0.7071067811865478 0.0 
outer loop
vertex -17.071067811865472 17.071067811865476 14.714045207910317 
vertex -24.14213562373095 10.000000000000002 10.0 
vertex -17.071067811865472 17.071067811865476 24.14213562373095 
endloop
endfacet
facet normal -0.8535533905932738 -0.14644660940672563 0.49999999999999994 
outer loop
vertex -18.45177968644246 9.023689270621825 19.428090415820634 
vertex -17.071067811865472 17.071067811865476 24.14213562373095 
vertex -24.14213562373095 10.000000000000002 10.0 
endloop
endfacet
facet normal -0.8535533905932736 -0.14644660940672666 0.4999999999999998 
outer loop
vertex -18.45177968644246 9.023689270621825 19.428090415820634 
vertex -24.14213562373095 10.000000000000002 10.0 
vertex -14.14213562373095 9.917634293875492e-16 24.14213562373095 
endloop
endfacet
facet normal -0.8535533905932735 -0.14644660940672607 0.5000000000000006 
outer loop
vertex -18.45177968644246 9.023689270621825 19.428090415820634 
vertex -14.14213562373095 9.917634293875492e-16 24.14213562373095 
vertex -17.071067811865472 17.071067811865476 24.14213562373095 
endloop
endfacet
facet normal 0.0 0.0 1.0 
outer loop
vertex -10.404401145198806 10.40440114519881 24.14213562373095 
vertex -17.071067811865472 17.071067811865476 24.14213562373095 
vertex -14.14213562373095 9.917634293875492e-16 24.14213562373095 
endloop
endfacet
facet normal 0.0 0.0 1.0 
outer loop
vertex -10.404401145198806 10.40440114519881 24.14213562373095 
vertex -14.14213562373095 9.917634293875492e-16 24.14213562373095 
vertex 2.5312905931732285e-15 14.142135623730951 24.14213562373095 
endloop
endfacet
facet normal 0.0 0.0 1.0 
outer loop
vertex -10.404401145198806 10.40440114519881 24.14213562373095 
vertex 2.5312905931732285e-15 14.142135623730951 24.14213562373095 
vertex -17.071067811865472 17.071067811865476 24.14213562373095 
endloop
endfacet
facet normal -0.8535533905932736 0.14644660940672627 0.5000000000000002 
outer loop
vertex -18.45177968644246 -9.023689270621825 19.428090415820634 
vertex -17.071067811865476 -17.071067811865476 24.14213562373095 
vertex -14.14213562373095 9.917634293875492e-16 24.14213562373095 
endloop
endfacet
facet normal -0.8535533905932736 0.1464466094067263 0.5000000000000001 
outer loop
vertex -18.45177968644246 -9.023689270621825 19.428090415820634 
vertex -14.14213562373095 9.917634293875492e-16 24.14213562373095 
vertex -24.142135623730955 -9.999999999999996 10.0 
endloop
endfacet
facet normal -0.8535533905932735 0.1464466094067263 0.5000000000000002 
outer loop
vertex -18.45177968644246 -9.023689270621825 19.428090415820634 
vertex -24.142135623730955 -9.999999999999996 10.0 
vertex -17.071067811865476 -17.071067811865476 24.14213562373095 
endloop
endfacet
facet normal -0.7071067811865476 -0.7071067811865476 -0.0 
outer loop
vertex -17.071067811865476 -17.071067811865476 14.714045207910317 
vertex -17.071067811865476 -17.071067811865476 24.14213562373095 
vertex -24.142135623730955 -9.999999999999996 10.0 
endloop
endfacet
facet normal -0.7071067811865475 -0.7071067811865475 1.5072887603364236e-16 
outer loop
vertex -17.071067811865476 -17.071067811865476 14.714045207910317 
vertex -24.142135623730955 -9.999999999999996 10.0 
vertex -10.000000000000002 -24.14213562373095 10.0 
endloop
endfacet
facet normal -0.7071067811865477 -0.7071067811865474 0.0 
outer loop
vertex -17.071067811865476 -17.071067811865476 14.714045207910317 
vertex -10.000000000000002 -24.14213562373095 10.0 
vertex -17.071067811865476 -17.071067811865476 24.14213562373095 
endloop
endfacet
facet normal 0.14644660940672602 -0.8535533905932738 0.49999999999999994 
outer loop
vertex -9.023689270621825 -18.45177968644246 19.428090415820634 
vertex -17.071067811865476 -17.071067811865476 24.14213562373095 
vertex -10.000000000000002 -24.14213562373095 10.0 
endloop
endfacet
facet normal 0.14644660940672652 -0.8535533905932737 0.49999999999999983 
outer loop
vertex -9.023689270621825 -18.45177968644246 19.428090415820634 
vertex -10.000000000000002 -24.14213562373095 10.0 
vertex -9.325336317687452e-16 -14.142135623730951 24.14213562373095 
endloop
endfacet
facet normal 0.1464466094067262 -0.8535533905932737 0.5000000000000001 
outer loop
vertex -9.023689270621825 -18.45177968644246 19.428090415820634 
vertex -9.325336317687452e-16 -14.142135623730951 24.14213562373095 
vertex -17.071067811865476 -17.071067811865476 24.14213562373095 
endloop
endfacet
facet normal 0.0 0.0 1.0 
outer loop
vertex -10.40440114519881 -10.40440114519881 24.14213562373095 
vertex -17.071067811865476 -17.071067811865476 24.14213562373095 
vertex -9.325336317687452e-16 -14.142135623730951 24.14213562373095 
endloop
endfacet
facet normal 0.0 0.0 1.0 
outer loop
vertex -10.40440114519881 -10.40440114519881 24.14213562373095 
vertex -9.325336317687452e-16 -14.142135623730951 24.14213562373095 
vertex -14.14213562373095 9.917634293875492e-16 24.14213562373095 
endloop
endfacet
facet normal 0.0 0.0 1.0 
outer loop
vertex -10.40440114519881 -10.40440114519881 24.14213562373095 
vertex -14.14213562373095 9.917634293875492e-16 24.14213562373095 
vertex -17.071067811865476 -17.071067811865476 24.14213562373095 
endloop
endfacet
endsolid test
