solid test
facet normal -0.0 0.0 -1.0 
outer loop
vertex 1.7763568394002505e-15 -1.0658141036401502e-15 -42.27032728823214 
vertex 16.641240945036404 -3.537204957199327 -42.27032728823214 
vertex 1.7783444354885227 -16.91981708437649 -42.27032728823214 
endloop
endfacet
facet normal 0.0 0.0 -1.0 
outer loop
vertex 1.7763568394002505e-15 -1.0658141036401502e-15 -42.27032728823214 
vertex 1.7783444354885227 -16.91981708437649 -42.27032728823214 
vertex -15.54216364020025 -6.919817084376495 -42.27032728823214 
endloop
endfacet
facet normal 0.0 0.0 -1.0 
outer loop
vertex 1.7763568394002505e-15 -1.0658141036401502e-15 -42.27032728823214 
vertex -15.54216364020025 -6.919817084376495 -42.27032728823214 
vertex -11.383929823845067 12.643134930299619 -42.27032728823214 
endloop
endfacet
facet normal 0.0 0.0 -1.0 
outer loop
vertex 1.7763568394002505e-15 -1.0658141036401502e-15 -42.27032728823214 
vertex -11.383929823845067 12.643134930299619 -42.27032728823214 
vertex 8.506508083520398 14.733704195652692 -42.27032728823214 
endloop
endfacet
facet normal 0.0 -0.0 -1.0 
outer loop
vertex 1.7763568394002505e-15 -1.0658141036401502e-15 -42.27032728823214 
vertex 8.506508083520398 14.733704195652692 -42.27032728823214 
vertex 16.641240945036404 -3.537204957199327 -42.27032728823214 
endloop
endfacet
facet normal 0.7236067977499789 -0.5257311121191337 -0.4472135954999581 
outer loop
vertex 30.587096168881214 -22.222826174882037 -18.90386504953028 
vertex 21.28528827632865 -36.37871123675832 -17.31326543146595 
vertex 20.896522107227476 -23.735576306458697 -32.80519881629562 
endloop
endfacet
facet normal 0.7236067977499788 -0.5257311121191338 -0.447213595499958 
outer loop
vertex 30.587096168881214 -22.222826174882037 -18.90386504953028 
vertex 20.896522107227476 -23.735576306458697 -32.80519881629562 
vertex 33.89979992083365 -9.001872110806008 -29.085961424412194 
endloop
endfacet
facet normal 0.723606797749979 -0.5257311121191337 -0.4472135954999578 
outer loop
vertex 30.587096168881214 -22.222826174882037 -18.90386504953028 
vertex 33.89979992083365 -9.001872110806008 -29.085961424412194 
vertex 42.32503374390085 -12.539077068005335 -11.29541291916905 
endloop
endfacet
facet normal 0.7236067977499789 -0.5257311121191335 -0.44721359549995815 
outer loop
vertex 30.587096168881214 -22.222826174882037 -18.90386504953028 
vertex 42.32503374390085 -12.539077068005335 -11.29541291916905 
vertex 34.52883679611544 -29.458894152381827 -4.019486656308579 
endloop
endfacet
facet normal 0.7236067977499789 -0.5257311121191335 -0.4472135954999582 
outer loop
vertex 30.587096168881214 -22.222826174882037 -18.90386504953028 
vertex 34.52883679611544 -29.458894152381827 -4.019486656308579 
vertex 21.28528827632865 -36.37871123675832 -17.31326543146595 
endloop
endfacet
facet normal -0.2763932022500212 -0.85065080835204 -0.447213595499958 
outer loop
vertex -11.683231119350918 -35.95728807703996 -18.903865049530275 
vertex -28.02069456858333 -31.485152122040382 -17.313265431465947 
vertex -16.116494059813316 -27.20846996796351 -32.805198816295615 
endloop
endfacet
facet normal -0.27639320225002084 -0.85065080835204 -0.4472135954999581 
outer loop
vertex -11.683231119350918 -35.95728807703996 -18.903865049530275 
vertex -16.116494059813316 -27.20846996796351 -32.805198816295615 
vertex 1.9143251516104356 -35.022357079239704 -29.085961424412186 
endloop
endfacet
facet normal -0.27639320225002084 -0.85065080835204 -0.4472135954999581 
outer loop
vertex -11.683231119350918 -35.95728807703996 -18.903865049530275 
vertex 1.9143251516104356 -35.022357079239704 -29.085961424412186 
vertex 1.1537837605048669 -44.12828705234 -11.295412919169046 
endloop
endfacet
facet normal -0.2763932022500212 -0.8506508083520401 -0.44721359549995754 
outer loop
vertex -11.683231119350918 -35.95728807703996 -18.903865049530275 
vertex 1.1537837605048669 -44.12828705234 -11.295412919169046 
vertex -17.34707588047324 -41.9421741636162 -4.019486656308568 
endloop
endfacet
facet normal -0.2763932022500212 -0.8506508083520401 -0.4472135954999576 
outer loop
vertex -11.683231119350918 -35.95728807703996 -18.903865049530275 
vertex -17.34707588047324 -41.9421741636162 -4.019486656308568 
vertex -28.02069456858333 -31.485152122040382 -17.313265431465947 
endloop
endfacet
facet normal -0.8944271909999163 -2.6457275169118143e-16 -0.4472135954999573 
outer loop
vertex -37.80773009906055 -5.5067062021407766e-15 -18.903865049530275 
vertex -38.603029908092715 16.91981708437649 -17.31326543146595 
vertex -30.85706321567789 6.919817084376488 -32.80519881629562 
endloop
endfacet
facet normal -0.8944271909999163 1.2905987887374706e-17 -0.4472135954999572 
outer loop
vertex -37.80773009906055 -5.5067062021407766e-15 -18.903865049530275 
vertex -30.85706321567789 6.919817084376488 -32.80519881629562 
vertex -32.7166819116196 -12.643134930299627 -29.08596142441219 
endloop
endfacet
facet normal -0.894427190999916 6.19487418593986e-16 -0.44721359549995787 
outer loop
vertex -37.80773009906055 -5.5067062021407766e-15 -18.903865049530275 
vertex -32.7166819116196 -12.643134930299627 -29.08596142441219 
vertex -41.61195616424117 -14.733704195652695 -11.295412919169049 
endloop
endfacet
facet normal -0.894427190999916 5.420514912697378e-16 -0.447213595499958 
outer loop
vertex -37.80773009906055 -5.5067062021407766e-15 -18.903865049530275 
vertex -41.61195616424117 -14.733704195652695 -11.295412919169049 
vertex -45.2499192956714 3.5372049571993154 -4.019486656308575 
endloop
endfacet
facet normal -0.8944271909999159 -2.0649580619799523e-16 -0.44721359549995776 
outer loop
vertex -37.80773009906055 -5.5067062021407766e-15 -18.903865049530275 
vertex -45.2499192956714 3.5372049571993154 -4.019486656308575 
vertex -38.603029908092715 16.91981708437649 -17.31326543146595 
endloop
endfacet
facet normal -0.2763932022500213 0.85065080835204 -0.44721359549995804 
outer loop
vertex -11.683231119350932 35.957288077039955 -18.903865049530285 
vertex 4.162710016653305 41.9421741636162 -17.313265431465954 
vertex -2.9542198004797426 31.48515212204038 -32.80519881629562 
endloop
endfacet
facet normal -0.2763932022500212 0.8506508083520399 -0.447213595499958 
outer loop
vertex -11.683231119350932 35.957288077039955 -18.903865049530285 
vertex -2.9542198004797426 31.48515212204038 -32.80519881629562 
vertex -22.13434657211023 27.208469967963502 -29.085961424412197 
endloop
endfacet
facet normal -0.27639320225002123 0.85065080835204 -0.447213595499958 
outer loop
vertex -11.683231119350932 35.957288077039955 -18.903865049530285 
vertex -22.13434657211023 27.208469967963502 -29.085961424412197 
vertex -26.871387008376608 35.022357079239704 -11.295412919169053 
endloop
endfacet
facet normal -0.27639320225002123 0.8506508083520399 -0.447213595499958 
outer loop
vertex -11.683231119350932 35.957288077039955 -18.903865049530285 
vertex -26.871387008376608 35.022357079239704 -11.295412919169053 
vertex -10.618912232441389 44.12828705234 -4.019486656308583 
endloop
endfacet
facet normal -0.2763932022500213 0.8506508083520399 -0.44721359549995804 
outer loop
vertex -11.683231119350932 35.957288077039955 -18.903865049530285 
vertex -10.618912232441389 44.12828705234 -4.019486656308583 
vertex 4.162710016653305 41.9421741636162 -17.313265431465954 
endloop
endfacet
facet normal 0.7236067977499788 0.5257311121191336 -0.447213595499958 
outer loop
vertex 30.58709616888121 22.222826174882044 -18.903865049530282 
vertex 41.17572618369412 9.001872110806012 -17.313265431465954 
vertex 29.031254968743482 12.539077068005339 -32.80519881629562 
endloop
endfacet
facet normal 0.7236067977499788 0.5257311121191336 -0.44721359549995804 
outer loop
vertex 30.58709616888121 22.222826174882044 -18.903865049530282 
vertex 29.031254968743482 12.539077068005339 -32.80519881629562 
vertex 19.03690341128576 29.45889415238183 -29.085961424412194 
endloop
endfacet
facet normal 0.7236067977499788 0.525731112119134 -0.4472135954999578 
outer loop
vertex 30.58709616888121 22.222826174882044 -18.903865049530282 
vertex 19.03690341128576 29.45889415238183 -29.085961424412194 
vertex 25.00452566821207 36.37871123675832 -11.295412919169053 
endloop
endfacet
facet normal 0.7236067977499789 0.5257311121191339 -0.44721359549995754 
outer loop
vertex 30.58709616888121 22.222826174882044 -18.903865049530282 
vertex 25.00452566821207 36.37871123675832 -11.295412919169053 
vertex 38.68707061247061 23.735576306458704 -4.0194866563085805 
endloop
endfacet
facet normal 0.7236067977499792 0.5257311121191338 -0.44721359549995765 
outer loop
vertex 30.58709616888121 22.222826174882044 -18.903865049530282 
vertex 38.68707061247061 23.735576306458704 -4.0194866563085805 
vertex 41.17572618369412 9.001872110806012 -17.313265431465954 
endloop
endfacet
facet normal 0.27639320225002134 -0.8506508083520399 0.4472135954999579 
outer loop
vertex 11.683231119350916 -35.95728807703996 18.90386504953029 
vertex 17.347075880473252 -41.9421741636162 4.019486656308588 
vertex 28.020694568583348 -31.485152122040372 17.31326543146596 
endloop
endfacet
facet normal 0.27639320225002134 -0.8506508083520393 0.44721359549995865 
outer loop
vertex 11.683231119350916 -35.95728807703996 18.90386504953029 
vertex 28.020694568583348 -31.485152122040372 17.31326543146596 
vertex 16.116494059813295 -27.208469967963495 32.805198816295636 
endloop
endfacet
facet normal 0.27639320225002134 -0.8506508083520394 0.44721359549995865 
outer loop
vertex 11.683231119350916 -35.95728807703996 18.90386504953029 
vertex 16.116494059813295 -27.208469967963495 32.805198816295636 
vertex -1.9143251516104636 -35.02235707923971 29.085961424412204 
endloop
endfacet
facet normal 0.27639320225002084 -0.85065080835204 0.4472135954999581 
outer loop
vertex 11.683231119350916 -35.95728807703996 18.90386504953029 
vertex -1.9143251516104636 -35.02235707923971 29.085961424412204 
vertex -1.153783760504856 -44.12828705233999 11.295412919169067 
endloop
endfacet
facet normal 0.276393202250021 -0.85065080835204 0.4472135954999578 
outer loop
vertex 11.683231119350916 -35.95728807703996 18.90386504953029 
vertex -1.153783760504856 -44.12828705233999 11.295412919169067 
vertex 17.347075880473252 -41.9421741636162 4.019486656308588 
endloop
endfacet
facet normal -0.7236067977499792 -0.5257311121191341 0.44721359549995693 
outer loop
vertex -30.58709616888121 -22.222826174882066 18.903865049530253 
vertex -34.528836796115414 -29.45889415238185 4.019486656308549 
vertex -21.28528827632864 -36.37871123675834 17.313265431465933 
endloop
endfacet
facet normal -0.7236067977499797 -0.5257311121191343 0.447213595499956 
outer loop
vertex -30.58709616888121 -22.222826174882066 18.903865049530253 
vertex -21.28528827632864 -36.37871123675834 17.313265431465933 
vertex -20.89652210722751 -23.735576306458736 32.8051988162956 
endloop
endfacet
facet normal -0.7236067977499807 -0.525731112119132 0.44721359549995693 
outer loop
vertex -30.58709616888121 -22.222826174882066 18.903865049530253 
vertex -20.89652210722751 -23.735576306458736 32.8051988162956 
vertex -33.89979992083364 -9.001872110806023 29.08596142441216 
endloop
endfacet
facet normal -0.7236067977499793 -0.5257311121191328 0.4472135954999583 
outer loop
vertex -30.58709616888121 -22.222826174882066 18.903865049530253 
vertex -33.89979992083364 -9.001872110806023 29.08596142441216 
vertex -42.32503374390084 -12.539077068005366 11.29541291916902 
endloop
endfacet
facet normal -0.7236067977499793 -0.5257311121191339 0.44721359549995693 
outer loop
vertex -30.58709616888121 -22.222826174882066 18.903865049530253 
vertex -42.32503374390084 -12.539077068005366 11.29541291916902 
vertex -34.528836796115414 -29.45889415238185 4.019486656308549 
endloop
endfacet
facet normal -0.7236067977499793 0.5257311121191334 0.4472135954999576 
outer loop
vertex -30.58709616888121 22.22282617488204 18.90386504953027 
vertex -38.68707061247061 23.735576306458697 4.0194866563085725 
vertex -41.17572618369411 9.001872110806003 17.313265431465947 
endloop
endfacet
facet normal -0.7236067977499795 0.5257311121191335 0.44721359549995743 
outer loop
vertex -30.58709616888121 22.22282617488204 18.90386504953027 
vertex -41.17572618369411 9.001872110806003 17.313265431465947 
vertex -29.031254968743482 12.539077068005348 32.805198816295615 
endloop
endfacet
facet normal -0.7236067977499785 0.5257311121191344 0.44721359549995787 
outer loop
vertex -30.58709616888121 22.22282617488204 18.90386504953027 
vertex -29.031254968743482 12.539077068005348 32.805198816295615 
vertex -19.036903411285753 29.45889415238183 29.085961424412176 
endloop
endfacet
facet normal -0.7236067977499787 0.5257311121191335 0.44721359549995865 
outer loop
vertex -30.58709616888121 22.22282617488204 18.90386504953027 
vertex -19.036903411285753 29.45889415238183 29.085961424412176 
vertex -25.004525668212086 36.37871123675832 11.295412919169042 
endloop
endfacet
facet normal -0.7236067977499794 0.5257311121191333 0.4472135954999577 
outer loop
vertex -30.58709616888121 22.22282617488204 18.90386504953027 
vertex -25.004525668212086 36.37871123675832 11.295412919169042 
vertex -38.68707061247061 23.735576306458697 4.0194866563085725 
endloop
endfacet
facet normal 0.27639320225002095 0.85065080835204 0.4472135954999576 
outer loop
vertex 11.683231119350918 35.95728807703996 18.903865049530275 
vertex 10.618912232441364 44.12828705234 4.019486656308575 
vertex -4.162710016653326 41.9421741636162 17.313265431465947 
endloop
endfacet
facet normal 0.2763932022500209 0.85065080835204 0.4472135954999578 
outer loop
vertex 11.683231119350918 35.95728807703996 18.903865049530275 
vertex -4.162710016653326 41.9421741636162 17.313265431465947 
vertex 2.9542198004797426 31.485152122040382 32.80519881629561 
endloop
endfacet
facet normal 0.2763932022500214 0.8506508083520398 0.44721359549995815 
outer loop
vertex 11.683231119350918 35.95728807703996 18.903865049530275 
vertex 2.9542198004797426 31.485152122040382 32.80519881629561 
vertex 22.134346572110214 27.208469967963502 29.08596142441219 
endloop
endfacet
facet normal 0.27639320225002145 0.8506508083520399 0.44721359549995804 
outer loop
vertex 11.683231119350918 35.95728807703996 18.903865049530275 
vertex 22.134346572110214 27.208469967963502 29.08596142441219 
vertex 26.871387008376594 35.022357079239704 11.295412919169049 
endloop
endfacet
facet normal 0.2763932022500213 0.85065080835204 0.4472135954999576 
outer loop
vertex 11.683231119350918 35.95728807703996 18.903865049530275 
vertex 26.871387008376594 35.022357079239704 11.295412919169049 
vertex 10.618912232441364 44.12828705234 4.019486656308575 
endloop
endfacet
facet normal 0.8944271909999157 4.1299161239599035e-16 0.44721359549995815 
outer loop
vertex 37.80773009906056 1.0302869668521452e-14 18.903865049530285 
vertex 45.24991929567141 3.53720495719934 4.019486656308581 
vertex 38.603029908092715 16.919817084376504 17.313265431465954 
endloop
endfacet
facet normal 0.8944271909999159 3.4846167295911724e-16 0.4472135954999577 
outer loop
vertex 37.80773009906056 1.0302869668521452e-14 18.903865049530285 
vertex 38.603029908092715 16.919817084376504 17.313265431465954 
vertex 30.85706321567789 6.9198170843764935 32.80519881629562 
endloop
endfacet
facet normal 0.8944271909999159 -4.258976002833654e-16 0.4472135954999579 
outer loop
vertex 37.80773009906056 1.0302869668521452e-14 18.903865049530285 
vertex 30.85706321567789 6.9198170843764935 32.80519881629562 
vertex 32.71668191161959 -12.64313493029961 29.085961424412208 
endloop
endfacet
facet normal 0.8944271909999155 3.097437092969927e-16 0.44721359549995876 
outer loop
vertex 37.80773009906056 1.0302869668521452e-14 18.903865049530285 
vertex 32.71668191161959 -12.64313493029961 29.085961424412208 
vertex 41.611956164241185 -14.733704195652676 11.295412919169054 
endloop
endfacet
facet normal 0.8944271909999157 6.45299394368735e-16 0.4472135954999582 
outer loop
vertex 37.80773009906056 1.0302869668521452e-14 18.903865049530285 
vertex 41.611956164241185 -14.733704195652676 11.295412919169054 
vertex 45.24991929567141 3.53720495719934 4.019486656308581 
endloop
endfacet
facet normal -9.130224866555229e-17 4.295433081350475e-16 1.0 
outer loop
vertex -1.4566126083082053e-14 4.618527782440651e-15 42.27032728823214 
vertex -16.641240945036404 -3.5372049571993105 42.27032728823214 
vertex -1.778344435488556 -16.9198170843765 42.270327288232146 
endloop
endfacet
facet normal -6.948536664426121e-16 4.92979118344021e-16 1.0 
outer loop
vertex -1.4566126083082053e-14 4.618527782440651e-15 42.27032728823214 
vertex -1.778344435488556 -16.9198170843765 42.270327288232146 
vertex 15.542163640200224 -6.919817084376485 42.27032728823215 
endloop
endfacet
facet normal -6.526885850755644e-16 5.876834416690736e-16 1.0 
outer loop
vertex -1.4566126083082053e-14 4.618527782440651e-15 42.27032728823214 
vertex 15.542163640200224 -6.919817084376485 42.27032728823215 
vertex 11.383929823845058 12.643134930299619 42.27032728823214 
endloop
endfacet
facet normal -6.52688585075564e-16 5.876834416690732e-16 1.0 
outer loop
vertex -1.4566126083082053e-14 4.618527782440651e-15 42.27032728823214 
vertex 11.383929823845058 12.643134930299619 42.27032728823214 
vertex -8.506508083520394 14.733704195652699 42.270327288232124 
endloop
endfacet
facet normal -1.826044973311048e-16 8.590866162700958e-16 1.0 
outer loop
vertex -1.4566126083082053e-14 4.618527782440651e-15 42.27032728823214 
vertex -8.506508083520394 14.733704195652699 42.270327288232124 
vertex -16.641240945036404 -3.5372049571993105 42.27032728823214 
endloop
endfacet
facet normal 0.6070619982066863 -9.81518216613274e-17 -0.794654472291766 
outer loop
vertex 26.52409861153784 1.1842378929335002e-15 -34.720495842979986 
vertex 16.641240945036404 -3.537204957199327 -42.27032728823214 
vertex 29.031254968743482 12.539077068005339 -32.80519881629562 
endloop
endfacet
facet normal 0.6070619982066859 1.2268977707665913e-17 -0.7946544722917664 
outer loop
vertex 26.52409861153784 1.1842378929335002e-15 -34.720495842979986 
vertex 29.031254968743482 12.539077068005339 -32.80519881629562 
vertex 33.89979992083365 -9.001872110806008 -29.085961424412194 
endloop
endfacet
facet normal 0.6070619982066863 2.944554649839821e-16 -0.7946544722917661 
outer loop
vertex 26.52409861153784 1.1842378929335002e-15 -34.720495842979986 
vertex 33.89979992083365 -9.001872110806008 -29.085961424412194 
vertex 16.641240945036404 -3.537204957199327 -42.27032728823214 
endloop
endfacet
facet normal 0.18759247408507992 -0.577350269189626 -0.794654472291766 
outer loop
vertex 8.196397231442145 -25.2259168233583 -34.72049584297998 
vertex 20.896522107227476 -23.735576306458697 -32.80519881629562 
vertex 1.9143251516104356 -35.022357079239704 -29.085961424412186 
endloop
endfacet
facet normal 0.18759247408507998 -0.5773502691896258 -0.7946544722917659 
outer loop
vertex 8.196397231442145 -25.2259168233583 -34.72049584297998 
vertex 1.9143251516104356 -35.022357079239704 -29.085961424412186 
vertex 1.7783444354885227 -16.91981708437649 -42.27032728823214 
endloop
endfacet
facet normal 0.18759247408508 -0.5773502691896261 -0.794654472291766 
outer loop
vertex 8.196397231442145 -25.2259168233583 -34.72049584297998 
vertex 1.7783444354885227 -16.91981708437649 -42.27032728823214 
vertex 20.896522107227476 -23.735576306458697 -32.80519881629562 
endloop
endfacet
facet normal -0.4911234731884227 -0.35682208977309066 -0.7946544722917659 
outer loop
vertex -21.458446537211056 -15.59047399421321 -34.72049584297998 
vertex -32.7166819116196 -12.643134930299627 -29.08596142441219 
vertex -15.54216364020025 -6.919817084376495 -42.27032728823214 
endloop
endfacet
facet normal -0.4911234731884231 -0.3568220897730903 -0.7946544722917658 
outer loop
vertex -21.458446537211056 -15.59047399421321 -34.72049584297998 
vertex -15.54216364020025 -6.919817084376495 -42.27032728823214 
vertex -16.116494059813316 -27.20846996796351 -32.805198816295615 
endloop
endfacet
facet normal -0.4911234731884227 -0.3568220897730902 -0.7946544722917662 
outer loop
vertex -21.458446537211056 -15.59047399421321 -34.72049584297998 
vertex -16.116494059813316 -27.20846996796351 -32.805198816295615 
vertex -32.7166819116196 -12.643134930299627 -29.08596142441219 
endloop
endfacet
facet normal -0.49112347318842303 0.3568220897730898 -0.7946544722917661 
outer loop
vertex -21.45844653721106 15.590473994213204 -34.720495842979986 
vertex -30.85706321567789 6.919817084376488 -32.80519881629562 
vertex -22.13434657211023 27.208469967963502 -29.085961424412197 
endloop
endfacet
facet normal -0.4911234731884231 0.3568220897730897 -0.7946544722917662 
outer loop
vertex -21.45844653721106 15.590473994213204 -34.720495842979986 
vertex -22.13434657211023 27.208469967963502 -29.085961424412197 
vertex -11.383929823845067 12.643134930299619 -42.27032728823214 
endloop
endfacet
facet normal -0.4911234731884231 0.35682208977308993 -0.7946544722917661 
outer loop
vertex -21.45844653721106 15.590473994213204 -34.720495842979986 
vertex -11.383929823845067 12.643134930299619 -42.27032728823214 
vertex -30.85706321567789 6.919817084376488 -32.80519881629562 
endloop
endfacet
facet normal 0.18759247408507965 0.5773502691896258 -0.7946544722917661 
outer loop
vertex 8.19639723144214 25.2259168233583 -34.720495842979986 
vertex 8.506508083520398 14.733704195652692 -42.27032728823214 
vertex -2.9542198004797426 31.48515212204038 -32.80519881629562 
endloop
endfacet
facet normal 0.18759247408507987 0.577350269189626 -0.794654472291766 
outer loop
vertex 8.19639723144214 25.2259168233583 -34.720495842979986 
vertex -2.9542198004797426 31.48515212204038 -32.80519881629562 
vertex 19.03690341128576 29.45889415238183 -29.085961424412194 
endloop
endfacet
facet normal 0.18759247408507998 0.5773502691896257 -0.794654472291766 
outer loop
vertex 8.19639723144214 25.2259168233583 -34.720495842979986 
vertex 19.03690341128576 29.45889415238183 -29.085961424412194 
vertex 8.506508083520398 14.733704195652692 -42.27032728823214 
endloop
endfacet
facet normal 0.30353099910334336 -0.9341723589627157 -0.18759247408507992 
outer loop
vertex 13.26204930576892 -40.81639081757151 -8.196397231442136 
vertex 21.28528827632865 -36.37871123675832 -17.31326543146595 
vertex 17.347075880473252 -41.9421741636162 4.019486656308588 
endloop
endfacet
facet normal 0.303530999103343 -0.9341723589627158 -0.18759247408507987 
outer loop
vertex 13.26204930576892 -40.81639081757151 -8.196397231442136 
vertex 17.347075880473252 -41.9421741636162 4.019486656308588 
vertex 1.1537837605048669 -44.12828705234 -11.295412919169046 
endloop
endfacet
facet normal 0.303530999103343 -0.9341723589627156 -0.1875924740850802 
outer loop
vertex 13.26204930576892 -40.81639081757151 -8.196397231442136 
vertex 1.1537837605048669 -44.12828705234 -11.295412919169046 
vertex 21.28528827632865 -36.37871123675832 -17.31326543146595 
endloop
endfacet
facet normal 0.9822469463768461 9.815182166132734e-17 -0.18759247408507976 
outer loop
vertex 42.91689307442213 5.329070518200751e-15 -8.196397231442141 
vertex 41.17572618369412 9.001872110806012 -17.313265431465954 
vertex 45.24991929567141 3.53720495719934 4.019486656308581 
endloop
endfacet
facet normal 0.9822469463768461 4.9075910830663684e-17 -0.18759247408507976 
outer loop
vertex 42.91689307442213 5.329070518200751e-15 -8.196397231442141 
vertex 45.24991929567141 3.53720495719934 4.019486656308581 
vertex 42.32503374390085 -12.539077068005335 -11.29541291916905 
endloop
endfacet
facet normal 0.982246946376846 3.680693312299777e-17 -0.1875924740850798 
outer loop
vertex 42.91689307442213 5.329070518200751e-15 -8.196397231442141 
vertex 42.32503374390085 -12.539077068005335 -11.29541291916905 
vertex 41.17572618369412 9.001872110806012 -17.313265431465954 
endloop
endfacet
facet normal 0.7946544722917661 -0.5773502691896256 0.1875924740850804 
outer loop
vertex 34.72049584297999 -25.22591682335829 8.196397231442146 
vertex 34.52883679611544 -29.458894152381827 -4.019486656308579 
vertex 41.611956164241185 -14.733704195652676 11.295412919169054 
endloop
endfacet
facet normal 0.7946544722917662 -0.5773502691896256 0.1875924740850804 
outer loop
vertex 34.72049584297999 -25.22591682335829 8.196397231442146 
vertex 41.611956164241185 -14.733704195652676 11.295412919169054 
vertex 28.020694568583348 -31.485152122040372 17.31326543146596 
endloop
endfacet
facet normal 0.7946544722917661 -0.5773502691896256 0.18759247408508037 
outer loop
vertex 34.72049584297999 -25.22591682335829 8.196397231442146 
vertex 28.020694568583348 -31.485152122040372 17.31326543146596 
vertex 34.52883679611544 -29.458894152381827 -4.019486656308579 
endloop
endfacet
facet normal -0.7946544722917657 -0.577350269189626 -0.18759247408508065 
outer loop
vertex -34.72049584297997 -25.225916823358308 -8.196397231442148 
vertex -34.528836796115414 -29.45889415238185 4.019486656308549 
vertex -41.61195616424117 -14.733704195652695 -11.295412919169049 
endloop
endfacet
facet normal -0.7946544722917658 -0.5773502691896258 -0.18759247408508045 
outer loop
vertex -34.72049584297997 -25.225916823358308 -8.196397231442148 
vertex -41.61195616424117 -14.733704195652695 -11.295412919169049 
vertex -28.02069456858333 -31.485152122040382 -17.313265431465947 
endloop
endfacet
facet normal -0.794654472291766 -0.5773502691896258 -0.18759247408508062 
outer loop
vertex -34.72049584297997 -25.225916823358308 -8.196397231442148 
vertex -28.02069456858333 -31.485152122040382 -17.313265431465947 
vertex -34.528836796115414 -29.45889415238185 4.019486656308549 
endloop
endfacet
facet normal -0.30353099910334275 -0.9341723589627159 0.1875924740850799 
outer loop
vertex -13.262049305768912 -40.81639081757151 8.196397231442143 
vertex -17.34707588047324 -41.9421741636162 -4.019486656308568 
vertex -1.153783760504856 -44.12828705233999 11.295412919169067 
endloop
endfacet
facet normal -0.3035309991033426 -0.9341723589627161 0.18759247408507915 
outer loop
vertex -13.262049305768912 -40.81639081757151 8.196397231442143 
vertex -1.153783760504856 -44.12828705233999 11.295412919169067 
vertex -21.28528827632864 -36.37871123675834 17.313265431465933 
endloop
endfacet
facet normal -0.30353099910334214 -0.9341723589627161 0.18759247408507967 
outer loop
vertex -13.262049305768912 -40.81639081757151 8.196397231442143 
vertex -21.28528827632864 -36.37871123675834 17.313265431465933 
vertex -17.34707588047324 -41.9421741636162 -4.019486656308568 
endloop
endfacet
facet normal -0.794654472291766 0.5773502691896256 -0.1875924740850799 
outer loop
vertex -34.72049584297998 25.2259168233583 -8.196397231442143 
vertex -38.68707061247061 23.735576306458697 4.0194866563085725 
vertex -26.871387008376608 35.022357079239704 -11.295412919169053 
endloop
endfacet
facet normal -0.7946544722917661 0.5773502691896256 -0.18759247408508042 
outer loop
vertex -34.72049584297998 25.2259168233583 -8.196397231442143 
vertex -26.871387008376608 35.022357079239704 -11.295412919169053 
vertex -38.603029908092715 16.91981708437649 -17.31326543146595 
endloop
endfacet
facet normal -0.7946544722917664 0.5773502691896253 -0.1875924740850801 
outer loop
vertex -34.72049584297998 25.2259168233583 -8.196397231442143 
vertex -38.603029908092715 16.91981708437649 -17.31326543146595 
vertex -38.68707061247061 23.735576306458697 4.0194866563085725 
endloop
endfacet
facet normal -0.9822469463768462 -3.650020868030613e-16 0.18759247408507937 
outer loop
vertex -42.91689307442211 -1.569115208136888e-14 8.19639723144213 
vertex -42.32503374390084 -12.539077068005366 11.29541291916902 
vertex -41.17572618369411 9.001872110806003 17.313265431465947 
endloop
endfacet
facet normal -0.982246946376846 -7.85214573290619e-16 0.1875924740850798 
outer loop
vertex -42.91689307442211 -1.569115208136888e-14 8.19639723144213 
vertex -41.17572618369411 9.001872110806003 17.313265431465947 
vertex -45.2499192956714 3.5372049571993154 -4.019486656308575 
endloop
endfacet
facet normal -0.982246946376846 -1.963036433226548e-16 0.18759247408508 
outer loop
vertex -42.91689307442211 -1.569115208136888e-14 8.19639723144213 
vertex -45.2499192956714 3.5372049571993154 -4.019486656308575 
vertex -42.32503374390084 -12.539077068005366 11.29541291916902 
endloop
endfacet
facet normal 0.30353099910334297 0.9341723589627158 -0.1875924740850797 
outer loop
vertex 13.262049305768913 40.81639081757151 -8.196397231442143 
vertex 4.162710016653305 41.9421741636162 -17.313265431465954 
vertex 10.618912232441364 44.12828705234 4.019486656308575 
endloop
endfacet
facet normal 0.30353099910334347 0.9341723589627158 -0.18759247408507962 
outer loop
vertex 13.262049305768913 40.81639081757151 -8.196397231442143 
vertex 10.618912232441364 44.12828705234 4.019486656308575 
vertex 25.00452566821207 36.37871123675832 -11.295412919169053 
endloop
endfacet
facet normal 0.3035309991033434 0.9341723589627156 -0.1875924740850802 
outer loop
vertex 13.262049305768913 40.81639081757151 -8.196397231442143 
vertex 25.00452566821207 36.37871123675832 -11.295412919169053 
vertex 4.162710016653305 41.9421741636162 -17.313265431465954 
endloop
endfacet
facet normal -0.30353099910334347 0.9341723589627156 0.18759247408508026 
outer loop
vertex -13.262049305768933 40.81639081757151 8.196397231442136 
vertex -25.004525668212086 36.37871123675832 11.295412919169042 
vertex -4.162710016653326 41.9421741636162 17.313265431465947 
endloop
endfacet
facet normal -0.3035309991033431 0.9341723589627158 0.18759247408507979 
outer loop
vertex -13.262049305768933 40.81639081757151 8.196397231442136 
vertex -4.162710016653326 41.9421741636162 17.313265431465947 
vertex -10.618912232441389 44.12828705234 -4.019486656308583 
endloop
endfacet
facet normal -0.30353099910334363 0.9341723589627156 0.18759247408507967 
outer loop
vertex -13.262049305768933 40.81639081757151 8.196397231442136 
vertex -10.618912232441389 44.12828705234 -4.019486656308583 
vertex -25.004525668212086 36.37871123675832 11.295412919169042 
endloop
endfacet
facet normal 0.7946544722917657 0.5773502691896266 0.1875924740850802 
outer loop
vertex 34.72049584297997 25.225916823358304 8.196397231442141 
vertex 38.603029908092715 16.919817084376504 17.313265431465954 
vertex 38.68707061247061 23.735576306458704 -4.0194866563085805 
endloop
endfacet
facet normal 0.7946544722917658 0.5773502691896261 0.18759247408508034 
outer loop
vertex 34.72049584297997 25.225916823358304 8.196397231442141 
vertex 38.68707061247061 23.735576306458704 -4.0194866563085805 
vertex 26.871387008376594 35.022357079239704 11.295412919169049 
endloop
endfacet
facet normal 0.7946544722917657 0.5773502691896263 0.18759247408507987 
outer loop
vertex 34.72049584297997 25.225916823358304 8.196397231442141 
vertex 26.871387008376594 35.022357079239704 11.295412919169049 
vertex 38.603029908092715 16.919817084376504 17.313265431465954 
endloop
endfacet
facet normal 0.4911234731884228 -0.3568220897730902 0.7946544722917662 
outer loop
vertex 21.458446537211035 -15.590473994213196 34.72049584298 
vertex 16.116494059813295 -27.208469967963495 32.805198816295636 
vertex 32.71668191161959 -12.64313493029961 29.085961424412208 
endloop
endfacet
facet normal 0.4911234731884228 -0.35682208977309005 0.7946544722917663 
outer loop
vertex 21.458446537211035 -15.590473994213196 34.72049584298 
vertex 32.71668191161959 -12.64313493029961 29.085961424412208 
vertex 15.542163640200224 -6.919817084376485 42.27032728823215 
endloop
endfacet
facet normal 0.4911234731884226 -0.3568220897730901 0.7946544722917663 
outer loop
vertex 21.458446537211035 -15.590473994213196 34.72049584298 
vertex 15.542163640200224 -6.919817084376485 42.27032728823215 
vertex 16.116494059813295 -27.208469967963495 32.805198816295636 
endloop
endfacet
facet normal -0.18759247408507992 -0.5773502691896258 0.7946544722917661 
outer loop
vertex -8.196397231442177 -25.225916823358318 34.720495842979986 
vertex -1.9143251516104636 -35.02235707923971 29.085961424412204 
vertex -1.778344435488556 -16.9198170843765 42.270327288232146 
endloop
endfacet
facet normal -0.18759247408508062 -0.5773502691896253 0.7946544722917663 
outer loop
vertex -8.196397231442177 -25.225916823358318 34.720495842979986 
vertex -1.778344435488556 -16.9198170843765 42.270327288232146 
vertex -20.89652210722751 -23.735576306458736 32.8051988162956 
endloop
endfacet
facet normal -0.18759247408508067 -0.5773502691896261 0.7946544722917658 
outer loop
vertex -8.196397231442177 -25.225916823358318 34.720495842979986 
vertex -20.89652210722751 -23.735576306458736 32.8051988162956 
vertex -1.9143251516104636 -35.02235707923971 29.085961424412204 
endloop
endfacet
facet normal -0.6070619982066873 -8.833663949519452e-16 0.7946544722917653 
outer loop
vertex -26.52409861153784 4.736951571734001e-15 34.72049584297997 
vertex -16.641240945036404 -3.5372049571993105 42.27032728823214 
vertex -29.031254968743482 12.539077068005348 32.805198816295615 
endloop
endfacet
facet normal -0.6070619982066872 -8.342904841212816e-16 0.7946544722917653 
outer loop
vertex -26.52409861153784 4.736951571734001e-15 34.72049584297997 
vertex -29.031254968743482 12.539077068005348 32.805198816295615 
vertex -33.89979992083364 -9.001872110806023 29.08596142441216 
endloop
endfacet
facet normal -0.6070619982066873 -7.85214573290618e-16 0.7946544722917653 
outer loop
vertex -26.52409861153784 4.736951571734001e-15 34.72049584297997 
vertex -33.89979992083364 -9.001872110806023 29.08596142441216 
vertex -16.641240945036404 -3.5372049571993105 42.27032728823214 
endloop
endfacet
facet normal -0.18759247408507987 0.577350269189626 0.7946544722917659 
outer loop
vertex -8.196397231442134 25.225916823358304 34.72049584297997 
vertex -8.506508083520394 14.733704195652699 42.270327288232124 
vertex 2.9542198004797426 31.485152122040382 32.80519881629561 
endloop
endfacet
facet normal -0.18759247408508012 0.5773502691896264 0.7946544722917657 
outer loop
vertex -8.196397231442134 25.225916823358304 34.72049584297997 
vertex 2.9542198004797426 31.485152122040382 32.80519881629561 
vertex -19.036903411285753 29.45889415238183 29.085961424412176 
endloop
endfacet
facet normal -0.18759247408508037 0.5773502691896258 0.794654472291766 
outer loop
vertex -8.196397231442134 25.225916823358304 34.72049584297997 
vertex -19.036903411285753 29.45889415238183 29.085961424412176 
vertex -8.506508083520394 14.733704195652699 42.270327288232124 
endloop
endfacet
facet normal 0.4911234731884229 0.35682208977308993 0.7946544722917663 
outer loop
vertex 21.458446537211056 15.590473994213205 34.720495842979986 
vertex 11.383929823845058 12.643134930299619 42.27032728823214 
vertex 30.85706321567789 6.9198170843764935 32.80519881629562 
endloop
endfacet
facet normal 0.4911234731884233 0.3568220897730905 0.7946544722917657 
outer loop
vertex 21.458446537211056 15.590473994213205 34.720495842979986 
vertex 30.85706321567789 6.9198170843764935 32.80519881629562 
vertex 22.134346572110214 27.208469967963502 29.08596142441219 
endloop
endfacet
facet normal 0.49112347318842253 0.3568220897730907 0.7946544722917661 
outer loop
vertex 21.458446537211056 15.590473994213205 34.720495842979986 
vertex 22.134346572110214 27.208469967963502 29.08596142441219 
vertex 11.383929823845058 12.643134930299619 42.27032728823214 
endloop
endfacet
facet normal 0.5308469547433452 -0.2653290330583333 -0.8048614879940813 
outer loop
vertex 23.81252099103251 -12.091551124821343 -34.72049584297998 
vertex 16.641240945036404 -3.537204957199327 -42.27032728823214 
vertex 33.89979992083365 -9.001872110806008 -29.085961424412194 
endloop
endfacet
facet normal 0.5308469547433452 -0.26532903305833205 -0.8048614879940817 
outer loop
vertex 23.81252099103251 -12.091551124821343 -34.72049584297998 
vertex 33.89979992083365 -9.001872110806008 -29.085961424412194 
vertex 20.896522107227476 -23.735576306458697 -32.80519881629562 
endloop
endfacet
facet normal 0.5308469547433463 -0.26532903305833216 -0.8048614879940809 
outer loop
vertex 23.81252099103251 -12.091551124821343 -34.72049584297998 
vertex 20.896522107227476 -23.735576306458697 -32.80519881629562 
vertex 16.641240945036404 -3.537204957199327 -42.27032728823214 
endloop
endfacet
facet normal 0.3133643855385407 -0.3480264082808634 -0.8835611925696911 
outer loop
vertex 13.105369162584134 -14.730866116011505 -39.1152844642533 
vertex 20.896522107227476 -23.735576306458697 -32.80519881629562 
vertex 1.7783444354885227 -16.91981708437649 -42.27032728823214 
endloop
endfacet
facet normal 0.3133643855385407 -0.3480264082808634 -0.8835611925696911 
outer loop
vertex 13.105369162584134 -14.730866116011505 -39.1152844642533 
vertex 1.7783444354885227 -16.91981708437649 -42.27032728823214 
vertex 16.641240945036404 -3.537204957199327 -42.27032728823214 
endloop
endfacet
facet normal 0.31336438553854074 -0.34802640828086334 -0.8835611925696909 
outer loop
vertex 13.105369162584134 -14.730866116011505 -39.1152844642533 
vertex 16.641240945036404 -3.537204957199327 -42.27032728823214 
vertex 20.896522107227476 -23.735576306458697 -32.80519881629562 
endloop
endfacet
facet normal 0.42782770400158465 0.1904811661911951 -0.8835611925696911 
outer loop
vertex 18.059667999100096 7.911858768819568 -39.1152844642533 
vertex 29.031254968743482 12.539077068005339 -32.80519881629562 
vertex 16.641240945036404 -3.537204957199327 -42.27032728823214 
endloop
endfacet
facet normal 0.4278277040015846 0.1904811661911951 -0.8835611925696912 
outer loop
vertex 18.059667999100096 7.911858768819568 -39.1152844642533 
vertex 16.641240945036404 -3.537204957199327 -42.27032728823214 
vertex 8.506508083520398 14.733704195652692 -42.27032728823214 
endloop
endfacet
facet normal 0.4278277040015846 0.19048116619119523 -0.883561192569691 
outer loop
vertex 18.059667999100096 7.911858768819568 -39.1152844642533 
vertex 8.506508083520398 14.733704195652692 -42.27032728823214 
vertex 29.031254968743482 12.539077068005339 -32.80519881629562 
endloop
endfacet
facet normal 0.41638363628030217 0.4228742751480002 -0.8048614879940813 
outer loop
vertex 18.858222154516547 18.91055847201329 -34.72049584297998 
vertex 8.506508083520398 14.733704195652692 -42.27032728823214 
vertex 19.03690341128576 29.45889415238183 -29.085961424412194 
endloop
endfacet
facet normal 0.4163836362803011 0.4228742751480003 -0.8048614879940816 
outer loop
vertex 18.858222154516547 18.91055847201329 -34.72049584297998 
vertex 19.03690341128576 29.45889415238183 -29.085961424412194 
vertex 29.031254968743482 12.539077068005339 -32.80519881629562 
endloop
endfacet
facet normal 0.41638363628030156 0.4228742751480012 -0.804861487994081 
outer loop
vertex 18.858222154516547 18.91055847201329 -34.72049584297998 
vertex 29.031254968743482 12.539077068005339 -32.80519881629562 
vertex 8.506508083520398 14.733704195652692 -42.27032728823214 
endloop
endfacet
facet normal 0.7930217880791717 0.07484786686713743 -0.6045777373151882 
outer loop
vertex 34.70226035775708 4.179692356001781 -26.401475224057922 
vertex 33.89979992083365 -9.001872110806008 -29.085961424412194 
vertex 29.031254968743482 12.539077068005339 -32.80519881629562 
endloop
endfacet
facet normal 0.7930217880791715 0.07484786686713735 -0.6045777373151883 
outer loop
vertex 34.70226035775708 4.179692356001781 -26.401475224057922 
vertex 29.031254968743482 12.539077068005339 -32.80519881629562 
vertex 41.17572618369412 9.001872110806012 -17.313265431465954 
endloop
endfacet
facet normal 0.7930217880791713 0.07484786686713746 -0.6045777373151884 
outer loop
vertex 34.70226035775708 4.179692356001781 -26.401475224057922 
vertex 41.17572618369412 9.001872110806012 -17.313265431465954 
vertex 33.89979992083365 -9.001872110806008 -29.085961424412194 
endloop
endfacet
facet normal 0.8954008924846012 -0.07484786686713717 -0.4389248666494292 
outer loop
vertex 39.13351994947621 -4.179692356001778 -19.2315465916824 
vertex 41.17572618369412 9.001872110806012 -17.313265431465954 
vertex 42.32503374390085 -12.539077068005335 -11.29541291916905 
endloop
endfacet
facet normal 0.8954008924846009 -0.07484786686713743 -0.43892486664942937 
outer loop
vertex 39.13351994947621 -4.179692356001778 -19.2315465916824 
vertex 42.32503374390085 -12.539077068005335 -11.29541291916905 
vertex 33.89979992083365 -9.001872110806008 -29.085961424412194 
endloop
endfacet
facet normal 0.8954008924846009 -0.07484786686713706 -0.43892486664942965 
outer loop
vertex 39.13351994947621 -4.179692356001778 -19.2315465916824 
vertex 33.89979992083365 -9.001872110806008 -29.085961424412194 
vertex 41.17572618369412 9.001872110806012 -17.313265431465954 
endloop
endfacet
facet normal -0.08830217542453715 -0.5868566357801945 -0.8048614879940811 
outer loop
vertex -4.14127482423812 -26.3835480438599 -34.72049584297998 
vertex 1.7783444354885227 -16.91981708437649 -42.27032728823214 
vertex 1.9143251516104356 -35.022357079239704 -29.085961424412186 
endloop
endfacet
facet normal -0.08830217542453674 -0.5868566357801944 -0.8048614879940813 
outer loop
vertex -4.14127482423812 -26.3835480438599 -34.72049584297998 
vertex 1.9143251516104356 -35.022357079239704 -29.085961424412186 
vertex -16.116494059813316 -27.20846996796351 -32.805198816295615 
endloop
endfacet
facet normal -0.08830217542453668 -0.5868566357801948 -0.8048614879940811 
outer loop
vertex -4.14127482423812 -26.3835480438599 -34.72049584297998 
vertex -16.116494059813316 -27.20846996796351 -32.805198816295615 
vertex 1.7783444354885227 -16.91981708437649 -42.27032728823214 
endloop
endfacet
facet normal -0.23415786287504092 -0.40557331549131687 -0.8835611925696909 
outer loop
vertex -9.960104421508348 -17.01603471223883 -39.1152844642533 
vertex -16.116494059813316 -27.20846996796351 -32.805198816295615 
vertex -15.54216364020025 -6.919817084376495 -42.27032728823214 
endloop
endfacet
facet normal -0.2341578628750405 -0.40557331549131664 -0.883561192569691 
outer loop
vertex -9.960104421508348 -17.01603471223883 -39.1152844642533 
vertex -15.54216364020025 -6.919817084376495 -42.27032728823214 
vertex 1.7783444354885227 -16.91981708437649 -42.27032728823214 
endloop
endfacet
facet normal -0.2341578628750405 -0.40557331549131703 -0.883561192569691 
outer loop
vertex -9.960104421508348 -17.01603471223883 -39.1152844642533 
vertex 1.7783444354885227 -16.91981708437649 -42.27032728823214 
vertex -16.116494059813316 -27.20846996796351 -32.805198816295615 
endloop
endfacet
facet normal 0.3162417609408553 -0.7310792762620717 -0.6045777373151878 
outer loop
vertex 14.69871184505552 -31.712214874152238 -26.40147522405792 
vertex 1.9143251516104356 -35.022357079239704 -29.085961424412186 
vertex 20.896522107227476 -23.735576306458697 -32.80519881629562 
endloop
endfacet
facet normal 0.31624176094085477 -0.7310792762620715 -0.6045777373151884 
outer loop
vertex 14.69871184505552 -31.712214874152238 -26.40147522405792 
vertex 20.896522107227476 -23.735576306458697 -32.80519881629562 
vertex 21.28528827632865 -36.37871123675832 -17.31326543146595 
endloop
endfacet
facet normal 0.3162417609408553 -0.731079276262071 -0.6045777373151886 
outer loop
vertex 14.69871184505552 -31.712214874152238 -26.40147522405792 
vertex 21.28528827632865 -36.37871123675832 -17.31326543146595 
vertex 1.9143251516104356 -35.022357079239704 -29.085961424412186 
endloop
endfacet
facet normal 0.20550954104145375 -0.8747061163486348 -0.4389248666494297 
outer loop
vertex 8.11779906281465 -38.50978512277934 -19.231546591682392 
vertex 21.28528827632865 -36.37871123675832 -17.31326543146595 
vertex 1.1537837605048669 -44.12828705234 -11.295412919169046 
endloop
endfacet
facet normal 0.20550954104145405 -0.8747061163486348 -0.43892486664942953 
outer loop
vertex 8.11779906281465 -38.50978512277934 -19.231546591682392 
vertex 1.1537837605048669 -44.12828705234 -11.295412919169046 
vertex 1.9143251516104356 -35.022357079239704 -29.085961424412186 
endloop
endfacet
facet normal 0.20550954104145366 -0.8747061163486349 -0.4389248666494293 
outer loop
vertex 8.11779906281465 -38.50978512277934 -19.231546591682392 
vertex 1.9143251516104356 -35.022357079239704 -29.085961424412186 
vertex 21.28528827632865 -36.37871123675832 -17.31326543146595 
endloop
endfacet
facet normal -0.597573631155604 -0.526679708067772 -0.6045777373151883 
outer loop
vertex -25.617956846672087 -23.778919006767836 -26.40147522405792 
vertex -32.7166819116196 -12.643134930299627 -29.08596142441219 
vertex -16.116494059813316 -27.20846996796351 -32.805198816295615 
endloop
endfacet
facet normal -0.5975736311556039 -0.5266797080677722 -0.6045777373151879 
outer loop
vertex -25.617956846672087 -23.778919006767836 -26.40147522405792 
vertex -16.116494059813316 -27.20846996796351 -32.805198816295615 
vertex -28.02069456858333 -31.485152122040382 -17.313265431465947 
endloop
endfacet
facet normal -0.5975736311556041 -0.526679708067772 -0.6045777373151879 
outer loop
vertex -25.617956846672087 -23.778919006767836 -26.40147522405792 
vertex -28.02069456858333 -31.485152122040382 -17.313265431465947 
vertex -32.7166819116196 -12.643134930299627 -29.08596142441219 
endloop
endfacet
facet normal -0.7683890111085908 -0.46575024320373953 -0.4389248666494296 
outer loop
vertex -34.1164442148147 -19.6206637493309 -19.231546591682395 
vertex -28.02069456858333 -31.485152122040382 -17.313265431465947 
vertex -41.61195616424117 -14.733704195652695 -11.295412919169049 
endloop
endfacet
facet normal -0.7683890111085906 -0.46575024320374 -0.4389248666494293 
outer loop
vertex -34.1164442148147 -19.6206637493309 -19.231546591682395 
vertex -41.61195616424117 -14.733704195652695 -11.295412919169049 
vertex -32.7166819116196 -12.643134930299627 -29.08596142441219 
endloop
endfacet
facet normal -0.7683890111085908 -0.4657502432037396 -0.43892486664942915 
outer loop
vertex -34.1164442148147 -19.6206637493309 -19.231546591682395 
vertex -32.7166819116196 -12.643134930299627 -29.08596142441219 
vertex -28.02069456858333 -31.485152122040382 -17.313265431465947 
endloop
endfacet
facet normal -0.5854207004362653 -0.097368314377245 -0.8048614879940812 
outer loop
vertex -26.371969589165914 -4.214378310099877 -34.72049584297998 
vertex -15.54216364020025 -6.919817084376495 -42.27032728823214 
vertex -32.7166819116196 -12.643134930299627 -29.08596142441219 
endloop
endfacet
facet normal -0.5854207004362646 -0.09736831437724569 -0.8048614879940816 
outer loop
vertex -26.371969589165914 -4.214378310099877 -34.72049584297998 
vertex -32.7166819116196 -12.643134930299627 -29.08596142441219 
vertex -30.85706321567789 6.919817084376488 -32.80519881629562 
endloop
endfacet
facet normal -0.5854207004362655 -0.09736831437724613 -0.804861487994081 
outer loop
vertex -26.371969589165914 -4.214378310099877 -34.72049584297998 
vertex -30.85706321567789 6.919817084376488 -32.80519881629562 
vertex -15.54216364020025 -6.919817084376495 -42.27032728823214 
endloop
endfacet
facet normal -0.4580819035283529 0.09736831437724548 -0.8835611925696912 
outer loop
vertex -19.261052226574403 4.21437831009987 -39.1152844642533 
vertex -30.85706321567789 6.919817084376488 -32.80519881629562 
vertex -11.383929823845067 12.643134930299619 -42.27032728823214 
endloop
endfacet
facet normal -0.45808190352835276 0.09736831437724536 -0.8835611925696911 
outer loop
vertex -19.261052226574403 4.21437831009987 -39.1152844642533 
vertex -11.383929823845067 12.643134930299619 -42.27032728823214 
vertex -15.54216364020025 -6.919817084376495 -42.27032728823214 
endloop
endfacet
facet normal -0.45808190352835276 0.09736831437724539 -0.8835611925696911 
outer loop
vertex -19.261052226574403 4.21437831009987 -39.1152844642533 
vertex -15.54216364020025 -6.919817084376495 -42.27032728823214 
vertex -30.85706321567789 6.919817084376488 -32.80519881629562 
endloop
endfacet
facet normal -0.6855625757757124 0.4055733154913165 -0.6045777373151875 
outer loop
vertex -30.53147989862694 17.016034712238827 -26.401475224057922 
vertex -22.13434657211023 27.208469967963502 -29.085961424412197 
vertex -30.85706321567789 6.919817084376488 -32.80519881629562 
endloop
endfacet
facet normal -0.6855625757757117 0.40557331549131664 -0.6045777373151879 
outer loop
vertex -30.53147989862694 17.016034712238827 -26.401475224057922 
vertex -30.85706321567789 6.919817084376488 -32.80519881629562 
vertex -38.603029908092715 16.91981708437649 -17.31326543146595 
endloop
endfacet
facet normal -0.6855625757757119 0.405573315491316 -0.6045777373151884 
outer loop
vertex -30.53147989862694 17.016034712238827 -26.401475224057922 
vertex -38.603029908092715 16.91981708437649 -17.31326543146595 
vertex -22.13434657211023 27.208469967963502 -29.085961424412197 
endloop
endfacet
facet normal -0.6804000664884838 0.5868566357801941 -0.43892486664942926 
outer loop
vertex -29.20292116285985 26.3835480438599 -19.2315465916824 
vertex -38.603029908092715 16.91981708437649 -17.31326543146595 
vertex -26.871387008376608 35.022357079239704 -11.295412919169053 
endloop
endfacet
facet normal -0.6804000664884838 0.5868566357801942 -0.43892486664942937 
outer loop
vertex -29.20292116285985 26.3835480438599 -19.2315465916824 
vertex -26.871387008376608 35.022357079239704 -11.295412919169053 
vertex -22.13434657211023 27.208469967963502 -29.085961424412197 
endloop
endfacet
facet normal -0.6804000664884838 0.5868566357801939 -0.4389248666494294 
outer loop
vertex -29.20292116285985 26.3835480438599 -19.2315465916824 
vertex -22.13434657211023 27.208469967963502 -29.085961424412197 
vertex -38.603029908092715 16.91981708437649 -17.31326543146595 
endloop
endfacet
facet normal -0.27350771516284467 0.5266797080677721 -0.8048614879940812 
outer loop
vertex -12.157498732145013 23.778919006767833 -34.72049584297998 
vertex -11.383929823845067 12.643134930299619 -42.27032728823214 
vertex -22.13434657211023 27.208469967963502 -29.085961424412197 
endloop
endfacet
facet normal -0.2735077151628454 0.5266797080677709 -0.8048614879940819 
outer loop
vertex -12.157498732145013 23.778919006767833 -34.72049584297998 
vertex -22.13434657211023 27.208469967963502 -29.085961424412197 
vertex -2.9542198004797426 31.48515212204038 -32.80519881629562 
endloop
endfacet
facet normal -0.2735077151628464 0.5266797080677718 -0.804861487994081 
outer loop
vertex -12.157498732145013 23.778919006767833 -34.72049584297998 
vertex -2.9542198004797426 31.48515212204038 -32.80519881629562 
vertex -11.383929823845067 12.643134930299619 -42.27032728823214 
endloop
endfacet
facet normal -0.048952323136731986 0.4657502432037391 -0.8835611925696912 
outer loop
vertex -1.9438805136014707 19.620663749330895 -39.1152844642533 
vertex -2.9542198004797426 31.48515212204038 -32.80519881629562 
vertex 8.506508083520398 14.733704195652692 -42.27032728823214 
endloop
endfacet
facet normal -0.04895232313673194 0.4657502432037393 -0.8835611925696911 
outer loop
vertex -1.9438805136014707 19.620663749330895 -39.1152844642533 
vertex 8.506508083520398 14.733704195652692 -42.27032728823214 
vertex -11.383929823845067 12.643134930299619 -42.27032728823214 
endloop
endfacet
facet normal -0.04895232313673185 0.46575024320373926 -0.8835611925696911 
outer loop
vertex -1.9438805136014707 19.620663749330895 -39.1152844642533 
vertex -11.383929823845067 12.643134930299619 -42.27032728823214 
vertex -2.9542198004797426 31.48515212204038 -32.80519881629562 
endloop
endfacet
facet normal 0.17387265791128906 0.7773378019713898 -0.6045777373151878 
outer loop
vertex 6.748464542486441 34.29540681267947 -26.401475224057922 
vertex 19.03690341128576 29.45889415238183 -29.085961424412194 
vertex -2.9542198004797426 31.48515212204038 -32.80519881629562 
endloop
endfacet
facet normal 0.17387265791128956 0.7773378019713891 -0.6045777373151885 
outer loop
vertex 6.748464542486441 34.29540681267947 -26.401475224057922 
vertex -2.9542198004797426 31.48515212204038 -32.80519881629562 
vertex 4.162710016653305 41.9421741636162 -17.313265431465954 
endloop
endfacet
facet normal 0.17387265791128861 0.7773378019713891 -0.6045777373151887 
outer loop
vertex 6.748464542486441 34.29540681267947 -26.401475224057922 
vertex 4.162710016653305 41.9421741636162 -17.313265431465954 
vertex 19.03690341128576 29.45889415238183 -29.085961424412194 
endloop
endfacet
facet normal 0.34787864407101987 0.8284475906393169 -0.43892486664942926 
outer loop
vertex 16.06804636538371 35.92659318425212 -19.2315465916824 
vertex 4.162710016653305 41.9421741636162 -17.313265431465954 
vertex 25.00452566821207 36.37871123675832 -11.295412919169053 
endloop
endfacet
facet normal 0.3478786440710201 0.8284475906393168 -0.43892486664942937 
outer loop
vertex 16.06804636538371 35.92659318425212 -19.2315465916824 
vertex 25.00452566821207 36.37871123675832 -11.295412919169053 
vertex 19.03690341128576 29.45889415238183 -29.085961424412194 
endloop
endfacet
facet normal 0.34787864407101976 0.828447590639317 -0.43892486664942965 
outer loop
vertex 16.06804636538371 35.92659318425212 -19.2315465916824 
vertex 19.03690341128576 29.45889415238183 -29.085961424412194 
vertex 4.162710016653305 41.9421741636162 -17.313265431465954 
endloop
endfacet
facet normal 0.12217628762068398 -0.9924299512715108 0.012479846251241739 
outer loop
vertex 5.782358626824422 -43.39958275609873 1.339828885436203 
vertex 1.1537837605048669 -44.12828705234 -11.295412919169046 
vertex 17.347075880473252 -41.9421741636162 4.019486656308588 
endloop
endfacet
facet normal 0.12217628762068393 -0.9924299512715108 0.012479846251241777 
outer loop
vertex 5.782358626824422 -43.39958275609873 1.339828885436203 
vertex 17.347075880473252 -41.9421741636162 4.019486656308588 
vertex -1.153783760504856 -44.12828705233999 11.295412919169067 
endloop
endfacet
facet normal 0.12217628762068393 -0.9924299512715108 0.012479846251241768 
outer loop
vertex 5.782358626824422 -43.39958275609873 1.339828885436203 
vertex -1.153783760504856 -44.12828705233999 11.295412919169067 
vertex 1.1537837605048669 -44.12828705234 -11.295412919169046 
endloop
endfacet
facet normal -0.12217628762068401 -0.9924299512715108 -0.012479846251241189 
outer loop
vertex -5.782358626824409 -43.39958275609873 -1.3398288854361822 
vertex -1.153783760504856 -44.12828705233999 11.295412919169067 
vertex -17.34707588047324 -41.9421741636162 -4.019486656308568 
endloop
endfacet
facet normal -0.12217628762068404 -0.9924299512715108 -0.012479846251241085 
outer loop
vertex -5.782358626824409 -43.39958275609873 -1.3398288854361822 
vertex -17.34707588047324 -41.9421741636162 -4.019486656308568 
vertex 1.1537837605048669 -44.12828705234 -11.295412919169046 
endloop
endfacet
facet normal -0.12217628762068412 -0.9924299512715108 -0.012479846251241164 
outer loop
vertex -5.782358626824409 -43.39958275609873 -1.3398288854361822 
vertex 1.1537837605048669 -44.12828705234 -11.295412919169046 
vertex -1.153783760504856 -44.12828705233999 11.295412919169067 
endloop
endfacet
facet normal 0.5481623947499125 -0.8284475906393172 -0.11485895065667093 
outer loop
vertex 24.38706698430578 -35.92659318425212 -5.771088477155314 
vertex 17.347075880473252 -41.9421741636162 4.019486656308588 
vertex 21.28528827632865 -36.37871123675832 -17.31326543146595 
endloop
endfacet
facet normal 0.5481623947499127 -0.8284475906393168 -0.11485895065667101 
outer loop
vertex 24.38706698430578 -35.92659318425212 -5.771088477155314 
vertex 21.28528827632865 -36.37871123675832 -17.31326543146595 
vertex 34.52883679611544 -29.458894152381827 -4.019486656308579 
endloop
endfacet
facet normal 0.5481623947499127 -0.8284475906393169 -0.11485895065667062 
outer loop
vertex 24.38706698430578 -35.92659318425212 -5.771088477155314 
vertex 34.52883679611544 -29.458894152381827 -4.019486656308579 
vertex 17.347075880473252 -41.9421741636162 4.019486656308588 
endloop
endfacet
facet normal 0.6185089838315507 -0.7773378019713894 0.11485895065667127 
outer loop
vertex 26.63220241505735 -34.29540681267947 5.771088477155323 
vertex 34.52883679611544 -29.458894152381827 -4.019486656308579 
vertex 28.020694568583348 -31.485152122040372 17.31326543146596 
endloop
endfacet
facet normal 0.6185089838315504 -0.7773378019713895 0.11485895065667137 
outer loop
vertex 26.63220241505735 -34.29540681267947 5.771088477155323 
vertex 28.020694568583348 -31.485152122040372 17.31326543146596 
vertex 17.347075880473252 -41.9421741636162 4.019486656308588 
endloop
endfacet
facet normal 0.6185089838315504 -0.7773378019713895 0.11485895065667094 
outer loop
vertex 26.63220241505735 -34.29540681267947 5.771088477155323 
vertex 17.347075880473252 -41.9421741636162 4.019486656308588 
vertex 34.52883679611544 -29.458894152381827 -4.019486656308579 
endloop
endfacet
facet normal 0.9572919751415337 0.265329033058332 -0.11485895065667097 
outer loop
vertex 41.70423869727872 12.09155112482135 -5.771088477155318 
vertex 45.24991929567141 3.53720495719934 4.019486656308581 
vertex 41.17572618369412 9.001872110806012 -17.313265431465954 
endloop
endfacet
facet normal 0.9572919751415334 0.26532903305833305 -0.11485895065667125 
outer loop
vertex 41.70423869727872 12.09155112482135 -5.771088477155318 
vertex 41.17572618369412 9.001872110806012 -17.313265431465954 
vertex 38.68707061247061 23.735576306458704 -4.0194866563085805 
endloop
endfacet
facet normal 0.9572919751415337 0.26532903305833294 -0.11485895065667015 
outer loop
vertex 41.70423869727872 12.09155112482135 -5.771088477155318 
vertex 38.68707061247061 23.735576306458704 -4.0194866563085805 
vertex 45.24991929567141 3.53720495719934 4.019486656308581 
endloop
endfacet
facet normal 0.9304219691049699 0.34802640828086406 0.11485895065667129 
outer loop
vertex 40.84667327207825 14.730866116011518 5.7710884771553195 
vertex 38.68707061247061 23.735576306458704 -4.0194866563085805 
vertex 38.603029908092715 16.919817084376504 17.313265431465954 
endloop
endfacet
facet normal 0.9304219691049703 0.34802640828086334 0.11485895065667148 
outer loop
vertex 40.84667327207825 14.730866116011518 5.7710884771553195 
vertex 38.603029908092715 16.919817084376504 17.313265431465954 
vertex 45.24991929567141 3.53720495719934 4.019486656308581 
endloop
endfacet
facet normal 0.9304219691049703 0.3480264082808635 0.11485895065667066 
outer loop
vertex 40.84667327207825 14.730866116011518 5.7710884771553195 
vertex 45.24991929567141 3.53720495719934 4.019486656308581 
vertex 38.68707061247061 23.735576306458704 -4.0194866563085805 
endloop
endfacet
facet normal 0.9816115213076853 -0.19048116619119446 0.012479846251241124 
outer loop
vertex 43.06230306793782 -7.911858768819557 1.339828885436195 
vertex 42.32503374390085 -12.539077068005335 -11.29541291916905 
vertex 45.24991929567141 3.53720495719934 4.019486656308581 
endloop
endfacet
facet normal 0.9816115213076853 -0.19048116619119462 0.012479846251241718 
outer loop
vertex 43.06230306793782 -7.911858768819557 1.339828885436195 
vertex 45.24991929567141 3.53720495719934 4.019486656308581 
vertex 41.611956164241185 -14.733704195652676 11.295412919169054 
endloop
endfacet
facet normal 0.981611521307685 -0.19048116619119512 0.012479846251241369 
outer loop
vertex 43.06230306793782 -7.911858768819557 1.339828885436195 
vertex 41.611956164241185 -14.733704195652676 11.295412919169054 
vertex 42.32503374390085 -12.539077068005335 -11.29541291916905 
endloop
endfacet
facet normal 0.9061024229388193 -0.42287427514800024 -0.012479846251241265 
outer loop
vertex 39.48860890141916 -18.910558472013278 -1.3398288854361917 
vertex 41.611956164241185 -14.733704195652676 11.295412919169054 
vertex 34.52883679611544 -29.458894152381827 -4.019486656308579 
endloop
endfacet
facet normal 0.9061024229388193 -0.4228742751480001 -0.012479846251241662 
outer loop
vertex 39.48860890141916 -18.910558472013278 -1.3398288854361917 
vertex 34.52883679611544 -29.458894152381827 -4.019486656308579 
vertex 42.32503374390085 -12.539077068005335 -11.29541291916905 
endloop
endfacet
facet normal 0.9061024229388195 -0.4228742751479999 -0.012479846251241426 
outer loop
vertex 39.48860890141916 -18.910558472013278 -1.3398288854361917 
vertex 42.32503374390085 -12.539077068005335 -11.29541291916905 
vertex 41.611956164241185 -14.733704195652676 11.295412919169054 
endloop
endfacet
facet normal 0.7683890111085908 -0.46575024320373865 0.4389248666494304 
outer loop
vertex 34.116444214814706 -19.620663749330884 19.231546591682406 
vertex 28.020694568583348 -31.485152122040372 17.31326543146596 
vertex 41.611956164241185 -14.733704195652676 11.295412919169054 
endloop
endfacet
facet normal 0.7683890111085907 -0.46575024320373914 0.4389248666494302 
outer loop
vertex 34.116444214814706 -19.620663749330884 19.231546591682406 
vertex 41.611956164241185 -14.733704195652676 11.295412919169054 
vertex 32.71668191161959 -12.64313493029961 29.085961424412208 
endloop
endfacet
facet normal 0.7683890111085911 -0.4657502432037387 0.43892486664942987 
outer loop
vertex 34.116444214814706 -19.620663749330884 19.231546591682406 
vertex 32.71668191161959 -12.64313493029961 29.085961424412208 
vertex 28.020694568583348 -31.485152122040372 17.31326543146596 
endloop
endfacet
facet normal 0.5975736311556036 -0.5266797080677714 0.6045777373151889 
outer loop
vertex 25.617956846672076 -23.778919006767826 26.401475224057936 
vertex 32.71668191161959 -12.64313493029961 29.085961424412208 
vertex 16.116494059813295 -27.208469967963495 32.805198816295636 
endloop
endfacet
facet normal 0.5975736311556036 -0.5266797080677714 0.604577737315189 
outer loop
vertex 25.617956846672076 -23.778919006767826 26.401475224057936 
vertex 16.116494059813295 -27.208469967963495 32.805198816295636 
vertex 28.020694568583348 -31.485152122040372 17.31326543146596 
endloop
endfacet
facet normal 0.5975736311556037 -0.5266797080677714 0.6045777373151889 
outer loop
vertex 25.617956846672076 -23.778919006767826 26.401475224057936 
vertex 28.020694568583348 -31.485152122040372 17.31326543146596 
vertex 32.71668191161959 -12.64313493029961 29.085961424412208 
endloop
endfacet
facet normal -0.6185089838315508 -0.7773378019713891 -0.11485895065667162 
outer loop
vertex -26.632202415057332 -34.29540681267948 -5.771088477155321 
vertex -34.528836796115414 -29.45889415238185 4.019486656308549 
vertex -28.02069456858333 -31.485152122040382 -17.313265431465947 
endloop
endfacet
facet normal -0.6185089838315497 -0.77733780197139 -0.1148589506566719 
outer loop
vertex -26.632202415057332 -34.29540681267948 -5.771088477155321 
vertex -28.02069456858333 -31.485152122040382 -17.313265431465947 
vertex -17.34707588047324 -41.9421741636162 -4.019486656308568 
endloop
endfacet
facet normal -0.61850898383155 -0.7773378019713899 -0.11485895065667075 
outer loop
vertex -26.632202415057332 -34.29540681267948 -5.771088477155321 
vertex -17.34707588047324 -41.9421741636162 -4.019486656308568 
vertex -34.528836796115414 -29.45889415238185 4.019486656308549 
endloop
endfacet
facet normal -0.5481623947499125 -0.8284475906393174 0.11485895065667032 
outer loop
vertex -24.387066984305765 -35.926593184252134 5.771088477155305 
vertex -17.34707588047324 -41.9421741636162 -4.019486656308568 
vertex -21.28528827632864 -36.37871123675834 17.313265431465933 
endloop
endfacet
facet normal -0.5481623947499129 -0.8284475906393167 0.11485895065667051 
outer loop
vertex -24.387066984305765 -35.926593184252134 5.771088477155305 
vertex -21.28528827632864 -36.37871123675834 17.313265431465933 
vertex -34.528836796115414 -29.45889415238185 4.019486656308549 
endloop
endfacet
facet normal -0.548162394749913 -0.8284475906393168 0.11485895065666978 
outer loop
vertex -24.387066984305765 -35.926593184252134 5.771088477155305 
vertex -34.528836796115414 -29.45889415238185 4.019486656308549 
vertex -17.34707588047324 -41.9421741636162 -4.019486656308568 
endloop
endfacet
facet normal -0.9061024229388193 -0.4228742751480002 0.012479846251242138 
outer loop
vertex -39.488608901419134 -18.910558472013303 1.3398288854361737 
vertex -41.61195616424117 -14.733704195652695 -11.295412919169049 
vertex -34.528836796115414 -29.45889415238185 4.019486656308549 
endloop
endfacet
facet normal -0.906102422938819 -0.4228742751480005 0.01247984625124042 
outer loop
vertex -39.488608901419134 -18.910558472013303 1.3398288854361737 
vertex -34.528836796115414 -29.45889415238185 4.019486656308549 
vertex -42.32503374390084 -12.539077068005366 11.29541291916902 
endloop
endfacet
facet normal -0.9061024229388185 -0.42287427514800185 0.012479846251241468 
outer loop
vertex -39.488608901419134 -18.910558472013303 1.3398288854361737 
vertex -42.32503374390084 -12.539077068005366 11.29541291916902 
vertex -41.61195616424117 -14.733704195652695 -11.295412919169049 
endloop
endfacet
facet normal -0.981611521307685 -0.1904811661911952 -0.012479846251242092 
outer loop
vertex -43.0623030679378 -7.911858768819582 -1.3398288854362013 
vertex -42.32503374390084 -12.539077068005366 11.29541291916902 
vertex -45.2499192956714 3.5372049571993154 -4.019486656308575 
endloop
endfacet
facet normal -0.981611521307685 -0.19048116619119498 -0.012479846251240895 
outer loop
vertex -43.0623030679378 -7.911858768819582 -1.3398288854362013 
vertex -45.2499192956714 3.5372049571993154 -4.019486656308575 
vertex -41.61195616424117 -14.733704195652695 -11.295412919169049 
endloop
endfacet
facet normal -0.9816115213076851 -0.19048116619119393 -0.012479846251241595 
outer loop
vertex -43.0623030679378 -7.911858768819582 -1.3398288854362013 
vertex -41.61195616424117 -14.733704195652695 -11.295412919169049 
vertex -42.32503374390084 -12.539077068005366 11.29541291916902 
endloop
endfacet
facet normal -0.2055095410414539 -0.8747061163486353 0.4389248666494286 
outer loop
vertex -8.117799062814653 -38.50978512277935 19.231546591682402 
vertex -21.28528827632864 -36.37871123675834 17.313265431465933 
vertex -1.153783760504856 -44.12828705233999 11.295412919169067 
endloop
endfacet
facet normal -0.20550954104145386 -0.8747061163486352 0.4389248666494287 
outer loop
vertex -8.117799062814653 -38.50978512277935 19.231546591682402 
vertex -1.153783760504856 -44.12828705233999 11.295412919169067 
vertex -1.9143251516104636 -35.02235707923971 29.085961424412204 
endloop
endfacet
facet normal -0.2055095410414539 -0.8747061163486353 0.43892486664942876 
outer loop
vertex -8.117799062814653 -38.50978512277935 19.231546591682402 
vertex -1.9143251516104636 -35.02235707923971 29.085961424412204 
vertex -21.28528827632864 -36.37871123675834 17.313265431465933 
endloop
endfacet
facet normal -0.3162417609408555 -0.7310792762620718 0.6045777373151877 
outer loop
vertex -14.698711845055536 -31.712214874152266 26.401475224057915 
vertex -1.9143251516104636 -35.02235707923971 29.085961424412204 
vertex -20.89652210722751 -23.735576306458736 32.8051988162956 
endloop
endfacet
facet normal -0.3162417609408561 -0.7310792762620719 0.6045777373151873 
outer loop
vertex -14.698711845055536 -31.712214874152266 26.401475224057915 
vertex -20.89652210722751 -23.735576306458736 32.8051988162956 
vertex -21.28528827632864 -36.37871123675834 17.313265431465933 
endloop
endfacet
facet normal -0.3162417609408553 -0.7310792762620725 0.6045777373151867 
outer loop
vertex -14.698711845055536 -31.712214874152266 26.401475224057915 
vertex -21.28528827632864 -36.37871123675834 17.313265431465933 
vertex -1.9143251516104636 -35.02235707923971 29.085961424412204 
endloop
endfacet
facet normal -0.9304219691049705 0.3480264082808626 -0.114858950656671 
outer loop
vertex -40.84667327207824 14.7308661160115 -5.771088477155318 
vertex -38.68707061247061 23.735576306458697 4.0194866563085725 
vertex -38.603029908092715 16.91981708437649 -17.31326543146595 
endloop
endfacet
facet normal -0.9304219691049705 0.3480264082808626 -0.11485895065667097 
outer loop
vertex -40.84667327207824 14.7308661160115 -5.771088477155318 
vertex -38.603029908092715 16.91981708437649 -17.31326543146595 
vertex -45.2499192956714 3.5372049571993154 -4.019486656308575 
endloop
endfacet
facet normal -0.9304219691049704 0.3480264082808626 -0.11485895065667119 
outer loop
vertex -40.84667327207824 14.7308661160115 -5.771088477155318 
vertex -45.2499192956714 3.5372049571993154 -4.019486656308575 
vertex -38.68707061247061 23.735576306458697 4.0194866563085725 
endloop
endfacet
facet normal -0.9572919751415337 0.2653290330583324 0.11485895065667041 
outer loop
vertex -41.704238697278704 12.091551124821338 5.771088477155314 
vertex -45.2499192956714 3.5372049571993154 -4.019486656308575 
vertex -41.17572618369411 9.001872110806003 17.313265431465947 
endloop
endfacet
facet normal -0.957291975141534 0.2653290330583317 0.11485895065667029 
outer loop
vertex -41.704238697278704 12.091551124821338 5.771088477155314 
vertex -41.17572618369411 9.001872110806003 17.313265431465947 
vertex -38.68707061247061 23.735576306458697 4.0194866563085725 
endloop
endfacet
facet normal -0.957291975141534 0.2653290330583319 0.11485895065667097 
outer loop
vertex -41.704238697278704 12.091551124821338 5.771088477155314 
vertex -38.68707061247061 23.735576306458697 4.0194866563085725 
vertex -45.2499192956714 3.5372049571993154 -4.019486656308575 
endloop
endfacet
facet normal -0.682178382285507 0.7310792762620716 0.012479846251241569 
outer loop
vertex -30.1876610963531 31.712214874152238 1.3398288854361873 
vertex -26.871387008376608 35.022357079239704 -11.295412919169053 
vertex -38.68707061247061 23.735576306458697 4.0194866563085725 
endloop
endfacet
facet normal -0.6821783822855071 0.7310792762620713 0.012479846251240724 
outer loop
vertex -30.1876610963531 31.712214874152238 1.3398288854361873 
vertex -38.68707061247061 23.735576306458697 4.0194866563085725 
vertex -25.004525668212086 36.37871123675832 11.295412919169042 
endloop
endfacet
facet normal -0.6821783822855076 0.7310792762620707 0.012479846251241251 
outer loop
vertex -30.1876610963531 31.712214874152238 1.3398288854361873 
vertex -25.004525668212086 36.37871123675832 11.295412919169042 
vertex -26.871387008376608 35.022357079239704 -11.295412919169053 
endloop
endfacet
facet normal -0.4844929962959571 0.8747061163486347 -0.012479846251241837 
outer loop
vertex -20.831608303010025 38.50978512277934 -1.339828885436198 
vertex -25.004525668212086 36.37871123675832 11.295412919169042 
vertex -10.618912232441389 44.12828705234 -4.019486656308583 
endloop
endfacet
facet normal -0.4844929962959571 0.8747061163486347 -0.012479846251241574 
outer loop
vertex -20.831608303010025 38.50978512277934 -1.339828885436198 
vertex -10.618912232441389 44.12828705234 -4.019486656308583 
vertex -26.871387008376608 35.022357079239704 -11.295412919169053 
endloop
endfacet
facet normal -0.4844929962959569 0.8747061163486348 -0.012479846251241739 
outer loop
vertex -20.831608303010025 38.50978512277934 -1.339828885436198 
vertex -26.871387008376608 35.022357079239704 -11.295412919169053 
vertex -25.004525668212086 36.37871123675832 11.295412919169042 
endloop
endfacet
facet normal -0.8954008924846003 -0.07484786686713825 0.4389248666494304 
outer loop
vertex -39.13351994947619 -4.179692356001795 19.231546591682378 
vertex -41.17572618369411 9.001872110806003 17.313265431465947 
vertex -42.32503374390084 -12.539077068005366 11.29541291916902 
endloop
endfacet
facet normal -0.8954008924846009 -0.0748478668671372 0.4389248666494296 
outer loop
vertex -39.13351994947619 -4.179692356001795 19.231546591682378 
vertex -42.32503374390084 -12.539077068005366 11.29541291916902 
vertex -33.89979992083364 -9.001872110806023 29.08596142441216 
endloop
endfacet
facet normal -0.8954008924846011 -0.07484786686713865 0.43892486664942887 
outer loop
vertex -39.13351994947619 -4.179692356001795 19.231546591682378 
vertex -33.89979992083364 -9.001872110806023 29.08596142441216 
vertex -41.17572618369411 9.001872110806003 17.313265431465947 
endloop
endfacet
facet normal -0.7930217880791717 0.07484786686713614 0.6045777373151883 
outer loop
vertex -34.702260357757076 4.179692356001776 26.401475224057908 
vertex -33.89979992083364 -9.001872110806023 29.08596142441216 
vertex -29.031254968743482 12.539077068005348 32.805198816295615 
endloop
endfacet
facet normal -0.7930217880791716 0.07484786686713614 0.6045777373151882 
outer loop
vertex -34.702260357757076 4.179692356001776 26.401475224057908 
vertex -29.031254968743482 12.539077068005348 32.805198816295615 
vertex -41.17572618369411 9.001872110806003 17.313265431465947 
endloop
endfacet
facet normal -0.7930217880791717 0.07484786686713615 0.6045777373151883 
outer loop
vertex -34.702260357757076 4.179692356001776 26.401475224057908 
vertex -41.17572618369411 9.001872110806003 17.313265431465947 
vertex -33.89979992083364 -9.001872110806023 29.08596142441216 
endloop
endfacet
facet normal 0.04347658304507398 0.9924299512715108 -0.11485895065667057 
outer loop
vertex 1.3875700055510933 43.39958275609873 -5.77108847715532 
vertex 10.618912232441364 44.12828705234 4.019486656308575 
vertex 4.162710016653305 41.9421741636162 -17.313265431465954 
endloop
endfacet
facet normal 0.04347658304507458 0.9924299512715108 -0.11485895065667041 
outer loop
vertex 1.3875700055510933 43.39958275609873 -5.77108847715532 
vertex 4.162710016653305 41.9421741636162 -17.313265431465954 
vertex -10.618912232441389 44.12828705234 -4.019486656308583 
endloop
endfacet
facet normal 0.0434765830450745 0.9924299512715108 -0.11485895065667107 
outer loop
vertex 1.3875700055510933 43.39958275609873 -5.77108847715532 
vertex -10.618912232441389 44.12828705234 -4.019486656308583 
vertex 10.618912232441364 44.12828705234 4.019486656308575 
endloop
endfacet
facet normal -0.04347658304507398 0.9924299512715108 0.11485895065667058 
outer loop
vertex -1.387570005551117 43.39958275609873 5.771088477155313 
vertex -10.618912232441389 44.12828705234 -4.019486656308583 
vertex -4.162710016653326 41.9421741636162 17.313265431465947 
endloop
endfacet
facet normal -0.04347658304507458 0.9924299512715108 0.11485895065667043 
outer loop
vertex -1.387570005551117 43.39958275609873 5.771088477155313 
vertex -4.162710016653326 41.9421741636162 17.313265431465947 
vertex 10.618912232441364 44.12828705234 4.019486656308575 
endloop
endfacet
facet normal -0.0434765830450745 0.9924299512715108 0.11485895065667107 
outer loop
vertex -1.387570005551117 43.39958275609873 5.771088477155313 
vertex 10.618912232441364 44.12828705234 4.019486656308575 
vertex -10.618912232441389 44.12828705234 -4.019486656308583 
endloop
endfacet
facet normal 0.4844929962959567 0.8747061163486348 0.01247984625124164 
outer loop
vertex 20.83160830301001 38.50978512277934 1.3398288854361906 
vertex 25.00452566821207 36.37871123675832 -11.295412919169053 
vertex 10.618912232441364 44.12828705234 4.019486656308575 
endloop
endfacet
facet normal 0.4844929962959567 0.8747061163486348 0.012479846251241876 
outer loop
vertex 20.83160830301001 38.50978512277934 1.3398288854361906 
vertex 10.618912232441364 44.12828705234 4.019486656308575 
vertex 26.871387008376594 35.022357079239704 11.295412919169049 
endloop
endfacet
facet normal 0.4844929962959568 0.8747061163486349 0.012479846251241733 
outer loop
vertex 20.83160830301001 38.50978512277934 1.3398288854361906 
vertex 26.871387008376594 35.022357079239704 11.295412919169049 
vertex 25.00452566821207 36.37871123675832 -11.295412919169053 
endloop
endfacet
facet normal 0.6821783822855065 0.7310792762620718 -0.012479846251241194 
outer loop
vertex 30.187661096353093 31.71221487415224 -1.3398288854361946 
vertex 26.871387008376594 35.022357079239704 11.295412919169049 
vertex 38.68707061247061 23.735576306458704 -4.0194866563085805 
endloop
endfacet
facet normal 0.6821783822855065 0.7310792762620718 -0.012479846251240927 
outer loop
vertex 30.187661096353093 31.71221487415224 -1.3398288854361946 
vertex 38.68707061247061 23.735576306458704 -4.0194866563085805 
vertex 25.00452566821207 36.37871123675832 -11.295412919169053 
endloop
endfacet
facet normal 0.6821783822855068 0.7310792762620718 -0.012479846251241117 
outer loop
vertex 30.187661096353093 31.71221487415224 -1.3398288854361946 
vertex 25.00452566821207 36.37871123675832 -11.295412919169053 
vertex 26.871387008376594 35.022357079239704 11.295412919169049 
endloop
endfacet
facet normal -0.3478786440710201 0.8284475906393168 0.43892486664942965 
outer loop
vertex -16.068046365383722 35.92659318425212 19.23154659168239 
vertex -4.162710016653326 41.9421741636162 17.313265431465947 
vertex -25.004525668212086 36.37871123675832 11.295412919169042 
endloop
endfacet
facet normal -0.3478786440710204 0.8284475906393164 0.43892486664943 
outer loop
vertex -16.068046365383722 35.92659318425212 19.23154659168239 
vertex -25.004525668212086 36.37871123675832 11.295412919169042 
vertex -19.036903411285753 29.45889415238183 29.085961424412176 
endloop
endfacet
facet normal -0.34787864407101987 0.8284475906393165 0.43892486664943015 
outer loop
vertex -16.068046365383722 35.92659318425212 19.23154659168239 
vertex -19.036903411285753 29.45889415238183 29.085961424412176 
vertex -4.162710016653326 41.9421741636162 17.313265431465947 
endloop
endfacet
facet normal -0.17387265791128934 0.7773378019713896 0.6045777373151879 
outer loop
vertex -6.748464542486445 34.29540681267947 26.401475224057908 
vertex -19.036903411285753 29.45889415238183 29.085961424412176 
vertex 2.9542198004797426 31.485152122040382 32.80519881629561 
endloop
endfacet
facet normal -0.17387265791129006 0.7773378019713889 0.6045777373151888 
outer loop
vertex -6.748464542486445 34.29540681267947 26.401475224057908 
vertex 2.9542198004797426 31.485152122040382 32.80519881629561 
vertex -4.162710016653326 41.9421741636162 17.313265431465947 
endloop
endfacet
facet normal -0.1738726579112888 0.7773378019713889 0.6045777373151893 
outer loop
vertex -6.748464542486445 34.29540681267947 26.401475224057908 
vertex -4.162710016653326 41.9421741636162 17.313265431465947 
vertex -19.036903411285753 29.45889415238183 29.085961424412176 
endloop
endfacet
facet normal 0.6804000664884831 0.5868566357801949 0.4389248666494296 
outer loop
vertex 29.20292116285984 26.383548043859903 19.2315465916824 
vertex 38.603029908092715 16.919817084376504 17.313265431465954 
vertex 26.871387008376594 35.022357079239704 11.295412919169049 
endloop
endfacet
facet normal 0.6804000664884831 0.5868566357801949 0.43892486664942965 
outer loop
vertex 29.20292116285984 26.383548043859903 19.2315465916824 
vertex 26.871387008376594 35.022357079239704 11.295412919169049 
vertex 22.134346572110214 27.208469967963502 29.08596142441219 
endloop
endfacet
facet normal 0.6804000664884831 0.5868566357801948 0.43892486664942965 
outer loop
vertex 29.20292116285984 26.383548043859903 19.2315465916824 
vertex 22.134346572110214 27.208469967963502 29.08596142441219 
vertex 38.603029908092715 16.919817084376504 17.313265431465954 
endloop
endfacet
facet normal 0.6855625757757111 0.4055733154913169 0.6045777373151886 
outer loop
vertex 30.53147989862694 17.016034712238834 26.401475224057922 
vertex 22.134346572110214 27.208469967963502 29.08596142441219 
vertex 30.85706321567789 6.9198170843764935 32.80519881629562 
endloop
endfacet
facet normal 0.6855625757757114 0.40557331549131675 0.6045777373151882 
outer loop
vertex 30.53147989862694 17.016034712238834 26.401475224057922 
vertex 30.85706321567789 6.9198170843764935 32.80519881629562 
vertex 38.603029908092715 16.919817084376504 17.313265431465954 
endloop
endfacet
facet normal 0.6855625757757113 0.40557331549131703 0.6045777373151884 
outer loop
vertex 30.53147989862694 17.016034712238834 26.401475224057922 
vertex 38.603029908092715 16.919817084376504 17.313265431465954 
vertex 22.134346572110214 27.208469967963502 29.08596142441219 
endloop
endfacet
facet normal 0.2341578628750408 -0.40557331549131653 0.883561192569691 
outer loop
vertex 9.960104421508321 -17.016034712238824 39.115284464253314 
vertex 16.116494059813295 -27.208469967963495 32.805198816295636 
vertex 15.542163640200224 -6.919817084376485 42.27032728823215 
endloop
endfacet
facet normal 0.23415786287504053 -0.4055733154913165 0.8835611925696911 
outer loop
vertex 9.960104421508321 -17.016034712238824 39.115284464253314 
vertex 15.542163640200224 -6.919817084376485 42.27032728823215 
vertex -1.778344435488556 -16.9198170843765 42.270327288232146 
endloop
endfacet
facet normal 0.23415786287504048 -0.4055733154913167 0.883561192569691 
outer loop
vertex 9.960104421508321 -17.016034712238824 39.115284464253314 
vertex -1.778344435488556 -16.9198170843765 42.270327288232146 
vertex 16.116494059813295 -27.208469967963495 32.805198816295636 
endloop
endfacet
facet normal 0.0883021754245364 -0.5868566357801943 0.8048614879940813 
outer loop
vertex 4.141274824238092 -26.383548043859903 34.72049584298 
vertex -1.778344435488556 -16.9198170843765 42.270327288232146 
vertex -1.9143251516104636 -35.02235707923971 29.085961424412204 
endloop
endfacet
facet normal 0.08830217542453746 -0.586856635780195 0.8048614879940809 
outer loop
vertex 4.141274824238092 -26.383548043859903 34.72049584298 
vertex -1.9143251516104636 -35.02235707923971 29.085961424412204 
vertex 16.116494059813295 -27.208469967963495 32.805198816295636 
endloop
endfacet
facet normal 0.08830217542453764 -0.5868566357801939 0.8048614879940816 
outer loop
vertex 4.141274824238092 -26.383548043859903 34.72049584298 
vertex 16.116494059813295 -27.208469967963495 32.805198816295636 
vertex -1.778344435488556 -16.9198170843765 42.270327288232146 
endloop
endfacet
facet normal 0.5854207004362649 -0.09736831437724502 0.8048614879940815 
outer loop
vertex 26.3719695891659 -4.214378310099867 34.72049584297999 
vertex 15.542163640200224 -6.919817084376485 42.27032728823215 
vertex 32.71668191161959 -12.64313493029961 29.085961424412208 
endloop
endfacet
facet normal 0.5854207004362646 -0.09736831437724543 0.8048614879940815 
outer loop
vertex 26.3719695891659 -4.214378310099867 34.72049584297999 
vertex 32.71668191161959 -12.64313493029961 29.085961424412208 
vertex 30.85706321567789 6.9198170843764935 32.80519881629562 
endloop
endfacet
facet normal 0.585420700436265 -0.09736831437724555 0.8048614879940813 
outer loop
vertex 26.3719695891659 -4.214378310099867 34.72049584297999 
vertex 30.85706321567789 6.9198170843764935 32.80519881629562 
vertex 15.542163640200224 -6.919817084376485 42.27032728823215 
endloop
endfacet
facet normal 0.4580819035283527 0.09736831437724579 0.8835611925696912 
outer loop
vertex 19.26105222657439 4.214378310099876 39.11528446425331 
vertex 30.85706321567789 6.9198170843764935 32.80519881629562 
vertex 11.383929823845058 12.643134930299619 42.27032728823214 
endloop
endfacet
facet normal 0.45808190352835254 0.0973683143772456 0.8835611925696913 
outer loop
vertex 19.26105222657439 4.214378310099876 39.11528446425331 
vertex 11.383929823845058 12.643134930299619 42.27032728823214 
vertex 15.542163640200224 -6.919817084376485 42.27032728823215 
endloop
endfacet
facet normal 0.4580819035283529 0.09736831437724548 0.883561192569691 
outer loop
vertex 19.26105222657439 4.214378310099876 39.11528446425331 
vertex 15.542163640200224 -6.919817084376485 42.27032728823215 
vertex 30.85706321567789 6.9198170843764935 32.80519881629562 
endloop
endfacet
facet normal -0.31336438553854173 -0.34802640828086223 0.8835611925696912 
outer loop
vertex -13.105369162584159 -14.730866116011514 39.11528446425329 
vertex -20.89652210722751 -23.735576306458736 32.8051988162956 
vertex -1.778344435488556 -16.9198170843765 42.270327288232146 
endloop
endfacet
facet normal -0.3133643855385418 -0.3480264082808627 0.8835611925696908 
outer loop
vertex -13.105369162584159 -14.730866116011514 39.11528446425329 
vertex -1.778344435488556 -16.9198170843765 42.270327288232146 
vertex -16.641240945036404 -3.5372049571993105 42.27032728823214 
endloop
endfacet
facet normal -0.3133643855385413 -0.3480264082808626 0.883561192569691 
outer loop
vertex -13.105369162584159 -14.730866116011514 39.11528446425329 
vertex -16.641240945036404 -3.5372049571993105 42.27032728823214 
vertex -20.89652210722751 -23.735576306458736 32.8051988162956 
endloop
endfacet
facet normal -0.5308469547433469 -0.26532903305833144 0.8048614879940807 
outer loop
vertex -23.812520991032518 -12.091551124821356 34.720495842979965 
vertex -16.641240945036404 -3.5372049571993105 42.27032728823214 
vertex -33.89979992083364 -9.001872110806023 29.08596142441216 
endloop
endfacet
facet normal -0.5308469547433469 -0.265329033058331 0.804861487994081 
outer loop
vertex -23.812520991032518 -12.091551124821356 34.720495842979965 
vertex -33.89979992083364 -9.001872110806023 29.08596142441216 
vertex -20.89652210722751 -23.735576306458736 32.8051988162956 
endloop
endfacet
facet normal -0.5308469547433473 -0.26532903305833094 0.8048614879940806 
outer loop
vertex -23.812520991032518 -12.091551124821356 34.720495842979965 
vertex -20.89652210722751 -23.735576306458736 32.8051988162956 
vertex -16.641240945036404 -3.5372049571993105 42.27032728823214 
endloop
endfacet
facet normal -0.4278277040015842 0.19048116619119593 0.8835611925696912 
outer loop
vertex -18.059667999100093 7.911858768819578 39.11528446425329 
vertex -29.031254968743482 12.539077068005348 32.805198816295615 
vertex -16.641240945036404 -3.5372049571993105 42.27032728823214 
endloop
endfacet
facet normal -0.4278277040015844 0.19048116619119587 0.883561192569691 
outer loop
vertex -18.059667999100093 7.911858768819578 39.11528446425329 
vertex -16.641240945036404 -3.5372049571993105 42.27032728823214 
vertex -8.506508083520394 14.733704195652699 42.270327288232124 
endloop
endfacet
facet normal -0.42782770400158426 0.19048116619119573 0.8835611925696912 
outer loop
vertex -18.059667999100093 7.911858768819578 39.11528446425329 
vertex -8.506508083520394 14.733704195652699 42.270327288232124 
vertex -29.031254968743482 12.539077068005348 32.805198816295615 
endloop
endfacet
facet normal -0.41638363628030123 0.42287427514800124 0.8048614879940811 
outer loop
vertex -18.858222154516543 18.910558472013292 34.72049584297997 
vertex -8.506508083520394 14.733704195652699 42.270327288232124 
vertex -19.036903411285753 29.45889415238183 29.085961424412176 
endloop
endfacet
facet normal -0.4163836362803013 0.4228742751480012 0.8048614879940812 
outer loop
vertex -18.858222154516543 18.910558472013292 34.72049584297997 
vertex -19.036903411285753 29.45889415238183 29.085961424412176 
vertex -29.031254968743482 12.539077068005348 32.805198816295615 
endloop
endfacet
facet normal -0.4163836362803013 0.4228742751480012 0.8048614879940812 
outer loop
vertex -18.858222154516543 18.910558472013292 34.72049584297997 
vertex -29.031254968743482 12.539077068005348 32.805198816295615 
vertex -8.506508083520394 14.733704195652699 42.270327288232124 
endloop
endfacet
facet normal 0.048952323136731375 0.4657502432037397 0.8835611925696909 
outer loop
vertex 1.943880513601469 19.620663749330898 39.11528446425329 
vertex 2.9542198004797426 31.485152122040382 32.80519881629561 
vertex -8.506508083520394 14.733704195652699 42.270327288232124 
endloop
endfacet
facet normal 0.04895232313673151 0.46575024320373937 0.8835611925696911 
outer loop
vertex 1.943880513601469 19.620663749330898 39.11528446425329 
vertex -8.506508083520394 14.733704195652699 42.270327288232124 
vertex 11.383929823845058 12.643134930299619 42.27032728823214 
endloop
endfacet
facet normal 0.04895232313673164 0.46575024320373953 0.883561192569691 
outer loop
vertex 1.943880513601469 19.620663749330898 39.11528446425329 
vertex 11.383929823845058 12.643134930299619 42.27032728823214 
vertex 2.9542198004797426 31.485152122040382 32.80519881629561 
endloop
endfacet
facet normal 0.27350771516284567 0.5266797080677718 0.8048614879940812 
outer loop
vertex 12.157498732145003 23.778919006767836 34.72049584297998 
vertex 11.383929823845058 12.643134930299619 42.27032728823214 
vertex 22.134346572110214 27.208469967963502 29.08596142441219 
endloop
endfacet
facet normal 0.27350771516284544 0.5266797080677719 0.8048614879940812 
outer loop
vertex 12.157498732145003 23.778919006767836 34.72049584297998 
vertex 22.134346572110214 27.208469967963502 29.08596142441219 
vertex 2.9542198004797426 31.485152122040382 32.80519881629561 
endloop
endfacet
facet normal 0.27350771516284533 0.5266797080677719 0.8048614879940813 
outer loop
vertex 12.157498732145003 23.778919006767836 34.72049584297998 
vertex 2.9542198004797426 31.485152122040382 32.80519881629561 
vertex 11.383929823845058 12.643134930299619 42.27032728823214 
endloop
endfacet
endsolid test
