solid unit-truncated-cuboctahedron
facet normal 0.5773502691896258 -0.5773502691896253 0.5773502691896261 
outer loop
vertex 1.5000000000000002 -0.5000000000000006 1.0000000000000002 
vertex 1.0000000000000002 -0.5000000000000006 1.5 
vertex 0.5000000000000003 -1.0000000000000007 1.5000000000000002 
endloop
endfacet
facet normal 0.5773502691896258 -0.5773502691896263 0.5773502691896253 
outer loop
vertex 1.5000000000000002 -0.5000000000000006 1.0000000000000002 
vertex 0.5000000000000003 -1.0000000000000007 1.5000000000000002 
vertex 0.5000000000000003 -1.5000000000000002 0.9999999999999998 
endloop
endfacet
facet normal 0.5773502691896256 -0.577350269189626 0.5773502691896256 
outer loop
vertex 1.5000000000000002 -0.5000000000000006 1.0000000000000002 
vertex 0.5000000000000003 -1.5000000000000002 0.9999999999999998 
vertex 1.0000000000000004 -1.5000000000000002 0.49999999999999967 
endloop
endfacet
facet normal 0.5773502691896254 -0.5773502691896261 0.5773502691896258 
outer loop
vertex 1.5000000000000002 -0.5000000000000006 1.0000000000000002 
vertex 1.0000000000000004 -1.5000000000000002 0.49999999999999967 
vertex 1.5000000000000002 -1.0000000000000007 0.5 
endloop
endfacet
facet normal -0.5773502691896254 -0.577350269189626 0.577350269189626 
outer loop
vertex -1.5000000000000004 -1.0000000000000007 0.5000000000000001 
vertex -1.0 -1.5000000000000007 0.5 
vertex -0.49999999999999967 -1.5000000000000004 1.0 
endloop
endfacet
facet normal -0.5773502691896254 -0.5773502691896262 0.577350269189626 
outer loop
vertex -1.5000000000000004 -1.0000000000000007 0.5000000000000001 
vertex -0.49999999999999967 -1.5000000000000004 1.0 
vertex -0.4999999999999995 -1.0000000000000009 1.5 
endloop
endfacet
facet normal -0.5773502691896255 -0.5773502691896258 0.577350269189626 
outer loop
vertex -1.5000000000000004 -1.0000000000000007 0.5000000000000001 
vertex -0.4999999999999995 -1.0000000000000009 1.5 
vertex -1.0000000000000007 -0.5000000000000001 1.5 
endloop
endfacet
facet normal -0.5773502691896261 -0.5773502691896253 0.577350269189626 
outer loop
vertex -1.5000000000000004 -1.0000000000000007 0.5000000000000001 
vertex -1.0000000000000007 -0.5000000000000001 1.5 
vertex -1.5000000000000002 -0.5000000000000004 1.0 
endloop
endfacet
facet normal -0.5773502691896261 0.5773502691896251 0.5773502691896261 
outer loop
vertex -0.5000000000000002 1.5000000000000004 1.0000000000000004 
vertex -1.0000000000000007 1.5000000000000002 0.5000000000000002 
vertex -1.5000000000000004 0.9999999999999993 0.5000000000000004 
endloop
endfacet
facet normal -0.5773502691896261 0.5773502691896258 0.5773502691896253 
outer loop
vertex -0.5000000000000002 1.5000000000000004 1.0000000000000004 
vertex -1.5000000000000004 0.9999999999999993 0.5000000000000004 
vertex -1.5000000000000007 0.5 1.0 
endloop
endfacet
facet normal -0.5773502691896257 0.5773502691896254 0.5773502691896262 
outer loop
vertex -0.5000000000000002 1.5000000000000004 1.0000000000000004 
vertex -1.5000000000000007 0.5 1.0 
vertex -1.0000000000000004 0.4999999999999998 1.5 
endloop
endfacet
facet normal -0.5773502691896257 0.5773502691896254 0.5773502691896262 
outer loop
vertex -0.5000000000000002 1.5000000000000004 1.0000000000000004 
vertex -1.0000000000000004 0.4999999999999998 1.5 
vertex -0.49999999999999956 1.0000000000000009 1.5 
endloop
endfacet
facet normal 0.5773502691896261 0.5773502691896255 0.5773502691896256 
outer loop
vertex 1.4999999999999998 0.49999999999999856 1.0000000000000013 
vertex 1.4999999999999996 1.0000000000000013 0.49999999999999883 
vertex 0.9999999999999993 1.5000000000000007 0.5000000000000001 
endloop
endfacet
facet normal 0.577350269189626 0.5773502691896256 0.5773502691896257 
outer loop
vertex 1.4999999999999998 0.49999999999999856 1.0000000000000013 
vertex 0.9999999999999993 1.5000000000000007 0.5000000000000001 
vertex 0.49999999999999967 1.5000000000000007 1.0 
endloop
endfacet
facet normal 0.5773502691896261 0.5773502691896255 0.5773502691896258 
outer loop
vertex 1.4999999999999998 0.49999999999999856 1.0000000000000013 
vertex 0.49999999999999967 1.5000000000000007 1.0 
vertex 0.4999999999999992 1.0000000000000007 1.5000000000000002 
endloop
endfacet
facet normal 0.5773502691896261 0.5773502691896256 0.5773502691896257 
outer loop
vertex 1.4999999999999998 0.49999999999999856 1.0000000000000013 
vertex 0.4999999999999992 1.0000000000000007 1.5000000000000002 
vertex 1.0000000000000013 0.49999999999999845 1.5 
endloop
endfacet
facet normal -0.5773502691896254 0.577350269189626 -0.577350269189626 
outer loop
vertex -1.0000000000000002 0.5 -1.5 
vertex -1.5000000000000004 0.4999999999999998 -1.0000000000000004 
vertex -1.5000000000000004 0.9999999999999998 -0.5000000000000004 
endloop
endfacet
facet normal -0.5773502691896255 0.5773502691896258 -0.577350269189626 
outer loop
vertex -1.0000000000000002 0.5 -1.5 
vertex -1.5000000000000004 0.9999999999999998 -0.5000000000000004 
vertex -1.0000000000000004 1.5 -0.5 
endloop
endfacet
facet normal -0.577350269189626 0.5773502691896256 -0.5773502691896257 
outer loop
vertex -1.0000000000000002 0.5 -1.5 
vertex -1.0000000000000004 1.5 -0.5 
vertex -0.5 1.5000000000000002 -1.0000000000000004 
endloop
endfacet
facet normal -0.5773502691896262 0.5773502691896256 -0.5773502691896256 
outer loop
vertex -1.0000000000000002 0.5 -1.5 
vertex -0.5 1.5000000000000002 -1.0000000000000004 
vertex -0.49999999999999956 1.000000000000001 -1.5 
endloop
endfacet
facet normal -0.5773502691896254 -0.5773502691896255 -0.5773502691896263 
outer loop
vertex -1.0000000000000002 -0.4999999999999999 -1.5 
vertex -0.4999999999999998 -1.0000000000000002 -1.5 
vertex -0.49999999999999994 -1.5000000000000004 -1.0000000000000002 
endloop
endfacet
facet normal -0.5773502691896257 -0.5773502691896256 -0.5773502691896258 
outer loop
vertex -1.0000000000000002 -0.4999999999999999 -1.5 
vertex -0.49999999999999994 -1.5000000000000004 -1.0000000000000002 
vertex -1.0000000000000002 -1.5000000000000004 -0.5000000000000001 
endloop
endfacet
facet normal -0.5773502691896256 -0.5773502691896256 -0.577350269189626 
outer loop
vertex -1.0000000000000002 -0.4999999999999999 -1.5 
vertex -1.0000000000000002 -1.5000000000000004 -0.5000000000000001 
vertex -1.5000000000000002 -1.0000000000000007 -0.4999999999999999 
endloop
endfacet
facet normal -0.5773502691896251 -0.5773502691896262 -0.5773502691896261 
outer loop
vertex -1.0000000000000002 -0.4999999999999999 -1.5 
vertex -1.5000000000000002 -1.0000000000000007 -0.4999999999999999 
vertex -1.5000000000000002 -0.49999999999999994 -1.0000000000000007 
endloop
endfacet
facet normal 0.5773502691896255 -0.5773502691896257 -0.577350269189626 
outer loop
vertex 0.5 -1.5000000000000002 -1.0000000000000002 
vertex 0.5000000000000003 -1.0 -1.5 
vertex 1.0000000000000002 -0.5000000000000001 -1.5000000000000002 
endloop
endfacet
facet normal 0.5773502691896256 -0.5773502691896258 -0.5773502691896258 
outer loop
vertex 0.5 -1.5000000000000002 -1.0000000000000002 
vertex 1.0000000000000002 -0.5000000000000001 -1.5000000000000002 
vertex 1.5000000000000002 -0.5000000000000002 -1.0000000000000002 
endloop
endfacet
facet normal 0.5773502691896257 -0.577350269189626 -0.5773502691896255 
outer loop
vertex 0.5 -1.5000000000000002 -1.0000000000000002 
vertex 1.5000000000000002 -0.5000000000000002 -1.0000000000000002 
vertex 1.5 -1.0000000000000007 -0.49999999999999967 
endloop
endfacet
facet normal 0.5773502691896258 -0.5773502691896257 -0.5773502691896258 
outer loop
vertex 0.5 -1.5000000000000002 -1.0000000000000002 
vertex 1.5 -1.0000000000000007 -0.49999999999999967 
vertex 1.0000000000000007 -1.5000000000000002 -0.49999999999999956 
endloop
endfacet
facet normal 0.5773502691896257 0.5773502691896261 -0.5773502691896255 
outer loop
vertex 0.4999999999999994 1.5000000000000004 -1.0 
vertex 0.9999999999999991 1.5000000000000004 -0.5000000000000001 
vertex 1.4999999999999996 1.0000000000000013 -0.49999999999999906 
endloop
endfacet
facet normal 0.5773502691896256 0.5773502691896256 -0.577350269189626 
outer loop
vertex 0.4999999999999994 1.5000000000000004 -1.0 
vertex 1.4999999999999996 1.0000000000000013 -0.49999999999999906 
vertex 1.4999999999999998 0.49999999999999867 -1.0000000000000013 
endloop
endfacet
facet normal 0.577350269189626 0.577350269189626 -0.5773502691896254 
outer loop
vertex 0.4999999999999994 1.5000000000000004 -1.0 
vertex 1.4999999999999998 0.49999999999999867 -1.0000000000000013 
vertex 1.0000000000000013 0.49999999999999867 -1.5000000000000002 
endloop
endfacet
facet normal 0.5773502691896256 0.577350269189626 -0.5773502691896256 
outer loop
vertex 0.4999999999999994 1.5000000000000004 -1.0 
vertex 1.0000000000000013 0.49999999999999867 -1.5000000000000002 
vertex 0.49999999999999917 1.0000000000000009 -1.5 
endloop
endfacet
facet normal -0.0 -1.0 0.0 
outer loop
vertex 0.5 -1.5000000000000002 -1.0000000000000002 
vertex 1.0000000000000007 -1.5000000000000002 -0.49999999999999956 
vertex 1.0000000000000004 -1.5000000000000002 0.49999999999999967 
endloop
endfacet
facet normal -0.0 -1.0 0.0 
outer loop
vertex 0.5 -1.5000000000000002 -1.0000000000000002 
vertex 1.0000000000000004 -1.5000000000000002 0.49999999999999967 
vertex 0.5000000000000003 -1.5000000000000002 0.9999999999999998 
endloop
endfacet
facet normal 2.220446049250313e-16 -1.0 -3.697785493223493e-32 
outer loop
vertex 0.5 -1.5000000000000002 -1.0000000000000002 
vertex 0.5000000000000003 -1.5000000000000002 0.9999999999999998 
vertex -0.49999999999999967 -1.5000000000000004 1.0 
endloop
endfacet
facet normal 3.700743415417187e-16 -1.0 7.401486830834365e-17 
outer loop
vertex 0.5 -1.5000000000000002 -1.0000000000000002 
vertex -0.49999999999999967 -1.5000000000000004 1.0 
vertex -1.0 -1.5000000000000007 0.5 
endloop
endfacet
facet normal 7.401486830834372e-17 -1.0 -2.220446049250313e-16 
outer loop
vertex 0.5 -1.5000000000000002 -1.0000000000000002 
vertex -1.0 -1.5000000000000007 0.5 
vertex -1.0000000000000002 -1.5000000000000004 -0.5000000000000001 
endloop
endfacet
facet normal 2.2204460492503126e-16 -1.0 2.220446049250313e-16 
outer loop
vertex 0.5 -1.5000000000000002 -1.0000000000000002 
vertex -1.0000000000000002 -1.5000000000000004 -0.5000000000000001 
vertex -0.49999999999999994 -1.5000000000000004 -1.0000000000000002 
endloop
endfacet
facet normal 1.0 -6.661338147750937e-16 -2.220446049250314e-16 
outer loop
vertex 1.5000000000000002 -1.0000000000000007 0.5 
vertex 1.5 -1.0000000000000007 -0.49999999999999967 
vertex 1.5000000000000002 -0.5000000000000002 -1.0000000000000002 
endloop
endfacet
facet normal 1.0 4.440892098500633e-16 1.480297366166879e-16 
outer loop
vertex 1.5000000000000002 -1.0000000000000007 0.5 
vertex 1.5000000000000002 -0.5000000000000002 -1.0000000000000002 
vertex 1.4999999999999998 0.49999999999999867 -1.0000000000000013 
endloop
endfacet
facet normal 1.0 3.7007434154171783e-16 7.401486830834251e-17 
outer loop
vertex 1.5000000000000002 -1.0000000000000007 0.5 
vertex 1.4999999999999998 0.49999999999999867 -1.0000000000000013 
vertex 1.4999999999999996 1.0000000000000013 -0.49999999999999906 
endloop
endfacet
facet normal 1.0 3.3306690738754667e-16 -0.0 
outer loop
vertex 1.5000000000000002 -1.0000000000000007 0.5 
vertex 1.4999999999999996 1.0000000000000013 -0.49999999999999906 
vertex 1.4999999999999996 1.0000000000000013 0.49999999999999883 
endloop
endfacet
facet normal 1.0 3.3306690738754667e-16 -1.1102230246251361e-16 
outer loop
vertex 1.5000000000000002 -1.0000000000000007 0.5 
vertex 1.4999999999999996 1.0000000000000013 0.49999999999999883 
vertex 1.4999999999999998 0.49999999999999856 1.0000000000000013 
endloop
endfacet
facet normal 1.0 4.440892098500635e-16 -4.440892098500633e-16 
outer loop
vertex 1.5000000000000002 -1.0000000000000007 0.5 
vertex 1.4999999999999998 0.49999999999999856 1.0000000000000013 
vertex 1.5000000000000002 -0.5000000000000006 1.0000000000000002 
endloop
endfacet
facet normal -0.0 0.0 1.0 
outer loop
vertex -1.0000000000000004 0.4999999999999998 1.5 
vertex -1.0000000000000007 -0.5000000000000001 1.5 
vertex -0.4999999999999995 -1.0000000000000009 1.5 
endloop
endfacet
facet normal -2.2204460492503136e-16 -7.401486830834388e-17 1.0 
outer loop
vertex -1.0000000000000004 0.4999999999999998 1.5 
vertex -0.4999999999999995 -1.0000000000000009 1.5 
vertex 0.5000000000000003 -1.0000000000000007 1.5000000000000002 
endloop
endfacet
facet normal 1.4802973661668753e-16 2.9605947323337506e-16 1.0 
outer loop
vertex -1.0000000000000004 0.4999999999999998 1.5 
vertex 0.5000000000000003 -1.0000000000000007 1.5000000000000002 
vertex 1.0000000000000002 -0.5000000000000006 1.5 
endloop
endfacet
facet normal 0.0 -0.0 1.0 
outer loop
vertex -1.0000000000000004 0.4999999999999998 1.5 
vertex 1.0000000000000002 -0.5000000000000006 1.5 
vertex 1.0000000000000013 0.49999999999999845 1.5 
endloop
endfacet
facet normal -2.9582283945787807e-31 -4.4408920985006094e-16 1.0 
outer loop
vertex -1.0000000000000004 0.4999999999999998 1.5 
vertex 1.0000000000000013 0.49999999999999845 1.5 
vertex 0.4999999999999992 1.0000000000000007 1.5000000000000002 
endloop
endfacet
facet normal -2.2204460492503155e-16 2.220446049250314e-16 1.0 
outer loop
vertex -1.0000000000000004 0.4999999999999998 1.5 
vertex 0.4999999999999992 1.0000000000000007 1.5000000000000002 
vertex -0.49999999999999956 1.0000000000000009 1.5 
endloop
endfacet
facet normal -1.0 -2.2204460492503136e-16 -2.220446049250313e-16 
outer loop
vertex -1.5000000000000002 -0.49999999999999994 -1.0000000000000007 
vertex -1.5000000000000002 -1.0000000000000007 -0.4999999999999999 
vertex -1.5000000000000004 -1.0000000000000007 0.5000000000000001 
endloop
endfacet
facet normal -1.0 4.440892098500623e-16 9.860761315262637e-32 
outer loop
vertex -1.5000000000000002 -0.49999999999999994 -1.0000000000000007 
vertex -1.5000000000000004 -1.0000000000000007 0.5000000000000001 
vertex -1.5000000000000002 -0.5000000000000004 1.0 
endloop
endfacet
facet normal -1.0 -4.440892098500624e-16 -1.109335647967047e-31 
outer loop
vertex -1.5000000000000002 -0.49999999999999994 -1.0000000000000007 
vertex -1.5000000000000002 -0.5000000000000004 1.0 
vertex -1.5000000000000007 0.5 1.0 
endloop
endfacet
facet normal -1.0 1.4802973661668792e-16 -2.9605947323337516e-16 
outer loop
vertex -1.5000000000000002 -0.49999999999999994 -1.0000000000000007 
vertex -1.5000000000000007 0.5 1.0 
vertex -1.5000000000000004 0.9999999999999993 0.5000000000000004 
endloop
endfacet
facet normal -1.0 -1.4802973661668753e-16 -6.573840876841759e-32 
outer loop
vertex -1.5000000000000002 -0.49999999999999994 -1.0000000000000007 
vertex -1.5000000000000004 0.9999999999999993 0.5000000000000004 
vertex -1.5000000000000004 0.9999999999999998 -0.5000000000000004 
endloop
endfacet
facet normal -1.0 -2.220446049250314e-16 2.220446049250314e-16 
outer loop
vertex -1.5000000000000002 -0.49999999999999994 -1.0000000000000007 
vertex -1.5000000000000004 0.9999999999999998 -0.5000000000000004 
vertex -1.5000000000000004 0.4999999999999998 -1.0000000000000004 
endloop
endfacet
facet normal -2.22044604925031e-16 1.0 -2.220446049250313e-16 
outer loop
vertex -1.0000000000000004 1.5 -0.5 
vertex -1.0000000000000007 1.5000000000000002 0.5000000000000002 
vertex -0.5000000000000002 1.5000000000000004 1.0000000000000004 
endloop
endfacet
facet normal -2.2204460492503146e-16 1.0 -2.2204460492503118e-16 
outer loop
vertex -1.0000000000000004 1.5 -0.5 
vertex -0.5000000000000002 1.5000000000000004 1.0000000000000004 
vertex 0.49999999999999967 1.5000000000000007 1.0 
endloop
endfacet
facet normal -2.2204460492503136e-16 1.0 -2.2204460492503128e-16 
outer loop
vertex -1.0000000000000004 1.5 -0.5 
vertex 0.49999999999999967 1.5000000000000007 1.0 
vertex 0.9999999999999993 1.5000000000000007 0.5000000000000001 
endloop
endfacet
facet normal -2.2204460492503146e-16 1.0 -2.2204460492503123e-16 
outer loop
vertex -1.0000000000000004 1.5 -0.5 
vertex 0.9999999999999993 1.5000000000000007 0.5000000000000001 
vertex 0.9999999999999991 1.5000000000000004 -0.5000000000000001 
endloop
endfacet
facet normal -2.2204460492503136e-16 1.0 2.2204460492503128e-16 
outer loop
vertex -1.0000000000000004 1.5 -0.5 
vertex 0.9999999999999991 1.5000000000000004 -0.5000000000000001 
vertex 0.4999999999999994 1.5000000000000004 -1.0 
endloop
endfacet
facet normal -2.2204460492503155e-16 1.0 2.2204460492503067e-16 
outer loop
vertex -1.0000000000000004 1.5 -0.5 
vertex 0.4999999999999994 1.5000000000000004 -1.0 
vertex -0.5 1.5000000000000002 -1.0000000000000004 
endloop
endfacet
facet normal 9.860761315262619e-32 4.4408920985006074e-16 -1.0 
outer loop
vertex -0.49999999999999956 1.000000000000001 -1.5 
vertex 0.49999999999999917 1.0000000000000009 -1.5 
vertex 1.0000000000000013 0.49999999999999867 -1.5000000000000002 
endloop
endfacet
facet normal -1.4802973661668738e-16 1.6434602192104416e-31 -1.0 
outer loop
vertex -0.49999999999999956 1.000000000000001 -1.5 
vertex 1.0000000000000013 0.49999999999999867 -1.5000000000000002 
vertex 1.0000000000000002 -0.5000000000000001 -1.5000000000000002 
endloop
endfacet
facet normal -2.960594732333752e-16 -1.480297366166875e-16 -1.0 
outer loop
vertex -0.49999999999999956 1.000000000000001 -1.5 
vertex 1.0000000000000002 -0.5000000000000001 -1.5000000000000002 
vertex 0.5000000000000003 -1.0 -1.5 
endloop
endfacet
facet normal -0.0 0.0 -1.0 
outer loop
vertex -0.49999999999999956 1.000000000000001 -1.5 
vertex 0.5000000000000003 -1.0 -1.5 
vertex -0.4999999999999998 -1.0000000000000002 -1.5 
endloop
endfacet
facet normal 0.0 0.0 -1.0 
outer loop
vertex -0.49999999999999956 1.000000000000001 -1.5 
vertex -0.4999999999999998 -1.0000000000000002 -1.5 
vertex -1.0000000000000002 -0.4999999999999999 -1.5 
endloop
endfacet
facet normal 0.0 0.0 -1.0 
outer loop
vertex -0.49999999999999956 1.000000000000001 -1.5 
vertex -1.0000000000000002 -0.4999999999999999 -1.5 
vertex -1.0000000000000002 0.5 -1.5 
endloop
endfacet
facet normal 0.7071067811865474 -7.8504622934188815e-16 0.7071067811865477 
outer loop
vertex 1.0000000000000013 0.49999999999999845 1.5 
vertex 1.0000000000000002 -0.5000000000000006 1.5 
vertex 1.5000000000000002 -0.5000000000000006 1.0000000000000002 
endloop
endfacet
facet normal 0.7071067811865477 -4.710277376051328e-16 0.7071067811865474 
outer loop
vertex 1.0000000000000013 0.49999999999999845 1.5 
vertex 1.5000000000000002 -0.5000000000000006 1.0000000000000002 
vertex 1.4999999999999998 0.49999999999999856 1.0000000000000013 
endloop
endfacet
facet normal 3.14018491736755e-16 -0.7071067811865481 0.7071067811865468 
outer loop
vertex -0.49999999999999967 -1.5000000000000004 1.0 
vertex 0.5000000000000003 -1.5000000000000002 0.9999999999999998 
vertex 0.5000000000000003 -1.0000000000000007 1.5000000000000002 
endloop
endfacet
facet normal 1.3945222387368405e-31 -0.7071067811865479 0.7071067811865472 
outer loop
vertex -0.49999999999999967 -1.5000000000000004 1.0 
vertex 0.5000000000000003 -1.0000000000000007 1.5000000000000002 
vertex -0.4999999999999995 -1.0000000000000009 1.5 
endloop
endfacet
facet normal 0.7071067811865477 -0.7071067811865475 -1.570092458683776e-16 
outer loop
vertex 1.0000000000000007 -1.5000000000000002 -0.49999999999999956 
vertex 1.5 -1.0000000000000007 -0.49999999999999967 
vertex 1.5000000000000002 -1.0000000000000007 0.5 
endloop
endfacet
facet normal 0.7071067811865475 -0.7071067811865477 1.5700924586837774e-16 
outer loop
vertex 1.0000000000000007 -1.5000000000000002 -0.49999999999999956 
vertex 1.5000000000000002 -1.0000000000000007 0.5 
vertex 1.0000000000000004 -1.5000000000000002 0.49999999999999967 
endloop
endfacet
facet normal -0.7071067811865474 1.570092458683775e-16 0.7071067811865477 
outer loop
vertex -1.0000000000000007 -0.5000000000000001 1.5 
vertex -1.0000000000000004 0.4999999999999998 1.5 
vertex -1.5000000000000007 0.5 1.0 
endloop
endfacet
facet normal -0.7071067811865478 -3.14018491736755e-16 0.7071067811865471 
outer loop
vertex -1.0000000000000007 -0.5000000000000001 1.5 
vertex -1.5000000000000007 0.5 1.0 
vertex -1.5000000000000002 -0.5000000000000004 1.0 
endloop
endfacet
facet normal -0.7071067811865472 -0.7071067811865479 -1.5700924586837744e-16 
outer loop
vertex -1.0 -1.5000000000000007 0.5 
vertex -1.5000000000000004 -1.0000000000000007 0.5000000000000001 
vertex -1.5000000000000002 -1.0000000000000007 -0.4999999999999999 
endloop
endfacet
facet normal -0.7071067811865474 -0.7071067811865478 0.0 
outer loop
vertex -1.0 -1.5000000000000007 0.5 
vertex -1.5000000000000002 -1.0000000000000007 -0.4999999999999999 
vertex -1.0000000000000002 -1.5000000000000004 -0.5000000000000001 
endloop
endfacet
facet normal 0.0 0.7071067811865476 0.7071067811865476 
outer loop
vertex -0.5000000000000002 1.5000000000000004 1.0000000000000004 
vertex -0.49999999999999956 1.0000000000000009 1.5 
vertex 0.4999999999999992 1.0000000000000007 1.5000000000000002 
endloop
endfacet
facet normal 1.570092458683775e-16 0.7071067811865477 0.7071067811865474 
outer loop
vertex -0.5000000000000002 1.5000000000000004 1.0000000000000004 
vertex 0.4999999999999992 1.0000000000000007 1.5000000000000002 
vertex 0.49999999999999967 1.5000000000000007 1.0 
endloop
endfacet
facet normal -0.7071067811865477 0.7071067811865474 3.1401849173675464e-16 
outer loop
vertex -1.0000000000000004 1.5 -0.5 
vertex -1.5000000000000004 0.9999999999999998 -0.5000000000000004 
vertex -1.5000000000000004 0.9999999999999993 0.5000000000000004 
endloop
endfacet
facet normal -0.7071067811865483 0.7071067811865468 -3.1401849173675474e-16 
outer loop
vertex -1.0000000000000004 1.5 -0.5 
vertex -1.5000000000000004 0.9999999999999993 0.5000000000000004 
vertex -1.0000000000000007 1.5000000000000002 0.5000000000000002 
endloop
endfacet
facet normal 0.7071067811865469 0.7071067811865481 -3.1401849173675493e-16 
outer loop
vertex 0.9999999999999991 1.5000000000000004 -0.5000000000000001 
vertex 0.9999999999999993 1.5000000000000007 0.5000000000000001 
vertex 1.4999999999999996 1.0000000000000013 0.49999999999999883 
endloop
endfacet
facet normal 0.7071067811865466 0.7071067811865485 0.0 
outer loop
vertex 0.9999999999999991 1.5000000000000004 -0.5000000000000001 
vertex 1.4999999999999996 1.0000000000000013 0.49999999999999883 
vertex 1.4999999999999996 1.0000000000000013 -0.49999999999999906 
endloop
endfacet
facet normal 1.570092458683774e-16 0.7071067811865478 -0.7071067811865472 
outer loop
vertex -0.49999999999999956 1.000000000000001 -1.5 
vertex -0.5 1.5000000000000002 -1.0000000000000004 
vertex 0.4999999999999994 1.5000000000000004 -1.0 
endloop
endfacet
facet normal 1.570092458683778e-16 0.7071067811865479 -0.7071067811865472 
outer loop
vertex -0.49999999999999956 1.000000000000001 -1.5 
vertex 0.4999999999999994 1.5000000000000004 -1.0 
vertex 0.49999999999999917 1.0000000000000009 -1.5 
endloop
endfacet
facet normal -0.707106781186547 2.09178335810526e-31 -0.707106781186548 
outer loop
vertex -1.5000000000000002 -0.49999999999999994 -1.0000000000000007 
vertex -1.5000000000000004 0.4999999999999998 -1.0000000000000004 
vertex -1.0000000000000002 0.5 -1.5 
endloop
endfacet
facet normal -0.707106781186547 -0.0 -0.7071067811865479 
outer loop
vertex -1.5000000000000002 -0.49999999999999994 -1.0000000000000007 
vertex -1.0000000000000002 0.5 -1.5 
vertex -1.0000000000000002 -0.4999999999999999 -1.5 
endloop
endfacet
facet normal 1.5700924586837742e-16 -0.7071067811865471 -0.7071067811865478 
outer loop
vertex 0.5000000000000003 -1.0 -1.5 
vertex 0.5 -1.5000000000000002 -1.0000000000000002 
vertex -0.49999999999999994 -1.5000000000000004 -1.0000000000000002 
endloop
endfacet
facet normal 1.570092458683775e-16 -0.7071067811865472 -0.7071067811865478 
outer loop
vertex 0.5000000000000003 -1.0 -1.5 
vertex -0.49999999999999994 -1.5000000000000004 -1.0000000000000002 
vertex -0.4999999999999998 -1.0000000000000002 -1.5 
endloop
endfacet
facet normal 0.7071067811865478 -7.850462293418888e-16 -0.7071067811865472 
outer loop
vertex 1.0000000000000002 -0.5000000000000001 -1.5000000000000002 
vertex 1.0000000000000013 0.49999999999999867 -1.5000000000000002 
vertex 1.4999999999999998 0.49999999999999867 -1.0000000000000013 
endloop
endfacet
facet normal 0.7071067811865476 -4.710277376051331e-16 -0.7071067811865476 
outer loop
vertex 1.0000000000000002 -0.5000000000000001 -1.5000000000000002 
vertex 1.4999999999999998 0.49999999999999867 -1.0000000000000013 
vertex 1.5000000000000002 -0.5000000000000002 -1.0000000000000002 
endloop
endfacet
endsolid unit-truncated-cuboctahedron
