solid cube
facet normal 0.0 0.0 -1.0 
outer loop
vertex -2.7755575615628914e-17 2.7755575615628914e-17 0.0 
vertex -1.29893408435324e-16 -0.7071067811865476 0.0 
vertex -0.7071067811865476 8.659560562354934e-17 0.0 
endloop
endfacet
facet normal 0.0 0.0 -1.0 
outer loop
vertex -2.7755575615628914e-17 2.7755575615628914e-17 0.0 
vertex -0.7071067811865476 8.659560562354934e-17 0.0 
vertex 4.329780281177467e-17 0.7071067811865476 0.0 
endloop
endfacet
facet normal 0.0 -0.0 -1.0 
outer loop
vertex -2.7755575615628914e-17 2.7755575615628914e-17 0.0 
vertex 4.329780281177467e-17 0.7071067811865476 0.0 
vertex 0.7071067811865476 0.0 0.0 
endloop
endfacet
facet normal -0.0 0.0 -1.0 
outer loop
vertex -2.7755575615628914e-17 2.7755575615628914e-17 0.0 
vertex 0.7071067811865476 0.0 0.0 
vertex -1.29893408435324e-16 -0.7071067811865476 0.0 
endloop
endfacet
facet normal 0.0 0.0 1.0 
outer loop
vertex -3.2473352108831e-17 2.7755575615628914e-17 1.0 
vertex 0.7071067811865476 0.0 1.0 
vertex 4.329780281177467e-17 0.7071067811865476 1.0 
endloop
endfacet
facet normal 0.0 0.0 1.0 
outer loop
vertex -3.2473352108831e-17 2.7755575615628914e-17 1.0 
vertex 4.329780281177467e-17 0.7071067811865476 1.0 
vertex -0.7071067811865476 8.659560562354934e-17 1.0 
endloop
endfacet
facet normal 0.0 0.0 1.0 
outer loop
vertex -3.2473352108831e-17 2.7755575615628914e-17 1.0 
vertex -0.7071067811865476 8.659560562354934e-17 1.0 
vertex -1.29893408435324e-16 -0.7071067811865476 1.0 
endloop
endfacet
facet normal 0.0 0.0 1.0 
outer loop
vertex -3.2473352108831e-17 2.7755575615628914e-17 1.0 
vertex -1.29893408435324e-16 -0.7071067811865476 1.0 
vertex 0.7071067811865476 0.0 1.0 
endloop
endfacet
facet normal -0.7071067811865477 -0.7071067811865475 0.0 
outer loop
vertex -0.35355339059327384 -0.35355339059327373 0.5 
vertex -0.7071067811865476 8.659560562354934e-17 0.0 
vertex -1.29893408435324e-16 -0.7071067811865476 0.0 
endloop
endfacet
facet normal -0.7071067811865477 -0.7071067811865475 0.0 
outer loop
vertex -0.35355339059327384 -0.35355339059327373 0.5 
vertex -1.29893408435324e-16 -0.7071067811865476 0.0 
vertex -1.29893408435324e-16 -0.7071067811865476 1.0 
endloop
endfacet
facet normal -0.7071067811865477 -0.7071067811865475 0.0 
outer loop
vertex -0.35355339059327384 -0.35355339059327373 0.5 
vertex -1.29893408435324e-16 -0.7071067811865476 1.0 
vertex -0.7071067811865476 8.659560562354934e-17 1.0 
endloop
endfacet
facet normal -0.7071067811865477 -0.7071067811865475 -0.0 
outer loop
vertex -0.35355339059327384 -0.35355339059327373 0.5 
vertex -0.7071067811865476 8.659560562354934e-17 1.0 
vertex -0.7071067811865476 8.659560562354934e-17 0.0 
endloop
endfacet
facet normal -0.7071067811865475 0.7071067811865476 -1.1102230246251565e-16 
outer loop
vertex -0.3535533905932738 0.35355339059327384 0.5 
vertex 4.329780281177467e-17 0.7071067811865476 0.0 
vertex -0.7071067811865476 8.659560562354934e-17 0.0 
endloop
endfacet
facet normal -0.7071067811865475 0.7071067811865476 0.0 
outer loop
vertex -0.3535533905932738 0.35355339059327384 0.5 
vertex -0.7071067811865476 8.659560562354934e-17 0.0 
vertex -0.7071067811865476 8.659560562354934e-17 1.0 
endloop
endfacet
facet normal -0.7071067811865475 0.7071067811865476 0.0 
outer loop
vertex -0.3535533905932738 0.35355339059327384 0.5 
vertex -0.7071067811865476 8.659560562354934e-17 1.0 
vertex 4.329780281177467e-17 0.7071067811865476 1.0 
endloop
endfacet
facet normal -0.7071067811865475 0.7071067811865477 0.0 
outer loop
vertex -0.3535533905932738 0.35355339059327384 0.5 
vertex 4.329780281177467e-17 0.7071067811865476 1.0 
vertex 4.329780281177467e-17 0.7071067811865476 0.0 
endloop
endfacet
facet normal 0.7071067811865476 0.7071067811865476 0.0 
outer loop
vertex 0.3535533905932738 0.3535533905932738 0.5 
vertex 0.7071067811865476 0.0 0.0 
vertex 4.329780281177467e-17 0.7071067811865476 0.0 
endloop
endfacet
facet normal 0.7071067811865476 0.7071067811865475 -0.0 
outer loop
vertex 0.3535533905932738 0.3535533905932738 0.5 
vertex 4.329780281177467e-17 0.7071067811865476 0.0 
vertex 4.329780281177467e-17 0.7071067811865476 1.0 
endloop
endfacet
facet normal 0.7071067811865476 0.7071067811865476 -1.1102230246251565e-16 
outer loop
vertex 0.3535533905932738 0.3535533905932738 0.5 
vertex 4.329780281177467e-17 0.7071067811865476 1.0 
vertex 0.7071067811865476 0.0 1.0 
endloop
endfacet
facet normal 0.7071067811865476 0.7071067811865476 0.0 
outer loop
vertex 0.3535533905932738 0.3535533905932738 0.5 
vertex 0.7071067811865476 0.0 1.0 
vertex 0.7071067811865476 0.0 0.0 
endloop
endfacet
facet normal 0.7071067811865475 -0.7071067811865476 0.0 
outer loop
vertex 0.3535533905932737 -0.3535533905932738 0.5 
vertex -1.29893408435324e-16 -0.7071067811865476 0.0 
vertex 0.7071067811865476 0.0 0.0 
endloop
endfacet
facet normal 0.7071067811865475 -0.7071067811865477 0.0 
outer loop
vertex 0.3535533905932737 -0.3535533905932738 0.5 
vertex 0.7071067811865476 0.0 0.0 
vertex 0.7071067811865476 0.0 1.0 
endloop
endfacet
facet normal 0.7071067811865475 -0.7071067811865476 -1.1102230246251563e-16 
outer loop
vertex 0.3535533905932737 -0.3535533905932738 0.5 
vertex 0.7071067811865476 0.0 1.0 
vertex -1.29893408435324e-16 -0.7071067811865476 1.0 
endloop
endfacet
facet normal 0.7071067811865476 -0.7071067811865476 0.0 
outer loop
vertex 0.3535533905932737 -0.3535533905932738 0.5 
vertex -1.29893408435324e-16 -0.7071067811865476 1.0 
vertex -1.29893408435324e-16 -0.7071067811865476 0.0 
endloop
endfacet
endsolid cube
