solid temp
facet normal 0.2763932022500212 -0.8506508083520398 0.44721359549995826 
outer loop
vertex 0.45859804507296065 -0.5396143352480899 -0.5257311121191334 
vertex 0.17533132589173114 -0.53961433524809 -0.350662651783462 
vertex -0.053836263866719386 -0.7061143352480901 -0.5257311121191334 
endloop
endfacet
facet normal 0.2763932022500211 -0.8506508083520398 0.4472135954999582 
outer loop
vertex 0.45859804507296065 -0.5396143352480899 -0.5257311121191334 
vertex -0.053836263866719386 -0.7061143352480901 -0.5257311121191334 
vertex 0.40449891565018176 -0.7061143352480901 -0.8089978313003628 
endloop
endfacet
facet normal -0.27639320225002123 0.8506508083520398 -0.4472135954999582 
outer loop
vertex 0.45859804507296065 -0.5396143352480899 -0.5257311121191334 
vertex 0.40449891565018176 -0.7061143352480901 -0.8089978313003628 
vertex 0.08779709572389544 -0.8090169943749477 -0.8089978313003627 
endloop
endfacet
facet normal 0.894427190999916 1.4910115034518134e-16 0.447213595499958 
outer loop
vertex 0.6549183193386464 -0.2694026591268578 -0.5257311121191334 
vertex 0.7965516789292612 -0.1665000000000005 -0.8089978313003628 
vertex 0.7965516789292613 0.16650000000000012 -0.8089978313003632 
endloop
endfacet
facet normal 0.894427190999916 -2.033189314945484e-16 0.4472135954999576 
outer loop
vertex 0.6549183193386464 -0.2694026591268578 -0.5257311121191334 
vertex 0.7965516789292613 0.16650000000000012 -0.8089978313003632 
vertex 0.6549183193386465 0.2694026591268574 -0.5257311121191334 
endloop
endfacet
facet normal 0.8944271909999159 -1.8429915735006058e-16 0.44721359549995804 
outer loop
vertex 0.6549183193386464 -0.2694026591268578 -0.5257311121191334 
vertex 0.6549183193386465 0.2694026591268574 -0.5257311121191334 
vertex 0.5673840891708107 -1.2280461041453808e-16 -0.35066265178346195 
endloop
endfacet
facet normal -4.2541086186866465e-16 4.121054440306655e-16 1.0 
outer loop
vertex 0.08753423016783579 -0.2694026591268575 -0.1750684603356714 
vertex 0.28326671918122936 -6.131024777817268e-17 -0.17506846033567142 
vertex 0.08753423016783585 0.2694026591268577 -0.1750684603356716 
endloop
endfacet
facet normal -2.2154063296311125e-16 4.121054440306655e-16 1.0 
outer loop
vertex 0.08753423016783579 -0.2694026591268575 -0.1750684603356714 
vertex 0.08753423016783585 0.2694026591268577 -0.1750684603356716 
vertex -0.22916758975845058 0.1665000000000001 -0.17506846033567164 
endloop
endfacet
facet normal -3.2986895966340717e-16 3.334003076952417e-16 1.0 
outer loop
vertex 0.08753423016783579 -0.2694026591268575 -0.1750684603356714 
vertex -0.22916758975845058 0.1665000000000001 -0.17506846033567164 
vertex -0.22916758975845042 -0.16650000000000023 -0.17506846033567153 
endloop
endfacet
facet normal -0.7236067977499788 -0.5257311121191338 0.447213595499958 
outer loop
vertex -0.37148914030930014 -0.6029026591268578 -0.5257311121191334 
vertex -0.45902337047713615 -0.33350000000000013 -0.35066265178346195 
vertex -0.6881909602355865 -0.16700000000000034 -0.5257311121191334 
endloop
endfacet
facet normal -0.7236067977499786 -0.5257311121191337 0.4472135954999581 
outer loop
vertex -0.37148914030930014 -0.6029026591268578 -0.5257311121191334 
vertex -0.6881909602355865 -0.16700000000000034 -0.5257311121191334 
vertex -0.7422900896583655 -0.33350000000000035 -0.8089978313003628 
endloop
endfacet
facet normal -0.7236067977499786 -0.525731112119134 0.44721359549995787 
outer loop
vertex -0.37148914030930014 -0.6029026591268578 -0.5257311121191334 
vertex -0.7422900896583655 -0.33350000000000035 -0.8089978313003628 
vertex -0.5465576006449718 -0.6029026591268578 -0.808997831300363 
endloop
endfacet
facet normal -0.723606797749979 0.5257311121191335 0.4472135954999579 
outer loop
vertex -0.45902337047713615 0.3334999999999997 -0.3506626517834618 
vertex -0.37148914030930036 0.6029026591268573 -0.5257311121191333 
vertex -0.5465576006449719 0.6029026591268573 -0.8089978313003627 
endloop
endfacet
facet normal -0.7236067977499788 0.5257311121191337 0.44721359549995804 
outer loop
vertex -0.45902337047713615 0.3334999999999997 -0.3506626517834618 
vertex -0.5465576006449719 0.6029026591268573 -0.8089978313003627 
vertex -0.7422900896583656 0.3334999999999997 -0.8089978313003627 
endloop
endfacet
facet normal -0.723606797749979 0.5257311121191334 0.44721359549995804 
outer loop
vertex -0.45902337047713615 0.3334999999999997 -0.3506626517834618 
vertex -0.7422900896583656 0.3334999999999997 -0.8089978313003627 
vertex -0.6881909602355866 0.16699999999999962 -0.5257311121191333 
endloop
endfacet
facet normal 0.27639320225002084 0.85065080835204 0.4472135954999579 
outer loop
vertex 0.4585980450729604 0.5396143352480898 -0.5257311121191334 
vertex 0.40449891565018165 0.7061143352480899 -0.808997831300363 
vertex 0.08779709572389527 0.8090169943749472 -0.8089978313003627 
endloop
endfacet
facet normal 0.27639320225002073 0.85065080835204 0.447213595499958 
outer loop
vertex 0.4585980450729604 0.5396143352480898 -0.5257311121191334 
vertex 0.08779709572389527 0.8090169943749472 -0.8089978313003627 
vertex -0.053836263866719414 0.7061143352480896 -0.5257311121191334 
endloop
endfacet
facet normal 0.2763932022500206 0.8506508083520397 0.4472135954999587 
outer loop
vertex 0.4585980450729604 0.5396143352480898 -0.5257311121191334 
vertex -0.053836263866719414 0.7061143352480896 -0.5257311121191334 
vertex 0.17533132589173095 0.5396143352480895 -0.35066265178346184 
endloop
endfacet
facet normal 0.7236067977499784 -0.5257311121191346 -0.4472135954999577 
outer loop
vertex 0.5465576006449719 -0.6029026591268583 -1.093115201289943 
vertex 0.3714891403093 -0.6029026591268583 -1.376381920471173 
vertex 0.4590233704771366 -0.33350000000000046 -1.5514503808068443 
endloop
endfacet
facet normal 0.7236067977499786 -0.5257311121191343 -0.4472135954999575 
outer loop
vertex 0.5465576006449719 -0.6029026591268583 -1.093115201289943 
vertex 0.4590233704771366 -0.33350000000000046 -1.5514503808068443 
vertex 0.6881909602355871 -0.1670000000000002 -1.3763819204711731 
endloop
endfacet
facet normal 0.7236067977499785 -0.5257311121191344 -0.44721359549995765 
outer loop
vertex 0.5465576006449719 -0.6029026591268583 -1.093115201289943 
vertex 0.6881909602355871 -0.1670000000000002 -1.3763819204711731 
vertex 0.742290089658366 -0.3335000000000003 -1.0931152012899434 
endloop
endfacet
facet normal -0.2763932022500211 -0.8506508083520397 -0.44721359549995826 
outer loop
vertex -0.08779709572389521 -0.8090169943749477 -1.093115201289944 
vertex -0.4044989156501815 -0.7061143352480902 -1.0931152012899439 
vertex -0.45859804507296087 -0.5396143352480897 -1.3763819204711736 
endloop
endfacet
facet normal -0.2763932022500212 -0.8506508083520397 -0.4472135954999581 
outer loop
vertex -0.08779709572389521 -0.8090169943749477 -1.093115201289944 
vertex -0.45859804507296087 -0.5396143352480897 -1.3763819204711736 
vertex -0.17533132589173084 -0.5396143352480901 -1.5514503808068447 
endloop
endfacet
facet normal -0.2763932022500215 -0.8506508083520397 -0.44721359549995804 
outer loop
vertex -0.08779709572389521 -0.8090169943749477 -1.093115201289944 
vertex -0.17533132589173084 -0.5396143352480901 -1.5514503808068447 
vertex 0.05383626386671975 -0.7061143352480903 -1.3763819204711734 
endloop
endfacet
facet normal -0.8944271909999156 -2.9820230069036307e-16 -0.4472135954999586 
outer loop
vertex -0.796551678929261 -0.16650000000000037 -1.0931152012899443 
vertex -0.7965516789292612 0.16649999999999962 -1.0931152012899443 
vertex -0.6549183193386463 0.2694026591268575 -1.3763819204711736 
endloop
endfacet
facet normal -0.8944271909999157 -8.132757259781946e-17 -0.44721359549995826 
outer loop
vertex -0.796551678929261 -0.16650000000000037 -1.0931152012899443 
vertex -0.6549183193386463 0.2694026591268575 -1.3763819204711736 
vertex -0.5673840891708105 -2.6065473294242065e-16 -1.551450380806845 
endloop
endfacet
facet normal -0.8944271909999157 1.3159077668579636e-16 -0.4472135954999583 
outer loop
vertex -0.796551678929261 -0.16650000000000037 -1.0931152012899443 
vertex -0.5673840891708105 -2.6065473294242065e-16 -1.551450380806845 
vertex -0.6549183193386463 -0.2694026591268582 -1.3763819204711736 
endloop
endfacet
facet normal -0.2763932022500214 0.8506508083520399 -0.44721359549995776 
outer loop
vertex -0.4044989156501816 0.7061143352480896 -1.0931152012899437 
vertex -0.08779709572389527 0.8090169943749472 -1.0931152012899439 
vertex 0.05383626386671975 0.7061143352480899 -1.3763819204711734 
endloop
endfacet
facet normal -0.27639320225002145 0.8506508083520399 -0.4472135954999578 
outer loop
vertex -0.4044989156501816 0.7061143352480896 -1.0931152012899437 
vertex 0.05383626386671975 0.7061143352480899 -1.3763819204711734 
vertex -0.1753313258917309 0.5396143352480898 -1.5514503808068447 
endloop
endfacet
facet normal -0.2763932022500215 0.8506508083520399 -0.44721359549995787 
outer loop
vertex -0.4044989156501816 0.7061143352480896 -1.0931152012899437 
vertex -0.1753313258917309 0.5396143352480898 -1.5514503808068447 
vertex -0.45859804507296076 0.5396143352480893 -1.3763819204711734 
endloop
endfacet
facet normal 0.7236067977499788 0.5257311121191334 -0.4472135954999586 
outer loop
vertex 0.6881909602355872 0.16699999999999984 -1.3763819204711734 
vertex 0.4590233704771365 0.3334999999999998 -1.5514503808068452 
vertex 0.37148914030930064 0.6029026591268578 -1.3763819204711736 
endloop
endfacet
facet normal 0.7236067977499788 0.5257311121191334 -0.4472135954999584 
outer loop
vertex 0.6881909602355872 0.16699999999999984 -1.3763819204711734 
vertex 0.37148914030930064 0.6029026591268578 -1.3763819204711736 
vertex 0.5465576006449725 0.6029026591268576 -1.0931152012899443 
endloop
endfacet
facet normal 0.7236067977499786 0.5257311121191336 -0.4472135954999587 
outer loop
vertex 0.6881909602355872 0.16699999999999984 -1.3763819204711734 
vertex 0.5465576006449725 0.6029026591268576 -1.0931152012899443 
vertex 0.7422900896583662 0.3335 -1.0931152012899443 
endloop
endfacet
facet normal 5.672144824915525e-16 4.121054440306654e-16 -1.0 
outer loop
vertex -0.08753423016783546 -0.26940265912685774 -1.7270445722546353 
vertex -0.28326671918122925 -1.4255197731798438e-16 -1.7270445722546353 
vertex -0.08753423016783556 0.2694026591268576 -1.727044572254635 
endloop
endfacet
facet normal 8.350168338722919e-16 4.1210544403066546e-16 -1.0 
outer loop
vertex -0.08753423016783546 -0.26940265912685774 -1.7270445722546353 
vertex -0.08753423016783556 0.2694026591268576 -1.727044572254635 
vertex 0.22916758975845156 0.16650000000000054 -1.7270445722546348 
endloop
endfacet
facet normal 4.844590047813336e-16 6.668006153904817e-16 -1.0 
outer loop
vertex -0.08753423016783546 -0.26940265912685774 -1.7270445722546353 
vertex 0.22916758975845156 0.16650000000000054 -1.7270445722546348 
vertex 0.2291675897584509 -0.16650000000000034 -1.727044572254635 
endloop
endfacet
facet normal 0.4911234731884228 -0.3568220897730897 0.7946544722917663 
outer loop
vertex 0.45859804507296065 -0.5396143352480899 -0.5257311121191334 
vertex 0.6549183193386464 -0.2694026591268578 -0.5257311121191334 
vertex 0.5673840891708107 -1.2280461041453808e-16 -0.35066265178346195 
endloop
endfacet
facet normal 0.49112347318842275 -0.3568220897730898 0.7946544722917663 
outer loop
vertex 0.45859804507296065 -0.5396143352480899 -0.5257311121191334 
vertex 0.5673840891708107 -1.2280461041453808e-16 -0.35066265178346195 
vertex 0.28326671918122936 -6.131024777817268e-17 -0.17506846033567142 
endloop
endfacet
facet normal 0.49112347318842287 -0.3568220897730899 0.7946544722917663 
outer loop
vertex 0.45859804507296065 -0.5396143352480899 -0.5257311121191334 
vertex 0.28326671918122936 -6.131024777817268e-17 -0.17506846033567142 
vertex 0.08753423016783579 -0.2694026591268575 -0.1750684603356714 
endloop
endfacet
facet normal 0.49112347318842275 -0.35682208977309 0.7946544722917663 
outer loop
vertex 0.45859804507296065 -0.5396143352480899 -0.5257311121191334 
vertex 0.08753423016783579 -0.2694026591268575 -0.1750684603356714 
vertex 0.17533132589173114 -0.53961433524809 -0.350662651783462 
endloop
endfacet
facet normal -0.18759247408507976 -0.5773502691896253 0.7946544722917664 
outer loop
vertex -0.37148914030930014 -0.6029026591268578 -0.5257311121191334 
vertex -0.053836263866719386 -0.7061143352480901 -0.5257311121191334 
vertex 0.17533132589173114 -0.53961433524809 -0.350662651783462 
endloop
endfacet
facet normal -0.18759247408507965 -0.5773502691896258 0.7946544722917663 
outer loop
vertex -0.37148914030930014 -0.6029026591268578 -0.5257311121191334 
vertex 0.17533132589173114 -0.53961433524809 -0.350662651783462 
vertex 0.08753423016783579 -0.2694026591268575 -0.1750684603356714 
endloop
endfacet
facet normal -0.18759247408507979 -0.5773502691896255 0.7946544722917663 
outer loop
vertex -0.37148914030930014 -0.6029026591268578 -0.5257311121191334 
vertex 0.08753423016783579 -0.2694026591268575 -0.1750684603356714 
vertex -0.22916758975845042 -0.16650000000000023 -0.17506846033567153 
endloop
endfacet
facet normal -0.18759247408508006 -0.5773502691896255 0.7946544722917663 
outer loop
vertex -0.37148914030930014 -0.6029026591268578 -0.5257311121191334 
vertex -0.22916758975845042 -0.16650000000000023 -0.17506846033567153 
vertex -0.45902337047713615 -0.33350000000000013 -0.35066265178346195 
endloop
endfacet
facet normal -0.6070619982066864 -4.659335028573925e-16 0.794654472291766 
outer loop
vertex -0.6881909602355866 0.16699999999999962 -0.5257311121191333 
vertex -0.6881909602355865 -0.16700000000000034 -0.5257311121191334 
vertex -0.45902337047713615 -0.33350000000000013 -0.35066265178346195 
endloop
endfacet
facet normal -0.607061998206686 -2.517592028215863e-16 0.7946544722917661 
outer loop
vertex -0.6881909602355866 0.16699999999999962 -0.5257311121191333 
vertex -0.45902337047713615 -0.33350000000000013 -0.35066265178346195 
vertex -0.22916758975845042 -0.16650000000000023 -0.17506846033567153 
endloop
endfacet
facet normal -0.6070619982066859 -3.865393991482131e-17 0.7946544722917662 
outer loop
vertex -0.6881909602355866 0.16699999999999962 -0.5257311121191333 
vertex -0.22916758975845042 -0.16650000000000023 -0.17506846033567153 
vertex -0.22916758975845058 0.1665000000000001 -0.17506846033567164 
endloop
endfacet
facet normal -0.607061998206686 -2.8815682244873135e-16 0.7946544722917663 
outer loop
vertex -0.6881909602355866 0.16699999999999962 -0.5257311121191333 
vertex -0.22916758975845058 0.1665000000000001 -0.17506846033567164 
vertex -0.45902337047713615 0.3334999999999997 -0.3506626517834618 
endloop
endfacet
facet normal -0.18759247408507967 0.5773502691896257 0.7946544722917663 
outer loop
vertex -0.053836263866719414 0.7061143352480896 -0.5257311121191334 
vertex -0.37148914030930036 0.6029026591268573 -0.5257311121191333 
vertex -0.45902337047713615 0.3334999999999997 -0.3506626517834618 
endloop
endfacet
facet normal -0.1875924740850798 0.5773502691896257 0.7946544722917662 
outer loop
vertex -0.053836263866719414 0.7061143352480896 -0.5257311121191334 
vertex -0.45902337047713615 0.3334999999999997 -0.3506626517834618 
vertex -0.22916758975845058 0.1665000000000001 -0.17506846033567164 
endloop
endfacet
facet normal -0.18759247408507992 0.5773502691896256 0.7946544722917662 
outer loop
vertex -0.053836263866719414 0.7061143352480896 -0.5257311121191334 
vertex -0.22916758975845058 0.1665000000000001 -0.17506846033567164 
vertex 0.08753423016783585 0.2694026591268577 -0.1750684603356716 
endloop
endfacet
facet normal -0.18759247408508004 0.5773502691896257 0.7946544722917662 
outer loop
vertex -0.053836263866719414 0.7061143352480896 -0.5257311121191334 
vertex 0.08753423016783585 0.2694026591268577 -0.1750684603356716 
vertex 0.17533132589173095 0.5396143352480895 -0.35066265178346184 
endloop
endfacet
facet normal 0.4911234731884227 0.35682208977308993 0.7946544722917663 
outer loop
vertex 0.6549183193386465 0.2694026591268574 -0.5257311121191334 
vertex 0.4585980450729604 0.5396143352480898 -0.5257311121191334 
vertex 0.17533132589173095 0.5396143352480895 -0.35066265178346184 
endloop
endfacet
facet normal 0.4911234731884227 0.35682208977309005 0.7946544722917662 
outer loop
vertex 0.6549183193386465 0.2694026591268574 -0.5257311121191334 
vertex 0.17533132589173095 0.5396143352480895 -0.35066265178346184 
vertex 0.08753423016783585 0.2694026591268577 -0.1750684603356716 
endloop
endfacet
facet normal 0.49112347318842287 0.35682208977309 0.7946544722917663 
outer loop
vertex 0.6549183193386465 0.2694026591268574 -0.5257311121191334 
vertex 0.08753423016783585 0.2694026591268577 -0.1750684603356716 
vertex 0.28326671918122936 -6.131024777817268e-17 -0.17506846033567142 
endloop
endfacet
facet normal 0.49112347318842287 0.35682208977308977 0.7946544722917663 
outer loop
vertex 0.6549183193386465 0.2694026591268574 -0.5257311121191334 
vertex 0.28326671918122936 -6.131024777817268e-17 -0.17506846033567142 
vertex 0.5673840891708107 -1.2280461041453808e-16 -0.35066265178346195 
endloop
endfacet
facet normal 0.7946544722917661 -0.5773502691896257 0.18759247408508026 
outer loop
vertex 0.6549183193386464 -0.2694026591268578 -0.5257311121191334 
vertex 0.45859804507296065 -0.5396143352480899 -0.5257311121191334 
vertex 0.40449891565018176 -0.7061143352480901 -0.8089978313003628 
endloop
endfacet
facet normal 0.794654472291766 -0.5773502691896258 0.18759247408508045 
outer loop
vertex 0.6549183193386464 -0.2694026591268578 -0.5257311121191334 
vertex 0.40449891565018176 -0.7061143352480901 -0.8089978313003628 
vertex 0.5465576006449719 -0.6029026591268583 -1.093115201289943 
endloop
endfacet
facet normal 0.794654472291766 -0.5773502691896257 0.18759247408508042 
outer loop
vertex 0.6549183193386464 -0.2694026591268578 -0.5257311121191334 
vertex 0.5465576006449719 -0.6029026591268583 -1.093115201289943 
vertex 0.742290089658366 -0.3335000000000003 -1.0931152012899434 
endloop
endfacet
facet normal 0.794654472291766 -0.5773502691896257 0.18759247408508042 
outer loop
vertex 0.6549183193386464 -0.2694026591268578 -0.5257311121191334 
vertex 0.742290089658366 -0.3335000000000003 -1.0931152012899434 
vertex 0.7965516789292612 -0.1665000000000005 -0.8089978313003628 
endloop
endfacet
facet normal 0.3035309991033426 -0.934172358962716 -0.18759247408507956 
outer loop
vertex 0.08779709572389544 -0.8090169943749477 -0.8089978313003627 
vertex -0.08779709572389521 -0.8090169943749477 -1.093115201289944 
vertex 0.05383626386671975 -0.7061143352480903 -1.3763819204711734 
endloop
endfacet
facet normal 0.30353099910334325 -0.9341723589627157 -0.18759247408507954 
outer loop
vertex 0.08779709572389544 -0.8090169943749477 -0.8089978313003627 
vertex 0.05383626386671975 -0.7061143352480903 -1.3763819204711734 
vertex 0.3714891403093 -0.6029026591268583 -1.376381920471173 
endloop
endfacet
facet normal 0.30353099910334286 -0.9341723589627159 -0.1875924740850798 
outer loop
vertex 0.08779709572389544 -0.8090169943749477 -0.8089978313003627 
vertex 0.3714891403093 -0.6029026591268583 -1.376381920471173 
vertex 0.5465576006449719 -0.6029026591268583 -1.093115201289943 
endloop
endfacet
facet normal 0.3035309991033432 -0.9341723589627158 -0.18759247408507917 
outer loop
vertex 0.08779709572389544 -0.8090169943749477 -0.8089978313003627 
vertex 0.5465576006449719 -0.6029026591268583 -1.093115201289943 
vertex 0.40449891565018176 -0.7061143352480901 -0.8089978313003628 
endloop
endfacet
facet normal -0.3035309991033431 -0.9341723589627157 0.1875924740850799 
outer loop
vertex -0.053836263866719386 -0.7061143352480901 -0.5257311121191334 
vertex -0.37148914030930014 -0.6029026591268578 -0.5257311121191334 
vertex -0.5465576006449718 -0.6029026591268578 -0.808997831300363 
endloop
endfacet
facet normal -0.30353099910334325 -0.9341723589627157 0.18759247408508023 
outer loop
vertex -0.053836263866719386 -0.7061143352480901 -0.5257311121191334 
vertex -0.5465576006449718 -0.6029026591268578 -0.808997831300363 
vertex -0.4044989156501815 -0.7061143352480902 -1.0931152012899439 
endloop
endfacet
facet normal -0.30353099910334286 -0.9341723589627159 0.18759247408507995 
outer loop
vertex -0.053836263866719386 -0.7061143352480901 -0.5257311121191334 
vertex -0.4044989156501815 -0.7061143352480902 -1.0931152012899439 
vertex -0.08779709572389521 -0.8090169943749477 -1.093115201289944 
endloop
endfacet
facet normal -0.30353099910334325 -0.9341723589627158 0.18759247408507998 
outer loop
vertex -0.053836263866719386 -0.7061143352480901 -0.5257311121191334 
vertex -0.08779709572389521 -0.8090169943749477 -1.093115201289944 
vertex 0.08779709572389544 -0.8090169943749477 -0.8089978313003627 
endloop
endfacet
facet normal -0.7946544722917661 -0.577350269189626 -0.18759247408507948 
outer loop
vertex -0.7422900896583655 -0.33350000000000035 -0.8089978313003628 
vertex -0.796551678929261 -0.16650000000000037 -1.0931152012899443 
vertex -0.6549183193386463 -0.2694026591268582 -1.3763819204711736 
endloop
endfacet
facet normal -0.7946544722917661 -0.577350269189626 -0.18759247408507945 
outer loop
vertex -0.7422900896583655 -0.33350000000000035 -0.8089978313003628 
vertex -0.6549183193386463 -0.2694026591268582 -1.3763819204711736 
vertex -0.45859804507296087 -0.5396143352480897 -1.3763819204711736 
endloop
endfacet
facet normal -0.7946544722917661 -0.577350269189626 -0.18759247408507948 
outer loop
vertex -0.7422900896583655 -0.33350000000000035 -0.8089978313003628 
vertex -0.45859804507296087 -0.5396143352480897 -1.3763819204711736 
vertex -0.4044989156501815 -0.7061143352480902 -1.0931152012899439 
endloop
endfacet
facet normal -0.794654472291766 -0.5773502691896261 -0.18759247408507917 
outer loop
vertex -0.7422900896583655 -0.33350000000000035 -0.8089978313003628 
vertex -0.4044989156501815 -0.7061143352480902 -1.0931152012899439 
vertex -0.5465576006449718 -0.6029026591268578 -0.808997831300363 
endloop
endfacet
facet normal -0.9822469463768461 -3.8885708374580243e-16 0.18759247408508012 
outer loop
vertex -0.6881909602355865 -0.16700000000000034 -0.5257311121191334 
vertex -0.6881909602355866 0.16699999999999962 -0.5257311121191333 
vertex -0.7422900896583656 0.3334999999999997 -0.8089978313003627 
endloop
endfacet
facet normal -0.9822469463768461 -1.9781080221696024e-16 0.18759247408508042 
outer loop
vertex -0.6881909602355865 -0.16700000000000034 -0.5257311121191334 
vertex -0.7422900896583656 0.3334999999999997 -0.8089978313003627 
vertex -0.7965516789292612 0.16649999999999962 -1.0931152012899443 
endloop
endfacet
facet normal -0.982246946376846 -3.2748143415475254e-16 0.18759247408508037 
outer loop
vertex -0.6881909602355865 -0.16700000000000034 -0.5257311121191334 
vertex -0.7965516789292612 0.16649999999999962 -1.0931152012899443 
vertex -0.796551678929261 -0.16650000000000037 -1.0931152012899443 
endloop
endfacet
facet normal -0.982246946376846 -7.203920561218264e-17 0.18759247408508034 
outer loop
vertex -0.6881909602355865 -0.16700000000000034 -0.5257311121191334 
vertex -0.796551678929261 -0.16650000000000037 -1.0931152012899443 
vertex -0.7422900896583655 -0.33350000000000035 -0.8089978313003628 
endloop
endfacet
facet normal -0.7946544722917662 0.5773502691896257 -0.18759247408507948 
outer loop
vertex -0.5465576006449719 0.6029026591268573 -0.8089978313003627 
vertex -0.4044989156501816 0.7061143352480896 -1.0931152012899437 
vertex -0.45859804507296076 0.5396143352480893 -1.3763819204711734 
endloop
endfacet
facet normal -0.7946544722917661 0.5773502691896258 -0.18759247408507948 
outer loop
vertex -0.5465576006449719 0.6029026591268573 -0.8089978313003627 
vertex -0.45859804507296076 0.5396143352480893 -1.3763819204711734 
vertex -0.6549183193386463 0.2694026591268575 -1.3763819204711736 
endloop
endfacet
facet normal -0.794654472291766 0.577350269189626 -0.18759247408507954 
outer loop
vertex -0.5465576006449719 0.6029026591268573 -0.8089978313003627 
vertex -0.6549183193386463 0.2694026591268575 -1.3763819204711736 
vertex -0.7965516789292612 0.16649999999999962 -1.0931152012899443 
endloop
endfacet
facet normal -0.7946544722917661 0.577350269189626 -0.1875924740850796 
outer loop
vertex -0.5465576006449719 0.6029026591268573 -0.8089978313003627 
vertex -0.7965516789292612 0.16649999999999962 -1.0931152012899443 
vertex -0.7422900896583656 0.3334999999999997 -0.8089978313003627 
endloop
endfacet
facet normal -0.30353099910334325 0.9341723589627157 0.18759247408508 
outer loop
vertex -0.37148914030930036 0.6029026591268573 -0.5257311121191333 
vertex -0.053836263866719414 0.7061143352480896 -0.5257311121191334 
vertex 0.08779709572389527 0.8090169943749472 -0.8089978313003627 
endloop
endfacet
facet normal -0.30353099910334325 0.9341723589627157 0.18759247408508 
outer loop
vertex -0.37148914030930036 0.6029026591268573 -0.5257311121191333 
vertex 0.08779709572389527 0.8090169943749472 -0.8089978313003627 
vertex -0.08779709572389527 0.8090169943749472 -1.0931152012899439 
endloop
endfacet
facet normal -0.3035309991033431 0.9341723589627157 0.18759247408508015 
outer loop
vertex -0.37148914030930036 0.6029026591268573 -0.5257311121191333 
vertex -0.08779709572389527 0.8090169943749472 -1.0931152012899439 
vertex -0.4044989156501816 0.7061143352480896 -1.0931152012899437 
endloop
endfacet
facet normal -0.30353099910334347 0.9341723589627154 0.18759247408508012 
outer loop
vertex -0.37148914030930036 0.6029026591268573 -0.5257311121191333 
vertex -0.4044989156501816 0.7061143352480896 -1.0931152012899437 
vertex -0.5465576006449719 0.6029026591268573 -0.8089978313003627 
endloop
endfacet
facet normal 0.30353099910334275 0.934172358962716 -0.18759247408507937 
outer loop
vertex 0.40449891565018165 0.7061143352480899 -0.808997831300363 
vertex 0.5465576006449725 0.6029026591268576 -1.0931152012899443 
vertex 0.37148914030930064 0.6029026591268578 -1.3763819204711736 
endloop
endfacet
facet normal 0.30353099910334236 0.9341723589627161 -0.1875924740850794 
outer loop
vertex 0.40449891565018165 0.7061143352480899 -0.808997831300363 
vertex 0.37148914030930064 0.6029026591268578 -1.3763819204711736 
vertex 0.05383626386671975 0.7061143352480899 -1.3763819204711734 
endloop
endfacet
facet normal 0.3035309991033424 0.934172358962716 -0.18759247408507942 
outer loop
vertex 0.40449891565018165 0.7061143352480899 -0.808997831300363 
vertex 0.05383626386671975 0.7061143352480899 -1.3763819204711734 
vertex -0.08779709572389527 0.8090169943749472 -1.0931152012899439 
endloop
endfacet
facet normal 0.3035309991033425 0.934172358962716 -0.18759247408507956 
outer loop
vertex 0.40449891565018165 0.7061143352480899 -0.808997831300363 
vertex -0.08779709572389527 0.8090169943749472 -1.0931152012899439 
vertex 0.08779709572389527 0.8090169943749472 -0.8089978313003627 
endloop
endfacet
facet normal 0.7946544722917659 0.577350269189626 0.18759247408508004 
outer loop
vertex 0.4585980450729604 0.5396143352480898 -0.5257311121191334 
vertex 0.6549183193386465 0.2694026591268574 -0.5257311121191334 
vertex 0.7965516789292613 0.16650000000000012 -0.8089978313003632 
endloop
endfacet
facet normal 0.7946544722917659 0.5773502691896256 0.18759247408508056 
outer loop
vertex 0.4585980450729604 0.5396143352480898 -0.5257311121191334 
vertex 0.7965516789292613 0.16650000000000012 -0.8089978313003632 
vertex 0.7422900896583662 0.3335 -1.0931152012899443 
endloop
endfacet
facet normal 0.7946544722917659 0.5773502691896258 0.18759247408508042 
outer loop
vertex 0.4585980450729604 0.5396143352480898 -0.5257311121191334 
vertex 0.7422900896583662 0.3335 -1.0931152012899443 
vertex 0.5465576006449725 0.6029026591268576 -1.0931152012899443 
endloop
endfacet
facet normal 0.7946544722917657 0.577350269189626 0.18759247408508045 
outer loop
vertex 0.4585980450729604 0.5396143352480898 -0.5257311121191334 
vertex 0.5465576006449725 0.6029026591268576 -1.0931152012899443 
vertex 0.40449891565018165 0.7061143352480899 -0.808997831300363 
endloop
endfacet
facet normal 0.9822469463768461 -3.7820582946395945e-16 -0.1875924740850796 
outer loop
vertex 0.7965516789292612 -0.1665000000000005 -0.8089978313003628 
vertex 0.742290089658366 -0.3335000000000003 -1.0931152012899434 
vertex 0.6881909602355871 -0.1670000000000002 -1.3763819204711731 
endloop
endfacet
facet normal 0.982246946376846 -4.512132166726445e-16 -0.18759247408507962 
outer loop
vertex 0.7965516789292612 -0.1665000000000005 -0.8089978313003628 
vertex 0.6881909602355871 -0.1670000000000002 -1.3763819204711731 
vertex 0.6881909602355872 0.16699999999999984 -1.3763819204711734 
endloop
endfacet
facet normal 0.982246946376846 -7.57545709391078e-16 -0.18759247408507976 
outer loop
vertex 0.7965516789292612 -0.1665000000000005 -0.8089978313003628 
vertex 0.6881909602355872 0.16699999999999984 -1.3763819204711734 
vertex 0.7422900896583662 0.3335 -1.0931152012899443 
endloop
endfacet
facet normal 0.9822469463768461 -5.042744392852784e-16 -0.1875924740850794 
outer loop
vertex 0.7965516789292612 -0.1665000000000005 -0.8089978313003628 
vertex 0.7422900896583662 0.3335 -1.0931152012899443 
vertex 0.7965516789292613 0.16650000000000012 -0.8089978313003632 
endloop
endfacet
facet normal 0.18759247408508048 -0.5773502691896244 -0.794654472291767 
outer loop
vertex 0.3714891403093 -0.6029026591268583 -1.376381920471173 
vertex 0.05383626386671975 -0.7061143352480903 -1.3763819204711734 
vertex -0.17533132589173084 -0.5396143352480901 -1.5514503808068447 
endloop
endfacet
facet normal 0.18759247408508004 -0.5773502691896257 -0.7946544722917661 
outer loop
vertex 0.3714891403093 -0.6029026591268583 -1.376381920471173 
vertex -0.17533132589173084 -0.5396143352480901 -1.5514503808068447 
vertex -0.08753423016783546 -0.26940265912685774 -1.7270445722546353 
endloop
endfacet
facet normal 0.18759247408508015 -0.5773502691896257 -0.7946544722917662 
outer loop
vertex 0.3714891403093 -0.6029026591268583 -1.376381920471173 
vertex -0.08753423016783546 -0.26940265912685774 -1.7270445722546353 
vertex 0.2291675897584509 -0.16650000000000034 -1.727044572254635 
endloop
endfacet
facet normal 0.18759247408508056 -0.5773502691896255 -0.7946544722917661 
outer loop
vertex 0.3714891403093 -0.6029026591268583 -1.376381920471173 
vertex 0.2291675897584509 -0.16650000000000034 -1.727044572254635 
vertex 0.4590233704771366 -0.33350000000000046 -1.5514503808068443 
endloop
endfacet
facet normal -0.4911234731884223 -0.35682208977308955 -0.7946544722917668 
outer loop
vertex -0.45859804507296087 -0.5396143352480897 -1.3763819204711736 
vertex -0.6549183193386463 -0.2694026591268582 -1.3763819204711736 
vertex -0.5673840891708105 -2.6065473294242065e-16 -1.551450380806845 
endloop
endfacet
facet normal -0.4911234731884225 -0.3568220897730896 -0.7946544722917667 
outer loop
vertex -0.45859804507296087 -0.5396143352480897 -1.3763819204711736 
vertex -0.5673840891708105 -2.6065473294242065e-16 -1.551450380806845 
vertex -0.28326671918122925 -1.4255197731798438e-16 -1.7270445722546353 
endloop
endfacet
facet normal -0.4911234731884222 -0.3568220897730897 -0.7946544722917668 
outer loop
vertex -0.45859804507296087 -0.5396143352480897 -1.3763819204711736 
vertex -0.28326671918122925 -1.4255197731798438e-16 -1.7270445722546353 
vertex -0.08753423016783546 -0.26940265912685774 -1.7270445722546353 
endloop
endfacet
facet normal -0.4911234731884216 -0.3568220897730905 -0.7946544722917668 
outer loop
vertex -0.45859804507296087 -0.5396143352480897 -1.3763819204711736 
vertex -0.08753423016783546 -0.26940265912685774 -1.7270445722546353 
vertex -0.17533132589173084 -0.5396143352480901 -1.5514503808068447 
endloop
endfacet
facet normal -0.49112347318842237 0.3568220897730901 -0.7946544722917666 
outer loop
vertex -0.6549183193386463 0.2694026591268575 -1.3763819204711736 
vertex -0.45859804507296076 0.5396143352480893 -1.3763819204711734 
vertex -0.1753313258917309 0.5396143352480898 -1.5514503808068447 
endloop
endfacet
facet normal -0.49112347318842237 0.3568220897730899 -0.7946544722917664 
outer loop
vertex -0.6549183193386463 0.2694026591268575 -1.3763819204711736 
vertex -0.1753313258917309 0.5396143352480898 -1.5514503808068447 
vertex -0.08753423016783556 0.2694026591268576 -1.727044572254635 
endloop
endfacet
facet normal -0.49112347318842237 0.35682208977308993 -0.7946544722917666 
outer loop
vertex -0.6549183193386463 0.2694026591268575 -1.3763819204711736 
vertex -0.08753423016783556 0.2694026591268576 -1.727044572254635 
vertex -0.28326671918122925 -1.4255197731798438e-16 -1.7270445722546353 
endloop
endfacet
facet normal -0.49112347318842275 0.3568220897730894 -0.7946544722917667 
outer loop
vertex -0.6549183193386463 0.2694026591268575 -1.3763819204711736 
vertex -0.28326671918122925 -1.4255197731798438e-16 -1.7270445722546353 
vertex -0.5673840891708105 -2.6065473294242065e-16 -1.551450380806845 
endloop
endfacet
facet normal 0.18759247408507868 0.5773502691896251 -0.7946544722917669 
outer loop
vertex 0.05383626386671975 0.7061143352480899 -1.3763819204711734 
vertex 0.37148914030930064 0.6029026591268578 -1.3763819204711736 
vertex 0.4590233704771365 0.3334999999999998 -1.5514503808068452 
endloop
endfacet
facet normal 0.18759247408507948 0.5773502691896257 -0.7946544722917663 
outer loop
vertex 0.05383626386671975 0.7061143352480899 -1.3763819204711734 
vertex 0.4590233704771365 0.3334999999999998 -1.5514503808068452 
vertex 0.22916758975845156 0.16650000000000054 -1.7270445722546348 
endloop
endfacet
facet normal 0.1875924740850791 0.5773502691896256 -0.7946544722917663 
outer loop
vertex 0.05383626386671975 0.7061143352480899 -1.3763819204711734 
vertex 0.22916758975845156 0.16650000000000054 -1.7270445722546348 
vertex -0.08753423016783556 0.2694026591268576 -1.727044572254635 
endloop
endfacet
facet normal 0.18759247408507937 0.5773502691896255 -0.7946544722917664 
outer loop
vertex 0.05383626386671975 0.7061143352480899 -1.3763819204711734 
vertex -0.08753423016783556 0.2694026591268576 -1.727044572254635 
vertex -0.1753313258917309 0.5396143352480898 -1.5514503808068447 
endloop
endfacet
facet normal 0.6070619982066856 -7.300783207495098e-16 -0.7946544722917667 
outer loop
vertex 0.6881909602355872 0.16699999999999984 -1.3763819204711734 
vertex 0.6881909602355871 -0.1670000000000002 -1.3763819204711731 
vertex 0.4590233704771366 -0.33350000000000046 -1.5514503808068443 
endloop
endfacet
facet normal 0.6070619982066864 -1.2947616145110136e-15 -0.794654472291766 
outer loop
vertex 0.6881909602355872 0.16699999999999984 -1.3763819204711734 
vertex 0.4590233704771366 -0.33350000000000046 -1.5514503808068443 
vertex 0.2291675897584509 -0.16650000000000034 -1.727044572254635 
endloop
endfacet
facet normal 0.6070619982066862 -6.844918508062342e-16 -0.7946544722917662 
outer loop
vertex 0.6881909602355872 0.16699999999999984 -1.3763819204711734 
vertex 0.2291675897584509 -0.16650000000000034 -1.727044572254635 
vertex 0.22916758975845156 0.16650000000000054 -1.7270445722546348 
endloop
endfacet
facet normal 0.6070619982066862 -4.3223523367309786e-16 -0.7946544722917662 
outer loop
vertex 0.6881909602355872 0.16699999999999984 -1.3763819204711734 
vertex 0.22916758975845156 0.16650000000000054 -1.7270445722546348 
vertex 0.4590233704771365 0.3334999999999998 -1.5514503808068452 
endloop
endfacet
endsolid temp
