solid temp
facet normal 0.6070619982066862 2.501735543251094e-16 -0.794654472291766 
outer loop
vertex 0.6549183193386463 -0.2694026591268575 0.0 
vertex 0.6549183193386461 0.26940265912685774 0.0 
vertex 1.0257192686877117 -8.536534358581467e-17 0.28326671918122964 
endloop
endfacet
facet normal 0.18759247408507976 -0.5773502691896256 -0.7946544722917662 
outer loop
vertex 0.4585980450729604 -0.5396143352480898 0.0 
vertex 0.3169646854823457 -0.9755169943749473 0.28326671918122925 
vertex -0.053836263866719525 -0.7061143352480898 0.0 
endloop
endfacet
facet normal -0.49112347318842303 -0.35682208977309 -0.7946544722917661 
outer loop
vertex -0.3714891403093005 -0.6029026591268576 0.0 
vertex -0.8298243198262012 -0.6029026591268576 0.28326671918122925 
vertex -0.6881909602355867 -0.16700000000000004 0.0 
endloop
endfacet
facet normal -0.49112347318842314 0.3568220897730899 -0.7946544722917662 
outer loop
vertex -0.6881909602355868 0.16699999999999976 0.0 
vertex -0.8298243198262014 0.6029026591268574 0.2832667191812293 
vertex -0.3714891403093006 0.6029026591268575 0.0 
endloop
endfacet
facet normal 0.1875924740850798 0.5773502691896258 -0.794654472291766 
outer loop
vertex 0.45859804507296026 0.5396143352480899 0.0 
vertex -0.05383626386671958 0.7061143352480899 0.0 
vertex 0.3169646854823455 0.9755169943749475 0.2832667191812295 
endloop
endfacet
facet normal 0.3035309991033422 -0.9341723589627158 -0.1875924740850805 
outer loop
vertex 0.6544929939344705 -1.1425169943749476 1.0257192686877112 
vertex 0.14205868499479013 -1.3090169943749475 1.0257192686877121 
vertex 0.3712262747532409 -1.142516994374947 0.5673840891708095 
endloop
endfacet
facet normal 0.982246946376846 -7.730787982964294e-17 -0.18759247408507998 
outer loop
vertex 1.2013134601355018 -1.7098703955476953e-16 0.5673840891708102 
vertex 1.2888476903033377 0.2694026591268573 1.0257192686877115 
vertex 1.2888476903033377 -0.2694026591268582 1.0257192686877117 
endloop
endfacet
facet normal 0.794654472291766 -0.577350269189626 0.1875924740850797 
outer loop
vertex 1.2010505945794425 -0.53961433524809 1.2013134601355018 
vertex 0.9718830048209922 -0.7061143352480899 1.6596486396524028 
vertex 0.8843487746531562 -0.9755169943749475 1.2013134601355018 
endloop
endfacet
facet normal -0.7946544722917659 -0.5773502691896257 -0.18759247408508045 
outer loop
vertex -0.8843487746531561 -0.9755169943749473 1.0257192686877117 
vertex -1.2010505945794423 -0.5396143352480899 1.0257192686877117 
vertex -0.9718830048209914 -0.7061143352480895 0.5673840891708095 
endloop
endfacet
facet normal -0.30353099910334264 -0.9341723589627156 0.1875924740850813 
outer loop
vertex -0.14205868499478963 -1.3090169943749475 1.201313460135502 
vertex -0.3712262747532403 -1.1425169943749462 1.6596486396524053 
vertex -0.65449299393447 -1.1425169943749474 1.2013134601355024 
endloop
endfacet
facet normal -0.7946544722917662 0.5773502691896256 -0.18759247408508004 
outer loop
vertex -0.9718830048209919 0.7061143352480896 0.5673840891708102 
vertex -1.2010505945794425 0.5396143352480895 1.0257192686877117 
vertex -0.8843487746531562 0.9755169943749474 1.0257192686877117 
endloop
endfacet
facet normal -0.9822469463768458 -1.600751293780316e-15 0.1875924740850803 
outer loop
vertex -1.288847690303337 -0.26940265912685935 1.201313460135501 
vertex -1.201313460135501 1.8041124150160628e-17 1.659648639652404 
vertex -1.2888476903033377 0.2694026591268572 1.2013134601355022 
endloop
endfacet
facet normal 0.30353099910334286 0.9341723589627158 -0.18759247408508 
outer loop
vertex 0.3712262747532407 1.1425169943749471 0.5673840891708102 
vertex 0.1420586849947903 1.3090169943749472 1.0257192686877115 
vertex 0.6544929939344701 1.1425169943749474 1.0257192686877117 
endloop
endfacet
facet normal -0.30353099910334413 0.9341723589627152 0.18759247408508 
outer loop
vertex -0.6544929939344717 1.1425169943749465 1.2013134601355013 
vertex -0.37122627475324105 1.142516994374947 1.6596486396524033 
vertex -0.14205868499479102 1.3090169943749472 1.2013134601355022 
endloop
endfacet
facet normal 0.7946544722917653 0.5773502691896265 0.18759247408508012 
outer loop
vertex 0.884348774653155 0.9755169943749481 1.2013134601355016 
vertex 0.9718830048209914 0.7061143352480893 1.6596486396524042 
vertex 1.2010505945794423 0.5396143352480898 1.2013134601355022 
endloop
endfacet
facet normal 0.4911234731884232 -0.3568220897730898 0.7946544722917661 
outer loop
vertex 0.6881909602355871 -0.16699999999999937 2.2270327288232137 
vertex 0.37148914030930075 -0.6029026591268575 2.2270327288232137 
vertex 0.8298243198262016 -0.6029026591268575 1.9437660096419842 
endloop
endfacet
facet normal -0.1875924740850803 -0.5773502691896261 0.7946544722917659 
outer loop
vertex 0.05383626386671958 -0.7061143352480899 2.2270327288232137 
vertex -0.4585980450729602 -0.5396143352480895 2.2270327288232137 
vertex -0.31696468548234563 -0.975516994374948 1.9437660096419835 
endloop
endfacet
facet normal -0.6070619982066863 2.781438080072925e-15 0.7946544722917662 
outer loop
vertex -1.0257192686877123 4.815592369311587e-16 1.9437660096419827 
vertex -0.6549183193386462 -0.26940265912685685 2.2270327288232137 
vertex -0.6549183193386443 0.26940265912686034 2.2270327288232132 
endloop
endfacet
facet normal -0.18759247408507843 0.577350269189626 0.7946544722917664 
outer loop
vertex -0.31696468548234547 0.9755169943749471 1.9437660096419838 
vertex -0.45859804507296 0.5396143352480898 2.2270327288232132 
vertex 0.05383626386672141 0.706114335248089 2.2270327288232132 
endloop
endfacet
facet normal 0.49112347318842337 0.3568220897730887 0.7946544722917663 
outer loop
vertex 0.8298243198262016 0.6029026591268574 1.9437660096419842 
vertex 0.371489140309301 0.602902659126857 2.2270327288232137 
vertex 0.6881909602355871 0.16699999999999782 2.2270327288232137 
endloop
endfacet
facet normal -0.0 0.0 -1.0 
outer loop
vertex 0.6549183193386463 -0.2694026591268575 0.0 
vertex 0.4585980450729604 -0.5396143352480898 0.0 
vertex -0.053836263866719525 -0.7061143352480898 0.0 
endloop
endfacet
facet normal 0.0 0.0 -1.0 
outer loop
vertex 0.6549183193386463 -0.2694026591268575 0.0 
vertex -0.053836263866719525 -0.7061143352480898 0.0 
vertex -0.3714891403093005 -0.6029026591268576 0.0 
endloop
endfacet
facet normal 0.0 0.0 -1.0 
outer loop
vertex 0.6549183193386463 -0.2694026591268575 0.0 
vertex -0.3714891403093005 -0.6029026591268576 0.0 
vertex -0.6881909602355867 -0.16700000000000004 0.0 
endloop
endfacet
facet normal 0.0 0.0 -1.0 
outer loop
vertex 0.6549183193386463 -0.2694026591268575 0.0 
vertex -0.6881909602355867 -0.16700000000000004 0.0 
vertex -0.6881909602355868 0.16699999999999976 0.0 
endloop
endfacet
facet normal 0.0 0.0 -1.0 
outer loop
vertex 0.6549183193386463 -0.2694026591268575 0.0 
vertex -0.6881909602355868 0.16699999999999976 0.0 
vertex -0.3714891403093006 0.6029026591268575 0.0 
endloop
endfacet
facet normal 0.0 0.0 -1.0 
outer loop
vertex 0.6549183193386463 -0.2694026591268575 0.0 
vertex -0.3714891403093006 0.6029026591268575 0.0 
vertex -0.05383626386671958 0.7061143352480899 0.0 
endloop
endfacet
facet normal 0.0 0.0 -1.0 
outer loop
vertex 0.6549183193386463 -0.2694026591268575 0.0 
vertex -0.05383626386671958 0.7061143352480899 0.0 
vertex 0.45859804507296026 0.5396143352480899 0.0 
endloop
endfacet
facet normal 0.0 0.0 -1.0 
outer loop
vertex 0.6549183193386463 -0.2694026591268575 0.0 
vertex 0.45859804507296026 0.5396143352480899 0.0 
vertex 0.6549183193386461 0.26940265912685774 0.0 
endloop
endfacet
facet normal 0.7236067977499785 -0.5257311121191338 -0.4472135954999585 
outer loop
vertex 0.3712262747532409 -1.142516994374947 0.5673840891708095 
vertex 0.3169646854823457 -0.9755169943749473 0.28326671918122925 
vertex 0.4585980450729604 -0.5396143352480898 0.0 
endloop
endfacet
facet normal 0.7236067977499789 -0.5257311121191335 -0.4472135954999581 
outer loop
vertex 0.3712262747532409 -1.142516994374947 0.5673840891708095 
vertex 0.4585980450729604 -0.5396143352480898 0.0 
vertex 0.6549183193386463 -0.2694026591268575 0.0 
endloop
endfacet
facet normal 0.7236067977499787 -0.5257311121191335 -0.4472135954999583 
outer loop
vertex 0.3712262747532409 -1.142516994374947 0.5673840891708095 
vertex 0.6549183193386463 -0.2694026591268575 0.0 
vertex 1.0257192686877117 -8.536534358581467e-17 0.28326671918122964 
endloop
endfacet
facet normal 0.723606797749979 -0.5257311121191335 -0.447213595499958 
outer loop
vertex 0.3712262747532409 -1.142516994374947 0.5673840891708095 
vertex 1.0257192686877117 -8.536534358581467e-17 0.28326671918122964 
vertex 1.2013134601355018 -1.7098703955476953e-16 0.5673840891708102 
endloop
endfacet
facet normal 0.7236067977499789 -0.5257311121191335 -0.447213595499958 
outer loop
vertex 0.3712262747532409 -1.142516994374947 0.5673840891708095 
vertex 1.2013134601355018 -1.7098703955476953e-16 0.5673840891708102 
vertex 1.2888476903033377 -0.2694026591268582 1.0257192686877117 
endloop
endfacet
facet normal 0.7236067977499789 -0.5257311121191335 -0.44721359549995804 
outer loop
vertex 0.3712262747532409 -1.142516994374947 0.5673840891708095 
vertex 1.2888476903033377 -0.2694026591268582 1.0257192686877117 
vertex 1.2010505945794425 -0.53961433524809 1.2013134601355018 
endloop
endfacet
facet normal 0.7236067977499788 -0.5257311121191337 -0.44721359549995787 
outer loop
vertex 0.3712262747532409 -1.142516994374947 0.5673840891708095 
vertex 1.2010505945794425 -0.53961433524809 1.2013134601355018 
vertex 0.8843487746531562 -0.9755169943749475 1.2013134601355018 
endloop
endfacet
facet normal 0.7236067977499794 -0.5257311121191326 -0.44721359549995854 
outer loop
vertex 0.3712262747532409 -1.142516994374947 0.5673840891708095 
vertex 0.8843487746531562 -0.9755169943749475 1.2013134601355018 
vertex 0.6544929939344705 -1.1425169943749476 1.0257192686877112 
endloop
endfacet
facet normal -0.27639320225002095 -0.85065080835204 -0.44721359549995776 
outer loop
vertex -0.9718830048209914 -0.7061143352480895 0.5673840891708095 
vertex -0.8298243198262012 -0.6029026591268576 0.28326671918122925 
vertex -0.3714891403093005 -0.6029026591268576 0.0 
endloop
endfacet
facet normal -0.2763932022500207 -0.8506508083520403 -0.44721359549995743 
outer loop
vertex -0.9718830048209914 -0.7061143352480895 0.5673840891708095 
vertex -0.3714891403093005 -0.6029026591268576 0.0 
vertex -0.053836263866719525 -0.7061143352480898 0.0 
endloop
endfacet
facet normal -0.276393202250021 -0.8506508083520399 -0.44721359549995804 
outer loop
vertex -0.9718830048209914 -0.7061143352480895 0.5673840891708095 
vertex -0.053836263866719525 -0.7061143352480898 0.0 
vertex 0.3169646854823457 -0.9755169943749473 0.28326671918122925 
endloop
endfacet
facet normal -0.276393202250021 -0.8506508083520397 -0.4472135954999584 
outer loop
vertex -0.9718830048209914 -0.7061143352480895 0.5673840891708095 
vertex 0.3169646854823457 -0.9755169943749473 0.28326671918122925 
vertex 0.3712262747532409 -1.142516994374947 0.5673840891708095 
endloop
endfacet
facet normal -0.2763932022500212 -0.8506508083520401 -0.4472135954999575 
outer loop
vertex -0.9718830048209914 -0.7061143352480895 0.5673840891708095 
vertex 0.3712262747532409 -1.142516994374947 0.5673840891708095 
vertex 0.14205868499479013 -1.3090169943749475 1.0257192686877121 
endloop
endfacet
facet normal -0.2763932022500212 -0.8506508083520401 -0.4472135954999576 
outer loop
vertex -0.9718830048209914 -0.7061143352480895 0.5673840891708095 
vertex 0.14205868499479013 -1.3090169943749475 1.0257192686877121 
vertex -0.14205868499478963 -1.3090169943749475 1.201313460135502 
endloop
endfacet
facet normal -0.2763932022500213 -0.8506508083520401 -0.4472135954999575 
outer loop
vertex -0.9718830048209914 -0.7061143352480895 0.5673840891708095 
vertex -0.14205868499478963 -1.3090169943749475 1.201313460135502 
vertex -0.65449299393447 -1.1425169943749474 1.2013134601355024 
endloop
endfacet
facet normal -0.27639320225002134 -0.8506508083520401 -0.4472135954999575 
outer loop
vertex -0.9718830048209914 -0.7061143352480895 0.5673840891708095 
vertex -0.65449299393447 -1.1425169943749474 1.2013134601355024 
vertex -0.8843487746531561 -0.9755169943749473 1.0257192686877117 
endloop
endfacet
facet normal -0.8944271909999157 1.31196792324462e-16 -0.4472135954999581 
outer loop
vertex -0.9718830048209919 0.7061143352480896 0.5673840891708102 
vertex -0.8298243198262014 0.6029026591268574 0.2832667191812293 
vertex -0.6881909602355868 0.16699999999999976 0.0 
endloop
endfacet
facet normal -0.894427190999916 -2.9730947943081136e-16 -0.4472135954999577 
outer loop
vertex -0.9718830048209919 0.7061143352480896 0.5673840891708102 
vertex -0.6881909602355868 0.16699999999999976 0.0 
vertex -0.6881909602355867 -0.16700000000000004 0.0 
endloop
endfacet
facet normal -0.894427190999916 -1.7565746436143114e-16 -0.44721359549995787 
outer loop
vertex -0.9718830048209919 0.7061143352480896 0.5673840891708102 
vertex -0.6881909602355867 -0.16700000000000004 0.0 
vertex -0.8298243198262012 -0.6029026591268576 0.28326671918122925 
endloop
endfacet
facet normal -0.8944271909999157 -7.733969143378212e-17 -0.44721359549995826 
outer loop
vertex -0.9718830048209919 0.7061143352480896 0.5673840891708102 
vertex -0.8298243198262012 -0.6029026591268576 0.28326671918122925 
vertex -0.9718830048209914 -0.7061143352480895 0.5673840891708095 
endloop
endfacet
facet normal -0.8944271909999161 -7.031535912311015e-17 -0.4472135954999576 
outer loop
vertex -0.9718830048209919 0.7061143352480896 0.5673840891708102 
vertex -0.9718830048209914 -0.7061143352480895 0.5673840891708095 
vertex -1.2010505945794423 -0.5396143352480899 1.0257192686877117 
endloop
endfacet
facet normal -0.894427190999916 -1.449273151567027e-16 -0.44721359549995776 
outer loop
vertex -0.9718830048209919 0.7061143352480896 0.5673840891708102 
vertex -1.2010505945794423 -0.5396143352480899 1.0257192686877117 
vertex -1.288847690303337 -0.26940265912685935 1.201313460135501 
endloop
endfacet
facet normal -0.894427190999916 -1.8429915735006053e-16 -0.44721359549995776 
outer loop
vertex -0.9718830048209919 0.7061143352480896 0.5673840891708102 
vertex -1.288847690303337 -0.26940265912685935 1.201313460135501 
vertex -1.2888476903033377 0.2694026591268572 1.2013134601355022 
endloop
endfacet
facet normal -0.894427190999916 -2.6239358464892323e-16 -0.4472135954999578 
outer loop
vertex -0.9718830048209919 0.7061143352480896 0.5673840891708102 
vertex -1.2888476903033377 0.2694026591268572 1.2013134601355022 
vertex -1.2010505945794425 0.5396143352480895 1.0257192686877117 
endloop
endfacet
facet normal -0.2763932022500213 0.8506508083520399 -0.44721359549995787 
outer loop
vertex 0.3712262747532407 1.1425169943749471 0.5673840891708102 
vertex 0.3169646854823455 0.9755169943749475 0.2832667191812295 
vertex -0.05383626386671958 0.7061143352480899 0.0 
endloop
endfacet
facet normal -0.2763932022500212 0.8506508083520399 -0.44721359549995787 
outer loop
vertex 0.3712262747532407 1.1425169943749471 0.5673840891708102 
vertex -0.05383626386671958 0.7061143352480899 0.0 
vertex -0.3714891403093006 0.6029026591268575 0.0 
endloop
endfacet
facet normal -0.2763932022500212 0.8506508083520399 -0.44721359549995787 
outer loop
vertex 0.3712262747532407 1.1425169943749471 0.5673840891708102 
vertex -0.3714891403093006 0.6029026591268575 0.0 
vertex -0.8298243198262014 0.6029026591268574 0.2832667191812293 
endloop
endfacet
facet normal -0.2763932022500211 0.8506508083520399 -0.447213595499958 
outer loop
vertex 0.3712262747532407 1.1425169943749471 0.5673840891708102 
vertex -0.8298243198262014 0.6029026591268574 0.2832667191812293 
vertex -0.9718830048209919 0.7061143352480896 0.5673840891708102 
endloop
endfacet
facet normal -0.2763932022500212 0.85065080835204 -0.4472135954999578 
outer loop
vertex 0.3712262747532407 1.1425169943749471 0.5673840891708102 
vertex -0.9718830048209919 0.7061143352480896 0.5673840891708102 
vertex -0.8843487746531562 0.9755169943749474 1.0257192686877117 
endloop
endfacet
facet normal -0.2763932022500212 0.8506508083520399 -0.44721359549995787 
outer loop
vertex 0.3712262747532407 1.1425169943749471 0.5673840891708102 
vertex -0.8843487746531562 0.9755169943749474 1.0257192686877117 
vertex -0.6544929939344717 1.1425169943749465 1.2013134601355013 
endloop
endfacet
facet normal -0.27639320225002106 0.85065080835204 -0.4472135954999577 
outer loop
vertex 0.3712262747532407 1.1425169943749471 0.5673840891708102 
vertex -0.6544929939344717 1.1425169943749465 1.2013134601355013 
vertex -0.14205868499479102 1.3090169943749472 1.2013134601355022 
endloop
endfacet
facet normal -0.2763932022500212 0.85065080835204 -0.44721359549995776 
outer loop
vertex 0.3712262747532407 1.1425169943749471 0.5673840891708102 
vertex -0.14205868499479102 1.3090169943749472 1.2013134601355022 
vertex 0.1420586849947903 1.3090169943749472 1.0257192686877115 
endloop
endfacet
facet normal 0.7236067977499788 0.525731112119134 -0.4472135954999576 
outer loop
vertex 1.2013134601355018 -1.7098703955476953e-16 0.5673840891708102 
vertex 1.0257192686877117 -8.536534358581467e-17 0.28326671918122964 
vertex 0.6549183193386461 0.26940265912685774 0.0 
endloop
endfacet
facet normal 0.7236067977499789 0.5257311121191336 -0.4472135954999579 
outer loop
vertex 1.2013134601355018 -1.7098703955476953e-16 0.5673840891708102 
vertex 0.6549183193386461 0.26940265912685774 0.0 
vertex 0.45859804507296026 0.5396143352480899 0.0 
endloop
endfacet
facet normal 0.723606797749979 0.5257311121191337 -0.44721359549995787 
outer loop
vertex 1.2013134601355018 -1.7098703955476953e-16 0.5673840891708102 
vertex 0.45859804507296026 0.5396143352480899 0.0 
vertex 0.3169646854823455 0.9755169943749475 0.2832667191812295 
endloop
endfacet
facet normal 0.723606797749979 0.5257311121191337 -0.44721359549995776 
outer loop
vertex 1.2013134601355018 -1.7098703955476953e-16 0.5673840891708102 
vertex 0.3169646854823455 0.9755169943749475 0.2832667191812295 
vertex 0.3712262747532407 1.1425169943749471 0.5673840891708102 
endloop
endfacet
facet normal 0.7236067977499789 0.5257311121191337 -0.4472135954999577 
outer loop
vertex 1.2013134601355018 -1.7098703955476953e-16 0.5673840891708102 
vertex 0.3712262747532407 1.1425169943749471 0.5673840891708102 
vertex 0.6544929939344701 1.1425169943749474 1.0257192686877117 
endloop
endfacet
facet normal 0.7236067977499792 0.5257311121191338 -0.44721359549995754 
outer loop
vertex 1.2013134601355018 -1.7098703955476953e-16 0.5673840891708102 
vertex 0.6544929939344701 1.1425169943749474 1.0257192686877117 
vertex 0.884348774653155 0.9755169943749481 1.2013134601355016 
endloop
endfacet
facet normal 0.7236067977499788 0.5257311121191338 -0.4472135954999577 
outer loop
vertex 1.2013134601355018 -1.7098703955476953e-16 0.5673840891708102 
vertex 0.884348774653155 0.9755169943749481 1.2013134601355016 
vertex 1.2010505945794423 0.5396143352480898 1.2013134601355022 
endloop
endfacet
facet normal 0.7236067977499788 0.5257311121191338 -0.44721359549995787 
outer loop
vertex 1.2013134601355018 -1.7098703955476953e-16 0.5673840891708102 
vertex 1.2010505945794423 0.5396143352480898 1.2013134601355022 
vertex 1.2888476903033377 0.2694026591268573 1.0257192686877115 
endloop
endfacet
facet normal 0.2763932022500218 -0.8506508083520398 0.44721359549995765 
outer loop
vertex 0.6544929939344705 -1.1425169943749476 1.0257192686877112 
vertex 0.8843487746531562 -0.9755169943749475 1.2013134601355018 
vertex 0.9718830048209922 -0.7061143352480899 1.6596486396524028 
endloop
endfacet
facet normal 0.27639320225002145 -0.8506508083520398 0.44721359549995776 
outer loop
vertex 0.6544929939344705 -1.1425169943749476 1.0257192686877112 
vertex 0.9718830048209922 -0.7061143352480899 1.6596486396524028 
vertex 0.8298243198262016 -0.6029026591268575 1.9437660096419842 
endloop
endfacet
facet normal 0.2763932022500211 -0.8506508083520399 0.4472135954999579 
outer loop
vertex 0.6544929939344705 -1.1425169943749476 1.0257192686877112 
vertex 0.8298243198262016 -0.6029026591268575 1.9437660096419842 
vertex 0.37148914030930075 -0.6029026591268575 2.2270327288232137 
endloop
endfacet
facet normal 0.276393202250021 -0.85065080835204 0.44721359549995787 
outer loop
vertex 0.6544929939344705 -1.1425169943749476 1.0257192686877112 
vertex 0.37148914030930075 -0.6029026591268575 2.2270327288232137 
vertex 0.05383626386671958 -0.7061143352480899 2.2270327288232137 
endloop
endfacet
facet normal 0.27639320225002123 -0.8506508083520399 0.44721359549995804 
outer loop
vertex 0.6544929939344705 -1.1425169943749476 1.0257192686877112 
vertex 0.05383626386671958 -0.7061143352480899 2.2270327288232137 
vertex -0.31696468548234563 -0.975516994374948 1.9437660096419835 
endloop
endfacet
facet normal 0.2763932022500213 -0.8506508083520399 0.44721359549995815 
outer loop
vertex 0.6544929939344705 -1.1425169943749476 1.0257192686877112 
vertex -0.31696468548234563 -0.975516994374948 1.9437660096419835 
vertex -0.3712262747532403 -1.1425169943749462 1.6596486396524053 
endloop
endfacet
facet normal 0.2763932022500213 -0.85065080835204 0.44721359549995804 
outer loop
vertex 0.6544929939344705 -1.1425169943749476 1.0257192686877112 
vertex -0.3712262747532403 -1.1425169943749462 1.6596486396524053 
vertex -0.14205868499478963 -1.3090169943749475 1.201313460135502 
endloop
endfacet
facet normal 0.27639320225002123 -0.85065080835204 0.4472135954999577 
outer loop
vertex 0.6544929939344705 -1.1425169943749476 1.0257192686877112 
vertex -0.14205868499478963 -1.3090169943749475 1.201313460135502 
vertex 0.14205868499479013 -1.3090169943749475 1.0257192686877121 
endloop
endfacet
facet normal -0.723606797749979 -0.5257311121191336 0.44721359549995787 
outer loop
vertex -0.8843487746531561 -0.9755169943749473 1.0257192686877117 
vertex -0.65449299393447 -1.1425169943749474 1.2013134601355024 
vertex -0.3712262747532403 -1.1425169943749462 1.6596486396524053 
endloop
endfacet
facet normal -0.723606797749979 -0.5257311121191336 0.44721359549995787 
outer loop
vertex -0.8843487746531561 -0.9755169943749473 1.0257192686877117 
vertex -0.3712262747532403 -1.1425169943749462 1.6596486396524053 
vertex -0.31696468548234563 -0.975516994374948 1.9437660096419835 
endloop
endfacet
facet normal -0.723606797749979 -0.5257311121191333 0.4472135954999579 
outer loop
vertex -0.8843487746531561 -0.9755169943749473 1.0257192686877117 
vertex -0.31696468548234563 -0.975516994374948 1.9437660096419835 
vertex -0.4585980450729602 -0.5396143352480895 2.2270327288232137 
endloop
endfacet
facet normal -0.7236067977499793 -0.5257311121191333 0.447213595499958 
outer loop
vertex -0.8843487746531561 -0.9755169943749473 1.0257192686877117 
vertex -0.4585980450729602 -0.5396143352480895 2.2270327288232137 
vertex -0.6549183193386462 -0.26940265912685685 2.2270327288232137 
endloop
endfacet
facet normal -0.7236067977499788 -0.5257311121191336 0.4472135954999581 
outer loop
vertex -0.8843487746531561 -0.9755169943749473 1.0257192686877117 
vertex -0.6549183193386462 -0.26940265912685685 2.2270327288232137 
vertex -1.0257192686877123 4.815592369311587e-16 1.9437660096419827 
endloop
endfacet
facet normal -0.7236067977499788 -0.5257311121191336 0.4472135954999581 
outer loop
vertex -0.8843487746531561 -0.9755169943749473 1.0257192686877117 
vertex -1.0257192686877123 4.815592369311587e-16 1.9437660096419827 
vertex -1.201313460135501 1.8041124150160628e-17 1.659648639652404 
endloop
endfacet
facet normal -0.7236067977499787 -0.5257311121191337 0.4472135954999584 
outer loop
vertex -0.8843487746531561 -0.9755169943749473 1.0257192686877117 
vertex -1.201313460135501 1.8041124150160628e-17 1.659648639652404 
vertex -1.288847690303337 -0.26940265912685935 1.201313460135501 
endloop
endfacet
facet normal -0.7236067977499789 -0.5257311121191337 0.447213595499958 
outer loop
vertex -0.8843487746531561 -0.9755169943749473 1.0257192686877117 
vertex -1.288847690303337 -0.26940265912685935 1.201313460135501 
vertex -1.2010505945794423 -0.5396143352480899 1.0257192686877117 
endloop
endfacet
facet normal -0.7236067977499793 0.5257311121191333 0.44721359549995787 
outer loop
vertex -1.2010505945794425 0.5396143352480895 1.0257192686877117 
vertex -1.2888476903033377 0.2694026591268572 1.2013134601355022 
vertex -1.201313460135501 1.8041124150160628e-17 1.659648639652404 
endloop
endfacet
facet normal -0.7236067977499802 0.5257311121191325 0.44721359549995715 
outer loop
vertex -1.2010505945794425 0.5396143352480895 1.0257192686877117 
vertex -1.201313460135501 1.8041124150160628e-17 1.659648639652404 
vertex -1.0257192686877123 4.815592369311587e-16 1.9437660096419827 
endloop
endfacet
facet normal -0.7236067977499785 0.5257311121191344 0.4472135954999579 
outer loop
vertex -1.2010505945794425 0.5396143352480895 1.0257192686877117 
vertex -1.0257192686877123 4.815592369311587e-16 1.9437660096419827 
vertex -0.6549183193386443 0.26940265912686034 2.2270327288232132 
endloop
endfacet
facet normal -0.7236067977499784 0.5257311121191345 0.4472135954999579 
outer loop
vertex -1.2010505945794425 0.5396143352480895 1.0257192686877117 
vertex -0.6549183193386443 0.26940265912686034 2.2270327288232132 
vertex -0.45859804507296 0.5396143352480898 2.2270327288232132 
endloop
endfacet
facet normal -0.7236067977499787 0.5257311121191338 0.44721359549995815 
outer loop
vertex -1.2010505945794425 0.5396143352480895 1.0257192686877117 
vertex -0.45859804507296 0.5396143352480898 2.2270327288232132 
vertex -0.31696468548234547 0.9755169943749471 1.9437660096419838 
endloop
endfacet
facet normal -0.7236067977499789 0.5257311121191326 0.4472135954999589 
outer loop
vertex -1.2010505945794425 0.5396143352480895 1.0257192686877117 
vertex -0.31696468548234547 0.9755169943749471 1.9437660096419838 
vertex -0.37122627475324105 1.142516994374947 1.6596486396524033 
endloop
endfacet
facet normal -0.723606797749979 0.5257311121191331 0.4472135954999584 
outer loop
vertex -1.2010505945794425 0.5396143352480895 1.0257192686877117 
vertex -0.37122627475324105 1.142516994374947 1.6596486396524033 
vertex -0.6544929939344717 1.1425169943749465 1.2013134601355013 
endloop
endfacet
facet normal -0.7236067977499792 0.5257311121191336 0.44721359549995743 
outer loop
vertex -1.2010505945794425 0.5396143352480895 1.0257192686877117 
vertex -0.6544929939344717 1.1425169943749465 1.2013134601355013 
vertex -0.8843487746531562 0.9755169943749474 1.0257192686877117 
endloop
endfacet
facet normal 0.27639320225002134 0.8506508083520397 0.4472135954999581 
outer loop
vertex 0.1420586849947903 1.3090169943749472 1.0257192686877115 
vertex -0.14205868499479102 1.3090169943749472 1.2013134601355022 
vertex -0.37122627475324105 1.142516994374947 1.6596486396524033 
endloop
endfacet
facet normal 0.2763932022500215 0.8506508083520397 0.4472135954999582 
outer loop
vertex 0.1420586849947903 1.3090169943749472 1.0257192686877115 
vertex -0.37122627475324105 1.142516994374947 1.6596486396524033 
vertex -0.31696468548234547 0.9755169943749471 1.9437660096419838 
endloop
endfacet
facet normal 0.27639320225002084 0.85065080835204 0.44721359549995804 
outer loop
vertex 0.1420586849947903 1.3090169943749472 1.0257192686877115 
vertex -0.31696468548234547 0.9755169943749471 1.9437660096419838 
vertex 0.05383626386672141 0.706114335248089 2.2270327288232132 
endloop
endfacet
facet normal 0.27639320225002056 0.8506508083520401 0.44721359549995804 
outer loop
vertex 0.1420586849947903 1.3090169943749472 1.0257192686877115 
vertex 0.05383626386672141 0.706114335248089 2.2270327288232132 
vertex 0.371489140309301 0.602902659126857 2.2270327288232137 
endloop
endfacet
facet normal 0.27639320225002073 0.85065080835204 0.447213595499958 
outer loop
vertex 0.1420586849947903 1.3090169943749472 1.0257192686877115 
vertex 0.371489140309301 0.602902659126857 2.2270327288232137 
vertex 0.8298243198262016 0.6029026591268574 1.9437660096419842 
endloop
endfacet
facet normal 0.2763932022500211 0.8506508083520401 0.44721359549995765 
outer loop
vertex 0.1420586849947903 1.3090169943749472 1.0257192686877115 
vertex 0.8298243198262016 0.6029026591268574 1.9437660096419842 
vertex 0.9718830048209914 0.7061143352480893 1.6596486396524042 
endloop
endfacet
facet normal 0.2763932022500206 0.85065080835204 0.4472135954999582 
outer loop
vertex 0.1420586849947903 1.3090169943749472 1.0257192686877115 
vertex 0.9718830048209914 0.7061143352480893 1.6596486396524042 
vertex 0.884348774653155 0.9755169943749481 1.2013134601355016 
endloop
endfacet
facet normal 0.27639320225002056 0.8506508083520399 0.4472135954999585 
outer loop
vertex 0.1420586849947903 1.3090169943749472 1.0257192686877115 
vertex 0.884348774653155 0.9755169943749481 1.2013134601355016 
vertex 0.6544929939344701 1.1425169943749474 1.0257192686877117 
endloop
endfacet
facet normal 0.894427190999916 1.9679518848669198e-16 0.4472135954999577 
outer loop
vertex 1.2888476903033377 0.2694026591268573 1.0257192686877115 
vertex 1.2010505945794423 0.5396143352480898 1.2013134601355022 
vertex 0.9718830048209914 0.7061143352480893 1.6596486396524042 
endloop
endfacet
facet normal 0.8944271909999161 5.240003819375833e-16 0.44721359549995754 
outer loop
vertex 1.2888476903033377 0.2694026591268573 1.0257192686877115 
vertex 0.9718830048209914 0.7061143352480893 1.6596486396524042 
vertex 0.8298243198262016 0.6029026591268574 1.9437660096419842 
endloop
endfacet
facet normal 0.8944271909999161 2.0075138784163468e-16 0.44721359549995765 
outer loop
vertex 1.2888476903033377 0.2694026591268573 1.0257192686877115 
vertex 0.8298243198262016 0.6029026591268574 1.9437660096419842 
vertex 0.6881909602355871 0.16699999999999782 2.2270327288232137 
endloop
endfacet
facet normal 0.894427190999916 0.0 0.4472135954999576 
outer loop
vertex 1.2888476903033377 0.2694026591268573 1.0257192686877115 
vertex 0.6881909602355871 0.16699999999999782 2.2270327288232137 
vertex 0.6881909602355871 -0.16699999999999937 2.2270327288232137 
endloop
endfacet
facet normal 0.8944271909999161 -1.1506103327682215e-16 0.4472135954999575 
outer loop
vertex 1.2888476903033377 0.2694026591268573 1.0257192686877115 
vertex 0.6881909602355871 -0.16699999999999937 2.2270327288232137 
vertex 0.8298243198262016 -0.6029026591268575 1.9437660096419842 
endloop
endfacet
facet normal 0.8944271909999161 0.0 0.44721359549995765 
outer loop
vertex 1.2888476903033377 0.2694026591268573 1.0257192686877115 
vertex 0.8298243198262016 -0.6029026591268575 1.9437660096419842 
vertex 0.9718830048209922 -0.7061143352480899 1.6596486396524028 
endloop
endfacet
facet normal 0.8944271909999162 -7.26812661596672e-17 0.4472135954999576 
outer loop
vertex 1.2888476903033377 0.2694026591268573 1.0257192686877115 
vertex 0.9718830048209922 -0.7061143352480899 1.6596486396524028 
vertex 1.2010505945794425 -0.53961433524809 1.2013134601355018 
endloop
endfacet
facet normal 0.8944271909999156 1.8039558944613547e-16 0.4472135954999586 
outer loop
vertex 1.2888476903033377 0.2694026591268573 1.0257192686877115 
vertex 1.2010505945794425 -0.53961433524809 1.2013134601355018 
vertex 1.2888476903033377 -0.2694026591268582 1.0257192686877117 
endloop
endfacet
facet normal -0.0 -0.0 1.0 
outer loop
vertex -0.6549183193386462 -0.26940265912685685 2.2270327288232137 
vertex -0.4585980450729602 -0.5396143352480895 2.2270327288232137 
vertex 0.05383626386671958 -0.7061143352480899 2.2270327288232137 
endloop
endfacet
facet normal 0.0 -0.0 1.0 
outer loop
vertex -0.6549183193386462 -0.26940265912685685 2.2270327288232137 
vertex 0.05383626386671958 -0.7061143352480899 2.2270327288232137 
vertex 0.37148914030930075 -0.6029026591268575 2.2270327288232137 
endloop
endfacet
facet normal 0.0 -0.0 1.0 
outer loop
vertex -0.6549183193386462 -0.26940265912685685 2.2270327288232137 
vertex 0.37148914030930075 -0.6029026591268575 2.2270327288232137 
vertex 0.6881909602355871 -0.16699999999999937 2.2270327288232137 
endloop
endfacet
facet normal 0.0 -0.0 1.0 
outer loop
vertex -0.6549183193386462 -0.26940265912685685 2.2270327288232137 
vertex 0.6881909602355871 -0.16699999999999937 2.2270327288232137 
vertex 0.6881909602355871 0.16699999999999782 2.2270327288232137 
endloop
endfacet
facet normal 0.0 0.0 1.0 
outer loop
vertex -0.6549183193386462 -0.26940265912685685 2.2270327288232137 
vertex 0.6881909602355871 0.16699999999999782 2.2270327288232137 
vertex 0.371489140309301 0.602902659126857 2.2270327288232137 
endloop
endfacet
facet normal -1.01136694217139e-15 1.1900358190687084e-15 1.0 
outer loop
vertex -0.6549183193386462 -0.26940265912685685 2.2270327288232137 
vertex 0.371489140309301 0.602902659126857 2.2270327288232137 
vertex 0.05383626386672141 0.706114335248089 2.2270327288232132 
endloop
endfacet
facet normal -1.93622893049352e-16 5.959099903582404e-16 1.0 
outer loop
vertex -0.6549183193386462 -0.26940265912685685 2.2270327288232137 
vertex 0.05383626386672141 0.706114335248089 2.2270327288232132 
vertex -0.45859804507296 0.5396143352480898 2.2270327288232132 
endloop
endfacet
facet normal -1.1344289649831045e-15 8.242108880613318e-16 1.0 
outer loop
vertex -0.6549183193386462 -0.26940265912685685 2.2270327288232137 
vertex -0.45859804507296 0.5396143352480898 2.2270327288232132 
vertex -0.6549183193386443 0.26940265912686034 2.2270327288232132 
endloop
endfacet
endsolid temp
