solid test
facet normal 0.4931969619160736 -0.8542421961772481 -0.16439898730535724 
outer loop
vertex 0.07938566201357376 -0.13749999999999993 -0.779422863405995 
vertex 0.006154653046687823 -0.029779942740059396 -1.5588457268119902 
vertex 0.022712860412794172 -0.02022005725994025 -1.55884572681199 
endloop
endfacet
facet normal 0.493196961916072 -0.8542421961772491 -0.16439898730535726 
outer loop
vertex 0.07938566201357376 -0.13749999999999993 -0.779422863405995 
vertex 0.022712860412794172 -0.02022005725994025 -1.55884572681199 
vertex 0.573848052539009 -0.002022005725994043 0.0 
endloop
endfacet
facet normal 0.4931969619160721 -0.8542421961772491 -0.16439898730535735 
outer loop
vertex 0.07938566201357376 -0.13749999999999993 -0.779422863405995 
vertex 0.573848052539009 -0.002022005725994043 0.0 
vertex -0.2851729179441959 -0.4979779942740061 0.0 
endloop
endfacet
facet normal 0.4931969619160722 -0.854242196177249 -0.1643989873053572 
outer loop
vertex 0.07938566201357376 -0.13749999999999993 -0.779422863405995 
vertex -0.2851729179441959 -0.4979779942740061 0.0 
vertex 0.006154653046687823 -0.029779942740059396 -1.5588457268119902 
endloop
endfacet
facet normal -0.9863939238321436 -4.863968212288654e-16 -0.16439898730535726 
outer loop
vertex -0.15877132402714716 2.7755575615628914e-17 -0.779422863405995 
vertex -0.2886751345948132 0.4959559885480118 0.0 
vertex -0.02886751345948134 0.009559885480119112 -1.55884572681199 
endloop
endfacet
facet normal -0.9863939238321437 -3.579793293112148e-16 -0.16439898730535726 
outer loop
vertex -0.15877132402714716 2.7755575615628914e-17 -0.779422863405995 
vertex -0.02886751345948134 0.009559885480119112 -1.55884572681199 
vertex -0.028867513459481332 -0.009559885480118754 -1.55884572681199 
endloop
endfacet
facet normal -0.9863939238321436 -4.1691156105331333e-16 -0.16439898730535726 
outer loop
vertex -0.15877132402714716 2.7755575615628914e-17 -0.779422863405995 
vertex -0.028867513459481332 -0.009559885480118754 -1.55884572681199 
vertex -0.2886751345948128 -0.49595598854801204 0.0 
endloop
endfacet
facet normal -0.9863939238321437 -3.8641638049197023e-16 -0.16439898730535732 
outer loop
vertex -0.15877132402714716 2.7755575615628914e-17 -0.779422863405995 
vertex -0.2886751345948128 -0.49595598854801204 0.0 
vertex -0.2886751345948132 0.4959559885480118 0.0 
endloop
endfacet
facet normal 0.4931969619160717 0.8542421961772493 -0.16439898730535726 
outer loop
vertex 0.0793856620135735 0.1374999999999999 -0.779422863405995 
vertex 0.022712860412794154 0.020220057259940114 -1.55884572681199 
vertex 0.006154653046687298 0.02977994274005955 -1.55884572681199 
endloop
endfacet
facet normal 0.49319696191607143 0.8542421961772493 -0.16439898730535726 
outer loop
vertex 0.0793856620135735 0.1374999999999999 -0.779422863405995 
vertex 0.006154653046687298 0.02977994274005955 -1.55884572681199 
vertex -0.2851729179441964 0.4979779942740058 0.0 
endloop
endfacet
facet normal 0.4931969619160716 0.8542421961772493 -0.1643989873053572 
outer loop
vertex 0.0793856620135735 0.1374999999999999 -0.779422863405995 
vertex -0.2851729179441964 0.4979779942740058 0.0 
vertex 0.573848052539009 0.002022005725994041 0.0 
endloop
endfacet
facet normal 0.49319696191607165 0.8542421961772493 -0.16439898730535724 
outer loop
vertex 0.0793856620135735 0.1374999999999999 -0.779422863405995 
vertex 0.573848052539009 0.002022005725994041 0.0 
vertex 0.022712860412794154 0.020220057259940114 -1.55884572681199 
endloop
endfacet
facet normal 0.2418974131345703 -0.4189786097685547 -0.8751814475154349 
outer loop
vertex 0.49011039362027214 -0.8488961030678928 0.3822821082744907 
vertex -0.2851729179441959 -0.4979779942740061 0.0 
vertex 0.573848052539009 -0.002022005725994043 0.0 
endloop
endfacet
facet normal 0.24189741313457014 -0.41897860976855483 -0.8751814475154349 
outer loop
vertex 0.49011039362027214 -0.8488961030678928 0.3822821082744907 
vertex 0.573848052539009 -0.002022005725994043 0.0 
vertex 0.8441623236261908 -1.443012263395726 0.7645642165489814 
endloop
endfacet
facet normal 0.24189741313457175 -0.4189786097685539 -0.875181447515435 
outer loop
vertex 0.49011039362027214 -0.8488961030678928 0.3822821082744907 
vertex 0.8441623236261908 -1.443012263395726 0.7645642165489814 
vertex 0.8276041162600847 -1.4525721488758452 0.7645642165489814 
endloop
endfacet
facet normal 0.2418974131345704 -0.41897860976855456 -0.875181447515435 
outer loop
vertex 0.49011039362027214 -0.8488961030678928 0.3822821082744907 
vertex 0.8276041162600847 -1.4525721488758452 0.7645642165489814 
vertex -0.2851729179441959 -0.4979779942740061 0.0 
endloop
endfacet
facet normal 0.7350943750506403 0.4352635864086947 0.5197902174103984 
outer loop
vertex 0.5694960556338458 -0.7113961030678928 0.6068186680296151 
vertex 0.8447975742175102 -1.4227922061357856 0.8131946594039449 
vertex 0.8558363791282471 -1.4227922061357854 0.79758343178679 
endloop
endfacet
facet normal 0.7350943750506417 0.43526358640869467 0.5197902174103965 
outer loop
vertex 0.5694960556338458 -0.7113961030678928 0.6068186680296151 
vertex 0.8558363791282471 -1.4227922061357854 0.79758343178679 
vertex 0.5750154580892146 0.0 0.0033019215237808405 
endloop
endfacet
facet normal 0.7350943750506419 0.4352635864086945 0.5197902174103963 
outer loop
vertex 0.5694960556338458 -0.7113961030678928 0.6068186680296151 
vertex 0.5750154580892146 0.0 0.0033019215237808405 
vertex 0.002334811100411231 0.0 0.8131946594039451 
endloop
endfacet
facet normal 0.735094375050642 0.4352635864086947 0.5197902174103962 
outer loop
vertex 0.5694960556338458 -0.7113961030678928 0.6068186680296151 
vertex 0.002334811100411231 0.0 0.8131946594039451 
vertex 0.8447975742175102 -1.4227922061357856 0.8131946594039449 
endloop
endfacet
facet normal -0.7444965106975735 -0.41897860976855467 0.5197902174103962 
outer loop
vertex 0.3313390695931252 -0.8488961030678926 0.6068186680296153 
vertex -0.0011674055502056424 -0.0020220057259940413 0.8131946594039451 
vertex -0.2875077290446072 -0.4979779942740061 0.0033019215237808292 
endloop
endfacet
facet normal -0.7444965106975734 -0.4189786097685547 0.5197902174103963 
outer loop
vertex 0.3313390695931252 -0.8488961030678926 0.6068186680296153 
vertex -0.2875077290446072 -0.4979779942740061 0.0033019215237808292 
vertex 0.8042560052559725 -1.4525721488758445 0.7975834317867899 
endloop
endfacet
facet normal -0.7444965106975752 -0.4189786097685574 0.5197902174103917 
outer loop
vertex 0.3313390695931252 -0.8488961030678926 0.6068186680296153 
vertex 0.8042560052559725 -1.4525721488758445 0.7975834317867899 
vertex 0.809775407711341 -1.443012263395726 0.813194659403945 
endloop
endfacet
facet normal -0.7444965106975737 -0.41897860976855467 0.5197902174103961 
outer loop
vertex 0.3313390695931252 -0.8488961030678926 0.6068186680296153 
vertex 0.809775407711341 -1.443012263395726 0.813194659403945 
vertex -0.0011674055502056424 -0.0020220057259940413 0.8131946594039451 
endloop
endfacet
facet normal -0.4837948262691405 -1.8952493638786419e-16 -0.8751814475154349 
outer loop
vertex -0.9802207872405444 -4.675079767757495e-16 0.38228210827449066 
vertex -0.2886751345948132 0.4959559885480118 0.0 
vertex -0.2886751345948128 -0.49595598854801204 0.0 
endloop
endfacet
facet normal -0.48379482626914044 0.0 -0.8751814475154351 
outer loop
vertex -0.9802207872405444 -4.675079767757495e-16 0.38228210827449066 
vertex -0.2886751345948128 -0.49595598854801204 0.0 
vertex -1.671766439886276 -0.009559885480119669 0.7645642165489813 
endloop
endfacet
facet normal -0.48379482626914044 0.0 -0.8751814475154351 
outer loop
vertex -0.9802207872405444 -4.675079767757495e-16 0.38228210827449066 
vertex -1.671766439886276 -0.009559885480119669 0.7645642165489813 
vertex -1.671766439886276 0.00955988548011802 0.7645642165489813 
endloop
endfacet
facet normal -0.48379482626914033 -2.7794104070220897e-16 -0.8751814475154349 
outer loop
vertex -0.9802207872405444 -4.675079767757495e-16 0.38228210827449066 
vertex -1.671766439886276 0.00955988548011802 0.7645642165489813 
vertex -0.2886751345948132 0.4959559885480118 0.0 
endloop
endfacet
facet normal 0.00940213564693208 -0.8542421961772491 0.5197902174103963 
outer loop
vertex -0.9008351252269708 -0.13750000000000032 0.6068186680296153 
vertex -1.6600923843842197 -0.029779942740060114 0.7975834317867898 
vertex -0.2875077290446072 -0.4979779942740061 0.0033019215237808292 
endloop
endfacet
facet normal 0.009402135646932028 -0.8542421961772491 0.5197902174103962 
outer loop
vertex -0.9008351252269708 -0.13750000000000032 0.6068186680296153 
vertex -0.2875077290446072 -0.4979779942740061 0.0033019215237808292 
vertex -0.0011674055502056424 -0.0020220057259940413 0.8131946594039451 
endloop
endfacet
facet normal 0.009402135646932052 -0.8542421961772492 0.5197902174103961 
outer loop
vertex -0.9008351252269708 -0.13750000000000032 0.6068186680296153 
vertex -0.0011674055502056424 -0.0020220057259940413 0.8131946594039451 
vertex -1.6545729819288508 -0.02022005725994107 0.8131946594039455 
endloop
endfacet
facet normal 0.00940213564693127 -0.8542421961772505 0.519790217410394 
outer loop
vertex -0.9008351252269708 -0.13750000000000032 0.6068186680296153 
vertex -1.6545729819288508 -0.02022005725994107 0.8131946594039455 
vertex -1.6600923843842197 -0.029779942740060114 0.7975834317867898 
endloop
endfacet
facet normal 0.009402135646930324 0.8542421961772506 0.5197902174103938 
outer loop
vertex -0.9008351252269708 0.1374999999999994 0.6068186680296153 
vertex -1.6600923843842197 0.02977994274005839 0.7975834317867898 
vertex -1.6545729819288508 0.020220057259939354 0.8131946594039455 
endloop
endfacet
facet normal 0.009402135646931169 0.8542421961772493 0.5197902174103961 
outer loop
vertex -0.9008351252269708 0.1374999999999994 0.6068186680296153 
vertex -1.6545729819288508 0.020220057259939354 0.8131946594039455 
vertex -0.001167405550205644 0.00202200572599404 0.8131946594039451 
endloop
endfacet
facet normal 0.00940213564693111 0.8542421961772492 0.5197902174103963 
outer loop
vertex -0.9008351252269708 0.1374999999999994 0.6068186680296153 
vertex -0.001167405550205644 0.00202200572599404 0.8131946594039451 
vertex -0.2875077290446076 0.4979779942740058 0.0033019215237807824 
endloop
endfacet
facet normal 0.00940213564693107 0.8542421961772492 0.5197902174103963 
outer loop
vertex -0.9008351252269708 0.1374999999999994 0.6068186680296153 
vertex -0.2875077290446076 0.4979779942740058 0.0033019215237807824 
vertex -1.6600923843842197 0.02977994274005839 0.7975834317867898 
endloop
endfacet
facet normal 0.2418974131345696 0.4189786097685546 -0.8751814475154354 
outer loop
vertex 0.49011039362027187 0.848896103067893 0.38228210827449044 
vertex 0.8441623236261914 1.4430122633957263 0.7645642165489809 
vertex 0.573848052539009 0.002022005725994041 0.0 
endloop
endfacet
facet normal 0.24189741313456992 0.41897860976855456 -0.8751814475154353 
outer loop
vertex 0.49011039362027187 0.848896103067893 0.38228210827449044 
vertex 0.573848052539009 0.002022005725994041 0.0 
vertex -0.2851729179441964 0.4979779942740058 0.0 
endloop
endfacet
facet normal 0.24189741313456983 0.4189786097685546 -0.8751814475154353 
outer loop
vertex 0.49011039362027187 0.848896103067893 0.38228210827449044 
vertex -0.2851729179441964 0.4979779942740058 0.0 
vertex 0.8276041162600837 1.4525721488758458 0.7645642165489809 
endloop
endfacet
facet normal 0.24189741313456295 0.4189786097685585 -0.8751814475154353 
outer loop
vertex 0.49011039362027187 0.848896103067893 0.38228210827449044 
vertex 0.8276041162600837 1.4525721488758458 0.7645642165489809 
vertex 0.8441623236261914 1.4430122633957263 0.7645642165489809 
endloop
endfacet
facet normal -0.7444965106975736 0.41897860976855433 0.5197902174103963 
outer loop
vertex 0.33133906959312465 0.8488961030678932 0.6068186680296148 
vertex 0.8042560052559715 1.452572148875846 0.7975834317867887 
vertex -0.2875077290446076 0.4979779942740058 0.0033019215237807824 
endloop
endfacet
facet normal -0.7444965106975737 0.4189786097685541 0.5197902174103963 
outer loop
vertex 0.33133906959312465 0.8488961030678932 0.6068186680296148 
vertex -0.2875077290446076 0.4979779942740058 0.0033019215237807824 
vertex -0.001167405550205644 0.00202200572599404 0.8131946594039451 
endloop
endfacet
facet normal -0.7444965106975737 0.4189786097685543 0.5197902174103962 
outer loop
vertex 0.33133906959312465 0.8488961030678932 0.6068186680296148 
vertex -0.001167405550205644 0.00202200572599404 0.8131946594039451 
vertex 0.8097754077113404 1.4430122633957267 0.8131946594039448 
endloop
endfacet
facet normal -0.7444965106975739 0.4189786097685545 0.5197902174103959 
outer loop
vertex 0.33133906959312465 0.8488961030678932 0.6068186680296148 
vertex 0.8097754077113404 1.4430122633957267 0.8131946594039448 
vertex 0.8042560052559715 1.452572148875846 0.7975834317867887 
endloop
endfacet
facet normal 0.735094375050642 -0.4352635864086941 0.5197902174103967 
outer loop
vertex 0.5694960556338455 0.7113961030678931 0.6068186680296148 
vertex 0.5750154580892146 0.0 0.0033019215237808405 
vertex 0.8558363791282472 1.4227922061357863 0.7975834317867886 
endloop
endfacet
facet normal 0.7350943750506422 -0.43526358640869406 0.5197902174103963 
outer loop
vertex 0.5694960556338455 0.7113961030678931 0.6068186680296148 
vertex 0.8558363791282472 1.4227922061357863 0.7975834317867886 
vertex 0.8447975742175093 1.4227922061357863 0.8131946594039448 
endloop
endfacet
facet normal 0.7350943750506421 -0.43526358640869406 0.5197902174103964 
outer loop
vertex 0.5694960556338455 0.7113961030678931 0.6068186680296148 
vertex 0.8447975742175093 1.4227922061357863 0.8131946594039448 
vertex 0.002334811100411231 0.0 0.8131946594039451 
endloop
endfacet
facet normal 0.7350943750506422 -0.435263586408694 0.5197902174103965 
outer loop
vertex 0.5694960556338455 0.7113961030678931 0.6068186680296148 
vertex 0.002334811100411231 0.0 0.8131946594039451 
vertex 0.5750154580892146 0.0 0.0033019215237808405 
endloop
endfacet
facet normal 8.134494018419914e-15 9.137344409756879e-15 -1.0 
outer loop
vertex 1.295260195396016e-16 6.360652745248292e-17 -1.55884572681199 
vertex 0.022712860412794172 -0.02022005725994025 -1.55884572681199 
vertex 0.006154653046687823 -0.029779942740059396 -1.5588457268119902 
endloop
endfacet
facet normal -2.3110466210569507e-15 6.978553203131206e-15 -1.0 
outer loop
vertex 1.295260195396016e-16 6.360652745248292e-17 -1.55884572681199 
vertex 0.006154653046687823 -0.029779942740059396 -1.5588457268119902 
vertex -0.028867513459481332 -0.009559885480118754 -1.55884572681199 
endloop
endfacet
facet normal 0.0 0.0 -1.0 
outer loop
vertex 1.295260195396016e-16 6.360652745248292e-17 -1.55884572681199 
vertex -0.028867513459481332 -0.009559885480118754 -1.55884572681199 
vertex -0.02886751345948134 0.009559885480119112 -1.55884572681199 
endloop
endfacet
facet normal 0.0 0.0 -1.0 
outer loop
vertex 1.295260195396016e-16 6.360652745248292e-17 -1.55884572681199 
vertex -0.02886751345948134 0.009559885480119112 -1.55884572681199 
vertex 0.006154653046687298 0.02977994274005955 -1.55884572681199 
endloop
endfacet
facet normal 0.0 -0.0 -1.0 
outer loop
vertex 1.295260195396016e-16 6.360652745248292e-17 -1.55884572681199 
vertex 0.006154653046687298 0.02977994274005955 -1.55884572681199 
vertex 0.022712860412794154 0.020220057259940114 -1.55884572681199 
endloop
endfacet
facet normal 0.0 -0.0 -1.0 
outer loop
vertex 1.295260195396016e-16 6.360652745248292e-17 -1.55884572681199 
vertex 0.022712860412794154 0.020220057259940114 -1.55884572681199 
vertex 0.022712860412794172 -0.02022005725994025 -1.55884572681199 
endloop
endfacet
facet normal 0.9428090415820635 -1.110993879587564e-16 -0.333333333333333 
outer loop
vertex 0.5754637216013817 -2.4671622769447922e-17 0.004569802200628131 
vertex 0.861355781583616 1.4132323206556667 0.813194659403945 
vertex 0.8613557815836157 -1.413232320655667 0.813194659403945 
endloop
endfacet
facet normal 0.942809041582063 -9.34005696706246e-16 -0.33333333333333426 
outer loop
vertex 0.5754637216013817 -2.4671622769447922e-17 0.004569802200628131 
vertex 0.8613557815836157 -1.413232320655667 0.813194659403945 
vertex 0.8441623236261908 -1.443012263395726 0.7645642165489814 
endloop
endfacet
facet normal 0.9428090415820569 -9.654985119713393e-15 -0.3333333333333513 
outer loop
vertex 0.5754637216013817 -2.4671622769447922e-17 0.004569802200628131 
vertex 0.8441623236261908 -1.443012263395726 0.7645642165489814 
vertex 0.573848052539009 -0.002022005725994043 0.0 
endloop
endfacet
facet normal 0.9428090415820637 -3.917130214950981e-14 -0.33333333333333265 
outer loop
vertex 0.5754637216013817 -2.4671622769447922e-17 0.004569802200628131 
vertex 0.573848052539009 -0.002022005725994043 0.0 
vertex 0.022712860412794172 -0.02022005725994025 -1.55884572681199 
endloop
endfacet
facet normal 0.9428090415820645 0.0 -0.3333333333333305 
outer loop
vertex 0.5754637216013817 -2.4671622769447922e-17 0.004569802200628131 
vertex 0.022712860412794172 -0.02022005725994025 -1.55884572681199 
vertex 0.5750154580892146 0.0 0.0033019215237808405 
endloop
endfacet
facet normal 0.9428090415820548 -2.1132414348450713e-12 -0.33333333333335746 
outer loop
vertex 0.5754637216013817 -2.4671622769447922e-17 0.004569802200628131 
vertex 0.5750154580892146 0.0 0.0033019215237808405 
vertex 0.022712860412794154 0.020220057259940114 -1.55884572681199 
endloop
endfacet
facet normal 0.9428090415820635 3.410834472882408e-14 -0.3333333333333329 
outer loop
vertex 0.5754637216013817 -2.4671622769447922e-17 0.004569802200628131 
vertex 0.022712860412794154 0.020220057259940114 -1.55884572681199 
vertex 0.573848052539009 0.002022005725994041 0.0 
endloop
endfacet
facet normal 0.9428090415820591 6.989806935625824e-15 -0.3333333333333453 
outer loop
vertex 0.5754637216013817 -2.4671622769447922e-17 0.004569802200628131 
vertex 0.573848052539009 0.002022005725994041 0.0 
vertex 0.8441623236261914 1.4430122633957263 0.7645642165489809 
endloop
endfacet
facet normal 0.9428090415820649 -2.678657847157508e-15 -0.333333333333329 
outer loop
vertex 0.5754637216013817 -2.4671622769447922e-17 0.004569802200628131 
vertex 0.8441623236261914 1.4430122633957263 0.7645642165489809 
vertex 0.861355781583616 1.4132323206556667 0.813194659403945 
endloop
endfacet
facet normal -0.4714045207910315 -0.8164965809277261 -0.3333333333333334 
outer loop
vertex -0.3158824971319631 -0.4475735931288073 -0.08003516021418214 
vertex -0.5637188216580457 -1.5558924394953491e-16 -0.825868594330321 
vertex -0.028867513459481332 -0.009559885480118754 -1.55884572681199 
endloop
endfacet
facet normal -0.4714045207910329 -0.8164965809277251 -0.3333333333333334 
outer loop
vertex -0.3158824971319631 -0.4475735931288073 -0.08003516021418214 
vertex -0.028867513459481332 -0.009559885480118754 -1.55884572681199 
vertex 0.006154653046687823 -0.029779942740059396 -1.5588457268119902 
endloop
endfacet
facet normal -0.4714045207910315 -0.8164965809277259 -0.3333333333333337 
outer loop
vertex -0.3158824971319631 -0.4475735931288073 -0.08003516021418214 
vertex 0.006154653046687823 -0.029779942740059396 -1.5588457268119902 
vertex -0.2886751345948128 -0.49595598854801204 0.0 
endloop
endfacet
facet normal 0.4714045207910696 0.8164965809277125 0.3333333333333128 
outer loop
vertex -0.3158824971319631 -0.4475735931288073 -0.08003516021418214 
vertex -0.2886751345948128 -0.49595598854801204 0.0 
vertex -0.2875077290446072 -0.4979779942740061 0.0033019215237808292 
endloop
endfacet
facet normal 0.47140452079102746 0.8164965809277273 0.3333333333333361 
outer loop
vertex -0.3158824971319631 -0.4475735931288073 -0.08003516021418214 
vertex -0.2875077290446072 -0.4979779942740061 0.0033019215237808292 
vertex -0.2851729179441959 -0.4979779942740061 0.0 
endloop
endfacet
facet normal 0.47140452079103107 0.8164965809277261 0.33333333333333387 
outer loop
vertex -0.3158824971319631 -0.4475735931288073 -0.08003516021418214 
vertex -0.2851729179441959 -0.4979779942740061 0.0 
vertex 0.8276041162600847 -1.4525721488758452 0.7645642165489814 
endloop
endfacet
facet normal -0.47140452079103534 -0.816496580927726 -0.33333333333332804 
outer loop
vertex -0.3158824971319631 -0.4475735931288073 -0.08003516021418214 
vertex 0.8276041162600847 -1.4525721488758452 0.7645642165489814 
vertex 0.7932172003452356 -1.452572148875845 0.8131946594039449 
endloop
endfacet
facet normal -0.4714045207910314 -0.8164965809277261 -0.33333333333333337 
outer loop
vertex -0.3158824971319631 -0.4475735931288073 -0.08003516021418214 
vertex 0.7932172003452356 -1.452572148875845 0.8131946594039449 
vertex -1.654572981928851 -0.039339828220179125 0.8131946594039456 
endloop
endfacet
facet normal -0.4714045207910311 -0.8164965809277267 -0.3333333333333324 
outer loop
vertex -0.3158824971319631 -0.4475735931288073 -0.08003516021418214 
vertex -1.654572981928851 -0.039339828220179125 0.8131946594039456 
vertex -1.6772858423416448 -8.6500332116959e-16 0.7489529889318264 
endloop
endfacet
facet normal -0.4714045207910314 -0.8164965809277263 -0.33333333333333337 
outer loop
vertex -0.3158824971319631 -0.4475735931288073 -0.08003516021418214 
vertex -1.6772858423416448 -8.6500332116959e-16 0.7489529889318264 
vertex -0.5637188216580457 -1.5558924394953491e-16 -0.825868594330321 
endloop
endfacet
facet normal -0.4714045207910317 0.8164965809277268 -0.33333333333333154 
outer loop
vertex -0.3158869976375029 0.44757359312880707 -0.08002879553821082 
vertex -1.6772858423416448 -8.6500332116959e-16 0.7489529889318264 
vertex -1.6545729819288508 0.03933982822017742 0.8131946594039455 
endloop
endfacet
facet normal -0.4714045207910324 0.8164965809277257 -0.33333333333333315 
outer loop
vertex -0.3158869976375029 0.44757359312880707 -0.08002879553821082 
vertex -1.6545729819288508 0.03933982822017742 0.8131946594039455 
vertex 0.7932172003452338 1.4525721488758458 0.813194659403945 
endloop
endfacet
facet normal -0.4714045207910325 0.8164965809277257 -0.3333333333333329 
outer loop
vertex -0.3158869976375029 0.44757359312880707 -0.08002879553821082 
vertex 0.7932172003452338 1.4525721488758458 0.813194659403945 
vertex 0.8275591112046895 1.4525721488758458 0.7646278633086947 
endloop
endfacet
facet normal 0.471404520791034 -0.8164965809277251 0.33333333333333215 
outer loop
vertex -0.3158869976375029 0.44757359312880707 -0.08002879553821082 
vertex 0.8275591112046895 1.4525721488758458 0.7646278633086947 
vertex -0.2875077290446076 0.4979779942740058 0.0033019215237807824 
endloop
endfacet
facet normal -0.47140452079103595 0.8164965809277245 -0.333333333333331 
outer loop
vertex -0.3158869976375029 0.44757359312880707 -0.08002879553821082 
vertex -0.2875077290446076 0.4979779942740058 0.0033019215237807824 
vertex -0.2851729179441964 0.4979779942740058 0.0 
endloop
endfacet
facet normal 0.4714045207910297 -0.8164965809277266 0.33333333333333465 
outer loop
vertex -0.3158869976375029 0.44757359312880707 -0.08002879553821082 
vertex -0.2851729179441964 0.4979779942740058 0.0 
vertex -0.2886751345948132 0.4959559885480118 0.0 
endloop
endfacet
facet normal -0.4714045207910323 0.8164965809277257 -0.33333333333333326 
outer loop
vertex -0.3158869976375029 0.44757359312880707 -0.08002879553821082 
vertex -0.2886751345948132 0.4959559885480118 0.0 
vertex 0.006154653046687298 0.02977994274005955 -1.55884572681199 
endloop
endfacet
facet normal -0.4714045207910332 0.8164965809277254 -0.3333333333333333 
outer loop
vertex -0.3158869976375029 0.44757359312880707 -0.08002879553821082 
vertex 0.006154653046687298 0.02977994274005955 -1.55884572681199 
vertex -0.02886751345948134 0.009559885480119112 -1.55884572681199 
endloop
endfacet
facet normal -0.47140452079103234 0.8164965809277257 -0.3333333333333333 
outer loop
vertex -0.3158869976375029 0.44757359312880707 -0.08002879553821082 
vertex -0.02886751345948134 0.009559885480119112 -1.55884572681199 
vertex -0.5637188216580457 -1.5558924394953491e-16 -0.825868594330321 
endloop
endfacet
facet normal -0.4714045207910324 0.8164965809277256 -0.33333333333333326 
outer loop
vertex -0.3158869976375029 0.44757359312880707 -0.08002879553821082 
vertex -0.5637188216580457 -1.5558924394953491e-16 -0.825868594330321 
vertex -1.6772858423416448 -8.6500332116959e-16 0.7489529889318264 
endloop
endfacet
facet normal 0.4714045207910283 -0.8164965809277388 0.333333333333307 
outer loop
vertex 0.8310719676998911 -1.439458872802452 0.791780769246572 
vertex 0.7932172003452356 -1.452572148875845 0.8131946594039449 
vertex 0.8042560052559725 -1.4525721488758445 0.7975834317867899 
endloop
endfacet
facet normal 0.47140452079102874 -0.8164965809277241 0.3333333333333421 
outer loop
vertex 0.8310719676998911 -1.439458872802452 0.791780769246572 
vertex 0.8042560052559725 -1.4525721488758445 0.7975834317867899 
vertex 0.8276041162600847 -1.4525721488758452 0.7645642165489814 
endloop
endfacet
facet normal 0.4714045207910334 -0.8164965809277223 0.33333333333334053 
outer loop
vertex 0.8310719676998911 -1.439458872802452 0.791780769246572 
vertex 0.8276041162600847 -1.4525721488758452 0.7645642165489814 
vertex 0.8441623236261908 -1.443012263395726 0.7645642165489814 
endloop
endfacet
facet normal 0.47140452079102885 -0.8164965809277255 0.3333333333333388 
outer loop
vertex 0.8310719676998911 -1.439458872802452 0.791780769246572 
vertex 0.8441623236261908 -1.443012263395726 0.7645642165489814 
vertex 0.8558363791282471 -1.4227922061357854 0.79758343178679 
endloop
endfacet
facet normal 0.47140452079103606 -0.8164965809277294 0.33333333333331916 
outer loop
vertex 0.8310719676998911 -1.439458872802452 0.791780769246572 
vertex 0.8558363791282471 -1.4227922061357854 0.79758343178679 
vertex 0.8613557815836157 -1.413232320655667 0.813194659403945 
endloop
endfacet
facet normal 0.4714045207910338 -0.8164965809277293 0.3333333333333223 
outer loop
vertex 0.8310719676998911 -1.439458872802452 0.791780769246572 
vertex 0.8613557815836157 -1.413232320655667 0.813194659403945 
vertex 0.7932172003452356 -1.452572148875845 0.8131946594039449 
endloop
endfacet
facet normal 2.046109280947621e-16 1.1631672336194308e-16 1.0 
outer loop
vertex 0.15192715426164075 -0.2631455502305164 0.8131946594039451 
vertex 0.8098429152944315 1.4429732878744566 0.8131946594039448 
vertex 0.002334811100411231 0.0 0.8131946594039451 
endloop
endfacet
facet normal 0.0 0.0 1.0 
outer loop
vertex 0.15192715426164075 -0.2631455502305164 0.8131946594039451 
vertex 0.002334811100411231 0.0 0.8131946594039451 
vertex -0.001167405550205644 0.00202200572599404 0.8131946594039451 
endloop
endfacet
facet normal 0.0 0.0 1.0 
outer loop
vertex 0.15192715426164075 -0.2631455502305164 0.8131946594039451 
vertex -0.001167405550205644 0.00202200572599404 0.8131946594039451 
vertex -0.0011674055502056424 -0.0020220057259940413 0.8131946594039451 
endloop
endfacet
facet normal 2.70718268485054e-16 1.587198665880043e-16 1.0 
outer loop
vertex 0.15192715426164075 -0.2631455502305164 0.8131946594039451 
vertex -0.0011674055502056424 -0.0020220057259940413 0.8131946594039451 
vertex -1.6545729819288508 0.02014210621739931 0.8131946594039455 
endloop
endfacet
facet normal 5.385231548967407e-16 1.8664877582121107e-15 1.0 
outer loop
vertex 0.15192715426164075 -0.2631455502305164 0.8131946594039451 
vertex -1.6545729819288508 0.02014210621739931 0.8131946594039455 
vertex -1.654572981928851 -0.039339828220179125 0.8131946594039456 
endloop
endfacet
facet normal 3.044968972528608e-16 -2.2509817490146918e-17 1.0 
outer loop
vertex 0.15192715426164075 -0.2631455502305164 0.8131946594039451 
vertex -1.654572981928851 -0.039339828220179125 0.8131946594039456 
vertex 0.7932172003452356 -1.452572148875845 0.8131946594039449 
endloop
endfacet
facet normal -5.031093391638032e-15 -2.8992412998220944e-15 1.0 
outer loop
vertex 0.15192715426164075 -0.2631455502305164 0.8131946594039451 
vertex 0.7932172003452356 -1.452572148875845 0.8131946594039449 
vertex 0.809775407711341 -1.443012263395726 0.813194659403945 
endloop
endfacet
facet normal 2.4391898112962477e-15 1.2659010022616734e-15 1.0 
outer loop
vertex 0.15192715426164075 -0.2631455502305164 0.8131946594039451 
vertex 0.809775407711341 -1.443012263395726 0.813194659403945 
vertex 0.8447975742175102 -1.4227922061357856 0.8131946594039449 
endloop
endfacet
facet normal -4.903070834152661e-15 -3.120982873901733e-15 1.0 
outer loop
vertex 0.15192715426164075 -0.2631455502305164 0.8131946594039451 
vertex 0.8447975742175102 -1.4227922061357856 0.8131946594039449 
vertex 0.8613557815836157 -1.413232320655667 0.813194659403945 
endloop
endfacet
facet normal 1.5649537978417106e-16 -1.8441211470797285e-32 1.0 
outer loop
vertex 0.15192715426164075 -0.2631455502305164 0.8131946594039451 
vertex 0.8613557815836157 -1.413232320655667 0.813194659403945 
vertex 0.861355781583616 1.4132323206556667 0.813194659403945 
endloop
endfacet
facet normal -3.433360603083881e-15 1.5191960276016866e-15 1.0 
outer loop
vertex 0.15192715426164075 -0.2631455502305164 0.8131946594039451 
vertex 0.861355781583616 1.4132323206556667 0.813194659403945 
vertex 0.8098429152944315 1.4429732878744566 0.8131946594039448 
endloop
endfacet
facet normal -0.9428090415820665 -7.477949482192527e-16 0.3333333333333243 
outer loop
vertex -1.661386840052689 0.002014210621739165 0.7939221582623097 
vertex -1.6600923843842197 -0.029779942740060114 0.7975834317867898 
vertex -1.654572981928851 -0.039339828220179125 0.8131946594039456 
endloop
endfacet
facet normal -0.9428090415820574 1.2884730461694915e-14 0.33333333333335036 
outer loop
vertex -1.661386840052689 0.002014210621739165 0.7939221582623097 
vertex -1.654572981928851 -0.039339828220179125 0.8131946594039456 
vertex -1.6545729819288508 -0.02022005725994107 0.8131946594039455 
endloop
endfacet
facet normal -0.9428090415820619 0.0 0.33333333333333715 
outer loop
vertex -1.661386840052689 0.002014210621739165 0.7939221582623097 
vertex -1.6545729819288508 -0.02022005725994107 0.8131946594039455 
vertex -1.6545729819288508 0.02014210621739931 0.8131946594039455 
endloop
endfacet
facet normal -0.9428090415820621 0.0 0.3333333333333372 
outer loop
vertex -1.661386840052689 0.002014210621739165 0.7939221582623097 
vertex -1.6545729819288508 0.02014210621739931 0.8131946594039455 
vertex -1.6545729819288508 0.020220057259939354 0.8131946594039455 
endloop
endfacet
facet normal -0.942809041582062 0.0 0.33333333333333715 
outer loop
vertex -1.661386840052689 0.002014210621739165 0.7939221582623097 
vertex -1.6545729819288508 0.020220057259939354 0.8131946594039455 
vertex -1.6545729819288508 0.03933982822017742 0.8131946594039455 
endloop
endfacet
facet normal -0.9428090415820611 -1.378898561209661e-15 0.3333333333333396 
outer loop
vertex -1.661386840052689 0.002014210621739165 0.7939221582623097 
vertex -1.6545729819288508 0.03933982822017742 0.8131946594039455 
vertex -1.6600923843842197 0.02977994274005839 0.7975834317867898 
endloop
endfacet
facet normal -0.9428090415820636 -3.790305190649848e-16 0.33333333333333265 
outer loop
vertex -1.661386840052689 0.002014210621739165 0.7939221582623097 
vertex -1.6600923843842197 0.02977994274005839 0.7975834317867898 
vertex -1.671766439886276 0.00955988548011802 0.7645642165489813 
endloop
endfacet
facet normal -0.9428090415820614 2.6872488239389018e-14 0.3333333333333389 
outer loop
vertex -1.661386840052689 0.002014210621739165 0.7939221582623097 
vertex -1.671766439886276 0.00955988548011802 0.7645642165489813 
vertex -1.6772858423416448 -8.6500332116959e-16 0.7489529889318264 
endloop
endfacet
facet normal -0.9428090415820606 -2.3153947285604444e-14 0.33333333333334086 
outer loop
vertex -1.661386840052689 0.002014210621739165 0.7939221582623097 
vertex -1.6772858423416448 -8.6500332116959e-16 0.7489529889318264 
vertex -1.671766439886276 -0.009559885480119669 0.7645642165489813 
endloop
endfacet
facet normal -0.9428090415820637 3.1426810960513387e-16 0.3333333333333327 
outer loop
vertex -1.661386840052689 0.002014210621739165 0.7939221582623097 
vertex -1.671766439886276 -0.009559885480119669 0.7645642165489813 
vertex -1.6600923843842197 -0.029779942740060114 0.7975834317867898 
endloop
endfacet
facet normal 0.4714045207910181 0.8164965809277346 0.3333333333333318 
outer loop
vertex 0.8278406814627315 1.4398103143096532 0.7954896456999959 
vertex 0.8441623236261914 1.4430122633957263 0.7645642165489809 
vertex 0.8276041162600837 1.4525721488758458 0.7645642165489809 
endloop
endfacet
facet normal 0.47140452079116335 0.8164965809276631 0.3333333333333012 
outer loop
vertex 0.8278406814627315 1.4398103143096532 0.7954896456999959 
vertex 0.8276041162600837 1.4525721488758458 0.7645642165489809 
vertex 0.8275591112046895 1.4525721488758458 0.7646278633086947 
endloop
endfacet
facet normal 0.4714045207910317 0.8164965809277277 0.3333333333333291 
outer loop
vertex 0.8278406814627315 1.4398103143096532 0.7954896456999959 
vertex 0.8275591112046895 1.4525721488758458 0.7646278633086947 
vertex 0.8042560052559715 1.452572148875846 0.7975834317867887 
endloop
endfacet
facet normal 0.47140452079103085 0.8164965809277245 0.3333333333333386 
outer loop
vertex 0.8278406814627315 1.4398103143096532 0.7954896456999959 
vertex 0.8042560052559715 1.452572148875846 0.7975834317867887 
vertex 0.7932172003452338 1.4525721488758458 0.813194659403945 
endloop
endfacet
facet normal 0.47140452079102874 0.8164965809277284 0.33333333333333176 
outer loop
vertex 0.8278406814627315 1.4398103143096532 0.7954896456999959 
vertex 0.7932172003452338 1.4525721488758458 0.813194659403945 
vertex 0.8097754077113404 1.4430122633957267 0.8131946594039448 
endloop
endfacet
facet normal 0.4714045207923162 0.8164965809263468 0.33333333333489523 
outer loop
vertex 0.8278406814627315 1.4398103143096532 0.7954896456999959 
vertex 0.8097754077113404 1.4430122633957267 0.8131946594039448 
vertex 0.8098429152944315 1.4429732878744566 0.8131946594039448 
endloop
endfacet
facet normal 0.47140452079102657 0.8164965809277271 0.3333333333333377 
outer loop
vertex 0.8278406814627315 1.4398103143096532 0.7954896456999959 
vertex 0.8098429152944315 1.4429732878744566 0.8131946594039448 
vertex 0.8447975742175093 1.4227922061357863 0.8131946594039448 
endloop
endfacet
facet normal 0.47140452079103706 0.8164965809277258 0.33333333333332626 
outer loop
vertex 0.8278406814627315 1.4398103143096532 0.7954896456999959 
vertex 0.8447975742175093 1.4227922061357863 0.8131946594039448 
vertex 0.861355781583616 1.4132323206556667 0.813194659403945 
endloop
endfacet
facet normal 0.47140452079102957 0.8164965809277249 0.33333333333333925 
outer loop
vertex 0.8278406814627315 1.4398103143096532 0.7954896456999959 
vertex 0.861355781583616 1.4132323206556667 0.813194659403945 
vertex 0.8558363791282472 1.4227922061357863 0.7975834317867886 
endloop
endfacet
facet normal 0.4714045207910301 0.8164965809277255 0.33333333333333715 
outer loop
vertex 0.8278406814627315 1.4398103143096532 0.7954896456999959 
vertex 0.8558363791282472 1.4227922061357863 0.7975834317867886 
vertex 0.8441623236261914 1.4430122633957263 0.7645642165489809 
endloop
endfacet
endsolid test
