solid test
facet normal 0.0 0.0 -1.0 
outer loop
vertex 0.8506508083520399 0.0 0.0 
vertex 0.2628655560595668 -0.8090169943749473 0.0 
vertex -0.6881909602355867 -0.5000000000000001 0.0 
endloop
endfacet
facet normal 0.0 0.0 -1.0 
outer loop
vertex 0.8506508083520399 0.0 0.0 
vertex -0.6881909602355867 -0.5000000000000001 0.0 
vertex -0.6881909602355868 0.4999999999999999 0.0 
endloop
endfacet
facet normal 0.0 0.0 -1.0 
outer loop
vertex 0.8506508083520399 0.0 0.0 
vertex -0.6881909602355868 0.4999999999999999 0.0 
vertex 0.26286555605956663 0.8090169943749475 0.0 
endloop
endfacet
facet normal 0.7236067977499789 -0.5257311121191336 -0.44721359549995804 
outer loop
vertex 0.42532540417602 -1.3090169943749475 0.8506508083520399 
vertex 0.2628655560595668 -0.8090169943749473 0.0 
vertex 0.8506508083520399 0.0 0.0 
endloop
endfacet
facet normal 0.7236067977499789 -0.5257311121191337 -0.4472135954999582 
outer loop
vertex 0.42532540417602 -1.3090169943749475 0.8506508083520399 
vertex 0.8506508083520399 0.0 0.0 
vertex 1.3763819204711736 -2.563523831405842e-16 0.8506508083520398 
endloop
endfacet
facet normal 0.7236067977499788 -0.5257311121191336 -0.447213595499958 
outer loop
vertex 0.42532540417602 -1.3090169943749475 0.8506508083520399 
vertex 1.3763819204711736 -2.563523831405842e-16 0.8506508083520398 
vertex 1.1135163644116068 -0.8090169943749475 1.3763819204711734 
endloop
endfacet
facet normal -0.2763932022500209 -0.85065080835204 -0.44721359549995776 
outer loop
vertex -1.1135163644116064 -0.8090169943749475 0.85065080835204 
vertex -0.6881909602355867 -0.5000000000000001 0.0 
vertex 0.2628655560595668 -0.8090169943749473 0.0 
endloop
endfacet
facet normal -0.27639320225002106 -0.8506508083520399 -0.4472135954999579 
outer loop
vertex -1.1135163644116064 -0.8090169943749475 0.85065080835204 
vertex 0.2628655560595668 -0.8090169943749473 0.0 
vertex 0.42532540417602 -1.3090169943749475 0.8506508083520399 
endloop
endfacet
facet normal -0.27639320225002123 -0.8506508083520403 -0.44721359549995704 
outer loop
vertex -1.1135163644116064 -0.8090169943749475 0.85065080835204 
vertex 0.42532540417602 -1.3090169943749475 0.8506508083520399 
vertex -0.4253254041760195 -1.3090169943749472 1.3763819204711742 
endloop
endfacet
facet normal -0.8944271909999159 -9.930136612989092e-17 -0.4472135954999579 
outer loop
vertex -1.1135163644116068 0.8090169943749472 0.85065080835204 
vertex -0.6881909602355868 0.4999999999999999 0.0 
vertex -0.6881909602355867 -0.5000000000000001 0.0 
endloop
endfacet
facet normal -0.894427190999916 -2.5251332953838905e-16 -0.44721359549995776 
outer loop
vertex -1.1135163644116068 0.8090169943749472 0.85065080835204 
vertex -0.6881909602355867 -0.5000000000000001 0.0 
vertex -1.1135163644116064 -0.8090169943749475 0.85065080835204 
endloop
endfacet
facet normal -0.8944271909999159 -2.454864775902808e-16 -0.44721359549995765 
outer loop
vertex -1.1135163644116068 0.8090169943749472 0.85065080835204 
vertex -1.1135163644116064 -0.8090169943749475 0.85065080835204 
vertex -1.3763819204711734 -4.440892098500626e-16 1.3763819204711738 
endloop
endfacet
facet normal -0.27639320225002123 0.8506508083520399 -0.4472135954999579 
outer loop
vertex 0.42532540417601966 1.3090169943749475 0.85065080835204 
vertex 0.26286555605956663 0.8090169943749475 0.0 
vertex -0.6881909602355868 0.4999999999999999 0.0 
endloop
endfacet
facet normal -0.2763932022500211 0.8506508083520399 -0.44721359549995787 
outer loop
vertex 0.42532540417601966 1.3090169943749475 0.85065080835204 
vertex -0.6881909602355868 0.4999999999999999 0.0 
vertex -1.1135163644116068 0.8090169943749472 0.85065080835204 
endloop
endfacet
facet normal -0.2763932022500212 0.8506508083520399 -0.44721359549995787 
outer loop
vertex 0.42532540417601966 1.3090169943749475 0.85065080835204 
vertex -1.1135163644116068 0.8090169943749472 0.85065080835204 
vertex -0.4253254041760204 1.3090169943749472 1.3763819204711736 
endloop
endfacet
facet normal 0.7236067977499789 0.5257311121191337 -0.4472135954999579 
outer loop
vertex 1.3763819204711736 -2.563523831405842e-16 0.8506508083520398 
vertex 0.8506508083520399 0.0 0.0 
vertex 0.26286555605956663 0.8090169943749475 0.0 
endloop
endfacet
facet normal 0.7236067977499789 0.5257311121191337 -0.44721359549995787 
outer loop
vertex 1.3763819204711736 -2.563523831405842e-16 0.8506508083520398 
vertex 0.26286555605956663 0.8090169943749475 0.0 
vertex 0.42532540417601966 1.3090169943749475 0.85065080835204 
endloop
endfacet
facet normal 0.7236067977499792 0.5257311121191338 -0.4472135954999574 
outer loop
vertex 1.3763819204711736 -2.563523831405842e-16 0.8506508083520398 
vertex 0.42532540417601966 1.3090169943749475 0.85065080835204 
vertex 1.1135163644116062 0.8090169943749475 1.3763819204711738 
endloop
endfacet
facet normal 0.2763932022500211 -0.8506508083520399 0.44721359549995776 
outer loop
vertex 0.42532540417602 -1.3090169943749475 0.8506508083520399 
vertex 1.1135163644116068 -0.8090169943749475 1.3763819204711734 
vertex 0.6881909602355871 -0.4999999999999999 2.2270327288232137 
endloop
endfacet
facet normal 0.2763932022500211 -0.85065080835204 0.44721359549995787 
outer loop
vertex 0.42532540417602 -1.3090169943749475 0.8506508083520399 
vertex 0.6881909602355871 -0.4999999999999999 2.2270327288232137 
vertex -0.26286555605956663 -0.8090169943749475 2.2270327288232137 
endloop
endfacet
facet normal 0.2763932022500213 -0.8506508083520398 0.44721359549995787 
outer loop
vertex 0.42532540417602 -1.3090169943749475 0.8506508083520399 
vertex -0.26286555605956663 -0.8090169943749475 2.2270327288232137 
vertex -0.4253254041760195 -1.3090169943749472 1.3763819204711742 
endloop
endfacet
facet normal -0.723606797749979 -0.5257311121191336 0.4472135954999578 
outer loop
vertex -1.1135163644116064 -0.8090169943749475 0.85065080835204 
vertex -0.4253254041760195 -1.3090169943749472 1.3763819204711742 
vertex -0.26286555605956663 -0.8090169943749475 2.2270327288232137 
endloop
endfacet
facet normal -0.7236067977499794 -0.525731112119133 0.44721359549995804 
outer loop
vertex -1.1135163644116064 -0.8090169943749475 0.85065080835204 
vertex -0.26286555605956663 -0.8090169943749475 2.2270327288232137 
vertex -0.8506508083520397 9.43689570931383e-16 2.2270327288232132 
endloop
endfacet
facet normal -0.7236067977499779 -0.5257311121191343 0.44721359549995854 
outer loop
vertex -1.1135163644116064 -0.8090169943749475 0.85065080835204 
vertex -0.8506508083520397 9.43689570931383e-16 2.2270327288232132 
vertex -1.3763819204711734 -4.440892098500626e-16 1.3763819204711738 
endloop
endfacet
facet normal -0.7236067977499794 0.5257311121191333 0.4472135954999576 
outer loop
vertex -1.1135163644116068 0.8090169943749472 0.85065080835204 
vertex -1.3763819204711734 -4.440892098500626e-16 1.3763819204711738 
vertex -0.8506508083520397 9.43689570931383e-16 2.2270327288232132 
endloop
endfacet
facet normal -0.7236067977499784 0.5257311121191343 0.44721359549995804 
outer loop
vertex -1.1135163644116068 0.8090169943749472 0.85065080835204 
vertex -0.8506508083520397 9.43689570931383e-16 2.2270327288232132 
vertex -0.26286555605956624 0.809016994374947 2.2270327288232132 
endloop
endfacet
facet normal -0.7236067977499792 0.5257311121191327 0.4472135954999585 
outer loop
vertex -1.1135163644116068 0.8090169943749472 0.85065080835204 
vertex -0.26286555605956624 0.809016994374947 2.2270327288232132 
vertex -0.4253254041760204 1.3090169943749472 1.3763819204711736 
endloop
endfacet
facet normal 0.27639320225002084 0.85065080835204 0.4472135954999581 
outer loop
vertex 0.42532540417601966 1.3090169943749475 0.85065080835204 
vertex -0.4253254041760204 1.3090169943749472 1.3763819204711736 
vertex -0.26286555605956624 0.809016994374947 2.2270327288232132 
endloop
endfacet
facet normal 0.2763932022500209 0.8506508083520399 0.4472135954999581 
outer loop
vertex 0.42532540417601966 1.3090169943749475 0.85065080835204 
vertex -0.26286555605956624 0.809016994374947 2.2270327288232132 
vertex 0.6881909602355871 0.49999999999999956 2.2270327288232137 
endloop
endfacet
facet normal 0.27639320225002084 0.8506508083520399 0.447213595499958 
outer loop
vertex 0.42532540417601966 1.3090169943749475 0.85065080835204 
vertex 0.6881909602355871 0.49999999999999956 2.2270327288232137 
vertex 1.1135163644116062 0.8090169943749475 1.3763819204711738 
endloop
endfacet
facet normal 0.8944271909999161 8.463342388828548e-16 0.44721359549995743 
outer loop
vertex 1.3763819204711736 -2.563523831405842e-16 0.8506508083520398 
vertex 1.1135163644116062 0.8090169943749475 1.3763819204711738 
vertex 0.6881909602355871 0.49999999999999956 2.2270327288232137 
endloop
endfacet
facet normal 0.894427190999916 0.0 0.4472135954999577 
outer loop
vertex 1.3763819204711736 -2.563523831405842e-16 0.8506508083520398 
vertex 0.6881909602355871 0.49999999999999956 2.2270327288232137 
vertex 0.6881909602355871 -0.4999999999999999 2.2270327288232137 
endloop
endfacet
facet normal 0.8944271909999161 -2.334715141745807e-16 0.44721359549995765 
outer loop
vertex 1.3763819204711736 -2.563523831405842e-16 0.8506508083520398 
vertex 0.6881909602355871 -0.4999999999999999 2.2270327288232137 
vertex 1.1135163644116068 -0.8090169943749475 1.3763819204711734 
endloop
endfacet
facet normal -1.4429333116479365e-16 4.440892098500622e-16 1.0 
outer loop
vertex -0.8506508083520397 9.43689570931383e-16 2.2270327288232132 
vertex -0.26286555605956663 -0.8090169943749475 2.2270327288232137 
vertex 0.6881909602355871 -0.4999999999999999 2.2270327288232137 
endloop
endfacet
facet normal -2.885866623295875e-16 0.0 1.0 
outer loop
vertex -0.8506508083520397 9.43689570931383e-16 2.2270327288232132 
vertex 0.6881909602355871 -0.4999999999999999 2.2270327288232137 
vertex 0.6881909602355871 0.49999999999999956 2.2270327288232137 
endloop
endfacet
facet normal -3.7776484533937434e-16 2.7446222572442376e-16 1.0 
outer loop
vertex -0.8506508083520397 9.43689570931383e-16 2.2270327288232132 
vertex 0.6881909602355871 0.49999999999999956 2.2270327288232137 
vertex -0.26286555605956624 0.809016994374947 2.2270327288232132 
endloop
endfacet
endsolid test
