solid test2
facet normal -0.39162188750151694 -0.8326251224047875 0.39162188750140364 
outer loop
vertex -0.018557371426471462 -0.03078583599291297 0.03078583599292324 
vertex -0.030785835993118273 -0.03078583599309235 0.01855737142589152 
vertex -0.03375842589014802 -0.03375842589012564 0.009264774639900426 
endloop
endfacet
facet normal -0.3916218875015085 -0.8326251224047937 0.39162188750139865 
outer loop
vertex -0.018557371426471462 -0.03078583599291297 0.03078583599292324 
vertex -0.03375842589014802 -0.03375842589012564 0.009264774639900426 
vertex -0.025531074604255237 -0.0419857771760189 -3.0449899122925814e-14 
endloop
endfacet
facet normal -0.3916218875015054 -0.8326251224047952 0.3916218875013983 
outer loop
vertex -0.018557371426471462 -0.03078583599291297 0.03078583599292324 
vertex -0.025531074604255237 -0.0419857771760189 -3.0449899122925814e-14 
vertex -0.012228464567197424 -0.048242606463568226 -3.7117834278081145e-14 
endloop
endfacet
facet normal -0.3916218875015096 -0.832625122404794 0.3916218875013968 
outer loop
vertex -0.018557371426471462 -0.03078583599291297 0.03078583599292324 
vertex -0.012228464567197424 -0.048242606463568226 -3.7117834278081145e-14 
vertex -1.3464583153705843e-14 -0.04824260646361252 0.012228464567056197 
endloop
endfacet
facet normal -0.39162188750151444 -0.8326251224047939 0.39162188750139204 
outer loop
vertex -0.018557371426471462 -0.03078583599291297 0.03078583599292324 
vertex -1.3464583153705843e-14 -0.04824260646361252 0.012228464567056197 
vertex -4.487400550954192e-15 -0.041985777175976714 0.02553107460431735 
endloop
endfacet
facet normal -0.39162188750151405 -0.8326251224047939 0.3916218875013926 
outer loop
vertex -0.018557371426471462 -0.03078583599291297 0.03078583599292324 
vertex -4.487400550954192e-15 -0.041985777175976714 0.02553107460431735 
vertex -0.009264774639828818 -0.03375842589015335 0.033758425890167774 
endloop
endfacet
facet normal 0.8326251224048227 0.3916218875013708 0.39162188750147453 
outer loop
vertex 0.03375842589015767 0.009264774639788372 0.03375842589018507 
vertex 0.041985777175950714 -1.0235894626025132e-14 0.02553107460437112 
vertex 0.04824260646359968 -9.346864337525128e-15 0.012228464567092414 
endloop
endfacet
facet normal 0.8326251224048223 0.3916218875013728 0.39162188750147353 
outer loop
vertex 0.03375842589015767 0.009264774639788372 0.03375842589018507 
vertex 0.04824260646359968 -9.346864337525128e-15 0.012228464567092414 
vertex 0.0482426064635851 0.012228464567165854 -4.864501443577441e-14 
endloop
endfacet
facet normal 0.8326251224048223 0.3916218875013728 0.39162188750147353 
outer loop
vertex 0.03375842589015767 0.009264774639788372 0.03375842589018507 
vertex 0.0482426064635851 0.012228464567165854 -4.864501443577441e-14 
vertex 0.041985777176072166 0.02553107460417247 -6.320692178189164e-14 
endloop
endfacet
facet normal 0.8326251224048226 0.3916218875013725 0.3916218875014734 
outer loop
vertex 0.03375842589015767 0.009264774639788372 0.03375842589018507 
vertex 0.041985777176072166 0.02553107460417247 -6.320692178189164e-14 
vertex 0.0337584258902208 0.033758425890160204 0.00926477463968533 
endloop
endfacet
facet normal 0.8326251224048217 0.3916218875013732 0.3916218875014741 
outer loop
vertex 0.03375842589015767 0.009264774639788372 0.03375842589018507 
vertex 0.0337584258902208 0.033758425890160204 0.00926477463968533 
vertex 0.03078583599289917 0.03078583599288583 0.018557371426531584 
endloop
endfacet
facet normal 0.8326251224048221 0.391621887501373 0.3916218875014736 
outer loop
vertex 0.03375842589015767 0.009264774639788372 0.03375842589018507 
vertex 0.03078583599289917 0.03078583599288583 0.018557371426531584 
vertex 0.03078583599286018 0.018557371426613137 0.03078583599288403 
endloop
endfacet
facet normal 0.8326251224048264 -0.3916218875014144 0.3916218875014233 
outer loop
vertex 0.030785835993080483 -0.030785835993050636 0.01855737142599775 
vertex 0.03375842589014731 -0.033758425890105075 0.009264774639911615 
vertex 0.041985777176069126 -0.0255310746041507 -2.0450804178425734e-14 
endloop
endfacet
facet normal 0.8326251224048266 -0.39162188750141375 0.3916218875014236 
outer loop
vertex 0.030785835993080483 -0.030785835993050636 0.01855737142599775 
vertex 0.041985777176069126 -0.0255310746041507 -2.0450804178425734e-14 
vertex 0.048242606463586274 -0.012228464567158728 -2.816637508158837e-14 
endloop
endfacet
facet normal 0.8326251224048264 -0.39162188750141386 0.3916218875014234 
outer loop
vertex 0.030785835993080483 -0.030785835993050636 0.01855737142599775 
vertex 0.048242606463586274 -0.012228464567158728 -2.816637508158837e-14 
vertex 0.04824260646359968 -9.346864337525128e-15 0.012228464567092414 
endloop
endfacet
facet normal 0.8326251224048264 -0.3916218875014137 0.39162188750142396 
outer loop
vertex 0.030785835993080483 -0.030785835993050636 0.01855737142599775 
vertex 0.04824260646359968 -9.346864337525128e-15 0.012228464567092414 
vertex 0.041985777175950714 -1.0235894626025132e-14 0.02553107460437112 
endloop
endfacet
facet normal 0.8326251224048268 -0.3916218875014137 0.39162188750142307 
outer loop
vertex 0.030785835993080483 -0.030785835993050636 0.01855737142599775 
vertex 0.041985777175950714 -1.0235894626025132e-14 0.02553107460437112 
vertex 0.03375842589012355 -0.009264774639921515 0.0337584258901451 
endloop
endfacet
facet normal 0.8326251224048262 -0.3916218875014141 0.3916218875014238 
outer loop
vertex 0.030785835993080483 -0.030785835993050636 0.01855737142599775 
vertex 0.03375842589012355 -0.009264774639921515 0.0337584258901451 
vertex 0.030785835993098917 -0.018557371425897834 0.03078583599311106 
endloop
endfacet
facet normal -0.39162188750166577 -0.39162188750124916 0.83262512240479 
outer loop
vertex -1.8025225179047707e-14 -0.02553107460430917 0.04198577717598212 
vertex -4.309460138154422e-14 -0.01222846456688719 0.048242606463683745 
vertex -0.012228464567217717 7.583175901235216e-14 0.0482426064635781 
endloop
endfacet
facet normal -0.39162188750166466 -0.3916218875012488 0.8326251224047907 
outer loop
vertex -1.8025225179047707e-14 -0.02553107460430917 0.04198577717598212 
vertex -0.012228464567217717 7.583175901235216e-14 0.0482426064635781 
vertex -0.0255310746040532 6.770408642750472e-14 0.041985777176130085 
endloop
endfacet
facet normal -0.3916218875016647 -0.3916218875012489 0.8326251224047907 
outer loop
vertex -1.8025225179047707e-14 -0.02553107460430917 0.04198577717598212 
vertex -0.0255310746040532 6.770408642750472e-14 0.041985777176130085 
vertex -0.03375842589012354 -0.009264774639767317 0.033758425890198486 
endloop
endfacet
facet normal -0.3916218875016649 -0.39162188750124904 0.8326251224047906 
outer loop
vertex -1.8025225179047707e-14 -0.02553107460430917 0.04198577717598212 
vertex -0.03375842589012354 -0.009264774639767317 0.033758425890198486 
vertex -0.030785835992969853 -0.01855737142624776 0.03078583599299559 
endloop
endfacet
facet normal -0.39162188750166477 -0.3916218875012484 0.832625122404791 
outer loop
vertex -1.8025225179047707e-14 -0.02553107460430917 0.04198577717598212 
vertex -0.030785835992969853 -0.01855737142624776 0.03078583599299559 
vertex -0.018557371426471462 -0.03078583599291297 0.03078583599292324 
endloop
endfacet
facet normal -0.3916218875016645 -0.3916218875012489 0.8326251224047908 
outer loop
vertex -1.8025225179047707e-14 -0.02553107460430917 0.04198577717598212 
vertex -0.018557371426471462 -0.03078583599291297 0.03078583599292324 
vertex -0.009264774639828818 -0.03375842589015335 0.033758425890167774 
endloop
endfacet
facet normal 0.8326251224046112 -0.3916218875017664 -0.39162188750152893 
outer loop
vertex 0.030785835993126273 -0.018557371425883894 -0.030785835993099628 
vertex 0.03375842589016409 -0.00926477463988963 -0.03375842589013278 
vertex 0.04198577717604991 -6.54992288998108e-15 -0.025531074604220987 
endloop
endfacet
facet normal 0.8326251224046112 -0.3916218875017664 -0.39162188750152893 
outer loop
vertex 0.030785835993126273 -0.018557371425883894 -0.030785835993099628 
vertex 0.04198577717604991 -6.54992288998108e-15 -0.025531074604220987 
vertex 0.0482426064635717 -7.581416722476943e-15 -0.012228464567217753 
endloop
endfacet
facet normal 0.8326251224046112 -0.39162188750176713 -0.39162188750152827 
outer loop
vertex 0.030785835993126273 -0.018557371425883894 -0.030785835993099628 
vertex 0.0482426064635717 -7.581416722476943e-15 -0.012228464567217753 
vertex 0.048242606463586274 -0.012228464567158728 -2.816637508158837e-14 
endloop
endfacet
facet normal 0.8326251224046112 -0.39162188750176674 -0.3916218875015283 
outer loop
vertex 0.030785835993126273 -0.018557371425883894 -0.030785835993099628 
vertex 0.048242606463586274 -0.012228464567158728 -2.816637508158837e-14 
vertex 0.041985777176069126 -0.0255310746041507 -2.0450804178425734e-14 
endloop
endfacet
facet normal 0.8326251224046111 -0.3916218875017673 -0.3916218875015284 
outer loop
vertex 0.030785835993126273 -0.018557371425883894 -0.030785835993099628 
vertex 0.041985777176069126 -0.0255310746041507 -2.0450804178425734e-14 
vertex 0.03375842589015867 -0.03375842589010328 -0.009264774639915737 
endloop
endfacet
facet normal 0.8326251224046107 -0.39162188750176774 -0.39162188750152854 
outer loop
vertex 0.030785835993126273 -0.018557371425883894 -0.030785835993099628 
vertex 0.03375842589015867 -0.03375842589010328 -0.009264774639915737 
vertex 0.030785835993036192 -0.030785835992979977 -0.0185573714261876 
endloop
endfacet
facet normal 0.3916218874999534 -0.39162188750158544 0.8326251224054372 
outer loop
vertex 0.030785835993098917 -0.018557371425897834 0.03078583599311106 
vertex 0.03375842589012355 -0.009264774639921515 0.0337584258901451 
vertex 0.025531074604298938 1.7750082206412872e-14 0.0419857771759906 
endloop
endfacet
facet normal 0.3916218874999534 -0.39162188750158555 0.8326251224054373 
outer loop
vertex 0.030785835993098917 -0.018557371425897834 0.03078583599311106 
vertex 0.025531074604298938 1.7750082206412872e-14 0.0419857771759906 
vertex 0.012228464566874068 5.190559138900262e-14 0.048242606463695874 
endloop
endfacet
facet normal 0.39162188750070775 -0.3916218875008311 0.8326251224054373 
outer loop
vertex 0.030785835993098917 -0.018557371425897834 0.03078583599311106 
vertex 0.012228464566874068 5.190559138900262e-14 0.048242606463695874 
vertex -4.309460138154422e-14 -0.01222846456688719 0.048242606463683745 
endloop
endfacet
facet normal 0.39162188750095445 -0.39162188750016935 0.8326251224056325 
outer loop
vertex 0.030785835993098917 -0.018557371425897834 0.03078583599311106 
vertex -4.309460138154422e-14 -0.01222846456688719 0.048242606463683745 
vertex -1.8025225179047707e-14 -0.02553107460430917 0.04198577717598212 
endloop
endfacet
facet normal 0.39162188750097515 -0.39162188750060517 0.8326251224054179 
outer loop
vertex 0.030785835993098917 -0.018557371425897834 0.03078583599311106 
vertex -1.8025225179047707e-14 -0.02553107460430917 0.04198577717598212 
vertex 0.009264774639922053 -0.033758425890122554 0.03375842589014168 
endloop
endfacet
facet normal 0.3916218875017225 -0.39162188750184623 0.8326251224044826 
outer loop
vertex 0.030785835993098917 -0.018557371425897834 0.03078583599311106 
vertex 0.009264774639922053 -0.033758425890122554 0.03375842589014168 
vertex 0.018557371425956468 -0.030785835993073794 0.03078583599309348 
endloop
endfacet
facet normal 0.3916218875016088 0.39162188750153787 0.832625122404681 
outer loop
vertex 0.012228464566874068 5.190559138900262e-14 0.048242606463695874 
vertex 0.025531074604298938 1.7750082206412872e-14 0.0419857771759906 
vertex 0.03375842589015767 0.009264774639788372 0.03375842589018507 
endloop
endfacet
facet normal 0.39162188750160803 0.39162188750153926 0.8326251224046808 
outer loop
vertex 0.012228464566874068 5.190559138900262e-14 0.048242606463695874 
vertex 0.03375842589015767 0.009264774639788372 0.03375842589018507 
vertex 0.03078583599286018 0.018557371426613137 0.03078583599288403 
endloop
endfacet
facet normal 0.3916218875016086 0.39162188750153865 0.8326251224046808 
outer loop
vertex 0.012228464566874068 5.190559138900262e-14 0.048242606463695874 
vertex 0.03078583599286018 0.018557371426613137 0.03078583599288403 
vertex 0.018557371425894 0.030785835993116215 0.030785835993102875 
endloop
endfacet
facet normal 0.3916218875016077 0.39162188750153887 0.8326251224046809 
outer loop
vertex 0.012228464566874068 5.190559138900262e-14 0.048242606463695874 
vertex 0.018557371425894 0.030785835993116215 0.030785835993102875 
vertex 0.00926477463991741 0.03375842589014541 0.033758425890132185 
endloop
endfacet
facet normal 0.3916218875016084 0.3916218875015388 0.8326251224046808 
outer loop
vertex 0.012228464566874068 5.190559138900262e-14 0.048242606463695874 
vertex 0.00926477463991741 0.03375842589014541 0.033758425890132185 
vertex -1.5570249213743818e-14 0.02553107460428736 0.04198577717601385 
endloop
endfacet
facet normal 0.3916218875016092 0.39162188750153915 0.8326251224046803 
outer loop
vertex 0.012228464566874068 5.190559138900262e-14 0.048242606463695874 
vertex -1.5570249213743818e-14 0.02553107460428736 0.04198577717601385 
vertex -4.191875637379021e-14 0.01222846456719466 0.04824260646359024 
endloop
endfacet
facet normal 0.39162188750200494 -0.8326251224044668 -0.391621887501597 
outer loop
vertex -1.2548329103779617e-14 -0.04824260646355997 -0.012228464567225766 
vertex -2.5744089097528765e-15 -0.04198577717605304 -0.025531074604181775 
vertex 0.009264774639901325 -0.03375842589013059 -0.033758425890140525 
endloop
endfacet
facet normal 0.3916218875020059 -0.8326251224044666 -0.39162188750159643 
outer loop
vertex -1.2548329103779617e-14 -0.04824260646355997 -0.012228464567225766 
vertex 0.009264774639901325 -0.03375842589013059 -0.033758425890140525 
vertex 0.01855737142624634 -0.030785835992976032 -0.030785835992998552 
endloop
endfacet
facet normal 0.3916218875020048 -0.8326251224044666 -0.3916218875015976 
outer loop
vertex -1.2548329103779617e-14 -0.04824260646355997 -0.012228464567225766 
vertex 0.01855737142624634 -0.030785835992976032 -0.030785835992998552 
vertex 0.030785835993036192 -0.030785835992979977 -0.0185573714261876 
endloop
endfacet
facet normal 0.39162188750200494 -0.8326251224044667 -0.3916218875015974 
outer loop
vertex -1.2548329103779617e-14 -0.04824260646355997 -0.012228464567225766 
vertex 0.030785835993036192 -0.030785835992979977 -0.0185573714261876 
vertex 0.03375842589015867 -0.03375842589010328 -0.009264774639915737 
endloop
endfacet
facet normal 0.39162188750200494 -0.832625122404467 -0.39162188750159654 
outer loop
vertex -1.2548329103779617e-14 -0.04824260646355997 -0.012228464567225766 
vertex 0.03375842589015867 -0.03375842589010328 -0.009264774639915737 
vertex 0.025531074604340707 -0.0419857771759538 -2.288526908702959e-14 
endloop
endfacet
facet normal 0.391621887502005 -0.832625122404467 -0.39162188750159677 
outer loop
vertex -1.2548329103779617e-14 -0.04824260646355997 -0.012228464567225766 
vertex 0.025531074604340707 -0.0419857771759538 -2.288526908702959e-14 
vertex 0.012228464567072826 -0.04824260646360425 -3.3494649128659295e-14 
endloop
endfacet
facet normal 0.39162188750161225 -0.83262512240496 0.39162188750094135 
outer loop
vertex 0.03375842589014731 -0.033758425890105075 0.009264774639911615 
vertex 0.030785835993080483 -0.030785835993050636 0.01855737142599775 
vertex 0.018557371425956468 -0.030785835993073794 0.03078583599309348 
endloop
endfacet
facet normal 0.3916218875016124 -0.8326251224049599 0.39162188750094135 
outer loop
vertex 0.03375842589014731 -0.033758425890105075 0.009264774639911615 
vertex 0.018557371425956468 -0.030785835993073794 0.03078583599309348 
vertex 0.009264774639922053 -0.033758425890122554 0.03375842589014168 
endloop
endfacet
facet normal 0.3916218875016124 -0.8326251224049598 0.3916218875009414 
outer loop
vertex 0.03375842589014731 -0.033758425890105075 0.009264774639911615 
vertex 0.009264774639922053 -0.033758425890122554 0.03375842589014168 
vertex -4.487400550954192e-15 -0.041985777175976714 0.02553107460431735 
endloop
endfacet
facet normal 0.3916218875016125 -0.83262512240496 0.3916218875009415 
outer loop
vertex 0.03375842589014731 -0.033758425890105075 0.009264774639911615 
vertex -4.487400550954192e-15 -0.041985777175976714 0.02553107460431735 
vertex -1.3464583153705843e-14 -0.04824260646361252 0.012228464567056197 
endloop
endfacet
facet normal 0.3916218875016125 -0.8326251224049601 0.3916218875009409 
outer loop
vertex 0.03375842589014731 -0.033758425890105075 0.009264774639911615 
vertex -1.3464583153705843e-14 -0.04824260646361252 0.012228464567056197 
vertex 0.012228464567072826 -0.04824260646360425 -3.3494649128659295e-14 
endloop
endfacet
facet normal 0.39162188750161225 -0.83262512240496 0.39162188750094146 
outer loop
vertex 0.03375842589014731 -0.033758425890105075 0.009264774639911615 
vertex 0.012228464567072826 -0.04824260646360425 -3.3494649128659295e-14 
vertex 0.025531074604340707 -0.0419857771759538 -2.288526908702959e-14 
endloop
endfacet
facet normal -0.8326251224053723 -0.39162188749932075 0.3916218875023559 
outer loop
vertex -0.030785835992969853 -0.01855737142624776 0.03078583599299559 
vertex -0.03375842589012354 -0.009264774639767317 0.033758425890198486 
vertex -0.0419857771758123 5.6513763874869654e-14 0.025531074604589945 
endloop
endfacet
facet normal -0.8326251224053723 -0.3916218874993207 0.39162188750235616 
outer loop
vertex -0.030785835992969853 -0.01855737142624776 0.03078583599299559 
vertex -0.0419857771758123 5.6513763874869654e-14 0.025531074604589945 
vertex -0.04824260646357977 5.133968068274037e-14 0.012228464567076158 
endloop
endfacet
facet normal -0.8326251224053722 -0.3916218874999409 0.39162188750173593 
outer loop
vertex -0.030785835992969853 -0.01855737142624776 0.03078583599299559 
vertex -0.04824260646357977 5.133968068274037e-14 0.012228464567076158 
vertex -0.04824260646358436 -0.012228464567086109 -1.499224679975761e-14 
endloop
endfacet
facet normal -0.8326251224052118 -0.3916218875004848 0.39162188750153315 
outer loop
vertex -0.030785835992969853 -0.01855737142624776 0.03078583599299559 
vertex -0.04824260646358436 -0.012228464567086109 -1.499224679975761e-14 
vertex -0.041985777176000244 -0.02553107460427123 -2.0340815801488956e-14 
endloop
endfacet
facet normal -0.8326251224053888 -0.3916218875001256 0.39162188750151616 
outer loop
vertex -0.030785835992969853 -0.01855737142624776 0.03078583599299559 
vertex -0.041985777176000244 -0.02553107460427123 -2.0340815801488956e-14 
vertex -0.03375842589014802 -0.03375842589012564 0.009264774639900426 
endloop
endfacet
facet normal -0.8326251224061568 -0.39162188749910665 0.3916218875009023 
outer loop
vertex -0.030785835992969853 -0.01855737142624776 0.03078583599299559 
vertex -0.03375842589014802 -0.03375842589012564 0.009264774639900426 
vertex -0.030785835993118273 -0.03078583599309235 0.01855737142589152 
endloop
endfacet
facet normal -0.8326251224048955 0.39162188750086213 0.39162188750182836 
outer loop
vertex -0.030785835993067407 0.018557371425913252 0.0307858359931562 
vertex -0.03078583599287813 0.03078583599286706 0.01855737142663498 
vertex -0.03375842589013826 0.03375842589011729 0.009264774639955353 
endloop
endfacet
facet normal -0.8326251224048965 0.391621887500861 0.3916218875018277 
outer loop
vertex -0.030785835993067407 0.018557371425913252 0.0307858359931562 
vertex -0.03375842589013826 0.03375842589011729 0.009264774639955353 
vertex -0.0419857771760558 0.02553107460417644 1.5329014602591168e-14 
endloop
endfacet
facet normal -0.8326251224048963 0.39162188750086124 0.39162188750182764 
outer loop
vertex -0.030785835993067407 0.018557371425913252 0.0307858359931562 
vertex -0.0419857771760558 0.02553107460417644 1.5329014602591168e-14 
vertex -0.04824260646354749 0.012228464567224219 2.0923163835557557e-15 
endloop
endfacet
facet normal -0.8326251224048964 0.39162188750086113 0.39162188750182775 
outer loop
vertex -0.030785835993067407 0.018557371425913252 0.0307858359931562 
vertex -0.04824260646354749 0.012228464567224219 2.0923163835557557e-15 
vertex -0.04824260646357977 5.133968068274037e-14 0.012228464567076158 
endloop
endfacet
facet normal -0.8326251224048964 0.39162188750086113 0.3916218875018277 
outer loop
vertex -0.030785835993067407 0.018557371425913252 0.0307858359931562 
vertex -0.04824260646357977 5.133968068274037e-14 0.012228464567076158 
vertex -0.0419857771758123 5.6513763874869654e-14 0.025531074604589945 
endloop
endfacet
facet normal -0.8326251224048964 0.3916218875008612 0.39162188750182747 
outer loop
vertex -0.030785835993067407 0.018557371425913252 0.0307858359931562 
vertex -0.0419857771758123 5.6513763874869654e-14 0.025531074604589945 
vertex -0.03375842589007854 0.009264774639954194 0.03375842589018497 
endloop
endfacet
facet normal -0.3916218875017797 0.39162188750277727 0.8326251224040178 
outer loop
vertex -0.0255310746040532 6.770408642750472e-14 0.041985777176130085 
vertex -0.012228464567217717 7.583175901235216e-14 0.0482426064635781 
vertex -4.191875637379021e-14 0.01222846456719466 0.04824260646359024 
endloop
endfacet
facet normal -0.39162188750178006 0.39162188750277854 0.832625122404017 
outer loop
vertex -0.0255310746040532 6.770408642750472e-14 0.041985777176130085 
vertex -4.191875637379021e-14 0.01222846456719466 0.04824260646359024 
vertex -1.5570249213743818e-14 0.02553107460428736 0.04198577717601385 
endloop
endfacet
facet normal -0.3916218875012742 0.39162188750227267 0.8326251224044929 
outer loop
vertex -0.0255310746040532 6.770408642750472e-14 0.041985777176130085 
vertex -1.5570249213743818e-14 0.02553107460428736 0.04198577717601385 
vertex -0.009264774639854624 0.03375842589015235 0.03375842589016771 
endloop
endfacet
facet normal -0.3916218875004701 0.39162188750200766 0.8326251224049958 
outer loop
vertex -0.0255310746040532 6.770408642750472e-14 0.041985777176130085 
vertex -0.009264774639854624 0.03375842589015235 0.03375842589016771 
vertex -0.018557371426347488 0.03078583599294904 0.030785835992992963 
endloop
endfacet
facet normal -0.3916218875010356 0.39162188750203447 0.832625122404717 
outer loop
vertex -0.0255310746040532 6.770408642750472e-14 0.041985777176130085 
vertex -0.018557371426347488 0.03078583599294904 0.030785835992992963 
vertex -0.030785835993067407 0.018557371425913252 0.0307858359931562 
endloop
endfacet
facet normal -0.3916218875019906 0.39162188750161264 0.8326251224044662 
outer loop
vertex -0.0255310746040532 6.770408642750472e-14 0.041985777176130085 
vertex -0.030785835993067407 0.018557371425913252 0.0307858359931562 
vertex -0.03375842589007854 0.009264774639954194 0.03375842589018497 
endloop
endfacet
facet normal -0.39162188750169336 -0.8326251224043606 -0.39162188750213456 
outer loop
vertex -0.03375842589014206 -0.0337584258901299 -0.009264774639927817 
vertex -0.030785835993016538 -0.030785835993011088 -0.01855737142617727 
vertex -0.018557371425888692 -0.030785835993089254 -0.030785835993125153 
endloop
endfacet
facet normal -0.3916218875016939 -0.8326251224043603 -0.39162188750213484 
outer loop
vertex -0.03375842589014206 -0.0337584258901299 -0.009264774639927817 
vertex -0.018557371425888692 -0.030785835993089254 -0.030785835993125153 
vertex -0.009264774639908534 -0.03375842589012582 -0.03375842589014244 
endloop
endfacet
facet normal -0.39162188750169363 -0.8326251224043605 -0.3916218875021345 
outer loop
vertex -0.03375842589014206 -0.0337584258901299 -0.009264774639927817 
vertex -0.009264774639908534 -0.03375842589012582 -0.03375842589014244 
vertex -2.5744089097528765e-15 -0.04198577717605304 -0.025531074604181775 
endloop
endfacet
facet normal -0.3916218875016936 -0.8326251224043607 -0.3916218875021344 
outer loop
vertex -0.03375842589014206 -0.0337584258901299 -0.009264774639927817 
vertex -2.5744089097528765e-15 -0.04198577717605304 -0.025531074604181775 
vertex -1.2548329103779617e-14 -0.04824260646355997 -0.012228464567225766 
endloop
endfacet
facet normal -0.39162188750169347 -0.8326251224043604 -0.3916218875021349 
outer loop
vertex -0.03375842589014206 -0.0337584258901299 -0.009264774639927817 
vertex -1.2548329103779617e-14 -0.04824260646355997 -0.012228464567225766 
vertex -0.012228464567197424 -0.048242606463568226 -3.7117834278081145e-14 
endloop
endfacet
facet normal -0.3916218875016936 -0.8326251224043605 -0.39162188750213495 
outer loop
vertex -0.03375842589014206 -0.0337584258901299 -0.009264774639927817 
vertex -0.012228464567197424 -0.048242606463568226 -3.7117834278081145e-14 
vertex -0.025531074604255237 -0.0419857771760189 -3.0449899122925814e-14 
endloop
endfacet
facet normal -0.8326251224050851 -0.3916218875001103 -0.3916218875021776 
outer loop
vertex -0.03375842589014206 -0.0337584258901299 -0.009264774639927817 
vertex -0.041985777176000244 -0.02553107460427123 -2.0340815801488956e-14 
vertex -0.04824260646358436 -0.012228464567086109 -1.499224679975761e-14 
endloop
endfacet
facet normal -0.8326251224050851 -0.3916218875001105 -0.3916218875021773 
outer loop
vertex -0.03375842589014206 -0.0337584258901299 -0.009264774639927817 
vertex -0.04824260646358436 -0.012228464567086109 -1.499224679975761e-14 
vertex -0.048242606463552086 4.166080665977509e-14 -0.012228464567146838 
endloop
endfacet
facet normal -0.8326251224050847 -0.3916218875001103 -0.39162188750217813 
outer loop
vertex -0.03375842589014206 -0.0337584258901299 -0.009264774639927817 
vertex -0.048242606463552086 4.166080665977509e-14 -0.012228464567146838 
vertex -0.04198577717591769 3.6305825796342386e-14 -0.025531074604368605 
endloop
endfacet
facet normal -0.8326251224050845 -0.39162188750011034 -0.39162188750217836 
outer loop
vertex -0.03375842589014206 -0.0337584258901299 -0.009264774639927817 
vertex -0.04198577717591769 3.6305825796342386e-14 -0.025531074604368605 
vertex -0.0337584258901067 -0.009264774639829445 -0.03375842589017411 
endloop
endfacet
facet normal -0.8326251224050855 -0.3916218875001093 -0.3916218875021774 
outer loop
vertex -0.03375842589014206 -0.0337584258901299 -0.009264774639927817 
vertex -0.0337584258901067 -0.009264774639829445 -0.03375842589017411 
vertex -0.030785835993059736 -0.018557371425910348 -0.030785835993121603 
endloop
endfacet
facet normal -0.8326251224050848 -0.3916218875001104 -0.391621887502178 
outer loop
vertex -0.03375842589014206 -0.0337584258901299 -0.009264774639927817 
vertex -0.030785835993059736 -0.018557371425910348 -0.030785835993121603 
vertex -0.030785835993016538 -0.030785835993011088 -0.01855737142617727 
endloop
endfacet
facet normal -0.3916218875015693 0.8326251224047092 0.39162188750151766 
outer loop
vertex 8.968954852397374e-15 0.04824260646357424 0.012228464567195094 
vertex -0.012228464567165828 0.048242606463580015 6.411667803068033e-15 
vertex -0.025531074604367016 0.0419857771759596 1.7302507213409e-14 
endloop
endfacet
facet normal -0.39162188750157056 0.8326251224047067 0.3916218875015216 
outer loop
vertex 8.968954852397374e-15 0.04824260646357424 0.012228464567195094 
vertex -0.025531074604367016 0.0419857771759596 1.7302507213409e-14 
vertex -0.03375842589013826 0.03375842589011729 0.009264774639955353 
endloop
endfacet
facet normal -0.3916218875015703 0.8326251224047055 0.391621887501524 
outer loop
vertex 8.968954852397374e-15 0.04824260646357424 0.012228464567195094 
vertex -0.03375842589013826 0.03375842589011729 0.009264774639955353 
vertex -0.03078583599287813 0.03078583599286706 0.01855737142663498 
endloop
endfacet
facet normal -0.391621887501572 0.8326251224047069 0.3916218875015196 
outer loop
vertex 8.968954852397374e-15 0.04824260646357424 0.012228464567195094 
vertex -0.03078583599287813 0.03078583599286706 0.01855737142663498 
vertex -0.018557371426347488 0.03078583599294904 0.030785835992992963 
endloop
endfacet
facet normal -0.3916218875015758 0.8326251224047071 0.3916218875015159 
outer loop
vertex 8.968954852397374e-15 0.04824260646357424 0.012228464567195094 
vertex -0.018557371426347488 0.03078583599294904 0.030785835992992963 
vertex -0.009264774639854624 0.03375842589015235 0.03375842589016771 
endloop
endfacet
facet normal -0.39162188750157617 0.8326251224047069 0.39162188750151566 
outer loop
vertex 8.968954852397374e-15 0.04824260646357424 0.012228464567195094 
vertex -0.009264774639854624 0.03375842589015235 0.03375842589016771 
vertex 7.680121576486657e-15 0.041985777176011596 0.025531074604284852 
endloop
endfacet
facet normal 0.39162188750309446 0.8326251224040921 0.3916218875013044 
outer loop
vertex 0.025531074604535898 0.0419857771758674 -5.355881075903066e-14 
vertex 0.01222846456714051 0.04824260646359079 -2.7528349584800677e-14 
vertex 8.968954852397374e-15 0.04824260646357424 0.012228464567195094 
endloop
endfacet
facet normal 0.391621887503094 0.8326251224040931 0.3916218875013029 
outer loop
vertex 0.025531074604535898 0.0419857771758674 -5.355881075903066e-14 
vertex 8.968954852397374e-15 0.04824260646357424 0.012228464567195094 
vertex 7.680121576486657e-15 0.041985777176011596 0.025531074604284852 
endloop
endfacet
facet normal 0.3916218875024502 0.8326251224046987 0.391621887500659 
outer loop
vertex 0.025531074604535898 0.0419857771758674 -5.355881075903066e-14 
vertex 7.680121576486657e-15 0.041985777176011596 0.025531074604284852 
vertex 0.00926477463991741 0.03375842589014541 0.033758425890132185 
endloop
endfacet
facet normal 0.3916218875014237 0.8326251224053406 0.3916218875003208 
outer loop
vertex 0.025531074604535898 0.0419857771758674 -5.355881075903066e-14 
vertex 0.00926477463991741 0.03375842589014541 0.033758425890132185 
vertex 0.018557371425894 0.030785835993116215 0.030785835993102875 
endloop
endfacet
facet normal 0.3916218875021466 0.8326251224049844 0.391621887500355 
outer loop
vertex 0.025531074604535898 0.0419857771758674 -5.355881075903066e-14 
vertex 0.018557371425894 0.030785835993116215 0.030785835993102875 
vertex 0.03078583599289917 0.03078583599288583 0.018557371426531584 
endloop
endfacet
facet normal 0.391621887503363 0.832625122404665 0.3916218874998178 
outer loop
vertex 0.025531074604535898 0.0419857771758674 -5.355881075903066e-14 
vertex 0.03078583599289917 0.03078583599288583 0.018557371426531584 
vertex 0.0337584258902208 0.033758425890160204 0.00926477463968533 
endloop
endfacet
facet normal -0.8326251224044541 0.3916218875014325 -0.3916218875021967 
outer loop
vertex -0.048242606463552086 4.166080665977509e-14 -0.012228464567146838 
vertex -0.04824260646354749 0.012228464567224219 2.0923163835557557e-15 
vertex -0.0419857771760558 0.02553107460417644 1.5329014602591168e-14 
endloop
endfacet
facet normal -0.8326251224044544 0.39162188750143234 -0.3916218875021961 
outer loop
vertex -0.048242606463552086 4.166080665977509e-14 -0.012228464567146838 
vertex -0.0419857771760558 0.02553107460417644 1.5329014602591168e-14 
vertex -0.03375842589016322 0.033758425890140095 -0.009264774639818812 
endloop
endfacet
facet normal -0.8326251224044542 0.39162188750143245 -0.39162188750219684 
outer loop
vertex -0.048242606463552086 4.166080665977509e-14 -0.012228464567146838 
vertex -0.03375842589016322 0.033758425890140095 -0.009264774639818812 
vertex -0.03078583599287142 0.030785835992856024 -0.01855737142659185 
endloop
endfacet
facet normal -0.8326251224044541 0.39162188750143223 -0.391621887502197 
outer loop
vertex -0.048242606463552086 4.166080665977509e-14 -0.012228464567146838 
vertex -0.03078583599287142 0.030785835992856024 -0.01855737142659185 
vertex -0.030785835993062463 0.018557371425889403 -0.03078583599312842 
endloop
endfacet
facet normal -0.8326251224044541 0.39162188750143295 -0.39162188750219634 
outer loop
vertex -0.048242606463552086 4.166080665977509e-14 -0.012228464567146838 
vertex -0.030785835993062463 0.018557371425889403 -0.03078583599312842 
vertex -0.033758425890083474 0.009264774639927732 -0.033758425890152925 
endloop
endfacet
facet normal -0.8326251224044544 0.39162188750143173 -0.39162188750219695 
outer loop
vertex -0.048242606463552086 4.166080665977509e-14 -0.012228464567146838 
vertex -0.033758425890083474 0.009264774639927732 -0.033758425890152925 
vertex -0.04198577717591769 3.6305825796342386e-14 -0.025531074604368605 
endloop
endfacet
facet normal -0.3916218875020134 0.8326251224042908 -0.39162188750196286 
outer loop
vertex -0.012228464567165828 0.048242606463580015 6.411667803068033e-15 
vertex 1.5927332501765438e-14 0.04824260646359655 -0.012228464567141764 
vertex 2.220809914187849e-14 0.04198577717600747 -0.025531074604273462 
endloop
endfacet
facet normal -0.39162188750201427 0.8326251224042903 -0.3916218875019632 
outer loop
vertex -0.012228464567165828 0.048242606463580015 6.411667803068033e-15 
vertex 2.220809914187849e-14 0.04198577717600747 -0.025531074604273462 
vertex -0.009264774639884404 0.0337584258901107 -0.033758425890163264 
endloop
endfacet
facet normal -0.3916218875020136 0.8326251224042905 -0.39162188750196325 
outer loop
vertex -0.012228464567165828 0.048242606463580015 6.411667803068033e-15 
vertex -0.009264774639884404 0.0337584258901107 -0.033758425890163264 
vertex -0.01855737142619498 0.030785835992968774 -0.030785835993030145 
endloop
endfacet
facet normal -0.39162188750201354 0.8326251224042907 -0.39162188750196325 
outer loop
vertex -0.012228464567165828 0.048242606463580015 6.411667803068033e-15 
vertex -0.01855737142619498 0.030785835992968774 -0.030785835993030145 
vertex -0.03078583599287142 0.030785835992856024 -0.01855737142659185 
endloop
endfacet
facet normal -0.3916218875020134 0.8326251224042907 -0.3916218875019635 
outer loop
vertex -0.012228464567165828 0.048242606463580015 6.411667803068033e-15 
vertex -0.03078583599287142 0.030785835992856024 -0.01855737142659185 
vertex -0.03375842589016322 0.033758425890140095 -0.009264774639818812 
endloop
endfacet
facet normal -0.39162188750201377 0.8326251224042905 -0.3916218875019627 
outer loop
vertex -0.012228464567165828 0.048242606463580015 6.411667803068033e-15 
vertex -0.03375842589016322 0.033758425890140095 -0.009264774639818812 
vertex -0.025531074604367016 0.0419857771759596 1.7302507213409e-14 
endloop
endfacet
facet normal 0.39162188750176624 0.8326251224045278 -0.39162188750170596 
outer loop
vertex 0.01855737142628966 0.030785835992957613 -0.030785835993025593 
vertex 0.009264774639955004 0.03375842589010647 -0.03375842589016234 
vertex 2.220809914187849e-14 0.04198577717600747 -0.025531074604273462 
endloop
endfacet
facet normal 0.3916218875017668 0.8326251224045282 -0.39162188750170474 
outer loop
vertex 0.01855737142628966 0.030785835992957613 -0.030785835993025593 
vertex 2.220809914187849e-14 0.04198577717600747 -0.025531074604273462 
vertex 1.5927332501765438e-14 0.04824260646359655 -0.012228464567141764 
endloop
endfacet
facet normal 0.39162188750176613 0.8326251224045282 -0.39162188750170535 
outer loop
vertex 0.01855737142628966 0.030785835992957613 -0.030785835993025593 
vertex 1.5927332501765438e-14 0.04824260646359655 -0.012228464567141764 
vertex 0.01222846456714051 0.04824260646359079 -2.7528349584800677e-14 
endloop
endfacet
facet normal 0.39162188750176685 0.8326251224045279 -0.3916218875017051 
outer loop
vertex 0.01855737142628966 0.030785835992957613 -0.030785835993025593 
vertex 0.01222846456714051 0.04824260646359079 -2.7528349584800677e-14 
vertex 0.025531074604535898 0.0419857771758674 -5.355881075903066e-14 
endloop
endfacet
facet normal 0.3916218875017662 0.8326251224045282 -0.391621887501705 
outer loop
vertex 0.01855737142628966 0.030785835992957613 -0.030785835993025593 
vertex 0.025531074604535898 0.0419857771758674 -5.355881075903066e-14 
vertex 0.03375842589018556 0.03375842589008138 -0.009264774639981311 
endloop
endfacet
facet normal 0.3916218875017666 0.8326251224045281 -0.3916218875017053 
outer loop
vertex 0.01855737142628966 0.030785835992957613 -0.030785835993025593 
vertex 0.03375842589018556 0.03375842589008138 -0.009264774639981311 
vertex 0.030785835993096516 0.030785835992995877 -0.01855737142613547 
endloop
endfacet
facet normal 0.8326251224050717 0.39162188750063226 -0.3916218875016837 
outer loop
vertex 0.033758425890166525 0.009264774639900528 -0.033758425890136855 
vertex 0.030785835993145407 0.018557371425872514 -0.030785835993122058 
vertex 0.030785835993096516 0.030785835992995877 -0.01855737142613547 
endloop
endfacet
facet normal 0.8326251224050711 0.39162188750063276 -0.3916218875016844 
outer loop
vertex 0.033758425890166525 0.009264774639900528 -0.033758425890136855 
vertex 0.030785835993096516 0.030785835992995877 -0.01855737142613547 
vertex 0.03375842589018556 0.03375842589008138 -0.009264774639981311 
endloop
endfacet
facet normal 0.8326251224050718 0.3916218875006322 -0.3916218875016838 
outer loop
vertex 0.033758425890166525 0.009264774639900528 -0.033758425890136855 
vertex 0.03375842589018556 0.03375842589008138 -0.009264774639981311 
vertex 0.041985777176072166 0.02553107460417247 -6.320692178189164e-14 
endloop
endfacet
facet normal 0.8326251224050715 0.39162188750063265 -0.3916218875016839 
outer loop
vertex 0.033758425890166525 0.009264774639900528 -0.033758425890136855 
vertex 0.041985777176072166 0.02553107460417247 -6.320692178189164e-14 
vertex 0.0482426064635851 0.012228464567165854 -4.864501443577441e-14 
endloop
endfacet
facet normal 0.8326251224050714 0.39162188750063304 -0.3916218875016839 
outer loop
vertex 0.033758425890166525 0.009264774639900528 -0.033758425890136855 
vertex 0.0482426064635851 0.012228464567165854 -4.864501443577441e-14 
vertex 0.0482426064635717 -7.581416722476943e-15 -0.012228464567217753 
endloop
endfacet
facet normal 0.8326251224050717 0.39162188750063137 -0.3916218875016848 
outer loop
vertex 0.033758425890166525 0.009264774639900528 -0.033758425890136855 
vertex 0.0482426064635717 -7.581416722476943e-15 -0.012228464567217753 
vertex 0.04198577717604991 -6.54992288998108e-15 -0.025531074604220987 
endloop
endfacet
facet normal -0.391621887500599 -0.39162188750010557 -0.8326251224058298 
outer loop
vertex -0.018557371425888692 -0.030785835993089254 -0.030785835993125153 
vertex -0.030785835993059736 -0.018557371425910348 -0.030785835993121603 
vertex -0.0337584258901067 -0.009264774639829445 -0.03375842589017411 
endloop
endfacet
facet normal -0.39162188750169863 -0.39162188750076776 -0.8326251224050011 
outer loop
vertex -0.018557371425888692 -0.030785835993089254 -0.030785835993125153 
vertex -0.0337584258901067 -0.009264774639829445 -0.03375842589017411 
vertex -0.025531074604200066 2.523402366323231e-14 -0.04198577717603086 
endloop
endfacet
facet normal -0.39162188750208365 -0.391621887500786 -0.8326251224048113 
outer loop
vertex -0.018557371425888692 -0.030785835993089254 -0.030785835993125153 
vertex -0.025531074604200066 2.523402366323231e-14 -0.04198577717603086 
vertex -0.012228464567174116 1.7428132059126743e-14 -0.048242606463567504 
endloop
endfacet
facet normal -0.39162188750149785 -0.3916218875010045 -0.8326251224049842 
outer loop
vertex -0.018557371425888692 -0.030785835993089254 -0.030785835993125153 
vertex -0.012228464567174116 1.7428132059126743e-14 -0.048242606463567504 
vertex 6.3483103681085e-15 -0.01222846456713284 -0.04824260646358895 
endloop
endfacet
facet normal -0.39162188750083027 -0.391621887501672 -0.8326251224049842 
outer loop
vertex -0.018557371425888692 -0.030785835993089254 -0.030785835993125153 
vertex 6.3483103681085e-15 -0.01222846456713284 -0.04824260646358895 
vertex 6.059382310725386e-15 -0.02553107460432755 -0.041985777175977 
endloop
endfacet
facet normal -0.39162188750083043 -0.3916218875016715 -0.8326251224049843 
outer loop
vertex -0.018557371425888692 -0.030785835993089254 -0.030785835993125153 
vertex 6.059382310725386e-15 -0.02553107460432755 -0.041985777175977 
vertex -0.009264774639908534 -0.03375842589012582 -0.03375842589014244 
endloop
endfacet
facet normal -0.39162188750158006 0.3916218875014866 -0.8326251224047186 
outer loop
vertex -0.01855737142619498 0.030785835992968774 -0.030785835993030145 
vertex -0.009264774639884404 0.0337584258901107 -0.033758425890163264 
vertex 2.1129344200252485e-14 0.025531074604211855 -0.04198577717605 
endloop
endfacet
facet normal -0.39162188750157995 0.39162188750148674 -0.8326251224047186 
outer loop
vertex -0.01855737142619498 0.030785835992968774 -0.030785835993030145 
vertex 2.1129344200252485e-14 0.025531074604211855 -0.04198577717605 
vertex 1.3566278975054172e-14 0.012228464567185883 -0.04824260646357793 
endloop
endfacet
facet normal -0.39162188750158056 0.39162188750148624 -0.8326251224047186 
outer loop
vertex -0.01855737142619498 0.030785835992968774 -0.030785835993030145 
vertex 1.3566278975054172e-14 0.012228464567185883 -0.04824260646357793 
vertex -0.012228464567174116 1.7428132059126743e-14 -0.048242606463567504 
endloop
endfacet
facet normal -0.39162188750158045 0.39162188750148613 -0.8326251224047186 
outer loop
vertex -0.01855737142619498 0.030785835992968774 -0.030785835993030145 
vertex -0.012228464567174116 1.7428132059126743e-14 -0.048242606463567504 
vertex -0.025531074604200066 2.523402366323231e-14 -0.04198577717603086 
endloop
endfacet
facet normal -0.39162188750158045 0.3916218875014862 -0.8326251224047186 
outer loop
vertex -0.01855737142619498 0.030785835992968774 -0.030785835993030145 
vertex -0.025531074604200066 2.523402366323231e-14 -0.04198577717603086 
vertex -0.033758425890083474 0.009264774639927732 -0.033758425890152925 
endloop
endfacet
facet normal -0.39162188750158067 0.39162188750148635 -0.8326251224047185 
outer loop
vertex -0.01855737142619498 0.030785835992968774 -0.030785835993030145 
vertex -0.033758425890083474 0.009264774639927732 -0.033758425890152925 
vertex -0.030785835993062463 0.018557371425889403 -0.03078583599312842 
endloop
endfacet
facet normal 0.391621887501056 0.39162188750027904 -0.832625122405533 
outer loop
vertex 0.01855737142628966 0.030785835992957613 -0.030785835993025593 
vertex 0.030785835993145407 0.018557371425872514 -0.030785835993122058 
vertex 0.033758425890166525 0.009264774639900528 -0.033758425890136855 
endloop
endfacet
facet normal 0.3916218875016967 0.39162188750066496 -0.8326251224050503 
outer loop
vertex 0.01855737142628966 0.030785835992957613 -0.030785835993025593 
vertex 0.033758425890166525 0.009264774639900528 -0.033758425890136855 
vertex 0.02553107460436477 -8.260707431879495e-16 -0.04198577717596458 
endloop
endfacet
facet normal 0.3916218875019218 0.39162188750067567 -0.8326251224049395 
outer loop
vertex 0.01855737142628966 0.030785835992957613 -0.030785835993025593 
vertex 0.02553107460436477 -8.260707431879495e-16 -0.04198577717596458 
vertex 0.012228464567124647 4.9462860732045755e-15 -0.04824260646359937 
endloop
endfacet
facet normal 0.39162188750158056 0.39162188750080285 -0.83262512240504 
outer loop
vertex 0.01855737142628966 0.030785835992957613 -0.030785835993025593 
vertex 0.012228464567124647 4.9462860732045755e-15 -0.04824260646359937 
vertex 1.3566278975054172e-14 0.012228464567185883 -0.04824260646357793 
endloop
endfacet
facet normal 0.3916218875011908 0.3916218875011926 -0.83262512240504 
outer loop
vertex 0.01855737142628966 0.030785835992957613 -0.030785835993025593 
vertex 1.3566278975054172e-14 0.012228464567185883 -0.04824260646357793 
vertex 2.1129344200252485e-14 0.025531074604211855 -0.04198577717605 
endloop
endfacet
facet normal 0.3916218875011911 0.3916218875011919 -0.8326251224050402 
outer loop
vertex 0.01855737142628966 0.030785835992957613 -0.030785835993025593 
vertex 2.1129344200252485e-14 0.025531074604211855 -0.04198577717605 
vertex 0.009264774639955004 0.03375842589010647 -0.03375842589016234 
endloop
endfacet
facet normal 0.3916218875014827 -0.39162188750156773 -0.8326251224047264 
outer loop
vertex 6.059382310725386e-15 -0.02553107460432755 -0.041985777175977 
vertex 6.3483103681085e-15 -0.01222846456713284 -0.04824260646358895 
vertex 0.012228464567124647 4.9462860732045755e-15 -0.04824260646359937 
endloop
endfacet
facet normal 0.3916218875014819 -0.39162188750156746 -0.8326251224047269 
outer loop
vertex 6.059382310725386e-15 -0.02553107460432755 -0.041985777175977 
vertex 0.012228464567124647 4.9462860732045755e-15 -0.04824260646359937 
vertex 0.02553107460436477 -8.260707431879495e-16 -0.04198577717596458 
endloop
endfacet
facet normal 0.3916218875014821 -0.3916218875015677 -0.8326251224047267 
outer loop
vertex 6.059382310725386e-15 -0.02553107460432755 -0.041985777175977 
vertex 0.02553107460436477 -8.260707431879495e-16 -0.04198577717596458 
vertex 0.03375842589016409 -0.00926477463988963 -0.03375842589013278 
endloop
endfacet
facet normal 0.3916218875014819 -0.3916218875015672 -0.8326251224047271 
outer loop
vertex 6.059382310725386e-15 -0.02553107460432755 -0.041985777175977 
vertex 0.03375842589016409 -0.00926477463988963 -0.03375842589013278 
vertex 0.030785835993126273 -0.018557371425883894 -0.030785835993099628 
endloop
endfacet
facet normal 0.39162188750148197 -0.39162188750156807 -0.8326251224047265 
outer loop
vertex 6.059382310725386e-15 -0.02553107460432755 -0.041985777175977 
vertex 0.030785835993126273 -0.018557371425883894 -0.030785835993099628 
vertex 0.01855737142624634 -0.030785835992976032 -0.030785835992998552 
endloop
endfacet
facet normal 0.3916218875014825 -0.39162188750156673 -0.8326251224047267 
outer loop
vertex 6.059382310725386e-15 -0.02553107460432755 -0.041985777175977 
vertex 0.01855737142624634 -0.030785835992976032 -0.030785835992998552 
vertex 0.009264774639901325 -0.03375842589013059 -0.033758425890140525 
endloop
endfacet
facet normal 2.171088750772896e-12 -0.7071067811864878 0.7071067811866073 
outer loop
vertex -0.009264774639828818 -0.03375842589015335 0.033758425890167774 
vertex -4.487400550954192e-15 -0.041985777175976714 0.02553107460431735 
vertex 0.009264774639922053 -0.033758425890122554 0.03375842589014168 
endloop
endfacet
facet normal 2.1710572722241053e-12 -0.7071067811864878 0.7071067811866071 
outer loop
vertex -0.009264774639828818 -0.03375842589015335 0.033758425890167774 
vertex 0.009264774639922053 -0.033758425890122554 0.03375842589014168 
vertex -1.8025225179047707e-14 -0.02553107460430917 0.04198577717598212 
endloop
endfacet
facet normal -0.5773502691943473 -0.5773502691898869 0.5773502691846434 
outer loop
vertex -0.018557371426471462 -0.03078583599291297 0.03078583599292324 
vertex -0.030785835992969853 -0.01855737142624776 0.03078583599299559 
vertex -0.030785835993118273 -0.03078583599309235 0.01855737142589152 
endloop
endfacet
facet normal -0.7071067811866049 -0.7071067811864902 -6.51238620006628e-14 
outer loop
vertex -0.025531074604255237 -0.0419857771760189 -3.0449899122925814e-14 
vertex -0.03375842589014802 -0.03375842589012564 0.009264774639900426 
vertex -0.041985777176000244 -0.02553107460427123 -2.0340815801488956e-14 
endloop
endfacet
facet normal -0.7071067811866046 -0.7071067811864903 -6.462097503556992e-14 
outer loop
vertex -0.025531074604255237 -0.0419857771760189 -3.0449899122925814e-14 
vertex -0.041985777176000244 -0.02553107460427123 -2.0340815801488956e-14 
vertex -0.03375842589014206 -0.0337584258901299 -0.009264774639927817 
endloop
endfacet
facet normal -1.47306871403557e-12 -1.0 -2.1488872188207005e-12 
outer loop
vertex 0.012228464567072826 -0.04824260646360425 -3.3494649128659295e-14 
vertex -1.3464583153705843e-14 -0.04824260646361252 0.012228464567056197 
vertex -0.012228464567197424 -0.048242606463568226 -3.7117834278081145e-14 
endloop
endfacet
facet normal -1.47306871403557e-12 -1.0 -2.1483197809438345e-12 
outer loop
vertex 0.012228464567072826 -0.04824260646360425 -3.3494649128659295e-14 
vertex -0.012228464567197424 -0.048242606463568226 -3.7117834278081145e-14 
vertex -1.2548329103779617e-14 -0.04824260646355997 -0.012228464567225766 
endloop
endfacet
facet normal 1.0 4.794850012837779e-14 -1.1442384675863957e-12 
outer loop
vertex 0.0482426064635851 0.012228464567165854 -4.864501443577441e-14 
vertex 0.04824260646359968 -9.346864337525128e-15 0.012228464567092414 
vertex 0.048242606463586274 -0.012228464567158728 -2.816637508158837e-14 
endloop
endfacet
facet normal 1.0 4.7948500128378276e-14 -1.1436710297105968e-12 
outer loop
vertex 0.0482426064635851 0.012228464567165854 -4.864501443577441e-14 
vertex 0.048242606463586274 -0.012228464567158728 -2.816637508158837e-14 
vertex 0.0482426064635717 -7.581416722476943e-15 -0.012228464567217753 
endloop
endfacet
facet normal 0.7071067811899566 0.7071067811831384 -4.352549545198002e-12 
outer loop
vertex 0.041985777176072166 0.02553107460417247 -6.320692178189164e-14 
vertex 0.03375842589018556 0.03375842589008138 -0.009264774639981311 
vertex 0.025531074604535898 0.0419857771758674 -5.355881075903066e-14 
endloop
endfacet
facet normal 0.7071067811899566 0.7071067811831384 -4.353366736600759e-12 
outer loop
vertex 0.041985777176072166 0.02553107460417247 -6.320692178189164e-14 
vertex 0.025531074604535898 0.0419857771758674 -5.355881075903066e-14 
vertex 0.0337584258902208 0.033758425890160204 0.00926477463968533 
endloop
endfacet
facet normal 0.577350269182579 0.5773502691941114 0.5773502691921867 
outer loop
vertex 0.018557371425894 0.030785835993116215 0.030785835993102875 
vertex 0.03078583599286018 0.018557371426613137 0.03078583599288403 
vertex 0.03078583599289917 0.03078583599288583 0.018557371426531584 
endloop
endfacet
facet normal 0.707106781185854 -2.8274819621984073e-12 0.707106781187241 
outer loop
vertex 0.03375842589012355 -0.009264774639921515 0.0337584258901451 
vertex 0.041985777175950714 -1.0235894626025132e-14 0.02553107460437112 
vertex 0.03375842589015767 0.009264774639788372 0.03375842589018507 
endloop
endfacet
facet normal 0.707106781185853 -2.8274850046179095e-12 0.707106781187242 
outer loop
vertex 0.03375842589012355 -0.009264774639921515 0.0337584258901451 
vertex 0.03375842589015767 0.009264774639788372 0.03375842589018507 
vertex 0.025531074604298938 1.7750082206412872e-14 0.0419857771759906 
endloop
endfacet
facet normal 0.7071067811881522 -0.7071067811849429 3.6490735416476547e-13 
outer loop
vertex 0.025531074604340707 -0.0419857771759538 -2.288526908702959e-14 
vertex 0.03375842589015867 -0.03375842589010328 -0.009264774639915737 
vertex 0.041985777176069126 -0.0255310746041507 -2.0450804178425734e-14 
endloop
endfacet
facet normal 0.7071067811881523 -0.7071067811849429 3.6497021503387785e-13 
outer loop
vertex 0.025531074604340707 -0.0419857771759538 -2.288526908702959e-14 
vertex 0.041985777176069126 -0.0255310746041507 -2.0450804178425734e-14 
vertex 0.03375842589014731 -0.033758425890105075 0.009264774639911615 
endloop
endfacet
facet normal 0.5773502691897958 -0.5773502691890435 0.577350269190038 
outer loop
vertex 0.030785835993098917 -0.018557371425897834 0.03078583599311106 
vertex 0.018557371425956468 -0.030785835993073794 0.03078583599309348 
vertex 0.030785835993080483 -0.030785835993050636 0.01855737142599775 
endloop
endfacet
facet normal -0.7071067811818428 2.2330695692027698e-12 0.7071067811912523 
outer loop
vertex -0.03375842589012354 -0.009264774639767317 0.033758425890198486 
vertex -0.0255310746040532 6.770408642750472e-14 0.041985777176130085 
vertex -0.03375842589007854 0.009264774639954194 0.03375842589018497 
endloop
endfacet
facet normal -0.707106781181843 2.2330193897584448e-12 0.7071067811912519 
outer loop
vertex -0.03375842589012354 -0.009264774639767317 0.033758425890198486 
vertex -0.03375842589007854 0.009264774639954194 0.03375842589018497 
vertex -0.0419857771758123 5.6513763874869654e-14 0.025531074604589945 
endloop
endfacet
facet normal -4.8161289331286e-12 3.823112658279604e-12 1.0 
outer loop
vertex -4.191875637379021e-14 0.01222846456719466 0.04824260646359024 
vertex -0.012228464567217717 7.583175901235216e-14 0.0482426064635781 
vertex -4.309460138154422e-14 -0.01222846456688719 0.048242606463683745 
endloop
endfacet
facet normal -4.8149940574315415e-12 3.8231126582796035e-12 1.0 
outer loop
vertex -4.191875637379021e-14 0.01222846456719466 0.04824260646359024 
vertex -4.309460138154422e-14 -0.01222846456688719 0.048242606463683745 
vertex 0.012228464566874068 5.190559138900262e-14 0.048242606463695874 
endloop
endfacet
facet normal 0.5773502691916447 -0.5773502691863979 -0.5773502691908347 
outer loop
vertex 0.030785835993036192 -0.030785835992979977 -0.0185573714261876 
vertex 0.01855737142624634 -0.030785835992976032 -0.030785835992998552 
vertex 0.030785835993126273 -0.018557371425883894 -0.030785835993099628 
endloop
endfacet
facet normal 0.7071067811878036 -2.4823757822608504e-13 -0.7071067811852916 
outer loop
vertex 0.04198577717604991 -6.54992288998108e-15 -0.025531074604220987 
vertex 0.03375842589016409 -0.00926477463988963 -0.03375842589013278 
vertex 0.02553107460436477 -8.260707431879495e-16 -0.04198577717596458 
endloop
endfacet
facet normal 0.7071067811878033 -2.485518825788818e-13 -0.7071067811852917 
outer loop
vertex 0.04198577717604991 -6.54992288998108e-15 -0.025531074604220987 
vertex 0.02553107460436477 -8.260707431879495e-16 -0.04198577717596458 
vertex 0.033758425890166525 0.009264774639900528 -0.033758425890136855 
endloop
endfacet
facet normal 1.6206789672817665e-12 0.7071067811866498 0.7071067811864452 
outer loop
vertex -1.5570249213743818e-14 0.02553107460428736 0.04198577717601385 
vertex 0.00926477463991741 0.03375842589014541 0.033758425890132185 
vertex 7.680121576486657e-15 0.041985777176011596 0.025531074604284852 
endloop
endfacet
facet normal 1.6204275238114996e-12 0.7071067811866498 0.7071067811864452 
outer loop
vertex -1.5570249213743818e-14 0.02553107460428736 0.04198577717601385 
vertex 7.680121576486657e-15 0.041985777176011596 0.025531074604284852 
vertex -0.009264774639854624 0.03375842589015235 0.03375842589016771 
endloop
endfacet
facet normal -1.0925219320210048e-13 -0.7071067811880458 -0.7071067811850491 
outer loop
vertex 6.059382310725386e-15 -0.02553107460432755 -0.041985777175977 
vertex 0.009264774639901325 -0.03375842589013059 -0.033758425890140525 
vertex -2.5744089097528765e-15 -0.04198577717605304 -0.025531074604181775 
endloop
endfacet
facet normal -1.0849786275408959e-13 -0.7071067811880458 -0.7071067811850491 
outer loop
vertex 6.059382310725386e-15 -0.02553107460432755 -0.041985777175977 
vertex -2.5744089097528765e-15 -0.04198577717605304 -0.025531074604181775 
vertex -0.009264774639908534 -0.03375842589012582 -0.03375842589014244 
endloop
endfacet
facet normal -1.0 1.507398705251147e-12 -1.1317548344191376e-12 
outer loop
vertex -0.04824260646354749 0.012228464567224219 2.0923163835557557e-15 
vertex -0.048242606463552086 4.166080665977509e-14 -0.012228464567146838 
vertex -0.04824260646358436 -0.012228464567086109 -1.499224679975761e-14 
endloop
endfacet
facet normal -1.0 1.5073987052511472e-12 -1.1323222722902812e-12 
outer loop
vertex -0.04824260646354749 0.012228464567224219 2.0923163835557557e-15 
vertex -0.04824260646358436 -0.012228464567086109 -1.499224679975761e-14 
vertex -0.04824260646357977 5.133968068274037e-14 0.012228464567076158 
endloop
endfacet
facet normal -0.5773502691906007 0.5773502691833944 0.5773502691948821 
outer loop
vertex -0.03078583599287813 0.03078583599286706 0.01855737142663498 
vertex -0.030785835993067407 0.018557371425913252 0.0307858359931562 
vertex -0.018557371426347488 0.03078583599294904 0.030785835992992963 
endloop
endfacet
facet normal -0.7071067811885755 0.7071067811845194 1.822273779474624e-12 
outer loop
vertex -0.0419857771760558 0.02553107460417644 1.5329014602591168e-14 
vertex -0.03375842589013826 0.03375842589011729 0.009264774639955353 
vertex -0.025531074604367016 0.0419857771759596 1.7302507213409e-14 
endloop
endfacet
facet normal -0.7071067811885754 0.7071067811845195 1.823468136037557e-12 
outer loop
vertex -0.0419857771760558 0.02553107460417644 1.5329014602591168e-14 
vertex -0.025531074604367016 0.0419857771759596 1.7302507213409e-14 
vertex -0.03375842589016322 0.033758425890140095 -0.009264774639818812 
endloop
endfacet
facet normal -0.5773502691882033 -0.5773502691876645 -0.5773502691930094 
outer loop
vertex -0.030785835993059736 -0.018557371425910348 -0.030785835993121603 
vertex -0.018557371425888692 -0.030785835993089254 -0.030785835993125153 
vertex -0.030785835993016538 -0.030785835993011088 -0.01855737142617727 
endloop
endfacet
facet normal -0.7071067811853581 1.6946662120493335e-12 -0.707106781187737 
outer loop
vertex -0.033758425890083474 0.009264774639927732 -0.033758425890152925 
vertex -0.025531074604200066 2.523402366323231e-14 -0.04198577717603086 
vertex -0.0337584258901067 -0.009264774639829445 -0.03375842589017411 
endloop
endfacet
facet normal -0.7071067811853575 1.6946903942222918e-12 -0.7071067811877375 
outer loop
vertex -0.033758425890083474 0.009264774639927732 -0.033758425890152925 
vertex -0.0337584258901067 -0.009264774639829445 -0.03375842589017411 
vertex -0.04198577717591769 3.6305825796342386e-14 -0.025531074604368605 
endloop
endfacet
facet normal -4.411829449742182e-13 1.0 9.121563781995053e-13 
outer loop
vertex 8.968954852397374e-15 0.04824260646357424 0.012228464567195094 
vertex 0.01222846456714051 0.04824260646359079 -2.7528349584800677e-14 
vertex 1.5927332501765438e-14 0.04824260646359655 -0.012228464567141764 
endloop
endfacet
facet normal -4.400480692352551e-13 1.0 9.121563781995055e-13 
outer loop
vertex 8.968954852397374e-15 0.04824260646357424 0.012228464567195094 
vertex 1.5927332501765438e-14 0.04824260646359655 -0.012228464567141764 
vertex -0.012228464567165828 0.048242606463580015 6.411667803068033e-15 
endloop
endfacet
facet normal -0.5773502691894403 0.5773502691840762 -0.5773502691953608 
outer loop
vertex -0.030785835993062463 0.018557371425889403 -0.03078583599312842 
vertex -0.03078583599287142 0.030785835992856024 -0.01855737142659185 
vertex -0.01855737142619498 0.030785835992968774 -0.030785835993030145 
endloop
endfacet
facet normal 1.9637735993244492e-13 0.7071067811861377 -0.7071067811869572 
outer loop
vertex 2.1129344200252485e-14 0.025531074604211855 -0.04198577717605 
vertex -0.009264774639884404 0.0337584258901107 -0.033758425890163264 
vertex 2.220809914187849e-14 0.04198577717600747 -0.025531074604273462 
endloop
endfacet
facet normal 1.9713169037974878e-13 0.7071067811861378 -0.7071067811869574 
outer loop
vertex 2.1129344200252485e-14 0.025531074604211855 -0.04198577717605 
vertex 2.220809914187849e-14 0.04198577717600747 -0.025531074604273462 
vertex 0.009264774639955004 0.03375842589010647 -0.03375842589016234 
endloop
endfacet
facet normal 0.5773502691924254 0.5773502691861514 -0.5773502691903007 
outer loop
vertex 0.030785835993145407 0.018557371425872514 -0.030785835993122058 
vertex 0.01855737142628966 0.030785835992957613 -0.030785835993025593 
vertex 0.030785835993096516 0.030785835992995877 -0.01855737142613547 
endloop
endfacet
facet normal -1.3028373526278353e-12 4.499782319866227e-13 -1.0 
outer loop
vertex -0.012228464567174116 1.7428132059126743e-14 -0.048242606463567504 
vertex 1.3566278975054172e-14 0.012228464567185883 -0.04824260646357793 
vertex 0.012228464567124647 4.9462860732045755e-15 -0.04824260646359937 
endloop
endfacet
facet normal -1.3028373526278347e-12 4.5111310772306686e-13 -1.0 
outer loop
vertex -0.012228464567174116 1.7428132059126743e-14 -0.048242606463567504 
vertex 0.012228464567124647 4.9462860732045755e-15 -0.04824260646359937 
vertex 6.3483103681085e-15 -0.01222846456713284 -0.04824260646358895 
endloop
endfacet
endsolid test2
