solid test
facet normal -0.5000000000000002 -0.4999999999999999 -0.7071067811865475 
outer loop
vertex -0.4714045207910318 -0.4714045207910316 -0.3333333333333333 
vertex -5.551115123125783e-17 5.551115123125783e-17 -1.0 
vertex -2.59786816870648e-16 -1.4142135623730951 0.0 
endloop
endfacet
facet normal -0.5000000000000001 -0.4999999999999999 -0.7071067811865477 
outer loop
vertex -0.4714045207910318 -0.4714045207910316 -0.3333333333333333 
vertex -2.59786816870648e-16 -1.4142135623730951 0.0 
vertex -1.4142135623730951 1.7319121124709868e-16 0.0 
endloop
endfacet
facet normal -0.5 -0.49999999999999994 -0.7071067811865476 
outer loop
vertex -0.4714045207910318 -0.4714045207910316 -0.3333333333333333 
vertex -1.4142135623730951 1.7319121124709868e-16 0.0 
vertex -5.551115123125783e-17 5.551115123125783e-17 -1.0 
endloop
endfacet
facet normal -0.49999999999999994 0.5000000000000002 -0.7071067811865476 
outer loop
vertex -0.47140452079103173 0.4714045207910318 -0.3333333333333333 
vertex -5.551115123125783e-17 5.551115123125783e-17 -1.0 
vertex -1.4142135623730951 1.7319121124709868e-16 0.0 
endloop
endfacet
facet normal -0.49999999999999994 0.5 -0.7071067811865475 
outer loop
vertex -0.47140452079103173 0.4714045207910318 -0.3333333333333333 
vertex -1.4142135623730951 1.7319121124709868e-16 0.0 
vertex 8.659560562354934e-17 1.4142135623730951 0.0 
endloop
endfacet
facet normal -0.4999999999999999 0.5 -0.7071067811865476 
outer loop
vertex -0.47140452079103173 0.4714045207910318 -0.3333333333333333 
vertex 8.659560562354934e-17 1.4142135623730951 0.0 
vertex -5.551115123125783e-17 5.551115123125783e-17 -1.0 
endloop
endfacet
facet normal 0.5000000000000002 0.49999999999999994 -0.7071067811865476 
outer loop
vertex 0.47140452079103173 0.47140452079103173 -0.3333333333333333 
vertex -5.551115123125783e-17 5.551115123125783e-17 -1.0 
vertex 8.659560562354934e-17 1.4142135623730951 0.0 
endloop
endfacet
facet normal 0.49999999999999994 0.49999999999999994 -0.7071067811865477 
outer loop
vertex 0.47140452079103173 0.47140452079103173 -0.3333333333333333 
vertex 8.659560562354934e-17 1.4142135623730951 0.0 
vertex 1.4142135623730951 0.0 0.0 
endloop
endfacet
facet normal 0.5 0.49999999999999994 -0.7071067811865476 
outer loop
vertex 0.47140452079103173 0.47140452079103173 -0.3333333333333333 
vertex 1.4142135623730951 0.0 0.0 
vertex -5.551115123125783e-17 5.551115123125783e-17 -1.0 
endloop
endfacet
facet normal 0.4999999999999999 -0.5000000000000001 -0.7071067811865475 
outer loop
vertex 0.4714045207910316 -0.47140452079103173 -0.3333333333333333 
vertex -5.551115123125783e-17 5.551115123125783e-17 -1.0 
vertex 1.4142135623730951 0.0 0.0 
endloop
endfacet
facet normal 0.4999999999999999 -0.5 -0.7071067811865476 
outer loop
vertex 0.4714045207910316 -0.47140452079103173 -0.3333333333333333 
vertex 1.4142135623730951 0.0 0.0 
vertex -2.59786816870648e-16 -1.4142135623730951 0.0 
endloop
endfacet
facet normal 0.4999999999999999 -0.5000000000000001 -0.7071067811865476 
outer loop
vertex 0.4714045207910316 -0.47140452079103173 -0.3333333333333333 
vertex -2.59786816870648e-16 -1.4142135623730951 0.0 
vertex -5.551115123125783e-17 5.551115123125783e-17 -1.0 
endloop
endfacet
facet normal 0.5000000000000001 0.4999999999999998 0.7071067811865476 
outer loop
vertex 0.47140452079103173 0.47140452079103173 2.3333333333333335 
vertex -6.4946704217662e-17 5.551115123125783e-17 3.0 
vertex 1.4142135623730951 0.0 2.0 
endloop
endfacet
facet normal 0.5000000000000001 0.5000000000000001 0.7071067811865474 
outer loop
vertex 0.47140452079103173 0.47140452079103173 2.3333333333333335 
vertex 1.4142135623730951 0.0 2.0 
vertex 8.659560562354934e-17 1.4142135623730951 2.0 
endloop
endfacet
facet normal 0.49999999999999983 0.5000000000000001 0.7071067811865477 
outer loop
vertex 0.47140452079103173 0.47140452079103173 2.3333333333333335 
vertex 8.659560562354934e-17 1.4142135623730951 2.0 
vertex -6.4946704217662e-17 5.551115123125783e-17 3.0 
endloop
endfacet
facet normal -0.4999999999999998 0.5000000000000001 0.7071067811865477 
outer loop
vertex -0.47140452079103173 0.4714045207910318 2.3333333333333335 
vertex -6.4946704217662e-17 5.551115123125783e-17 3.0 
vertex 8.659560562354934e-17 1.4142135623730951 2.0 
endloop
endfacet
facet normal -0.5000000000000001 0.5000000000000001 0.7071067811865474 
outer loop
vertex -0.47140452079103173 0.4714045207910318 2.3333333333333335 
vertex 8.659560562354934e-17 1.4142135623730951 2.0 
vertex -1.4142135623730951 1.7319121124709868e-16 2.0 
endloop
endfacet
facet normal -0.5000000000000001 0.49999999999999983 0.7071067811865477 
outer loop
vertex -0.47140452079103173 0.4714045207910318 2.3333333333333335 
vertex -1.4142135623730951 1.7319121124709868e-16 2.0 
vertex -6.4946704217662e-17 5.551115123125783e-17 3.0 
endloop
endfacet
facet normal -0.5000000000000001 -0.49999999999999983 0.7071067811865476 
outer loop
vertex -0.4714045207910318 -0.4714045207910316 2.3333333333333335 
vertex -6.4946704217662e-17 5.551115123125783e-17 3.0 
vertex -1.4142135623730951 1.7319121124709868e-16 2.0 
endloop
endfacet
facet normal -0.5000000000000001 -0.49999999999999994 0.7071067811865475 
outer loop
vertex -0.4714045207910318 -0.4714045207910316 2.3333333333333335 
vertex -1.4142135623730951 1.7319121124709868e-16 2.0 
vertex -2.59786816870648e-16 -1.4142135623730951 2.0 
endloop
endfacet
facet normal -0.5 -0.4999999999999999 0.7071067811865476 
outer loop
vertex -0.4714045207910318 -0.4714045207910316 2.3333333333333335 
vertex -2.59786816870648e-16 -1.4142135623730951 2.0 
vertex -6.4946704217662e-17 5.551115123125783e-17 3.0 
endloop
endfacet
facet normal 0.4999999999999997 -0.5000000000000001 0.7071067811865477 
outer loop
vertex 0.4714045207910316 -0.47140452079103173 2.3333333333333335 
vertex -6.4946704217662e-17 5.551115123125783e-17 3.0 
vertex -2.59786816870648e-16 -1.4142135623730951 2.0 
endloop
endfacet
facet normal 0.5000000000000001 -0.5000000000000002 0.7071067811865472 
outer loop
vertex 0.4714045207910316 -0.47140452079103173 2.3333333333333335 
vertex -2.59786816870648e-16 -1.4142135623730951 2.0 
vertex 1.4142135623730951 0.0 2.0 
endloop
endfacet
facet normal 0.5 -0.49999999999999994 0.7071067811865476 
outer loop
vertex 0.4714045207910316 -0.47140452079103173 2.3333333333333335 
vertex 1.4142135623730951 0.0 2.0 
vertex -6.4946704217662e-17 5.551115123125783e-17 3.0 
endloop
endfacet
facet normal -0.5000000000000002 -0.49999999999999983 -0.7071067811865475 
outer loop
vertex -0.9428090415820637 -0.9428090415820632 0.3333333333333333 
vertex -1.4142135623730954 -1.414213562373095 1.0 
vertex -1.4142135623730951 1.7319121124709868e-16 0.0 
endloop
endfacet
facet normal -0.5000000000000001 -0.4999999999999999 -0.7071067811865476 
outer loop
vertex -0.9428090415820637 -0.9428090415820632 0.3333333333333333 
vertex -1.4142135623730951 1.7319121124709868e-16 0.0 
vertex -2.59786816870648e-16 -1.4142135623730951 0.0 
endloop
endfacet
facet normal -0.5 -0.49999999999999994 -0.7071067811865475 
outer loop
vertex -0.9428090415820637 -0.9428090415820632 0.3333333333333333 
vertex -2.59786816870648e-16 -1.4142135623730951 0.0 
vertex -1.4142135623730954 -1.414213562373095 1.0 
endloop
endfacet
facet normal 0.0 -1.0 2.220446049250313e-16 
outer loop
vertex -0.47140452079103196 -1.414213562373095 1.0 
vertex -1.4142135623730954 -1.414213562373095 1.0 
vertex -2.59786816870648e-16 -1.4142135623730951 0.0 
endloop
endfacet
facet normal -4.710277376051325e-16 -1.0 0.0 
outer loop
vertex -0.47140452079103196 -1.414213562373095 1.0 
vertex -2.59786816870648e-16 -1.4142135623730951 0.0 
vertex -2.59786816870648e-16 -1.4142135623730951 2.0 
endloop
endfacet
facet normal 0.0 -1.0 -2.220446049250313e-16 
outer loop
vertex -0.47140452079103196 -1.414213562373095 1.0 
vertex -2.59786816870648e-16 -1.4142135623730951 2.0 
vertex -1.4142135623730954 -1.414213562373095 1.0 
endloop
endfacet
facet normal -0.5 -0.49999999999999994 0.7071067811865475 
outer loop
vertex -0.9428090415820636 -0.9428090415820632 1.6666666666666667 
vertex -1.4142135623730954 -1.414213562373095 1.0 
vertex -2.59786816870648e-16 -1.4142135623730951 2.0 
endloop
endfacet
facet normal -0.5 -0.49999999999999983 0.7071067811865476 
outer loop
vertex -0.9428090415820636 -0.9428090415820632 1.6666666666666667 
vertex -2.59786816870648e-16 -1.4142135623730951 2.0 
vertex -1.4142135623730951 1.7319121124709868e-16 2.0 
endloop
endfacet
facet normal -0.5000000000000001 -0.4999999999999999 0.7071067811865476 
outer loop
vertex -0.9428090415820636 -0.9428090415820632 1.6666666666666667 
vertex -1.4142135623730951 1.7319121124709868e-16 2.0 
vertex -1.4142135623730954 -1.414213562373095 1.0 
endloop
endfacet
facet normal -1.0 2.3551386880256624e-16 -1.1102230246251568e-16 
outer loop
vertex -1.4142135623730951 -0.4714045207910315 1.0 
vertex -1.4142135623730954 -1.414213562373095 1.0 
vertex -1.4142135623730951 1.7319121124709868e-16 2.0 
endloop
endfacet
facet normal -1.0 0.0 -0.0 
outer loop
vertex -1.4142135623730951 -0.4714045207910315 1.0 
vertex -1.4142135623730951 1.7319121124709868e-16 2.0 
vertex -1.4142135623730951 1.7319121124709868e-16 0.0 
endloop
endfacet
facet normal -1.0 2.3551386880256624e-16 1.1102230246251564e-16 
outer loop
vertex -1.4142135623730951 -0.4714045207910315 1.0 
vertex -1.4142135623730951 1.7319121124709868e-16 0.0 
vertex -1.4142135623730954 -1.414213562373095 1.0 
endloop
endfacet
facet normal -0.49999999999999994 0.5 -0.7071067811865475 
outer loop
vertex -0.9428090415820632 0.9428090415820636 0.3333333333333333 
vertex -1.414213562373095 1.4142135623730954 1.0 
vertex 8.659560562354934e-17 1.4142135623730951 0.0 
endloop
endfacet
facet normal -0.49999999999999994 0.5 -0.7071067811865476 
outer loop
vertex -0.9428090415820632 0.9428090415820636 0.3333333333333333 
vertex 8.659560562354934e-17 1.4142135623730951 0.0 
vertex -1.4142135623730951 1.7319121124709868e-16 0.0 
endloop
endfacet
facet normal -0.4999999999999999 0.5000000000000001 -0.7071067811865476 
outer loop
vertex -0.9428090415820632 0.9428090415820636 0.3333333333333333 
vertex -1.4142135623730951 1.7319121124709868e-16 0.0 
vertex -1.414213562373095 1.4142135623730954 1.0 
endloop
endfacet
facet normal -1.0 0.0 2.220446049250313e-16 
outer loop
vertex -1.414213562373095 0.47140452079103196 1.0 
vertex -1.414213562373095 1.4142135623730954 1.0 
vertex -1.4142135623730951 1.7319121124709868e-16 0.0 
endloop
endfacet
facet normal -1.0 4.710277376051324e-16 0.0 
outer loop
vertex -1.414213562373095 0.47140452079103196 1.0 
vertex -1.4142135623730951 1.7319121124709868e-16 0.0 
vertex -1.4142135623730951 1.7319121124709868e-16 2.0 
endloop
endfacet
facet normal -1.0 0.0 -2.220446049250313e-16 
outer loop
vertex -1.414213562373095 0.47140452079103196 1.0 
vertex -1.4142135623730951 1.7319121124709868e-16 2.0 
vertex -1.414213562373095 1.4142135623730954 1.0 
endloop
endfacet
facet normal -0.49999999999999994 0.5 0.7071067811865475 
outer loop
vertex -0.9428090415820632 0.9428090415820636 1.6666666666666667 
vertex -1.414213562373095 1.4142135623730954 1.0 
vertex -1.4142135623730951 1.7319121124709868e-16 2.0 
endloop
endfacet
facet normal -0.49999999999999994 0.5000000000000001 0.7071067811865476 
outer loop
vertex -0.9428090415820632 0.9428090415820636 1.6666666666666667 
vertex -1.4142135623730951 1.7319121124709868e-16 2.0 
vertex 8.659560562354934e-17 1.4142135623730951 2.0 
endloop
endfacet
facet normal -0.49999999999999994 0.5000000000000002 0.7071067811865475 
outer loop
vertex -0.9428090415820632 0.9428090415820636 1.6666666666666667 
vertex 8.659560562354934e-17 1.4142135623730951 2.0 
vertex -1.414213562373095 1.4142135623730954 1.0 
endloop
endfacet
facet normal 2.3551386880256624e-16 1.0 -1.1102230246251563e-16 
outer loop
vertex -0.4714045207910316 1.4142135623730951 1.0 
vertex -1.414213562373095 1.4142135623730954 1.0 
vertex 8.659560562354934e-17 1.4142135623730951 2.0 
endloop
endfacet
facet normal 0.0 1.0 0.0 
outer loop
vertex -0.4714045207910316 1.4142135623730951 1.0 
vertex 8.659560562354934e-17 1.4142135623730951 2.0 
vertex 8.659560562354934e-17 1.4142135623730951 0.0 
endloop
endfacet
facet normal 2.3551386880256634e-16 1.0 1.110223024625157e-16 
outer loop
vertex -0.4714045207910316 1.4142135623730951 1.0 
vertex 8.659560562354934e-17 1.4142135623730951 0.0 
vertex -1.414213562373095 1.4142135623730954 1.0 
endloop
endfacet
facet normal 0.5000000000000002 0.49999999999999994 -0.7071067811865476 
outer loop
vertex 0.9428090415820635 0.9428090415820635 0.3333333333333333 
vertex 1.4142135623730951 1.4142135623730951 1.0 
vertex 1.4142135623730951 0.0 0.0 
endloop
endfacet
facet normal 0.5 0.5 -0.7071067811865476 
outer loop
vertex 0.9428090415820635 0.9428090415820635 0.3333333333333333 
vertex 1.4142135623730951 0.0 0.0 
vertex 8.659560562354934e-17 1.4142135623730951 0.0 
endloop
endfacet
facet normal 0.5 0.5 -0.7071067811865476 
outer loop
vertex 0.9428090415820635 0.9428090415820635 0.3333333333333333 
vertex 8.659560562354934e-17 1.4142135623730951 0.0 
vertex 1.4142135623730951 1.4142135623730951 1.0 
endloop
endfacet
facet normal 0.0 1.0 0.0 
outer loop
vertex 0.47140452079103173 1.4142135623730951 1.0 
vertex 1.4142135623730951 1.4142135623730951 1.0 
vertex 8.659560562354934e-17 1.4142135623730951 0.0 
endloop
endfacet
facet normal 0.0 1.0 0.0 
outer loop
vertex 0.47140452079103173 1.4142135623730951 1.0 
vertex 8.659560562354934e-17 1.4142135623730951 0.0 
vertex 8.659560562354934e-17 1.4142135623730951 2.0 
endloop
endfacet
facet normal 0.0 1.0 0.0 
outer loop
vertex 0.47140452079103173 1.4142135623730951 1.0 
vertex 8.659560562354934e-17 1.4142135623730951 2.0 
vertex 1.4142135623730951 1.4142135623730951 1.0 
endloop
endfacet
facet normal 0.49999999999999994 0.5000000000000002 0.7071067811865476 
outer loop
vertex 0.9428090415820635 0.9428090415820635 1.6666666666666667 
vertex 1.4142135623730951 1.4142135623730951 1.0 
vertex 8.659560562354934e-17 1.4142135623730951 2.0 
endloop
endfacet
facet normal 0.49999999999999994 0.49999999999999994 0.7071067811865476 
outer loop
vertex 0.9428090415820635 0.9428090415820635 1.6666666666666667 
vertex 8.659560562354934e-17 1.4142135623730951 2.0 
vertex 1.4142135623730951 0.0 2.0 
endloop
endfacet
facet normal 0.5000000000000001 0.49999999999999994 0.7071067811865476 
outer loop
vertex 0.9428090415820635 0.9428090415820635 1.6666666666666667 
vertex 1.4142135623730951 0.0 2.0 
vertex 1.4142135623730951 1.4142135623730951 1.0 
endloop
endfacet
facet normal 1.0 0.0 0.0 
outer loop
vertex 1.4142135623730951 0.47140452079103173 1.0 
vertex 1.4142135623730951 1.4142135623730951 1.0 
vertex 1.4142135623730951 0.0 2.0 
endloop
endfacet
facet normal 1.0 0.0 0.0 
outer loop
vertex 1.4142135623730951 0.47140452079103173 1.0 
vertex 1.4142135623730951 0.0 2.0 
vertex 1.4142135623730951 0.0 0.0 
endloop
endfacet
facet normal 1.0 0.0 0.0 
outer loop
vertex 1.4142135623730951 0.47140452079103173 1.0 
vertex 1.4142135623730951 0.0 0.0 
vertex 1.4142135623730951 1.4142135623730951 1.0 
endloop
endfacet
facet normal 0.49999999999999994 -0.5000000000000002 -0.7071067811865476 
outer loop
vertex 0.9428090415820632 -0.9428090415820635 0.3333333333333333 
vertex 1.414213562373095 -1.4142135623730951 1.0 
vertex -2.59786816870648e-16 -1.4142135623730951 0.0 
endloop
endfacet
facet normal 0.5 -0.5000000000000001 -0.7071067811865475 
outer loop
vertex 0.9428090415820632 -0.9428090415820635 0.3333333333333333 
vertex -2.59786816870648e-16 -1.4142135623730951 0.0 
vertex 1.4142135623730951 0.0 0.0 
endloop
endfacet
facet normal 0.49999999999999994 -0.5 -0.7071067811865475 
outer loop
vertex 0.9428090415820632 -0.9428090415820635 0.3333333333333333 
vertex 1.4142135623730951 0.0 0.0 
vertex 1.414213562373095 -1.4142135623730951 1.0 
endloop
endfacet
facet normal 1.0 -0.0 2.220446049250313e-16 
outer loop
vertex 1.414213562373095 -0.47140452079103173 1.0 
vertex 1.414213562373095 -1.4142135623730951 1.0 
vertex 1.4142135623730951 0.0 0.0 
endloop
endfacet
facet normal 1.0 -4.710277376051325e-16 0.0 
outer loop
vertex 1.414213562373095 -0.47140452079103173 1.0 
vertex 1.4142135623730951 0.0 0.0 
vertex 1.4142135623730951 0.0 2.0 
endloop
endfacet
facet normal 1.0 0.0 -2.220446049250313e-16 
outer loop
vertex 1.414213562373095 -0.47140452079103173 1.0 
vertex 1.4142135623730951 0.0 2.0 
vertex 1.414213562373095 -1.4142135623730951 1.0 
endloop
endfacet
facet normal 0.5 -0.5000000000000001 0.7071067811865475 
outer loop
vertex 0.9428090415820631 -0.9428090415820635 1.6666666666666667 
vertex 1.414213562373095 -1.4142135623730951 1.0 
vertex 1.4142135623730951 0.0 2.0 
endloop
endfacet
facet normal 0.5 -0.5000000000000001 0.7071067811865475 
outer loop
vertex 0.9428090415820631 -0.9428090415820635 1.6666666666666667 
vertex 1.4142135623730951 0.0 2.0 
vertex -2.59786816870648e-16 -1.4142135623730951 2.0 
endloop
endfacet
facet normal 0.49999999999999994 -0.5 0.7071067811865476 
outer loop
vertex 0.9428090415820631 -0.9428090415820635 1.6666666666666667 
vertex -2.59786816870648e-16 -1.4142135623730951 2.0 
vertex 1.414213562373095 -1.4142135623730951 1.0 
endloop
endfacet
facet normal 0.0 -1.0 0.0 
outer loop
vertex 0.4714045207910315 -1.4142135623730951 1.0 
vertex 1.414213562373095 -1.4142135623730951 1.0 
vertex -2.59786816870648e-16 -1.4142135623730951 2.0 
endloop
endfacet
facet normal 0.0 -1.0 0.0 
outer loop
vertex 0.4714045207910315 -1.4142135623730951 1.0 
vertex -2.59786816870648e-16 -1.4142135623730951 2.0 
vertex -2.59786816870648e-16 -1.4142135623730951 0.0 
endloop
endfacet
facet normal 0.0 -1.0 0.0 
outer loop
vertex 0.4714045207910315 -1.4142135623730951 1.0 
vertex -2.59786816870648e-16 -1.4142135623730951 0.0 
vertex 1.414213562373095 -1.4142135623730951 1.0 
endloop
endfacet
endsolid test
