solid test
facet normal 0.5263546146162956 0.28342171556262075 -0.8016376680394153 
outer loop
vertex 1.0311973892303814 1.0311973892303818 1.0416666666666672 
vertex -2.220446049250313e-16 2.220446049250313e-16 0.0 
vertex 0.0 2.357022603955158 0.8333333333333338 
endloop
endfacet
facet normal 0.6883098806520787 0.4453769815984038 -0.5725983343138681 
outer loop
vertex 1.0311973892303814 1.0311973892303818 1.0416666666666672 
vertex 0.0 2.357022603955158 0.8333333333333338 
vertex 1.7677669529663682 1.7677669529663687 2.500000000000001 
endloop
endfacet
facet normal 0.44537698159840394 0.6883098806520787 -0.572598334313868 
outer loop
vertex 1.0311973892303814 1.0311973892303818 1.0416666666666672 
vertex 1.7677669529663682 1.7677669529663687 2.500000000000001 
vertex 2.357022603955158 0.0 0.8333333333333338 
endloop
endfacet
facet normal 0.2834217155626207 0.5263546146162956 -0.8016376680394153 
outer loop
vertex 1.0311973892303814 1.0311973892303818 1.0416666666666672 
vertex 2.357022603955158 0.0 0.8333333333333338 
vertex -2.220446049250313e-16 2.220446049250313e-16 0.0 
endloop
endfacet
facet normal 0.28342171556262064 -0.5263546146162956 -0.8016376680394153 
outer loop
vertex 1.0311973892303814 -1.0311973892303816 1.0416666666666672 
vertex -2.220446049250313e-16 2.220446049250313e-16 0.0 
vertex 2.357022603955158 0.0 0.8333333333333338 
endloop
endfacet
facet normal 0.4453769815984037 -0.6883098806520787 -0.5725983343138681 
outer loop
vertex 1.0311973892303814 -1.0311973892303816 1.0416666666666672 
vertex 2.357022603955158 0.0 0.8333333333333338 
vertex 1.7677669529663684 -1.7677669529663687 2.500000000000001 
endloop
endfacet
facet normal 0.6883098806520787 -0.4453769815984039 -0.5725983343138682 
outer loop
vertex 1.0311973892303814 -1.0311973892303816 1.0416666666666672 
vertex 1.7677669529663684 -1.7677669529663687 2.500000000000001 
vertex -2.220446049250313e-16 -2.357022603955158 0.8333333333333338 
endloop
endfacet
facet normal 0.5263546146162955 -0.2834217155626207 -0.8016376680394154 
outer loop
vertex 1.0311973892303814 -1.0311973892303816 1.0416666666666672 
vertex -2.220446049250313e-16 -2.357022603955158 0.8333333333333338 
vertex -2.220446049250313e-16 2.220446049250313e-16 0.0 
endloop
endfacet
facet normal -0.5263546146162956 -0.2834217155626207 -0.8016376680394153 
outer loop
vertex -1.0311973892303818 -1.0311973892303814 1.0416666666666672 
vertex -2.220446049250313e-16 2.220446049250313e-16 0.0 
vertex -2.220446049250313e-16 -2.357022603955158 0.8333333333333338 
endloop
endfacet
facet normal -0.6883098806520788 -0.4453769815984038 -0.5725983343138682 
outer loop
vertex -1.0311973892303818 -1.0311973892303814 1.0416666666666672 
vertex -2.220446049250313e-16 -2.357022603955158 0.8333333333333338 
vertex -1.7677669529663689 -1.7677669529663682 2.500000000000001 
endloop
endfacet
facet normal -0.445376981598404 -0.6883098806520787 -0.5725983343138681 
outer loop
vertex -1.0311973892303818 -1.0311973892303814 1.0416666666666672 
vertex -1.7677669529663689 -1.7677669529663682 2.500000000000001 
vertex -2.357022603955158 4.440892098500626e-16 0.8333333333333338 
endloop
endfacet
facet normal -0.28342171556262086 -0.5263546146162955 -0.8016376680394154 
outer loop
vertex -1.0311973892303818 -1.0311973892303814 1.0416666666666672 
vertex -2.357022603955158 4.440892098500626e-16 0.8333333333333338 
vertex -2.220446049250313e-16 2.220446049250313e-16 0.0 
endloop
endfacet
facet normal -0.28342171556262075 0.5263546146162956 -0.8016376680394153 
outer loop
vertex -1.0311973892303818 1.0311973892303818 1.0416666666666672 
vertex -2.220446049250313e-16 2.220446049250313e-16 0.0 
vertex -2.357022603955158 4.440892098500626e-16 0.8333333333333338 
endloop
endfacet
facet normal -0.4453769815984038 0.6883098806520787 -0.5725983343138681 
outer loop
vertex -1.0311973892303818 1.0311973892303818 1.0416666666666672 
vertex -2.357022603955158 4.440892098500626e-16 0.8333333333333338 
vertex -1.7677669529663687 1.7677669529663687 2.500000000000001 
endloop
endfacet
facet normal -0.6883098806520785 0.4453769815984041 -0.572598334313868 
outer loop
vertex -1.0311973892303818 1.0311973892303818 1.0416666666666672 
vertex -1.7677669529663687 1.7677669529663687 2.500000000000001 
vertex 0.0 2.357022603955158 0.8333333333333338 
endloop
endfacet
facet normal -0.5263546146162955 0.28342171556262086 -0.8016376680394154 
outer loop
vertex -1.0311973892303818 1.0311973892303818 1.0416666666666672 
vertex 0.0 2.357022603955158 0.8333333333333338 
vertex -2.220446049250313e-16 2.220446049250313e-16 0.0 
endloop
endfacet
facet normal -0.2834217155626206 -0.5263546146162952 0.8016376680394157 
outer loop
vertex -1.0311973892303818 -1.0311973892303814 3.958333333333334 
vertex -2.220446049250313e-16 2.220446049250313e-16 5.0 
vertex -2.3570226039551585 4.440892098500626e-16 4.166666666666667 
endloop
endfacet
facet normal -0.4453769815984039 -0.6883098806520784 0.5725983343138683 
outer loop
vertex -1.0311973892303818 -1.0311973892303814 3.958333333333334 
vertex -2.3570226039551585 4.440892098500626e-16 4.166666666666667 
vertex -1.7677669529663689 -1.7677669529663682 2.500000000000001 
endloop
endfacet
facet normal -0.6883098806520788 -0.44537698159840344 0.5725983343138682 
outer loop
vertex -1.0311973892303818 -1.0311973892303814 3.958333333333334 
vertex -1.7677669529663689 -1.7677669529663682 2.500000000000001 
vertex -4.440892098500626e-16 -2.357022603955158 4.166666666666668 
endloop
endfacet
facet normal -0.5263546146162955 -0.2834217155626202 0.8016376680394155 
outer loop
vertex -1.0311973892303818 -1.0311973892303814 3.958333333333334 
vertex -4.440892098500626e-16 -2.357022603955158 4.166666666666668 
vertex -2.220446049250313e-16 2.220446049250313e-16 5.0 
endloop
endfacet
facet normal 0.5263546146162954 -0.2834217155626202 0.8016376680394156 
outer loop
vertex 1.0311973892303814 -1.0311973892303816 3.958333333333334 
vertex -2.220446049250313e-16 2.220446049250313e-16 5.0 
vertex -4.440892098500626e-16 -2.357022603955158 4.166666666666668 
endloop
endfacet
facet normal 0.6883098806520787 -0.44537698159840367 0.5725983343138684 
outer loop
vertex 1.0311973892303814 -1.0311973892303816 3.958333333333334 
vertex -4.440892098500626e-16 -2.357022603955158 4.166666666666668 
vertex 1.7677669529663684 -1.7677669529663687 2.500000000000001 
endloop
endfacet
facet normal 0.4453769815984035 -0.6883098806520787 0.5725983343138683 
outer loop
vertex 1.0311973892303814 -1.0311973892303816 3.958333333333334 
vertex 1.7677669529663684 -1.7677669529663687 2.500000000000001 
vertex 2.357022603955158 0.0 4.166666666666668 
endloop
endfacet
facet normal 0.2834217155626202 -0.5263546146162954 0.8016376680394157 
outer loop
vertex 1.0311973892303814 -1.0311973892303816 3.958333333333334 
vertex 2.357022603955158 0.0 4.166666666666668 
vertex -2.220446049250313e-16 2.220446049250313e-16 5.0 
endloop
endfacet
facet normal 0.2834217155626202 0.5263546146162954 0.8016376680394156 
outer loop
vertex 1.0311973892303814 1.0311973892303818 3.958333333333334 
vertex -2.220446049250313e-16 2.220446049250313e-16 5.0 
vertex 2.357022603955158 0.0 4.166666666666668 
endloop
endfacet
facet normal 0.44537698159840355 0.6883098806520787 0.5725983343138682 
outer loop
vertex 1.0311973892303814 1.0311973892303818 3.958333333333334 
vertex 2.357022603955158 0.0 4.166666666666668 
vertex 1.7677669529663682 1.7677669529663687 2.500000000000001 
endloop
endfacet
facet normal 0.6883098806520785 0.4453769815984038 0.5725983343138682 
outer loop
vertex 1.0311973892303814 1.0311973892303818 3.958333333333334 
vertex 1.7677669529663682 1.7677669529663687 2.500000000000001 
vertex -2.220446049250313e-16 2.3570226039551585 4.166666666666667 
endloop
endfacet
facet normal 0.5263546146162952 0.2834217155626205 0.8016376680394156 
outer loop
vertex 1.0311973892303814 1.0311973892303818 3.958333333333334 
vertex -2.220446049250313e-16 2.3570226039551585 4.166666666666667 
vertex -2.220446049250313e-16 2.220446049250313e-16 5.0 
endloop
endfacet
facet normal -0.5263546146162953 0.2834217155626205 0.8016376680394156 
outer loop
vertex -1.0311973892303818 1.0311973892303818 3.958333333333334 
vertex -2.220446049250313e-16 2.220446049250313e-16 5.0 
vertex -2.220446049250313e-16 2.3570226039551585 4.166666666666667 
endloop
endfacet
facet normal -0.6883098806520785 0.4453769815984039 0.5725983343138682 
outer loop
vertex -1.0311973892303818 1.0311973892303818 3.958333333333334 
vertex -2.220446049250313e-16 2.3570226039551585 4.166666666666667 
vertex -1.7677669529663687 1.7677669529663687 2.500000000000001 
endloop
endfacet
facet normal -0.4453769815984038 0.6883098806520785 0.5725983343138682 
outer loop
vertex -1.0311973892303818 1.0311973892303818 3.958333333333334 
vertex -1.7677669529663687 1.7677669529663687 2.500000000000001 
vertex -2.3570226039551585 4.440892098500626e-16 4.166666666666667 
endloop
endfacet
facet normal -0.2834217155626205 0.5263546146162953 0.8016376680394156 
outer loop
vertex -1.0311973892303818 1.0311973892303818 3.958333333333334 
vertex -2.3570226039551585 4.440892098500626e-16 4.166666666666667 
vertex -2.220446049250313e-16 2.220446049250313e-16 5.0 
endloop
endfacet
facet normal -0.16195526603578334 -0.9717315962146992 0.17177950029416045 
outer loop
vertex -2.7755575615628914e-16 -2.0623947784607632 2.500000000000001 
vertex -1.7677669529663689 -1.7677669529663682 2.500000000000001 
vertex -2.220446049250313e-16 -2.357022603955158 0.8333333333333338 
endloop
endfacet
facet normal 0.16195526603578309 -0.9717315962146992 0.17177950029416045 
outer loop
vertex -2.7755575615628914e-16 -2.0623947784607632 2.500000000000001 
vertex -2.220446049250313e-16 -2.357022603955158 0.8333333333333338 
vertex 1.7677669529663684 -1.7677669529663687 2.500000000000001 
endloop
endfacet
facet normal 0.1619552660357831 -0.9717315962146992 -0.17177950029416048 
outer loop
vertex -2.7755575615628914e-16 -2.0623947784607632 2.500000000000001 
vertex 1.7677669529663684 -1.7677669529663687 2.500000000000001 
vertex -4.440892098500626e-16 -2.357022603955158 4.166666666666668 
endloop
endfacet
facet normal -0.16195526603578334 -0.9717315962146992 -0.17177950029416045 
outer loop
vertex -2.7755575615628914e-16 -2.0623947784607632 2.500000000000001 
vertex -4.440892098500626e-16 -2.357022603955158 4.166666666666668 
vertex -1.7677669529663689 -1.7677669529663682 2.500000000000001 
endloop
endfacet
facet normal -0.9717315962146992 -0.16195526603578328 -0.17177950029416048 
outer loop
vertex -2.0623947784607637 3.3306690738754696e-16 2.5000000000000004 
vertex -1.7677669529663689 -1.7677669529663682 2.500000000000001 
vertex -2.3570226039551585 4.440892098500626e-16 4.166666666666667 
endloop
endfacet
facet normal -0.9717315962146992 0.16195526603578345 -0.1717795002941605 
outer loop
vertex -2.0623947784607637 3.3306690738754696e-16 2.5000000000000004 
vertex -2.3570226039551585 4.440892098500626e-16 4.166666666666667 
vertex -1.7677669529663687 1.7677669529663687 2.500000000000001 
endloop
endfacet
facet normal -0.9717315962146992 0.1619552660357833 0.17177950029416023 
outer loop
vertex -2.0623947784607637 3.3306690738754696e-16 2.5000000000000004 
vertex -1.7677669529663687 1.7677669529663687 2.500000000000001 
vertex -2.357022603955158 4.440892098500626e-16 0.8333333333333338 
endloop
endfacet
facet normal -0.9717315962146992 -0.1619552660357832 0.17177950029416017 
outer loop
vertex -2.0623947784607637 3.3306690738754696e-16 2.5000000000000004 
vertex -2.357022603955158 4.440892098500626e-16 0.8333333333333338 
vertex -1.7677669529663689 -1.7677669529663682 2.500000000000001 
endloop
endfacet
facet normal -0.16195526603578342 0.9717315962146992 -0.17177950029416053 
outer loop
vertex -1.6653345369377348e-16 2.0623947784607637 2.5000000000000004 
vertex -1.7677669529663687 1.7677669529663687 2.500000000000001 
vertex -2.220446049250313e-16 2.3570226039551585 4.166666666666667 
endloop
endfacet
facet normal 0.16195526603578342 0.9717315962146992 -0.17177950029416048 
outer loop
vertex -1.6653345369377348e-16 2.0623947784607637 2.5000000000000004 
vertex -2.220446049250313e-16 2.3570226039551585 4.166666666666667 
vertex 1.7677669529663682 1.7677669529663687 2.500000000000001 
endloop
endfacet
facet normal 0.1619552660357833 0.9717315962146992 0.17177950029416023 
outer loop
vertex -1.6653345369377348e-16 2.0623947784607637 2.5000000000000004 
vertex 1.7677669529663682 1.7677669529663687 2.500000000000001 
vertex 0.0 2.357022603955158 0.8333333333333338 
endloop
endfacet
facet normal -0.16195526603578334 0.9717315962146992 0.1717795002941602 
outer loop
vertex -1.6653345369377348e-16 2.0623947784607637 2.5000000000000004 
vertex 0.0 2.357022603955158 0.8333333333333338 
vertex -1.7677669529663687 1.7677669529663687 2.500000000000001 
endloop
endfacet
facet normal 0.9717315962146992 0.16195526603578334 -0.17177950029416045 
outer loop
vertex 2.0623947784607632 0.0 2.500000000000001 
vertex 1.7677669529663682 1.7677669529663687 2.500000000000001 
vertex 2.357022603955158 0.0 4.166666666666668 
endloop
endfacet
facet normal 0.9717315962146992 -0.16195526603578322 -0.17177950029416045 
outer loop
vertex 2.0623947784607632 0.0 2.500000000000001 
vertex 2.357022603955158 0.0 4.166666666666668 
vertex 1.7677669529663684 -1.7677669529663687 2.500000000000001 
endloop
endfacet
facet normal 0.9717315962146992 -0.16195526603578322 0.17177950029416045 
outer loop
vertex 2.0623947784607632 0.0 2.500000000000001 
vertex 1.7677669529663684 -1.7677669529663687 2.500000000000001 
vertex 2.357022603955158 0.0 0.8333333333333338 
endloop
endfacet
facet normal 0.9717315962146992 0.16195526603578334 0.17177950029416045 
outer loop
vertex 2.0623947784607632 0.0 2.500000000000001 
vertex 2.357022603955158 0.0 0.8333333333333338 
vertex 1.7677669529663682 1.7677669529663687 2.500000000000001 
endloop
endfacet
endsolid test
