solid test
facet normal 0.49112347318842275 -0.35682208977308977 0.7946544722917663 
outer loop
vertex 0.2628655560595668 -0.8090169943749473 0.0 
vertex 0.8506508083520399 0.0 0.0 
vertex -1.8411485819271075e-16 1.8411485819271075e-16 0.5257311121191334 
endloop
endfacet
facet normal -0.18759247408507973 -0.5773502691896255 0.7946544722917663 
outer loop
vertex -0.6881909602355867 -0.5000000000000001 0.0 
vertex 0.2628655560595668 -0.8090169943749473 0.0 
vertex -1.8411485819271075e-16 1.8411485819271075e-16 0.5257311121191334 
endloop
endfacet
facet normal -0.6070619982066862 -6.739742077840185e-17 0.7946544722917661 
outer loop
vertex -0.6881909602355868 0.4999999999999999 0.0 
vertex -0.6881909602355867 -0.5000000000000001 0.0 
vertex -1.8411485819271075e-16 1.8411485819271075e-16 0.5257311121191334 
endloop
endfacet
facet normal -0.18759247408507998 0.5773502691896257 0.7946544722917661 
outer loop
vertex 0.26286555605956663 0.8090169943749475 0.0 
vertex -0.6881909602355868 0.4999999999999999 0.0 
vertex -1.8411485819271075e-16 1.8411485819271075e-16 0.5257311121191334 
endloop
endfacet
facet normal 0.49112347318842287 0.3568220897730899 0.7946544722917663 
outer loop
vertex 0.8506508083520399 0.0 0.0 
vertex 0.26286555605956663 0.8090169943749475 0.0 
vertex -1.8411485819271075e-16 1.8411485819271075e-16 0.5257311121191334 
endloop
endfacet
facet normal 0.7946544722917661 -0.5773502691896258 0.18759247408508023 
outer loop
vertex 0.8506508083520399 0.0 0.0 
vertex 0.2628655560595668 -0.8090169943749473 0.0 
vertex 0.6881909602355867 -0.5000000000000004 -0.8506508083520395 
endloop
endfacet
facet normal 0.3035309991033429 -0.9341723589627158 -0.18759247408507954 
outer loop
vertex 0.2628655560595668 -0.8090169943749473 0.0 
vertex -0.26286555605956696 -0.8090169943749476 -0.85065080835204 
vertex 0.6881909602355867 -0.5000000000000004 -0.8506508083520395 
endloop
endfacet
facet normal -0.3035309991033429 -0.9341723589627157 0.18759247408508012 
outer loop
vertex 0.2628655560595668 -0.8090169943749473 0.0 
vertex -0.6881909602355867 -0.5000000000000001 0.0 
vertex -0.26286555605956696 -0.8090169943749476 -0.85065080835204 
endloop
endfacet
facet normal -0.794654472291766 -0.5773502691896261 -0.18759247408507942 
outer loop
vertex -0.6881909602355867 -0.5000000000000001 0.0 
vertex -0.8506508083520403 -1.9428902930940264e-16 -0.8506508083520405 
vertex -0.26286555605956696 -0.8090169943749476 -0.85065080835204 
endloop
endfacet
facet normal -0.982246946376846 -1.0905131757353259e-16 0.18759247408508023 
outer loop
vertex -0.6881909602355867 -0.5000000000000001 0.0 
vertex -0.6881909602355868 0.4999999999999999 0.0 
vertex -0.8506508083520403 -1.9428902930940264e-16 -0.8506508083520405 
endloop
endfacet
facet normal -0.7946544722917661 0.5773502691896258 -0.18759247408507956 
outer loop
vertex -0.6881909602355868 0.4999999999999999 0.0 
vertex -0.262865556059567 0.8090169943749475 -0.85065080835204 
vertex -0.8506508083520403 -1.9428902930940264e-16 -0.8506508083520405 
endloop
endfacet
facet normal -0.3035309991033433 0.9341723589627157 0.18759247408508 
outer loop
vertex -0.6881909602355868 0.4999999999999999 0.0 
vertex 0.26286555605956663 0.8090169943749475 0.0 
vertex -0.262865556059567 0.8090169943749475 -0.85065080835204 
endloop
endfacet
facet normal 0.3035309991033425 0.934172358962716 -0.18759247408507954 
outer loop
vertex 0.26286555605956663 0.8090169943749475 0.0 
vertex 0.6881909602355871 0.5000000000000004 -0.8506508083520403 
vertex -0.262865556059567 0.8090169943749475 -0.85065080835204 
endloop
endfacet
facet normal 0.794654472291766 0.5773502691896257 0.18759247408508054 
outer loop
vertex 0.26286555605956663 0.8090169943749475 0.0 
vertex 0.8506508083520399 0.0 0.0 
vertex 0.6881909602355871 0.5000000000000004 -0.8506508083520403 
endloop
endfacet
facet normal 0.9822469463768461 -5.819939090770873e-16 -0.18759247408507967 
outer loop
vertex 0.8506508083520399 0.0 0.0 
vertex 0.6881909602355867 -0.5000000000000004 -0.8506508083520395 
vertex 0.6881909602355871 0.5000000000000004 -0.8506508083520403 
endloop
endfacet
facet normal 0.18759247408507995 -0.5773502691896254 -0.7946544722917663 
outer loop
vertex 0.6881909602355867 -0.5000000000000004 -0.8506508083520395 
vertex -0.26286555605956696 -0.8090169943749476 -0.85065080835204 
vertex 2.9342709909058325e-16 1.5931203543441917e-16 -1.3763819204711731 
endloop
endfacet
facet normal -0.4911234731884219 -0.3568220897730899 -0.7946544722917668 
outer loop
vertex -0.26286555605956696 -0.8090169943749476 -0.85065080835204 
vertex -0.8506508083520403 -1.9428902930940264e-16 -0.8506508083520405 
vertex 2.9342709909058325e-16 1.5931203543441917e-16 -1.3763819204711731 
endloop
endfacet
facet normal -0.4911234731884221 0.3568220897730899 -0.7946544722917667 
outer loop
vertex -0.8506508083520403 -1.9428902930940264e-16 -0.8506508083520405 
vertex -0.262865556059567 0.8090169943749475 -0.85065080835204 
vertex 2.9342709909058325e-16 1.5931203543441917e-16 -1.3763819204711731 
endloop
endfacet
facet normal 0.18759247408507917 0.5773502691896255 -0.7946544722917666 
outer loop
vertex -0.262865556059567 0.8090169943749475 -0.85065080835204 
vertex 0.6881909602355871 0.5000000000000004 -0.8506508083520403 
vertex 2.9342709909058325e-16 1.5931203543441917e-16 -1.3763819204711731 
endloop
endfacet
facet normal 0.6070619982066859 -8.871602673453771e-16 -0.7946544722917663 
outer loop
vertex 0.6881909602355871 0.5000000000000004 -0.8506508083520403 
vertex 0.6881909602355867 -0.5000000000000004 -0.8506508083520395 
vertex 2.9342709909058325e-16 1.5931203543441917e-16 -1.3763819204711731 
endloop
endfacet
endsolid test
