solid test2
facet normal 0.5773502691896257 -0.5773502691896255 0.577350269189626 
outer loop
vertex 0.35355339059327373 -0.11667261889578032 0.23688077169749347 
vertex 0.2368807716974934 -0.11667261889578026 0.35355339059327384 
vertex 0.11667261889578032 -0.23688077169749333 0.3535533905932739 
endloop
endfacet
facet normal 0.5773502691896258 -0.5773502691896257 0.5773502691896258 
outer loop
vertex 0.35355339059327373 -0.11667261889578032 0.23688077169749347 
vertex 0.11667261889578032 -0.23688077169749333 0.3535533905932739 
vertex 0.11667261889578011 -0.3535533905932737 0.23688077169749377 
endloop
endfacet
facet normal 0.5773502691896256 -0.5773502691896255 0.5773502691896261 
outer loop
vertex 0.35355339059327373 -0.11667261889578032 0.23688077169749347 
vertex 0.11667261889578011 -0.3535533905932737 0.23688077169749377 
vertex 0.2368807716974936 -0.3535533905932738 0.11667261889578026 
endloop
endfacet
facet normal 0.5773502691896257 -0.5773502691896255 0.5773502691896261 
outer loop
vertex 0.35355339059327373 -0.11667261889578032 0.23688077169749347 
vertex 0.2368807716974936 -0.3535533905932738 0.11667261889578026 
vertex 0.3535533905932738 -0.2368807716974936 0.11667261889578023 
endloop
endfacet
facet normal -0.5773502691896256 -0.577350269189626 0.5773502691896258 
outer loop
vertex -0.3535533905932738 -0.11667261889578019 0.2368807716974937 
vertex -0.3535533905932738 -0.23688077169749355 0.11667261889578032 
vertex -0.23688077169749366 -0.35355339059327373 0.1166726188957802 
endloop
endfacet
facet normal -0.5773502691896254 -0.5773502691896258 0.577350269189626 
outer loop
vertex -0.3535533905932738 -0.11667261889578019 0.2368807716974937 
vertex -0.23688077169749366 -0.35355339059327373 0.1166726188957802 
vertex -0.11667261889578008 -0.3535533905932736 0.2368807716974938 
endloop
endfacet
facet normal -0.5773502691896255 -0.5773502691896258 0.5773502691896258 
outer loop
vertex -0.3535533905932738 -0.11667261889578019 0.2368807716974937 
vertex -0.11667261889578008 -0.3535533905932736 0.2368807716974938 
vertex -0.11667261889578029 -0.23688077169749328 0.35355339059327395 
endloop
endfacet
facet normal -0.5773502691896255 -0.5773502691896255 0.5773502691896263 
outer loop
vertex -0.3535533905932738 -0.11667261889578019 0.2368807716974937 
vertex -0.11667261889578029 -0.23688077169749328 0.35355339059327395 
vertex -0.23688077169749336 -0.11667261889578026 0.3535533905932739 
endloop
endfacet
facet normal -0.5773502691896256 0.5773502691896258 0.5773502691896257 
outer loop
vertex -0.11667261889578032 0.35355339059327373 0.2368807716974935 
vertex -0.23688077169749355 0.35355339059327373 0.11667261889578028 
vertex -0.3535533905932738 0.23688077169749336 0.11667261889578044 
endloop
endfacet
facet normal -0.5773502691896257 0.577350269189626 0.5773502691896256 
outer loop
vertex -0.11667261889578032 0.35355339059327373 0.2368807716974935 
vertex -0.3535533905932738 0.23688077169749336 0.11667261889578044 
vertex -0.3535533905932738 0.11667261889578016 0.2368807716974937 
endloop
endfacet
facet normal -0.5773502691896255 0.5773502691896258 0.5773502691896258 
outer loop
vertex -0.11667261889578032 0.35355339059327373 0.2368807716974935 
vertex -0.3535533905932738 0.11667261889578016 0.2368807716974937 
vertex -0.23688077169749341 0.11667261889578033 0.35355339059327384 
endloop
endfacet
facet normal -0.5773502691896262 0.5773502691896258 0.5773502691896253 
outer loop
vertex -0.11667261889578032 0.35355339059327373 0.2368807716974935 
vertex -0.23688077169749341 0.11667261889578033 0.35355339059327384 
vertex -0.11667261889578033 0.23688077169749347 0.35355339059327384 
endloop
endfacet
facet normal 0.5773502691896257 0.577350269189626 0.5773502691896256 
outer loop
vertex 0.3535533905932737 0.11667261889578029 0.23688077169749353 
vertex 0.3535533905932736 0.23688077169749364 0.11667261889578016 
vertex 0.23688077169749333 0.3535533905932738 0.11667261889578026 
endloop
endfacet
facet normal 0.5773502691896258 0.577350269189626 0.5773502691896256 
outer loop
vertex 0.3535533905932737 0.11667261889578029 0.23688077169749353 
vertex 0.23688077169749333 0.3535533905932738 0.11667261889578026 
vertex 0.11667261889578019 0.3535533905932738 0.23688077169749347 
endloop
endfacet
facet normal 0.5773502691896257 0.577350269189626 0.5773502691896255 
outer loop
vertex 0.3535533905932737 0.11667261889578029 0.23688077169749353 
vertex 0.11667261889578019 0.3535533905932738 0.23688077169749347 
vertex 0.11667261889578025 0.2368807716974935 0.3535533905932738 
endloop
endfacet
facet normal 0.5773502691896258 0.5773502691896261 0.5773502691896254 
outer loop
vertex 0.3535533905932737 0.11667261889578029 0.23688077169749353 
vertex 0.11667261889578025 0.2368807716974935 0.3535533905932738 
vertex 0.23688077169749344 0.1166726188957803 0.35355339059327384 
endloop
endfacet
facet normal -0.5773502691896264 0.5773502691896253 -0.5773502691896256 
outer loop
vertex -0.23688077169749341 0.11667261889578029 -0.3535533905932739 
vertex -0.35355339059327373 0.11667261889578012 -0.23688077169749358 
vertex -0.3535533905932738 0.23688077169749328 -0.11667261889578043 
endloop
endfacet
facet normal -0.5773502691896261 0.5773502691896257 -0.5773502691896256 
outer loop
vertex -0.23688077169749341 0.11667261889578029 -0.3535533905932739 
vertex -0.3535533905932738 0.23688077169749328 -0.11667261889578043 
vertex -0.23688077169749347 0.35355339059327373 -0.11667261889578034 
endloop
endfacet
facet normal -0.5773502691896255 0.577350269189626 -0.5773502691896258 
outer loop
vertex -0.23688077169749341 0.11667261889578029 -0.3535533905932739 
vertex -0.23688077169749347 0.35355339059327373 -0.11667261889578034 
vertex -0.11667261889578039 0.35355339059327373 -0.23688077169749336 
endloop
endfacet
facet normal -0.5773502691896258 0.577350269189626 -0.5773502691896255 
outer loop
vertex -0.23688077169749341 0.11667261889578029 -0.3535533905932739 
vertex -0.11667261889578039 0.35355339059327373 -0.23688077169749336 
vertex -0.1166726188957802 0.23688077169749358 -0.3535533905932738 
endloop
endfacet
facet normal -0.5773502691896255 -0.5773502691896257 -0.577350269189626 
outer loop
vertex -0.23688077169749341 -0.11667261889578047 -0.35355339059327384 
vertex -0.11667261889578025 -0.23688077169749364 -0.3535533905932738 
vertex -0.11667261889578037 -0.3535533905932739 -0.23688077169749341 
endloop
endfacet
facet normal -0.5773502691896256 -0.5773502691896258 -0.577350269189626 
outer loop
vertex -0.23688077169749341 -0.11667261889578047 -0.35355339059327384 
vertex -0.11667261889578037 -0.3535533905932739 -0.23688077169749341 
vertex -0.23688077169749347 -0.3535533905932739 -0.11667261889578039 
endloop
endfacet
facet normal -0.5773502691896257 -0.5773502691896256 -0.5773502691896258 
outer loop
vertex -0.23688077169749341 -0.11667261889578047 -0.35355339059327384 
vertex -0.23688077169749347 -0.3535533905932739 -0.11667261889578039 
vertex -0.35355339059327384 -0.23688077169749347 -0.11667261889578043 
endloop
endfacet
facet normal -0.577350269189626 -0.5773502691896256 -0.5773502691896258 
outer loop
vertex -0.23688077169749341 -0.11667261889578047 -0.35355339059327384 
vertex -0.35355339059327384 -0.23688077169749347 -0.11667261889578043 
vertex -0.3535533905932738 -0.11667261889578037 -0.23688077169749355 
endloop
endfacet
facet normal 0.5773502691896257 -0.5773502691896257 -0.5773502691896257 
outer loop
vertex 0.11667261889578039 -0.3535533905932739 -0.23688077169749341 
vertex 0.11667261889578029 -0.23688077169749364 -0.3535533905932738 
vertex 0.35355339059327373 -1.2860354881397476e-16 -0.35355339059327384 
endloop
endfacet
facet normal 0.5773502691896258 -0.5773502691896258 -0.5773502691896256 
outer loop
vertex 0.11667261889578039 -0.3535533905932739 -0.23688077169749341 
vertex 0.35355339059327373 -1.2860354881397476e-16 -0.35355339059327384 
vertex 0.3535533905932738 -0.23688077169749355 -0.1166726188957803 
endloop
endfacet
facet normal 0.5773502691896258 -0.5773502691896256 -0.5773502691896258 
outer loop
vertex 0.11667261889578039 -0.3535533905932739 -0.23688077169749341 
vertex 0.3535533905932738 -0.23688077169749355 -0.1166726188957803 
vertex 0.23688077169749344 -0.3535533905932739 -0.11667261889578037 
endloop
endfacet
facet normal 0.5773502691896256 0.5773502691896258 -0.5773502691896258 
outer loop
vertex 0.11667261889578023 0.3535533905932738 -0.23688077169749336 
vertex 0.23688077169749333 0.3535533905932738 -0.11667261889578029 
vertex 0.3535533905932737 0.23688077169749358 -0.11667261889578018 
endloop
endfacet
facet normal 0.5773502691896256 0.5773502691896258 -0.5773502691896258 
outer loop
vertex 0.11667261889578023 0.3535533905932738 -0.23688077169749336 
vertex 0.3535533905932737 0.23688077169749358 -0.11667261889578018 
vertex 0.35355339059327373 -1.2860354881397476e-16 -0.35355339059327384 
endloop
endfacet
facet normal 0.577350269189626 0.5773502691896258 -0.5773502691896255 
outer loop
vertex 0.11667261889578023 0.3535533905932738 -0.23688077169749336 
vertex 0.35355339059327373 -1.2860354881397476e-16 -0.35355339059327384 
vertex 0.11667261889578012 0.23688077169749355 -0.3535533905932738 
endloop
endfacet
facet normal -2.378927967702693e-16 -1.0 1.1614765959960153e-15 
outer loop
vertex 0.11667261889578011 -0.3535533905932737 0.23688077169749377 
vertex -0.11667261889578008 -0.3535533905932736 0.2368807716974938 
vertex -0.23688077169749366 -0.35355339059327373 0.1166726188957802 
endloop
endfacet
facet normal -8.564140683729787e-17 -1.0 7.136783903108071e-16 
outer loop
vertex 0.11667261889578011 -0.3535533905932737 0.23688077169749377 
vertex -0.23688077169749366 -0.35355339059327373 0.1166726188957802 
vertex -0.23688077169749347 -0.3535533905932739 -0.11667261889578039 
endloop
endfacet
facet normal 3.140184917367548e-16 -1.0 3.14018491736755e-16 
outer loop
vertex 0.11667261889578011 -0.3535533905932737 0.23688077169749377 
vertex -0.23688077169749347 -0.3535533905932739 -0.11667261889578039 
vertex -0.11667261889578037 -0.3535533905932739 -0.23688077169749341 
endloop
endfacet
facet normal 0.0 -1.0 4.686843160250071e-16 
outer loop
vertex 0.11667261889578011 -0.3535533905932737 0.23688077169749377 
vertex -0.11667261889578037 -0.3535533905932739 -0.23688077169749341 
vertex 0.11667261889578039 -0.3535533905932739 -0.23688077169749341 
endloop
endfacet
facet normal -4.686843160250068e-16 -1.0 4.686843160250068e-16 
outer loop
vertex 0.11667261889578011 -0.3535533905932737 0.23688077169749377 
vertex 0.11667261889578039 -0.3535533905932739 -0.23688077169749341 
vertex 0.23688077169749344 -0.3535533905932739 -0.11667261889578037 
endloop
endfacet
facet normal -4.477982056852084e-16 -1.0 4.757855935405383e-16 
outer loop
vertex 0.11667261889578011 -0.3535533905932737 0.23688077169749377 
vertex 0.23688077169749344 -0.3535533905932739 -0.11667261889578037 
vertex 0.2368807716974936 -0.3535533905932738 0.11667261889578026 
endloop
endfacet
facet normal 1.0 2.343421580125038e-16 5.574831137077486e-32 
outer loop
vertex 0.3535533905932738 -0.2368807716974936 0.11667261889578023 
vertex 0.3535533905932738 -0.23688077169749355 -0.1166726188957803 
vertex 0.35355339059327373 -1.2860354881397476e-16 -0.35355339059327384 
endloop
endfacet
facet normal 1.0 2.343421580125035e-16 -8.278624238560048e-32 
outer loop
vertex 0.3535533905932738 -0.2368807716974936 0.11667261889578023 
vertex 0.35355339059327373 -1.2860354881397476e-16 -0.35355339059327384 
vertex 0.3535533905932737 0.23688077169749358 -0.11667261889578018 
endloop
endfacet
facet normal 1.0 3.5151323701875533e-16 2.378927967702692e-16 
outer loop
vertex 0.3535533905932738 -0.2368807716974936 0.11667261889578023 
vertex 0.3535533905932737 0.23688077169749358 -0.11667261889578018 
vertex 0.3535533905932736 0.23688077169749364 0.11667261889578016 
endloop
endfacet
facet normal 1.0 3.515132370187553e-16 -1.1027866259411868e-16 
outer loop
vertex 0.3535533905932738 -0.2368807716974936 0.11667261889578023 
vertex 0.3535533905932736 0.23688077169749364 0.11667261889578016 
vertex 0.3535533905932737 0.11667261889578029 0.23688077169749353 
endloop
endfacet
facet normal 1.0 2.37892796770269e-16 2.2389910284260536e-16 
outer loop
vertex 0.3535533905932738 -0.2368807716974936 0.11667261889578023 
vertex 0.3535533905932737 0.11667261889578029 0.23688077169749353 
vertex 0.35355339059327373 -0.11667261889578032 0.23688077169749347 
endloop
endfacet
facet normal -2.2389910284260615e-16 2.37892796770269e-16 1.0 
outer loop
vertex -0.23688077169749341 0.11667261889578033 0.35355339059327384 
vertex -0.23688077169749336 -0.11667261889578026 0.3535533905932739 
vertex -0.11667261889578029 -0.23688077169749328 0.35355339059327395 
endloop
endfacet
facet normal 2.378927967702691e-16 3.949020426386467e-16 1.0 
outer loop
vertex -0.23688077169749341 0.11667261889578033 0.35355339059327384 
vertex -0.11667261889578029 -0.23688077169749328 0.35355339059327395 
vertex 0.11667261889578032 -0.23688077169749333 0.3535533905932739 
endloop
endfacet
facet normal 1.5239132687224873e-16 3.0940057274062625e-16 1.0 
outer loop
vertex -0.23688077169749341 0.11667261889578033 0.35355339059327384 
vertex 0.11667261889578032 -0.23688077169749333 0.3535533905932739 
vertex 0.2368807716974934 -0.11667261889578026 0.35355339059327384 
endloop
endfacet
facet normal 0.0 -0.0 1.0 
outer loop
vertex -0.23688077169749341 0.11667261889578033 0.35355339059327384 
vertex 0.2368807716974934 -0.11667261889578026 0.35355339059327384 
vertex 0.23688077169749344 0.1166726188957803 0.35355339059327384 
endloop
endfacet
facet normal 2.7054327576993626e-32 4.617918996128745e-16 1.0 
outer loop
vertex -0.23688077169749341 0.11667261889578033 0.35355339059327384 
vertex 0.23688077169749344 0.1166726188957803 0.35355339059327384 
vertex 0.11667261889578025 0.2368807716974935 0.3535533905932738 
endloop
endfacet
facet normal 2.378927967702691e-16 -2.37892796770269e-16 1.0 
outer loop
vertex -0.23688077169749341 0.11667261889578033 0.35355339059327384 
vertex 0.11667261889578025 0.2368807716974935 0.3535533905932738 
vertex -0.11667261889578033 0.23688077169749347 0.35355339059327384 
endloop
endfacet
facet normal -1.0 6.99684696383144e-16 2.3789279677026915e-16 
outer loop
vertex -0.3535533905932738 -0.11667261889578037 -0.23688077169749355 
vertex -0.35355339059327384 -0.23688077169749347 -0.11667261889578043 
vertex -0.3535533905932738 -0.23688077169749355 0.11667261889578032 
endloop
endfacet
facet normal -1.0 0.0 0.0 
outer loop
vertex -0.3535533905932738 -0.11667261889578037 -0.23688077169749355 
vertex -0.3535533905932738 -0.23688077169749355 0.11667261889578032 
vertex -0.3535533905932738 -0.11667261889578019 0.2368807716974937 
endloop
endfacet
facet normal -1.0 0.0 -0.0 
outer loop
vertex -0.3535533905932738 -0.11667261889578037 -0.23688077169749355 
vertex -0.3535533905932738 -0.11667261889578019 0.2368807716974937 
vertex -0.3535533905932738 0.11667261889578016 0.2368807716974937 
endloop
endfacet
facet normal -1.0 0.0 -0.0 
outer loop
vertex -0.3535533905932738 -0.11667261889578037 -0.23688077169749355 
vertex -0.3535533905932738 0.11667261889578016 0.2368807716974937 
vertex -0.3535533905932738 0.23688077169749336 0.11667261889578044 
endloop
endfacet
facet normal -1.0 0.0 0.0 
outer loop
vertex -0.3535533905932738 -0.11667261889578037 -0.23688077169749355 
vertex -0.3535533905932738 0.23688077169749336 0.11667261889578044 
vertex -0.3535533905932738 0.23688077169749328 -0.11667261889578043 
endloop
endfacet
facet normal -1.0 2.378927967702691e-16 -6.9968469638314385e-16 
outer loop
vertex -0.3535533905932738 -0.11667261889578037 -0.23688077169749355 
vertex -0.3535533905932738 0.23688077169749328 -0.11667261889578043 
vertex -0.35355339059327373 0.11667261889578012 -0.23688077169749358 
endloop
endfacet
facet normal -0.0 1.0 0.0 
outer loop
vertex -0.23688077169749347 0.35355339059327373 -0.11667261889578034 
vertex -0.23688077169749355 0.35355339059327373 0.11667261889578028 
vertex -0.11667261889578032 0.35355339059327373 0.2368807716974935 
endloop
endfacet
facet normal -2.378927967702691e-16 1.0 8.088355090189153e-17 
outer loop
vertex -0.23688077169749347 0.35355339059327373 -0.11667261889578034 
vertex -0.11667261889578032 0.35355339059327373 0.2368807716974935 
vertex 0.11667261889578019 0.3535533905932738 0.23688077169749347 
endloop
endfacet
facet normal -7.850462293418877e-17 1.0 -7.850462293418872e-17 
outer loop
vertex -0.23688077169749347 0.35355339059327373 -0.11667261889578034 
vertex 0.11667261889578019 0.3535533905932738 0.23688077169749347 
vertex 0.23688077169749333 0.3535533905932738 0.11667261889578026 
endloop
endfacet
facet normal -1.171710790062519e-16 1.0 0.0 
outer loop
vertex -0.23688077169749347 0.35355339059327373 -0.11667261889578034 
vertex 0.23688077169749333 0.3535533905932738 0.11667261889578026 
vertex 0.23688077169749333 0.3535533905932738 -0.11667261889578029 
endloop
endfacet
facet normal -1.171710790062519e-16 1.0 1.1717107900625194e-16 
outer loop
vertex -0.23688077169749347 0.35355339059327373 -0.11667261889578034 
vertex 0.23688077169749333 0.3535533905932738 -0.11667261889578029 
vertex 0.11667261889578023 0.3535533905932738 -0.23688077169749336 
endloop
endfacet
facet normal -2.37892796770269e-16 1.0 -2.378927967702692e-16 
outer loop
vertex -0.23688077169749347 0.35355339059327373 -0.11667261889578034 
vertex 0.11667261889578023 0.3535533905932738 -0.23688077169749336 
vertex -0.11667261889578039 0.35355339059327373 -0.23688077169749336 
endloop
endfacet
facet normal 2.787415568538742e-32 2.343421580125035e-16 -1.0 
outer loop
vertex -0.1166726188957802 0.23688077169749358 -0.3535533905932738 
vertex 0.11667261889578012 0.23688077169749355 -0.3535533905932738 
vertex 0.35355339059327373 -1.2860354881397476e-16 -0.35355339059327384 
endloop
endfacet
facet normal -1.5700924586837757e-16 -7.733291214412613e-17 -1.0 
outer loop
vertex -0.1166726188957802 0.23688077169749358 -0.3535533905932738 
vertex 0.35355339059327373 -1.2860354881397476e-16 -0.35355339059327384 
vertex 0.11667261889578029 -0.23688077169749364 -0.3535533905932738 
endloop
endfacet
facet normal 0.0 0.0 -1.0 
outer loop
vertex -0.1166726188957802 0.23688077169749358 -0.3535533905932738 
vertex 0.11667261889578029 -0.23688077169749364 -0.3535533905932738 
vertex -0.11667261889578025 -0.23688077169749364 -0.3535533905932738 
endloop
endfacet
facet normal 4.617918996128746e-16 -4.0581491365490417e-32 -1.0 
outer loop
vertex -0.1166726188957802 0.23688077169749358 -0.3535533905932738 
vertex -0.11667261889578025 -0.23688077169749364 -0.3535533905932738 
vertex -0.23688077169749341 -0.11667261889578047 -0.35355339059327384 
endloop
endfacet
facet normal 1.161476595996018e-15 -2.378927967702689e-16 -1.0 
outer loop
vertex -0.1166726188957802 0.23688077169749358 -0.3535533905932738 
vertex -0.23688077169749341 -0.11667261889578047 -0.35355339059327384 
vertex -0.23688077169749341 0.11667261889578029 -0.3535533905932739 
endloop
endfacet
facet normal 0.7071067811865477 -1.6821560979169048e-16 0.7071067811865475 
outer loop
vertex 0.23688077169749344 0.1166726188957803 0.35355339059327384 
vertex 0.2368807716974934 -0.11667261889578026 0.35355339059327384 
vertex 0.35355339059327373 -0.11667261889578032 0.23688077169749347 
endloop
endfacet
facet normal 0.7071067811865478 1.200518456212845e-31 0.7071067811865472 
outer loop
vertex 0.23688077169749344 0.1166726188957803 0.35355339059327384 
vertex 0.35355339059327373 -0.11667261889578032 0.23688077169749347 
vertex 0.3535533905932737 0.11667261889578029 0.23688077169749353 
endloop
endfacet
facet normal -8.410780489584513e-17 -0.7071067811865469 0.7071067811865482 
outer loop
vertex -0.11667261889578008 -0.3535533905932736 0.2368807716974938 
vertex 0.11667261889578011 -0.3535533905932737 0.23688077169749377 
vertex 0.11667261889578032 -0.23688077169749333 0.3535533905932739 
endloop
endfacet
facet normal 2.8012097311633055e-31 -0.7071067811865469 0.7071067811865481 
outer loop
vertex -0.11667261889578008 -0.3535533905932736 0.2368807716974938 
vertex 0.11667261889578032 -0.23688077169749333 0.3535533905932739 
vertex -0.11667261889578029 -0.23688077169749328 0.35355339059327395 
endloop
endfacet
facet normal 0.7071067811865476 -0.7071067811865476 -1.682156097916905e-16 
outer loop
vertex 0.23688077169749344 -0.3535533905932739 -0.11667261889578037 
vertex 0.3535533905932738 -0.23688077169749355 -0.1166726188957803 
vertex 0.3535533905932738 -0.2368807716974936 0.11667261889578023 
endloop
endfacet
facet normal 0.7071067811865475 -0.7071067811865475 -1.3516636180128938e-16 
outer loop
vertex 0.23688077169749344 -0.3535533905932739 -0.11667261889578037 
vertex 0.3535533905932738 -0.2368807716974936 0.11667261889578023 
vertex 0.2368807716974936 -0.3535533905932738 0.11667261889578026 
endloop
endfacet
facet normal -0.7071067811865468 3.2013825499009205e-31 0.7071067811865482 
outer loop
vertex -0.23688077169749336 -0.11667261889578026 0.3535533905932739 
vertex -0.23688077169749341 0.11667261889578033 0.35355339059327384 
vertex -0.3535533905932738 0.11667261889578016 0.2368807716974937 
endloop
endfacet
facet normal -0.7071067811865469 0.0 0.7071067811865482 
outer loop
vertex -0.23688077169749336 -0.11667261889578026 0.3535533905932739 
vertex -0.3535533905932738 0.11667261889578016 0.2368807716974937 
vertex -0.3535533905932738 -0.11667261889578019 0.2368807716974937 
endloop
endfacet
facet normal -0.7071067811865477 -0.7071067811865475 -8.410780489584508e-17 
outer loop
vertex -0.23688077169749366 -0.35355339059327373 0.1166726188957802 
vertex -0.3535533905932738 -0.23688077169749355 0.11667261889578032 
vertex -0.35355339059327384 -0.23688077169749347 -0.11667261889578043 
endloop
endfacet
facet normal -0.7071067811865477 -0.7071067811865474 -9.01109078675261e-17 
outer loop
vertex -0.23688077169749366 -0.35355339059327373 0.1166726188957802 
vertex -0.35355339059327384 -0.23688077169749347 -0.11667261889578043 
vertex -0.23688077169749347 -0.3535533905932739 -0.11667261889578039 
endloop
endfacet
facet normal 8.410780489584513e-17 0.7071067811865478 0.7071067811865472 
outer loop
vertex -0.11667261889578032 0.35355339059327373 0.2368807716974935 
vertex -0.11667261889578033 0.23688077169749347 0.35355339059327384 
vertex 0.11667261889578025 0.2368807716974935 0.3535533905932738 
endloop
endfacet
facet normal -9.011090786752621e-17 0.7071067811865477 0.7071067811865475 
outer loop
vertex -0.11667261889578032 0.35355339059327373 0.2368807716974935 
vertex 0.11667261889578025 0.2368807716974935 0.3535533905932738 
vertex 0.11667261889578019 0.3535533905932738 0.23688077169749347 
endloop
endfacet
facet normal -0.707106781186548 0.7071067811865471 -2.5232341468753525e-16 
outer loop
vertex -0.23688077169749347 0.35355339059327373 -0.11667261889578034 
vertex -0.3535533905932738 0.23688077169749328 -0.11667261889578043 
vertex -0.3535533905932738 0.23688077169749336 0.11667261889578044 
endloop
endfacet
facet normal -0.707106781186548 0.7071067811865472 -2.7033272360257856e-16 
outer loop
vertex -0.23688077169749347 0.35355339059327373 -0.11667261889578034 
vertex -0.3535533905932738 0.23688077169749336 0.11667261889578044 
vertex -0.23688077169749355 0.35355339059327373 0.11667261889578028 
endloop
endfacet
facet normal 0.7071067811865471 0.7071067811865479 0.0 
outer loop
vertex 0.23688077169749333 0.3535533905932738 -0.11667261889578029 
vertex 0.23688077169749333 0.3535533905932738 0.11667261889578026 
vertex 0.3535533905932736 0.23688077169749364 0.11667261889578016 
endloop
endfacet
facet normal 0.7071067811865471 0.707106781186548 -2.0008640936880774e-31 
outer loop
vertex 0.23688077169749333 0.3535533905932738 -0.11667261889578029 
vertex 0.3535533905932736 0.23688077169749364 0.11667261889578016 
vertex 0.3535533905932737 0.23688077169749358 -0.11667261889578018 
endloop
endfacet
facet normal -1.6821560979169063e-16 0.7071067811865483 -0.7071067811865468 
outer loop
vertex -0.1166726188957802 0.23688077169749358 -0.3535533905932738 
vertex -0.11667261889578039 0.35355339059327373 -0.23688077169749336 
vertex 0.11667261889578023 0.3535533905932738 -0.23688077169749336 
endloop
endfacet
facet normal 9.011090786752626e-17 0.7071067811865481 -0.7071067811865469 
outer loop
vertex -0.1166726188957802 0.23688077169749358 -0.3535533905932738 
vertex 0.11667261889578023 0.3535533905932738 -0.23688077169749336 
vertex 0.11667261889578012 0.23688077169749355 -0.3535533905932738 
endloop
endfacet
facet normal -0.7071067811865476 8.410780489584527e-17 -0.7071067811865476 
outer loop
vertex -0.3535533905932738 -0.11667261889578037 -0.23688077169749355 
vertex -0.35355339059327373 0.11667261889578012 -0.23688077169749358 
vertex -0.23688077169749341 0.11667261889578029 -0.3535533905932739 
endloop
endfacet
facet normal -0.7071067811865472 -1.682156097916904e-16 -0.7071067811865478 
outer loop
vertex -0.3535533905932738 -0.11667261889578037 -0.23688077169749355 
vertex -0.23688077169749341 0.11667261889578029 -0.3535533905932739 
vertex -0.23688077169749341 -0.11667261889578047 -0.35355339059327384 
endloop
endfacet
facet normal -0.0 -0.7071067811865479 -0.7071067811865472 
outer loop
vertex 0.11667261889578029 -0.23688077169749364 -0.3535533905932738 
vertex 0.11667261889578039 -0.3535533905932739 -0.23688077169749341 
vertex -0.11667261889578037 -0.3535533905932739 -0.23688077169749341 
endloop
endfacet
facet normal 0.0 -0.7071067811865478 -0.7071067811865471 
outer loop
vertex 0.11667261889578029 -0.23688077169749364 -0.3535533905932738 
vertex -0.11667261889578037 -0.3535533905932739 -0.23688077169749341 
vertex -0.11667261889578025 -0.23688077169749364 -0.3535533905932738 
endloop
endfacet
endsolid test2
