solid test2
facet normal -0.0 -0.0 -1.0 
outer loop
vertex -0.00028867513459503755 0.33349999999999996 0.0 
vertex 0.28896380972940783 0.16649999999999987 0.0 
vertex 0.28896380972940783 -0.16649999999999998 0.0 
endloop
endfacet
facet normal -0.0 0.0 -1.0 
outer loop
vertex -0.00028867513459503755 0.33349999999999996 0.0 
vertex 0.28896380972940783 -0.16649999999999998 0.0 
vertex -0.0002886751345948084 -0.33350000000000013 0.0 
endloop
endfacet
facet normal 0.0 0.0 -1.0 
outer loop
vertex -0.00028867513459503755 0.33349999999999996 0.0 
vertex -0.0002886751345948084 -0.33350000000000013 0.0 
vertex -0.2886751345948129 -0.16700000000000012 0.0 
endloop
endfacet
facet normal 0.0 0.0 -1.0 
outer loop
vertex -0.00028867513459503755 0.33349999999999996 0.0 
vertex -0.2886751345948129 -0.16700000000000012 0.0 
vertex -0.28867513459481303 0.16699999999999976 0.0 
endloop
endfacet
facet normal 0.4714045207910316 -0.8164965809277259 0.3333333333333334 
outer loop
vertex -0.11189843929817594 -0.1938137821521027 0.5 
vertex -0.19254631477474016 -0.3335000000000001 0.2718933614489327 
vertex -0.0002886751345948084 -0.33350000000000013 0.0 
endloop
endfacet
facet normal 0.4714045207910318 -0.8164965809277258 0.33333333333333354 
outer loop
vertex -0.11189843929817594 -0.1938137821521027 0.5 
vertex -0.0002886751345948084 -0.33350000000000013 0.0 
vertex 0.28896380972940783 -0.16649999999999998 0.0 
endloop
endfacet
facet normal 0.4714045207910317 -0.8164965809277259 0.3333333333333334 
outer loop
vertex -0.11189843929817594 -0.1938137821521027 0.5 
vertex 0.28896380972940783 -0.16649999999999998 0.0 
vertex 0.3850926295494804 0.0 0.2718933614489327 
endloop
endfacet
facet normal 0.47140452079103173 -0.8164965809277261 0.3333333333333334 
outer loop
vertex -0.11189843929817594 -0.1938137821521027 0.5 
vertex 0.3850926295494804 0.0 0.2718933614489327 
vertex 0.223796878596352 0.0 0.5 
endloop
endfacet
facet normal -0.9428090415820634 -6.459413564157649e-16 0.33333333333333337 
outer loop
vertex -0.11189843929817613 0.19381378215210268 0.5 
vertex -0.1925463147747404 0.3334999999999999 0.27189336144893284 
vertex -0.28867513459481303 0.16699999999999976 0.0 
endloop
endfacet
facet normal -0.9428090415820632 -3.1339170832011487e-16 0.33333333333333337 
outer loop
vertex -0.11189843929817613 0.19381378215210268 0.5 
vertex -0.28867513459481303 0.16699999999999976 0.0 
vertex -0.2886751345948129 -0.16700000000000012 0.0 
endloop
endfacet
facet normal -0.9428090415820634 -3.2466244688189084e-16 0.3333333333333334 
outer loop
vertex -0.11189843929817613 0.19381378215210268 0.5 
vertex -0.2886751345948129 -0.16700000000000012 0.0 
vertex -0.19254631477474016 -0.3335000000000001 0.2718933614489327 
endloop
endfacet
facet normal -0.9428090415820632 -4.439281237856306e-16 0.3333333333333337 
outer loop
vertex -0.11189843929817613 0.19381378215210268 0.5 
vertex -0.19254631477474016 -0.3335000000000001 0.2718933614489327 
vertex -0.11189843929817594 -0.1938137821521027 0.5 
endloop
endfacet
facet normal 0.47140452079103157 0.8164965809277261 0.33333333333333326 
outer loop
vertex 0.223796878596352 0.0 0.5 
vertex 0.3850926295494804 0.0 0.2718933614489327 
vertex 0.28896380972940783 0.16649999999999987 0.0 
endloop
endfacet
facet normal 0.47140452079103146 0.8164965809277261 0.33333333333333326 
outer loop
vertex 0.223796878596352 0.0 0.5 
vertex 0.28896380972940783 0.16649999999999987 0.0 
vertex -0.00028867513459503755 0.33349999999999996 0.0 
endloop
endfacet
facet normal 0.4714045207910315 0.8164965809277263 0.33333333333333326 
outer loop
vertex 0.223796878596352 0.0 0.5 
vertex -0.00028867513459503755 0.33349999999999996 0.0 
vertex -0.1925463147747404 0.3334999999999999 0.27189336144893284 
endloop
endfacet
facet normal 0.4714045207910314 0.8164965809277261 0.3333333333333332 
outer loop
vertex 0.223796878596352 0.0 0.5 
vertex -0.1925463147747404 0.3334999999999999 0.27189336144893284 
vertex -0.11189843929817613 0.19381378215210268 0.5 
endloop
endfacet
facet normal 0.9428090415820635 0.0 -0.33333333333333315 
outer loop
vertex 0.28896380972940783 0.16649999999999987 0.0 
vertex 0.3850926295494804 0.0 0.2718933614489327 
vertex 0.28896380972940783 -0.16649999999999998 0.0 
endloop
endfacet
facet normal -0.4714045207910317 -0.8164965809277261 -0.33333333333333315 
outer loop
vertex -0.0002886751345948084 -0.33350000000000013 0.0 
vertex -0.19254631477474016 -0.3335000000000001 0.2718933614489327 
vertex -0.2886751345948129 -0.16700000000000012 0.0 
endloop
endfacet
facet normal -0.4714045207910321 0.8164965809277256 -0.3333333333333335 
outer loop
vertex -0.00028867513459503755 0.33349999999999996 0.0 
vertex -0.28867513459481303 0.16699999999999976 0.0 
vertex -0.1925463147747404 0.3334999999999999 0.27189336144893284 
endloop
endfacet
facet normal 0.0 0.0 1.0 
outer loop
vertex -0.11189843929817594 -0.1938137821521027 0.5 
vertex 0.223796878596352 0.0 0.5 
vertex -0.11189843929817613 0.19381378215210268 0.5 
endloop
endfacet
endsolid test2
