solid test
facet normal 0.0 -0.0 -1.0 
outer loop
vertex -0.28867513459481303 0.05577800000000452 0.0 
vertex -0.2883854471438065 0.16716725112781924 0.0 
vertex -0.0005783625856018158 0.33333274887218034 0.0 
endloop
endfacet
facet normal 0.0 -0.0 -1.0 
outer loop
vertex -0.28867513459481303 0.05577800000000452 0.0 
vertex -0.0005783625856018158 0.33333274887218034 0.0 
vertex 0.09603240232511624 0.27788900000000094 0.0 
endloop
endfacet
facet normal 0.0 -0.0 -1.0 
outer loop
vertex -0.28867513459481303 0.05577800000000452 0.0 
vertex 0.09603240232511624 0.27788900000000094 0.0 
vertex 0.19264273226968678 0.22211100000000455 0.0 
endloop
endfacet
facet normal 0.0 -0.0 -1.0 
outer loop
vertex -0.28867513459481303 0.05577800000000452 0.0 
vertex 0.19264273226968678 0.22211100000000455 0.0 
vertex 0.28896380972940783 0.1661654977443605 0.0 
endloop
endfacet
facet normal 0.0 -0.0 -1.0 
outer loop
vertex -0.28867513459481303 0.05577800000000452 0.0 
vertex 0.28896380972940783 0.1661654977443605 0.0 
vertex 0.28896380972940783 -0.16616549774436076 0.0 
endloop
endfacet
facet normal -0.0 0.0 -1.0 
outer loop
vertex -0.28867513459481303 0.05577800000000452 0.0 
vertex 0.28896380972940783 -0.16616549774436076 0.0 
vertex 0.19264273226968703 -0.2221110000000046 0.0 
endloop
endfacet
facet normal -0.0 0.0 -1.0 
outer loop
vertex -0.28867513459481303 0.05577800000000452 0.0 
vertex 0.19264273226968703 -0.2221110000000046 0.0 
vertex 0.09603240232511136 -0.27788900000000394 0.0 
endloop
endfacet
facet normal -0.0 0.0 -1.0 
outer loop
vertex -0.28867513459481303 0.05577800000000452 0.0 
vertex 0.09603240232511136 -0.27788900000000394 0.0 
vertex -0.0005783625856015084 -0.33333274887218056 0.0 
endloop
endfacet
facet normal 0.0 0.0 -1.0 
outer loop
vertex -0.28867513459481303 0.05577800000000452 0.0 
vertex -0.0005783625856015084 -0.33333274887218056 0.0 
vertex -0.2883854471438063 -0.16716725112781963 0.0 
endloop
endfacet
facet normal 0.0 0.0 -1.0 
outer loop
vertex -0.28867513459481303 0.05577800000000452 0.0 
vertex -0.2883854471438063 -0.16716725112781963 0.0 
vertex -0.288675134594813 -0.0557779999999863 0.0 
endloop
endfacet
facet normal 0.4714045207910161 -0.8164965809276992 0.33333333333342097 
outer loop
vertex 0.09603240232511136 -0.27788900000000394 0.0 
vertex 0.19264273226968703 -0.2221110000000046 0.0 
vertex 0.28906037221307673 -0.16633274887218039 0.00027311994804202336 
endloop
endfacet
facet normal 0.47140452079103173 -0.8164965809277259 0.3333333333333334 
outer loop
vertex 0.09603240232511136 -0.27788900000000394 0.0 
vertex 0.28906037221307673 -0.16633274887218039 0.00027311994804202336 
vertex 0.3849960670658116 -0.00016725112781952402 0.2716202415008908 
endloop
endfacet
facet normal 0.47140452079103173 -0.8164965809277259 0.3333333333333333 
outer loop
vertex 0.09603240232511136 -0.27788900000000394 0.0 
vertex 0.3849960670658116 -0.00016725112781952402 0.2716202415008908 
vertex 0.3208785779096769 0.0 0.3627057441728692 
endloop
endfacet
facet normal 0.4714045207910318 -0.816496580927726 0.33333333333333337 
outer loop
vertex 0.09603240232511136 -0.27788900000000394 0.0 
vertex 0.3208785779096769 0.0 0.3627057441728692 
vertex 0.25647169127995284 0.0 0.4537908367548513 
endloop
endfacet
facet normal 0.4714045207910316 -0.8164965809277259 0.3333333333333334 
outer loop
vertex 0.09603240232511136 -0.27788900000000394 0.0 
vertex 0.25647169127995284 0.0 0.4537908367548513 
vertex 0.19196795218913884 -0.00016725112781951746 0.5446032194787932 
endloop
endfacet
facet normal 0.4714045207910316 -0.816496580927726 0.3333333333333335 
outer loop
vertex 0.09603240232511136 -0.27788900000000394 0.0 
vertex 0.19196795218913884 -0.00016725112781951746 0.5446032194787932 
vertex -0.09583913236906602 -0.16633274887218044 0.5446032194787932 
endloop
endfacet
facet normal 0.47140452079103146 -0.816496580927726 0.3333333333333335 
outer loop
vertex 0.09603240232511136 -0.27788900000000394 0.0 
vertex -0.09583913236906602 -0.16633274887218044 0.5446032194787932 
vertex -0.1282358456399742 -0.22211099999999526 0.4537908367548574 
endloop
endfacet
facet normal 0.47140452079103157 -0.816496580927726 0.3333333333333335 
outer loop
vertex 0.09603240232511136 -0.27788900000000394 0.0 
vertex -0.1282358456399742 -0.22211099999999526 0.4537908367548574 
vertex -0.16043928895483775 -0.2778890000000033 0.3627057441728709 
endloop
endfacet
facet normal 0.47140452079103207 -0.8164965809277257 0.3333333333333338 
outer loop
vertex 0.09603240232511136 -0.27788900000000394 0.0 
vertex -0.16043928895483775 -0.2778890000000033 0.3627057441728709 
vertex -0.19235318980740235 -0.3335000000000001 0.27162024150089076 
endloop
endfacet
facet normal 0.4714045207910315 -0.8164965809277261 0.3333333333333332 
outer loop
vertex 0.09603240232511136 -0.27788900000000394 0.0 
vertex -0.19235318980740235 -0.3335000000000001 0.27162024150089076 
vertex -0.0004818001019326084 -0.3335000000000001 0.0002731199480419779 
endloop
endfacet
facet normal -0.9428090415820631 1.5760239469669859e-16 0.3333333333333339 
outer loop
vertex -0.288675134594813 -0.0557779999999863 0.0 
vertex -0.2885785721111441 -0.16716725112781966 0.0002731199480418869 
vertex -0.19264287725840906 -0.3333327488721805 0.27162024150089076 
endloop
endfacet
facet normal -0.9428090415820632 -4.054234460032634e-17 0.33333333333333376 
outer loop
vertex -0.288675134594813 -0.0557779999999863 0.0 
vertex -0.19264287725840906 -0.3333327488721805 0.27162024150089076 
vertex -0.16043928895483775 -0.2778890000000033 0.3627057441728709 
endloop
endfacet
facet normal -0.9428090415820632 -5.658934446906683e-16 0.3333333333333334 
outer loop
vertex -0.288675134594813 -0.0557779999999863 0.0 
vertex -0.16043928895483775 -0.2778890000000033 0.3627057441728709 
vertex -0.1282358456399742 -0.22211099999999526 0.4537908367548574 
endloop
endfacet
facet normal -0.9428090415820632 -3.6351327835236334e-16 0.33333333333333354 
outer loop
vertex -0.288675134594813 -0.0557779999999863 0.0 
vertex -0.1282358456399742 -0.22211099999999526 0.4537908367548574 
vertex -0.09612881982007265 -0.1661654977443609 0.5446032194787932 
endloop
endfacet
facet normal -0.9428090415820632 -4.724483963269258e-16 0.33333333333333354 
outer loop
vertex -0.288675134594813 -0.0557779999999863 0.0 
vertex -0.09612881982007265 -0.1661654977443609 0.5446032194787932 
vertex -0.09612881982007282 0.16616549774436098 0.5446032194787932 
endloop
endfacet
facet normal -0.9428090415820632 -5.169200364185375e-16 0.3333333333333335 
outer loop
vertex -0.288675134594813 -0.0557779999999863 0.0 
vertex -0.09612881982007282 0.16616549774436098 0.5446032194787932 
vertex -0.12823584563997648 0.2221109999999988 0.45379083675485155 
endloop
endfacet
facet normal -0.9428090415820632 -5.169223637340084e-16 0.3333333333333335 
outer loop
vertex -0.288675134594813 -0.0557779999999863 0.0 
vertex -0.12823584563997648 0.2221109999999988 0.45379083675485155 
vertex -0.16043928895483398 0.2778889999999962 0.36270574417288237 
endloop
endfacet
facet normal -0.9428090415820634 -2.914660598152674e-16 0.3333333333333333 
outer loop
vertex -0.288675134594813 -0.0557779999999863 0.0 
vertex -0.16043928895483398 0.2778889999999962 0.36270574417288237 
vertex -0.19264287725840928 0.3333327488721803 0.27162024150089087 
endloop
endfacet
facet normal -0.9428090415820634 -4.3288890764095442e-16 0.33333333333333337 
outer loop
vertex -0.288675134594813 -0.0557779999999863 0.0 
vertex -0.19264287725840928 0.3333327488721803 0.27162024150089087 
vertex -0.28857857211114424 0.16716725112781924 0.00027311994804182235 
endloop
endfacet
facet normal -0.9428090415820588 -4.691295688848721e-16 0.33333333333334664 
outer loop
vertex -0.288675134594813 -0.0557779999999863 0.0 
vertex -0.28857857211114424 0.16716725112781924 0.00027311994804182235 
vertex -0.28867513459481303 0.05577800000000452 0.0 
endloop
endfacet
facet normal 0.47140452079103107 0.8164965809277261 0.33333333333333354 
outer loop
vertex 0.3849960670658116 0.000167251127819524 0.2716202415008908 
vertex 0.2890603722130768 0.16633274887218022 0.0002731199480421311 
vertex 0.19264273226968678 0.22211100000000455 0.0 
endloop
endfacet
facet normal 0.47140452079103184 0.816496580927726 0.3333333333333329 
outer loop
vertex 0.3849960670658116 0.000167251127819524 0.2716202415008908 
vertex 0.19264273226968678 0.22211100000000455 0.0 
vertex 0.09603240232511624 0.27788900000000094 0.0 
endloop
endfacet
facet normal 0.47140452079103146 0.816496580927726 0.33333333333333326 
outer loop
vertex 0.3849960670658116 0.000167251127819524 0.2716202415008908 
vertex 0.09603240232511624 0.27788900000000094 0.0 
vertex -0.0004818001019328897 0.3335 0.0002731199480420516 
endloop
endfacet
facet normal 0.47140452079103135 0.8164965809277261 0.3333333333333336 
outer loop
vertex 0.3849960670658116 0.000167251127819524 0.2716202415008908 
vertex -0.0004818001019328897 0.3335 0.0002731199480420516 
vertex -0.19235318980740262 0.33349999999999985 0.27162024150089087 
endloop
endfacet
facet normal 0.4714045207910315 0.8164965809277264 0.333333333333333 
outer loop
vertex 0.3849960670658116 0.000167251127819524 0.2716202415008908 
vertex -0.19235318980740262 0.33349999999999985 0.27162024150089087 
vertex -0.16043928895483398 0.2778889999999962 0.36270574417288237 
endloop
endfacet
facet normal 0.47140452079103146 0.8164965809277261 0.33333333333333326 
outer loop
vertex 0.3849960670658116 0.000167251127819524 0.2716202415008908 
vertex -0.16043928895483398 0.2778889999999962 0.36270574417288237 
vertex -0.12823584563997648 0.2221109999999988 0.45379083675485155 
endloop
endfacet
facet normal 0.47140452079103157 0.8164965809277263 0.33333333333333337 
outer loop
vertex 0.3849960670658116 0.000167251127819524 0.2716202415008908 
vertex -0.12823584563997648 0.2221109999999988 0.45379083675485155 
vertex -0.09583913236906626 0.16633274887218047 0.5446032194787932 
endloop
endfacet
facet normal 0.4714045207910313 0.8164965809277263 0.33333333333333304 
outer loop
vertex 0.3849960670658116 0.000167251127819524 0.2716202415008908 
vertex -0.09583913236906626 0.16633274887218047 0.5446032194787932 
vertex 0.19196795218913887 0.0001672511278195174 0.5446032194787932 
endloop
endfacet
facet normal 0.47140452079103223 0.8164965809277255 0.3333333333333337 
outer loop
vertex 0.3849960670658116 0.000167251127819524 0.2716202415008908 
vertex 0.19196795218913887 0.0001672511278195174 0.5446032194787932 
vertex 0.25647169127995284 0.0 0.4537908367548513 
endloop
endfacet
facet normal 0.47140452079101536 0.81649658092774 0.3333333333333218 
outer loop
vertex 0.3849960670658116 0.000167251127819524 0.2716202415008908 
vertex 0.25647169127995284 0.0 0.4537908367548513 
vertex 0.3208785779096769 0.0 0.3627057441728692 
endloop
endfacet
facet normal 0.9428090415820634 0.0 -0.3333333333333332 
outer loop
vertex 0.3849960670658116 0.000167251127819524 0.2716202415008908 
vertex 0.3849960670658116 -0.00016725112781952402 0.2716202415008908 
vertex 0.28906037221307673 -0.16633274887218039 0.00027311994804202336 
endloop
endfacet
facet normal 0.9428090415820695 -3.129052562471792e-14 -0.33333333333331616 
outer loop
vertex 0.3849960670658116 0.000167251127819524 0.2716202415008908 
vertex 0.28906037221307673 -0.16633274887218039 0.00027311994804202336 
vertex 0.28896380972940783 -0.16616549774436076 0.0 
endloop
endfacet
facet normal 0.9428090415820635 0.0 -0.3333333333333332 
outer loop
vertex 0.3849960670658116 0.000167251127819524 0.2716202415008908 
vertex 0.28896380972940783 -0.16616549774436076 0.0 
vertex 0.28896380972940783 0.1661654977443605 0.0 
endloop
endfacet
facet normal 0.94280904158206 -1.7772607185688842e-14 -0.3333333333333428 
outer loop
vertex 0.3849960670658116 0.000167251127819524 0.2716202415008908 
vertex 0.28896380972940783 0.1661654977443605 0.0 
vertex 0.2890603722130768 0.16633274887218022 0.0002731199480421311 
endloop
endfacet
facet normal -0.47140452079086576 -0.8164965809277837 -0.33333333333342696 
outer loop
vertex -0.19264287725840906 -0.3333327488721805 0.27162024150089076 
vertex -0.2885785721111441 -0.16716725112781966 0.0002731199480418869 
vertex -0.2883854471438063 -0.16716725112781963 0.0 
endloop
endfacet
facet normal -0.4714045207910317 -0.816496580927726 -0.33333333333333315 
outer loop
vertex -0.19264287725840906 -0.3333327488721805 0.27162024150089076 
vertex -0.2883854471438063 -0.16716725112781963 0.0 
vertex -0.0005783625856015084 -0.33333274887218056 0.0 
endloop
endfacet
facet normal -0.47140452079091405 -0.816496580927828 -0.33333333333325 
outer loop
vertex -0.19264287725840906 -0.3333327488721805 0.27162024150089076 
vertex -0.0005783625856015084 -0.33333274887218056 0.0 
vertex -0.0004818001019326084 -0.3335000000000001 0.0002731199480419779 
endloop
endfacet
facet normal -0.47140452079101847 -0.8164965809277375 -0.333333333333324 
outer loop
vertex -0.19264287725840906 -0.3333327488721805 0.27162024150089076 
vertex -0.0004818001019326084 -0.3335000000000001 0.0002731199480419779 
vertex -0.19235318980740235 -0.3335000000000001 0.27162024150089076 
endloop
endfacet
facet normal -0.4714045207910147 0.8164965809276955 -0.33333333333343235 
outer loop
vertex -0.0005783625856018158 0.33333274887218034 0.0 
vertex -0.2883854471438065 0.16716725112781924 0.0 
vertex -0.28857857211114424 0.16716725112781924 0.00027311994804182235 
endloop
endfacet
facet normal -0.4714045207910322 0.8164965809277259 -0.3333333333333332 
outer loop
vertex -0.0005783625856018158 0.33333274887218034 0.0 
vertex -0.28857857211114424 0.16716725112781924 0.00027311994804182235 
vertex -0.19264287725840928 0.3333327488721803 0.27162024150089087 
endloop
endfacet
facet normal -0.47140452079106243 0.8164965809276996 -0.33333333333335463 
outer loop
vertex -0.0005783625856018158 0.33333274887218034 0.0 
vertex -0.19264287725840928 0.3333327488721803 0.27162024150089087 
vertex -0.19235318980740262 0.33349999999999985 0.27162024150089087 
endloop
endfacet
facet normal -0.47140452079111655 0.8164965809276528 -0.3333333333333928 
outer loop
vertex -0.0005783625856018158 0.33333274887218034 0.0 
vertex -0.19235318980740262 0.33349999999999985 0.27162024150089087 
vertex -0.0004818001019328897 0.3335 0.0002731199480420516 
endloop
endfacet
facet normal -0.0 0.0 1.0 
outer loop
vertex -0.09583913236906626 0.16633274887218047 0.5446032194787932 
vertex -0.09612881982007282 0.16616549774436098 0.5446032194787932 
vertex -0.09612881982007265 -0.1661654977443609 0.5446032194787932 
endloop
endfacet
facet normal -0.0 0.0 1.0 
outer loop
vertex -0.09583913236906626 0.16633274887218047 0.5446032194787932 
vertex -0.09612881982007265 -0.1661654977443609 0.5446032194787932 
vertex -0.09583913236906602 -0.16633274887218044 0.5446032194787932 
endloop
endfacet
facet normal 0.0 -0.0 1.0 
outer loop
vertex -0.09583913236906626 0.16633274887218047 0.5446032194787932 
vertex -0.09583913236906602 -0.16633274887218044 0.5446032194787932 
vertex 0.19196795218913884 -0.00016725112781951746 0.5446032194787932 
endloop
endfacet
facet normal 0.0 -0.0 1.0 
outer loop
vertex -0.09583913236906626 0.16633274887218047 0.5446032194787932 
vertex 0.19196795218913884 -0.00016725112781951746 0.5446032194787932 
vertex 0.19196795218913887 0.0001672511278195174 0.5446032194787932 
endloop
endfacet
facet normal -0.8164947401368 0.002123439000043881 -0.5773489675540715 
outer loop
vertex -0.28857857211114424 0.16716725112781924 0.00027311994804182235 
vertex -0.2883854471438065 0.16716725112781924 0.0 
vertex -0.28867513459481303 0.05577800000000452 0.0 
endloop
endfacet
facet normal 0.4064084179509825 0.7081669065148811 -0.5773489675540462 
outer loop
vertex -0.0004818001019328897 0.3335 0.0002731199480420516 
vertex 0.09603240232511624 0.27788900000000094 0.0 
vertex -0.0005783625856018158 0.33333274887218034 0.0 
endloop
endfacet
facet normal 0.41008632218584645 0.7060434675148546 -0.5773489675540147 
outer loop
vertex 0.19264273226968678 0.22211100000000455 0.0 
vertex 0.2890603722130768 0.16633274887218022 0.0002731199480421311 
vertex 0.28896380972940783 0.1661654977443605 0.0 
endloop
endfacet
facet normal 0.410086322185863 -0.7060434675148836 -0.5773489675539675 
outer loop
vertex 0.19264273226968703 -0.2221110000000046 0.0 
vertex 0.28896380972940783 -0.16616549774436076 0.0 
vertex 0.28906037221307673 -0.16633274887218039 0.00027311994804202336 
endloop
endfacet
facet normal 0.4064084179510579 -0.70816690651501 -0.5773489675538348 
outer loop
vertex -0.0004818001019326084 -0.3335000000000001 0.0002731199480419779 
vertex -0.0005783625856015084 -0.33333274887218056 0.0 
vertex 0.09603240232511136 -0.27788900000000394 0.0 
endloop
endfacet
facet normal -0.8164947401367861 -0.002123439000044304 -0.5773489675540914 
outer loop
vertex -0.2883854471438063 -0.16716725112781963 0.0 
vertex -0.2885785721111441 -0.16716725112781966 0.0002731199480418869 
vertex -0.288675134594813 -0.0557779999999863 0.0 
endloop
endfacet
facet normal -0.40763438602931196 -0.7060434675148939 0.5790827482372887 
outer loop
vertex -0.1282358456399742 -0.22211099999999526 0.4537908367548574 
vertex -0.09583913236906602 -0.16633274887218044 0.5446032194787932 
vertex -0.09612881982007265 -0.1661654977443609 0.5446032194787932 
endloop
endfacet
facet normal -0.40886035410755817 -0.70816690651496 0.5756151868705984 
outer loop
vertex -0.19264287725840906 -0.3333327488721805 0.27162024150089076 
vertex -0.19235318980740235 -0.3335000000000001 0.27162024150089076 
vertex -0.16043928895483775 -0.2778890000000033 0.3627057441728709 
endloop
endfacet
facet normal 0.8177207082151743 0.0 0.5756151868705981 
outer loop
vertex 0.3849960670658116 -0.00016725112781952402 0.2716202415008908 
vertex 0.3849960670658116 0.000167251127819524 0.2716202415008908 
vertex 0.3208785779096769 0.0 0.3627057441728692 
endloop
endfacet
facet normal 0.8152687720586073 -6.983581420741528e-14 0.5790827482372882 
outer loop
vertex 0.19196795218913884 -0.00016725112781951746 0.5446032194787932 
vertex 0.25647169127995284 0.0 0.4537908367548513 
vertex 0.19196795218913887 0.0001672511278195174 0.5446032194787932 
endloop
endfacet
facet normal -0.40763438602927893 0.7060434675149109 0.5790827482372909 
outer loop
vertex -0.09583913236906626 0.16633274887218047 0.5446032194787932 
vertex -0.12823584563997648 0.2221109999999988 0.45379083675485155 
vertex -0.09612881982007282 0.16616549774436098 0.5446032194787932 
endloop
endfacet
facet normal -0.4088603541076172 0.7081669065149264 0.5756151868705981 
outer loop
vertex -0.16043928895483398 0.2778889999999962 0.36270574417288237 
vertex -0.19235318980740262 0.33349999999999985 0.27162024150089087 
vertex -0.19264287725840928 0.3333327488721803 0.27162024150089087 
endloop
endfacet
endsolid test
