solid test
facet normal -0.0 0.0 -1.0 
outer loop
vertex 0.0 5.103904850112239 0.0 
vertex 4.854101966249684 1.5771933363574009 0.0 
vertex 3.0000000000000004 -4.12914576141352 0.0 
endloop
endfacet
facet normal 0.0 0.0 -1.0 
outer loop
vertex 0.0 5.103904850112239 0.0 
vertex 3.0000000000000004 -4.12914576141352 0.0 
vertex -2.999999999999999 -4.12914576141352 0.0 
endloop
endfacet
facet normal 0.0 0.0 -1.0 
outer loop
vertex 0.0 5.103904850112239 0.0 
vertex -2.999999999999999 -4.12914576141352 0.0 
vertex -4.854101966249685 1.5771933363573998 0.0 
endloop
endfacet
facet normal 0.13835088776848428 0.19042366060567817 0.9719042449414478 
outer loop
vertex 4.854101966249684 1.5771933363574009 0.0 
vertex 0.0 5.103904850112239 0.0 
vertex 0 0 1 
endloop
endfacet
facet normal 0.22385643878312966 -0.07273536608919465 0.9719042449414479 
outer loop
vertex 3.0000000000000004 -4.12914576141352 0.0 
vertex 4.854101966249684 1.5771933363574009 0.0 
vertex 0 0 1 
endloop
endfacet
facet normal 0.0 -0.23537658903296704 0.9719042449414479 
outer loop
vertex -2.999999999999999 -4.12914576141352 0.0 
vertex 3.0000000000000004 -4.12914576141352 0.0 
vertex 0 0 1 
endloop
endfacet
facet normal -0.22385643878312964 -0.07273536608919473 0.9719042449414478 
outer loop
vertex -4.854101966249685 1.5771933363573998 0.0 
vertex -2.999999999999999 -4.12914576141352 0.0 
vertex 0 0 1 
endloop
endfacet
facet normal -0.1383508877684843 0.19042366060567822 0.9719042449414479 
outer loop
vertex 0.0 5.103904850112239 0.0 
vertex -4.854101966249685 1.5771933363573998 0.0 
vertex 0 0 1 
endloop
endfacet
endsolid test
