solid test2
facet normal 0.0 -0.0 -1.0 
outer loop
vertex -0.28867513459481303 0.16699999999999976 0.0 
vertex -0.00028867513459503755 0.33349999999999996 0.0 
vertex 0.28896380972940783 0.16649999999999987 0.0 
endloop
endfacet
facet normal -0.0 -0.0 -1.0 
outer loop
vertex -0.28867513459481303 0.16699999999999976 0.0 
vertex 0.28896380972940783 0.16649999999999987 0.0 
vertex 0.28896380972940783 -0.16649999999999998 0.0 
endloop
endfacet
facet normal -0.0 0.0 -1.0 
outer loop
vertex -0.28867513459481303 0.16699999999999976 0.0 
vertex 0.28896380972940783 -0.16649999999999998 0.0 
vertex -0.0002886751345948084 -0.33350000000000013 0.0 
endloop
endfacet
facet normal 0.0 0.0 -1.0 
outer loop
vertex -0.28867513459481303 0.16699999999999976 0.0 
vertex -0.0002886751345948084 -0.33350000000000013 0.0 
vertex -0.2886751345948129 -0.16700000000000012 0.0 
endloop
endfacet
facet normal 0.4714045207910317 -0.8164965809277258 0.33333333333333354 
outer loop
vertex -0.09612881982007265 -0.16649999999999998 0.5446032194787932 
vertex -0.19254631477474016 -0.3335000000000001 0.2718933614489327 
vertex -0.0002886751345948084 -0.33350000000000013 0.0 
endloop
endfacet
facet normal 0.47140452079103184 -0.8164965809277259 0.33333333333333354 
outer loop
vertex -0.09612881982007265 -0.16649999999999998 0.5446032194787932 
vertex -0.0002886751345948084 -0.33350000000000013 0.0 
vertex 0.28896380972940783 -0.16649999999999998 0.0 
endloop
endfacet
facet normal 0.4714045207910317 -0.816496580927726 0.3333333333333334 
outer loop
vertex -0.09612881982007265 -0.16649999999999998 0.5446032194787932 
vertex 0.28896380972940783 -0.16649999999999998 0.0 
vertex 0.3850926295494804 0.0 0.2718933614489327 
endloop
endfacet
facet normal 0.47140452079103157 -0.816496580927726 0.33333333333333326 
outer loop
vertex -0.09612881982007265 -0.16649999999999998 0.5446032194787932 
vertex 0.3850926295494804 0.0 0.2718933614489327 
vertex 0.19225763964014544 0.0 0.5446032194787932 
endloop
endfacet
facet normal -0.9428090415820632 -6.123332477035527e-16 0.3333333333333334 
outer loop
vertex -0.09612881982007282 0.16649999999999998 0.5446032194787932 
vertex -0.1925463147747404 0.3334999999999999 0.27189336144893284 
vertex -0.28867513459481303 0.16699999999999976 0.0 
endloop
endfacet
facet normal -0.9428090415820634 -3.133917083201149e-16 0.33333333333333337 
outer loop
vertex -0.09612881982007282 0.16649999999999998 0.5446032194787932 
vertex -0.28867513459481303 0.16699999999999976 0.0 
vertex -0.2886751345948129 -0.16700000000000012 0.0 
endloop
endfacet
facet normal -0.9428090415820634 -3.607360520909898e-16 0.33333333333333337 
outer loop
vertex -0.09612881982007282 0.16649999999999998 0.5446032194787932 
vertex -0.2886751345948129 -0.16700000000000012 0.0 
vertex -0.19254631477474016 -0.3335000000000001 0.2718933614489327 
endloop
endfacet
facet normal -0.9428090415820634 -4.682548364791876e-16 0.33333333333333365 
outer loop
vertex -0.09612881982007282 0.16649999999999998 0.5446032194787932 
vertex -0.19254631477474016 -0.3335000000000001 0.2718933614489327 
vertex -0.09612881982007265 -0.16649999999999998 0.5446032194787932 
endloop
endfacet
facet normal 0.4714045207910314 0.8164965809277261 0.33333333333333315 
outer loop
vertex -0.09612881982007282 0.16649999999999998 0.5446032194787932 
vertex 0.19225763964014544 0.0 0.5446032194787932 
vertex 0.3850926295494804 0.0 0.2718933614489327 
endloop
endfacet
facet normal 0.4714045207910315 0.816496580927726 0.3333333333333333 
outer loop
vertex -0.09612881982007282 0.16649999999999998 0.5446032194787932 
vertex 0.3850926295494804 0.0 0.2718933614489327 
vertex 0.28896380972940783 0.16649999999999987 0.0 
endloop
endfacet
facet normal 0.4714045207910314 0.8164965809277261 0.3333333333333333 
outer loop
vertex -0.09612881982007282 0.16649999999999998 0.5446032194787932 
vertex 0.28896380972940783 0.16649999999999987 0.0 
vertex -0.00028867513459503755 0.33349999999999996 0.0 
endloop
endfacet
facet normal 0.4714045207910316 0.8164965809277263 0.3333333333333333 
outer loop
vertex -0.09612881982007282 0.16649999999999998 0.5446032194787932 
vertex -0.00028867513459503755 0.33349999999999996 0.0 
vertex -0.1925463147747404 0.3334999999999999 0.27189336144893284 
endloop
endfacet
facet normal 0.9428090415820634 0.0 -0.3333333333333331 
outer loop
vertex 0.28896380972940783 -0.16649999999999998 0.0 
vertex 0.28896380972940783 0.16649999999999987 0.0 
vertex 0.3850926295494804 0.0 0.2718933614489327 
endloop
endfacet
facet normal -0.4714045207910317 -0.8164965809277261 -0.33333333333333326 
outer loop
vertex -0.2886751345948129 -0.16700000000000012 0.0 
vertex -0.0002886751345948084 -0.33350000000000013 0.0 
vertex -0.19254631477474016 -0.3335000000000001 0.2718933614489327 
endloop
endfacet
facet normal -0.4714045207910321 0.8164965809277256 -0.3333333333333334 
outer loop
vertex -0.1925463147747404 0.3334999999999999 0.27189336144893284 
vertex -0.00028867513459503755 0.33349999999999996 0.0 
vertex -0.28867513459481303 0.16699999999999976 0.0 
endloop
endfacet
facet normal 0.0 0.0 1.0 
outer loop
vertex 0.19225763964014544 0.0 0.5446032194787932 
vertex -0.09612881982007282 0.16649999999999998 0.5446032194787932 
vertex -0.09612881982007265 -0.16649999999999998 0.5446032194787932 
endloop
endfacet
endsolid test2
