solid test
facet normal 0.0 0.0 -1.0 
outer loop
vertex -6.661338147750939e-16 -1.7763568394002506e-16 -5.0 
vertex 4.253254041760199 -7.97633917279202e-17 -5.0 
vertex 1.3143277802978337 -4.045084971874737 -5.0 
endloop
endfacet
facet normal 0.0 0.0 -1.0 
outer loop
vertex -6.661338147750939e-16 -1.7763568394002506e-16 -5.0 
vertex 1.3143277802978337 -4.045084971874737 -5.0 
vertex -3.4409548011779343 -2.5000000000000004 -5.0 
endloop
endfacet
facet normal 0.0 0.0 -1.0 
outer loop
vertex -6.661338147750939e-16 -1.7763568394002506e-16 -5.0 
vertex -3.4409548011779343 -2.5000000000000004 -5.0 
vertex -3.4409548011779347 2.4999999999999996 -5.0 
endloop
endfacet
facet normal 0.0 0.0 -1.0 
outer loop
vertex -6.661338147750939e-16 -1.7763568394002506e-16 -5.0 
vertex -3.4409548011779347 2.4999999999999996 -5.0 
vertex 1.3143277802978328 4.045084971874737 -5.0 
endloop
endfacet
facet normal 0.0 -0.0 -1.0 
outer loop
vertex -6.661338147750939e-16 -1.7763568394002506e-16 -5.0 
vertex 1.3143277802978328 4.045084971874737 -5.0 
vertex 4.253254041760199 -7.97633917279202e-17 -5.0 
endloop
endfacet
facet normal 0.7236067977499789 -0.5257311121191336 -0.447213595499958 
outer loop
vertex 7.6467740422203025 -5.555706543720509 0.8416155596754649 
vertex 5.744661009629995 -9.173740532470404 2.017186064260411 
vertex 4.932361769047729 -6.673740532470405 -2.236067977499789 
endloop
endfacet
facet normal 0.723606797749979 -0.5257311121191337 -0.44721359549995787 
outer loop
vertex 7.6467740422203025 -5.555706543720509 0.8416155596754649 
vertex 4.932361769047729 -6.673740532470405 -2.236067977499789 
vertex 7.871288030510095 -2.628655560595668 -2.236067977499789 
endloop
endfacet
facet normal 0.7236067977499787 -0.5257311121191339 -0.44721359549995815 
outer loop
vertex 7.6467740422203025 -5.555706543720509 0.8416155596754649 
vertex 7.871288030510095 -2.628655560595668 -2.236067977499789 
vertex 10.499943591105765 -2.6286555605956687 2.017186064260412 
endloop
endfacet
facet normal 0.7236067977499788 -0.5257311121191339 -0.4472135954999581 
outer loop
vertex 7.6467740422203025 -5.555706543720509 0.8416155596754649 
vertex 10.499943591105765 -2.6286555605956687 2.017186064260412 
vertex 9.18561581080793 -6.673740532470405 4.64584162485608 
endloop
endfacet
facet normal 0.723606797749979 -0.5257311121191336 -0.44721359549995815 
outer loop
vertex 7.6467740422203025 -5.555706543720509 0.8416155596754649 
vertex 9.18561581080793 -6.673740532470405 4.64584162485608 
vertex 5.744661009629995 -9.173740532470404 2.017186064260411 
endloop
endfacet
facet normal -0.2763932022500211 -0.85065080835204 -0.44721359549995776 
outer loop
vertex -2.920807779837731 -8.98932201925999 0.8416155596754645 
vertex -6.949547833308138 -8.298339013634937 2.0171860642604105 
vertex -4.822920812428039 -6.753254041760201 -2.2360679774997894 
endloop
endfacet
facet normal -0.2763932022500209 -0.85065080835204 -0.4472135954999579 
outer loop
vertex -2.920807779837731 -8.98932201925999 0.8416155596754645 
vertex -4.822920812428039 -6.753254041760201 -2.2360679774997894 
vertex -0.06763823095227117 -8.298339013634937 -2.2360679774997894 
endloop
endfacet
facet normal -0.2763932022500209 -0.85065080835204 -0.447213595499958 
outer loop
vertex -2.920807779837731 -8.98932201925999 0.8416155596754645 
vertex -0.06763823095227117 -8.298339013634937 -2.2360679774997894 
vertex 0.744661009629995 -10.798339013634937 2.0171860642604105 
endloop
endfacet
facet normal -0.27639320225002106 -0.8506508083520401 -0.4472135954999576 
outer loop
vertex -2.920807779837731 -8.98932201925999 0.8416155596754645 
vertex 0.744661009629995 -10.798339013634937 2.0171860642604105 
vertex -3.5085930321302037 -10.798339013634937 4.6458416248560805 
endloop
endfacet
facet normal -0.2763932022500211 -0.85065080835204 -0.4472135954999576 
outer loop
vertex -2.920807779837731 -8.98932201925999 0.8416155596754645 
vertex -3.5085930321302037 -10.798339013634937 4.6458416248560805 
vertex -6.949547833308138 -8.298339013634937 2.0171860642604105 
endloop
endfacet
facet normal -0.894427190999916 -7.743592732424824e-17 -0.44721359549995804 
outer loop
vertex -9.451932524765141 -9.679418114280455e-16 0.8416155596754645 
vertex -10.039717777057614 4.045084971874736 2.0171860642604105 
vertex -7.913090756177514 2.499999999999999 -2.2360679774997894 
endloop
endfacet
facet normal -0.894427190999916 -0.0 -0.447213595499958 
outer loop
vertex -9.451932524765141 -9.679418114280455e-16 0.8416155596754645 
vertex -7.913090756177514 2.499999999999999 -2.2360679774997894 
vertex -7.913090756177514 -2.500000000000001 -2.2360679774997894 
endloop
endfacet
facet normal -0.8944271909999161 -2.5811975774749425e-16 -0.4472135954999578 
outer loop
vertex -9.451932524765141 -9.679418114280455e-16 0.8416155596754645 
vertex -7.913090756177514 -2.500000000000001 -2.2360679774997894 
vertex -10.039717777057612 -4.045084971874737 2.0171860642604105 
endloop
endfacet
facet normal -0.8944271909999161 -1.290598788737471e-16 -0.44721359549995743 
outer loop
vertex -9.451932524765141 -9.679418114280455e-16 0.8416155596754645 
vertex -10.039717777057612 -4.045084971874737 2.0171860642604105 
vertex -11.354045557355446 -2.1751737980398513e-15 4.6458416248560805 
endloop
endfacet
facet normal -0.8944271909999162 -3.0974370929699295e-16 -0.4472135954999575 
outer loop
vertex -9.451932524765141 -9.679418114280455e-16 0.8416155596754645 
vertex -11.354045557355446 -2.1751737980398513e-15 4.6458416248560805 
vertex -10.039717777057614 4.045084971874736 2.0171860642604105 
endloop
endfacet
facet normal -0.2763932022500209 0.85065080835204 -0.447213595499958 
outer loop
vertex -2.920807779837734 8.98932201925999 0.841615559675464 
vertex 0.7446610096299922 10.798339013634937 2.01718606426041 
vertex -0.06763823095227317 8.298339013634937 -2.23606797749979 
endloop
endfacet
facet normal -0.2763932022500212 0.8506508083520399 -0.44721359549995826 
outer loop
vertex -2.920807779837734 8.98932201925999 0.841615559675464 
vertex -0.06763823095227317 8.298339013634937 -2.23606797749979 
vertex -4.822920812428041 6.753254041760199 -2.23606797749979 
endloop
endfacet
facet normal -0.2763932022500213 0.8506508083520399 -0.44721359549995815 
outer loop
vertex -2.920807779837734 8.98932201925999 0.841615559675464 
vertex -4.822920812428041 6.753254041760199 -2.23606797749979 
vertex -6.94954783330814 8.298339013634937 2.01718606426041 
endloop
endfacet
facet normal -0.27639320225002123 0.8506508083520401 -0.44721359549995776 
outer loop
vertex -2.920807779837734 8.98932201925999 0.841615559675464 
vertex -6.94954783330814 8.298339013634937 2.01718606426041 
vertex -3.5085930321302077 10.798339013634937 4.64584162485608 
endloop
endfacet
facet normal -0.27639320225002106 0.8506508083520401 -0.4472135954999578 
outer loop
vertex -2.920807779837734 8.98932201925999 0.841615559675464 
vertex -3.5085930321302077 10.798339013634937 4.64584162485608 
vertex 0.7446610096299922 10.798339013634937 2.01718606426041 
endloop
endfacet
facet normal 0.7236067977499787 0.525731112119134 -0.4472135954999578 
outer loop
vertex 7.6467740422203025 5.555706543720509 0.8416155596754636 
vertex 10.499943591105765 2.6286555605956674 2.0171860642604105 
vertex 7.871288030510096 2.6286555605956683 -2.2360679774997902 
endloop
endfacet
facet normal 0.723606797749979 0.5257311121191337 -0.44721359549995765 
outer loop
vertex 7.6467740422203025 5.555706543720509 0.8416155596754636 
vertex 7.871288030510096 2.6286555605956683 -2.2360679774997902 
vertex 4.932361769047729 6.673740532470406 -2.2360679774997902 
endloop
endfacet
facet normal 0.723606797749979 0.5257311121191339 -0.44721359549995765 
outer loop
vertex 7.6467740422203025 5.555706543720509 0.8416155596754636 
vertex 4.932361769047729 6.673740532470406 -2.2360679774997902 
vertex 5.7446610096299935 9.173740532470404 2.0171860642604096 
endloop
endfacet
facet normal 0.7236067977499793 0.5257311121191338 -0.4472135954999574 
outer loop
vertex 7.6467740422203025 5.555706543720509 0.8416155596754636 
vertex 5.7446610096299935 9.173740532470404 2.0171860642604096 
vertex 9.185615810807926 6.673740532470404 4.645841624856079 
endloop
endfacet
facet normal 0.7236067977499788 0.5257311121191344 -0.44721359549995743 
outer loop
vertex 7.6467740422203025 5.555706543720509 0.8416155596754636 
vertex 9.185615810807926 6.673740532470404 4.645841624856079 
vertex 10.499943591105765 2.6286555605956674 2.0171860642604105 
endloop
endfacet
facet normal 0.27639320225002095 -0.85065080835204 0.44721359549995804 
outer loop
vertex 2.920807779837734 -8.989322019259989 10.293548084440605 
vertex 3.5085930321302063 -10.798339013634937 6.4893220192599905 
vertex 6.949547833308141 -8.298339013634937 9.117977579855658 
endloop
endfacet
facet normal 0.27639320225002095 -0.8506508083520399 0.44721359549995826 
outer loop
vertex 2.920807779837734 -8.989322019259989 10.293548084440605 
vertex 6.949547833308141 -8.298339013634937 9.117977579855658 
vertex 4.822920812428042 -6.753254041760197 13.371231621615859 
endloop
endfacet
facet normal 0.2763932022500208 -0.8506508083520399 0.44721359549995837 
outer loop
vertex 2.920807779837734 -8.989322019259989 10.293548084440605 
vertex 4.822920812428042 -6.753254041760197 13.371231621615859 
vertex 0.06763823095227317 -8.298339013634934 13.371231621615859 
endloop
endfacet
facet normal 0.2763932022500211 -0.8506508083520394 0.4472135954999586 
outer loop
vertex 2.920807779837734 -8.989322019259989 10.293548084440605 
vertex 0.06763823095227317 -8.298339013634934 13.371231621615859 
vertex -0.7446610096299926 -10.798339013634937 9.117977579855662 
endloop
endfacet
facet normal 0.27639320225002145 -0.8506508083520397 0.44721359549995804 
outer loop
vertex 2.920807779837734 -8.989322019259989 10.293548084440605 
vertex -0.7446610096299926 -10.798339013634937 9.117977579855662 
vertex 3.5085930321302063 -10.798339013634937 6.4893220192599905 
endloop
endfacet
facet normal -0.723606797749979 -0.5257311121191334 0.44721359549995787 
outer loop
vertex -7.646774042220301 -5.555706543720508 10.293548084440607 
vertex -9.185615810807928 -6.673740532470404 6.4893220192599905 
vertex -5.7446610096299935 -9.173740532470404 9.117977579855662 
endloop
endfacet
facet normal -0.7236067977499789 -0.5257311121191334 0.4472135954999581 
outer loop
vertex -7.646774042220301 -5.555706543720508 10.293548084440607 
vertex -5.7446610096299935 -9.173740532470404 9.117977579855662 
vertex -4.932361769047728 -6.673740532470402 13.37123162161586 
endloop
endfacet
facet normal -0.723606797749979 -0.5257311121191335 0.4472135954999581 
outer loop
vertex -7.646774042220301 -5.555706543720508 10.293548084440607 
vertex -4.932361769047728 -6.673740532470402 13.37123162161586 
vertex -7.871288030510096 -2.6286555605956625 13.371231621615859 
endloop
endfacet
facet normal -0.7236067977499787 -0.5257311121191338 0.4472135954999584 
outer loop
vertex -7.646774042220301 -5.555706543720508 10.293548084440607 
vertex -7.871288030510096 -2.6286555605956625 13.371231621615859 
vertex -10.499943591105762 -2.628655560595669 9.11797757985566 
endloop
endfacet
facet normal -0.7236067977499787 -0.525731112119134 0.44721359549995787 
outer loop
vertex -7.646774042220301 -5.555706543720508 10.293548084440607 
vertex -10.499943591105762 -2.628655560595669 9.11797757985566 
vertex -9.185615810807928 -6.673740532470404 6.4893220192599905 
endloop
endfacet
facet normal -0.7236067977499792 0.5257311121191336 0.4472135954999577 
outer loop
vertex -7.646774042220301 5.55570654372051 10.293548084440607 
vertex -9.185615810807928 6.673740532470404 6.4893220192599905 
vertex -10.499943591105762 2.6286555605956665 9.11797757985566 
endloop
endfacet
facet normal -0.7236067977499792 0.5257311121191338 0.4472135954999571 
outer loop
vertex -7.646774042220301 5.55570654372051 10.293548084440607 
vertex -10.499943591105762 2.6286555605956665 9.11797757985566 
vertex -7.871288030510095 2.628655560595673 13.371231621615859 
endloop
endfacet
facet normal -0.7236067977499782 0.5257311121191347 0.44721359549995787 
outer loop
vertex -7.646774042220301 5.55570654372051 10.293548084440607 
vertex -7.871288030510095 2.628655560595673 13.371231621615859 
vertex -4.932361769047724 6.673740532470404 13.371231621615859 
endloop
endfacet
facet normal -0.7236067977499786 0.5257311121191336 0.44721359549995876 
outer loop
vertex -7.646774042220301 5.55570654372051 10.293548084440607 
vertex -4.932361769047724 6.673740532470404 13.371231621615859 
vertex -5.744661009629995 9.173740532470404 9.11797757985566 
endloop
endfacet
facet normal -0.7236067977499792 0.5257311121191335 0.4472135954999577 
outer loop
vertex -7.646774042220301 5.55570654372051 10.293548084440607 
vertex -5.744661009629995 9.173740532470404 9.11797757985566 
vertex -9.185615810807928 6.673740532470404 6.4893220192599905 
endloop
endfacet
facet normal 0.2763932022500209 0.85065080835204 0.4472135954999576 
outer loop
vertex 2.9208077798377317 8.98932201925999 10.293548084440605 
vertex 3.5085930321302037 10.798339013634937 6.48932201925999 
vertex -0.7446610096299964 10.798339013634937 9.117977579855658 
endloop
endfacet
facet normal 0.2763932022500208 0.8506508083520401 0.4472135954999576 
outer loop
vertex 2.9208077798377317 8.98932201925999 10.293548084440605 
vertex -0.7446610096299964 10.798339013634937 9.117977579855658 
vertex 0.06763823095227472 8.298339013634937 13.371231621615859 
endloop
endfacet
facet normal 0.2763932022500218 0.8506508083520393 0.44721359549995837 
outer loop
vertex 2.9208077798377317 8.98932201925999 10.293548084440605 
vertex 0.06763823095227472 8.298339013634937 13.371231621615859 
vertex 4.82292081242804 6.753254041760198 13.371231621615854 
endloop
endfacet
facet normal 0.27639320225002156 0.8506508083520395 0.44721359549995865 
outer loop
vertex 2.9208077798377317 8.98932201925999 10.293548084440605 
vertex 4.82292081242804 6.753254041760198 13.371231621615854 
vertex 6.949547833308136 8.298339013634937 9.117977579855658 
endloop
endfacet
facet normal 0.2763932022500214 0.85065080835204 0.44721359549995765 
outer loop
vertex 2.9208077798377317 8.98932201925999 10.293548084440605 
vertex 6.949547833308136 8.298339013634937 9.117977579855658 
vertex 3.5085930321302037 10.798339013634937 6.48932201925999 
endloop
endfacet
facet normal 0.8944271909999157 8.776071763414799e-16 0.4472135954999582 
outer loop
vertex 9.451932524765141 -7.105427357601002e-16 10.293548084440605 
vertex 11.35404555735545 -1.2222036358128702e-15 6.48932201925999 
vertex 10.03971777705761 4.045084971874736 9.117977579855658 
endloop
endfacet
facet normal 0.8944271909999157 8.259832247919826e-16 0.447213595499958 
outer loop
vertex 9.451932524765141 -7.105427357601002e-16 10.293548084440605 
vertex 10.03971777705761 4.045084971874736 9.117977579855658 
vertex 7.913090756177515 2.499999999999998 13.371231621615852 
endloop
endfacet
facet normal 0.8944271909999157 7.94410929039128e-16 0.44721359549995804 
outer loop
vertex 9.451932524765141 -7.105427357601002e-16 10.293548084440605 
vertex 7.913090756177515 2.499999999999998 13.371231621615852 
vertex 7.913090756177516 -2.499999999999999 13.371231621615859 
endloop
endfacet
facet normal 0.8944271909999161 1.032479030989977e-16 0.44721359549995765 
outer loop
vertex 9.451932524765141 -7.105427357601002e-16 10.293548084440605 
vertex 7.913090756177516 -2.499999999999999 13.371231621615859 
vertex 10.039717777057614 -4.045084971874737 9.117977579855658 
endloop
endfacet
facet normal 0.8944271909999157 -9.034191521162293e-17 0.4472135954999582 
outer loop
vertex 9.451932524765141 -7.105427357601002e-16 10.293548084440605 
vertex 10.039717777057614 -4.045084971874737 9.117977579855658 
vertex 11.35404555735545 -1.2222036358128702e-15 6.48932201925999 
endloop
endfacet
facet normal 0.0 0.0 1.0 
outer loop
vertex 2.3536728122053318e-15 2.1316282072803005e-15 16.13516364411607 
vertex -4.2532540417602 5.921905400813651e-15 16.13516364411607 
vertex -1.314327780297832 -4.045084971874735 16.13516364411607 
endloop
endfacet
facet normal 0.0 0.0 1.0 
outer loop
vertex 2.3536728122053318e-15 2.1316282072803005e-15 16.13516364411607 
vertex -1.314327780297832 -4.045084971874735 16.13516364411607 
vertex 3.440954801177937 -2.499999999999998 16.13516364411607 
endloop
endfacet
facet normal 1.0324790309899774e-15 1.4210854715202016e-15 1.0 
outer loop
vertex 2.3536728122053318e-15 2.1316282072803005e-15 16.13516364411607 
vertex 3.440954801177937 -2.499999999999998 16.13516364411607 
vertex 3.440954801177936 2.499999999999999 16.135163644116062 
endloop
endfacet
facet normal 1.6705861648133386e-15 5.428063492020454e-16 1.0 
outer loop
vertex 2.3536728122053318e-15 2.1316282072803005e-15 16.13516364411607 
vertex 3.440954801177936 2.499999999999999 16.135163644116062 
vertex -1.3143277802978293 4.045084971874737 16.13516364411607 
endloop
endfacet
facet normal 0.0 0.0 1.0 
outer loop
vertex 2.3536728122053318e-15 2.1316282072803005e-15 16.13516364411607 
vertex -1.3143277802978293 4.045084971874737 16.13516364411607 
vertex -4.2532540417602 5.921905400813651e-15 16.13516364411607 
endloop
endfacet
facet normal 0.6070619982066862 -3.3395252920480984e-16 -0.7946544722917662 
outer loop
vertex 6.665276700926796 1.4802973661668753e-16 -3.1573786516665265 
vertex 4.253254041760199 -7.97633917279202e-17 -5.0 
vertex 7.871288030510096 2.6286555605956683 -2.2360679774997902 
endloop
endfacet
facet normal 0.607061998206686 -3.0393327682245574e-16 -0.7946544722917661 
outer loop
vertex 6.665276700926796 1.4802973661668753e-16 -3.1573786516665265 
vertex 7.871288030510096 2.6286555605956683 -2.2360679774997902 
vertex 7.871288030510095 -2.628655560595668 -2.236067977499789 
endloop
endfacet
facet normal 0.607061998206686 -2.782937743373415e-16 -0.7946544722917662 
outer loop
vertex 6.665276700926796 1.4802973661668753e-16 -3.1573786516665265 
vertex 7.871288030510095 -2.628655560595668 -2.236067977499789 
vertex 4.253254041760199 -7.97633917279202e-17 -5.0 
endloop
endfacet
facet normal 0.18759247408507992 -0.5773502691896258 -0.794654472291766 
outer loop
vertex 2.0596837727977637 -6.339054839326693 -3.157378651666526 
vertex 1.3143277802978337 -4.045084971874737 -5.0 
vertex 4.932361769047729 -6.673740532470405 -2.236067977499789 
endloop
endfacet
facet normal 0.18759247408507998 -0.5773502691896256 -0.7946544722917661 
outer loop
vertex 2.0596837727977637 -6.339054839326693 -3.157378651666526 
vertex 4.932361769047729 -6.673740532470405 -2.236067977499789 
vertex -0.06763823095227117 -8.298339013634937 -2.2360679774997894 
endloop
endfacet
facet normal 0.18759247408508017 -0.5773502691896257 -0.794654472291766 
outer loop
vertex 2.0596837727977637 -6.339054839326693 -3.157378651666526 
vertex -0.06763823095227117 -8.298339013634937 -2.2360679774997894 
vertex 1.3143277802978337 -4.045084971874737 -5.0 
endloop
endfacet
facet normal -0.49112347318842303 -0.3568220897730899 -0.7946544722917661 
outer loop
vertex -5.392322123261162 -3.9177513472534002 -3.1573786516665265 
vertex -3.4409548011779343 -2.5000000000000004 -5.0 
vertex -4.822920812428039 -6.753254041760201 -2.2360679774997894 
endloop
endfacet
facet normal -0.4911234731884229 -0.35682208977308993 -0.7946544722917661 
outer loop
vertex -5.392322123261162 -3.9177513472534002 -3.1573786516665265 
vertex -4.822920812428039 -6.753254041760201 -2.2360679774997894 
vertex -7.913090756177514 -2.500000000000001 -2.2360679774997894 
endloop
endfacet
facet normal -0.491123473188423 -0.35682208977309 -0.794654472291766 
outer loop
vertex -5.392322123261162 -3.9177513472534002 -3.1573786516665265 
vertex -7.913090756177514 -2.500000000000001 -2.2360679774997894 
vertex -3.4409548011779343 -2.5000000000000004 -5.0 
endloop
endfacet
facet normal -0.49112347318842303 0.3568220897730899 -0.794654472291766 
outer loop
vertex -5.392322123261163 3.917751347253399 -3.1573786516665265 
vertex -3.4409548011779347 2.4999999999999996 -5.0 
vertex -7.913090756177514 2.499999999999999 -2.2360679774997894 
endloop
endfacet
facet normal -0.49112347318842314 0.3568220897730897 -0.7946544722917661 
outer loop
vertex -5.392322123261163 3.917751347253399 -3.1573786516665265 
vertex -7.913090756177514 2.499999999999999 -2.2360679774997894 
vertex -4.822920812428041 6.753254041760199 -2.23606797749979 
endloop
endfacet
facet normal -0.4911234731884232 0.35682208977308977 -0.794654472291766 
outer loop
vertex -5.392322123261163 3.917751347253399 -3.1573786516665265 
vertex -4.822920812428041 6.753254041760199 -2.23606797749979 
vertex -3.4409548011779347 2.4999999999999996 -5.0 
endloop
endfacet
facet normal 0.18759247408508015 0.5773502691896257 -0.794654472291766 
outer loop
vertex 2.059683772797763 6.339054839326693 -3.1573786516665265 
vertex 1.3143277802978328 4.045084971874737 -5.0 
vertex -0.06763823095227317 8.298339013634937 -2.23606797749979 
endloop
endfacet
facet normal 0.1875924740850796 0.5773502691896254 -0.7946544722917663 
outer loop
vertex 2.059683772797763 6.339054839326693 -3.1573786516665265 
vertex -0.06763823095227317 8.298339013634937 -2.23606797749979 
vertex 4.932361769047729 6.673740532470406 -2.2360679774997902 
endloop
endfacet
facet normal 0.1875924740850794 0.577350269189626 -0.7946544722917661 
outer loop
vertex 2.059683772797763 6.339054839326693 -3.1573786516665265 
vertex 4.932361769047729 6.673740532470406 -2.2360679774997902 
vertex 1.3143277802978328 4.045084971874737 -5.0 
endloop
endfacet
facet normal 0.3035309991033432 -0.9341723589627156 -0.18759247408508006 
outer loop
vertex 3.3326383504633985 -10.256806186580093 3.507898049260271 
vertex 5.744661009629995 -9.173740532470404 2.017186064260411 
vertex 3.5085930321302063 -10.798339013634937 6.4893220192599905 
endloop
endfacet
facet normal 0.30353099910334336 -0.9341723589627154 -0.1875924740850801 
outer loop
vertex 3.3326383504633985 -10.256806186580093 3.507898049260271 
vertex 3.5085930321302063 -10.798339013634937 6.4893220192599905 
vertex 0.744661009629995 -10.798339013634937 2.0171860642604105 
endloop
endfacet
facet normal 0.3035309991033433 -0.9341723589627156 -0.18759247408508004 
outer loop
vertex 3.3326383504633985 -10.256806186580093 3.507898049260271 
vertex 0.744661009629995 -10.798339013634937 2.0171860642604105 
vertex 5.744661009629995 -9.173740532470404 2.017186064260411 
endloop
endfacet
facet normal 0.9822469463768461 -4.75382519713138e-17 -0.18759247408507956 
outer loop
vertex 10.784644246522326 -8.51490421787686e-16 3.507898049260271 
vertex 10.499943591105765 -2.6286555605956687 2.017186064260412 
vertex 10.499943591105765 2.6286555605956674 2.0171860642604105 
endloop
endfacet
facet normal 0.982246946376846 -3.896112840722783e-16 -0.1875924740850802 
outer loop
vertex 10.784644246522326 -8.51490421787686e-16 3.507898049260271 
vertex 10.499943591105765 2.6286555605956674 2.0171860642604105 
vertex 11.35404555735545 -1.2222036358128702e-15 6.48932201925999 
endloop
endfacet
facet normal 0.982246946376846 3.3395252920480994e-16 -0.18759247408508015 
outer loop
vertex 10.784644246522326 -8.51490421787686e-16 3.507898049260271 
vertex 11.35404555735545 -1.2222036358128702e-15 6.48932201925999 
vertex 10.499943591105765 -2.6286555605956687 2.017186064260412 
endloop
endfacet
facet normal 0.7946544722917659 -0.5773502691896258 0.18759247408507998 
outer loop
vertex 8.724960473724561 -6.339054839326693 7.627265594855799 
vertex 9.18561581080793 -6.673740532470405 4.64584162485608 
vertex 10.039717777057614 -4.045084971874737 9.117977579855658 
endloop
endfacet
facet normal 0.7946544722917662 -0.5773502691896256 0.18759247408507937 
outer loop
vertex 8.724960473724561 -6.339054839326693 7.627265594855799 
vertex 10.039717777057614 -4.045084971874737 9.117977579855658 
vertex 6.949547833308141 -8.298339013634937 9.117977579855658 
endloop
endfacet
facet normal 0.7946544722917664 -0.5773502691896253 0.18759247408508006 
outer loop
vertex 8.724960473724561 -6.339054839326693 7.627265594855799 
vertex 6.949547833308141 -8.298339013634937 9.117977579855658 
vertex 9.18561581080793 -6.673740532470405 4.64584162485608 
endloop
endfacet
facet normal -0.7946544722917662 -0.5773502691896256 -0.18759247408507984 
outer loop
vertex -8.72496047372456 -6.339054839326693 3.507898049260271 
vertex -6.949547833308138 -8.298339013634937 2.0171860642604105 
vertex -9.185615810807928 -6.673740532470404 6.4893220192599905 
endloop
endfacet
facet normal -0.794654472291766 -0.5773502691896258 -0.18759247408507979 
outer loop
vertex -8.72496047372456 -6.339054839326693 3.507898049260271 
vertex -9.185615810807928 -6.673740532470404 6.4893220192599905 
vertex -10.039717777057612 -4.045084971874737 2.0171860642604105 
endloop
endfacet
facet normal -0.7946544722917661 -0.5773502691896258 -0.1875924740850796 
outer loop
vertex -8.72496047372456 -6.339054839326693 3.507898049260271 
vertex -10.039717777057612 -4.045084971874737 2.0171860642604105 
vertex -6.949547833308138 -8.298339013634937 2.0171860642604105 
endloop
endfacet
facet normal -0.30353099910334314 -0.9341723589627157 0.18759247408507987 
outer loop
vertex -3.3326383504633967 -10.256806186580093 7.627265594855802 
vertex -3.5085930321302037 -10.798339013634937 4.6458416248560805 
vertex -0.7446610096299926 -10.798339013634937 9.117977579855662 
endloop
endfacet
facet normal -0.3035309991033433 -0.9341723589627156 0.18759247408508015 
outer loop
vertex -3.3326383504633967 -10.256806186580093 7.627265594855802 
vertex -0.7446610096299926 -10.798339013634937 9.117977579855662 
vertex -5.7446610096299935 -9.173740532470404 9.117977579855662 
endloop
endfacet
facet normal -0.30353099910334336 -0.9341723589627157 0.1875924740850799 
outer loop
vertex -3.3326383504633967 -10.256806186580093 7.627265594855802 
vertex -5.7446610096299935 -9.173740532470404 9.117977579855662 
vertex -3.5085930321302037 -10.798339013634937 4.6458416248560805 
endloop
endfacet
facet normal -0.7946544722917658 0.5773502691896262 -0.1875924740850798 
outer loop
vertex -8.72496047372456 6.339054839326693 3.507898049260271 
vertex -10.039717777057614 4.045084971874736 2.0171860642604105 
vertex -9.185615810807928 6.673740532470404 6.4893220192599905 
endloop
endfacet
facet normal -0.7946544722917664 0.5773502691896252 -0.1875924740850798 
outer loop
vertex -8.72496047372456 6.339054839326693 3.507898049260271 
vertex -9.185615810807928 6.673740532470404 6.4893220192599905 
vertex -6.94954783330814 8.298339013634937 2.01718606426041 
endloop
endfacet
facet normal -0.7946544722917663 0.5773502691896258 -0.18759247408507876 
outer loop
vertex -8.72496047372456 6.339054839326693 3.507898049260271 
vertex -6.94954783330814 8.298339013634937 2.01718606426041 
vertex -10.039717777057614 4.045084971874736 2.0171860642604105 
endloop
endfacet
facet normal -0.9822469463768461 -6.122463035421515e-16 0.18759247408507956 
outer loop
vertex -10.784644246522324 -1.6283271027835629e-15 7.6272655948558 
vertex -11.354045557355446 -2.1751737980398513e-15 4.6458416248560805 
vertex -10.499943591105762 -2.628655560595669 9.11797757985566 
endloop
endfacet
facet normal -0.9822469463768458 0.0 0.1875924740850806 
outer loop
vertex -10.784644246522324 -1.6283271027835629e-15 7.6272655948558 
vertex -10.499943591105762 -2.628655560595669 9.11797757985566 
vertex -10.499943591105762 2.6286555605956665 9.11797757985566 
endloop
endfacet
facet normal -0.9822469463768461 6.122463035421516e-16 0.18759247408507962 
outer loop
vertex -10.784644246522324 -1.6283271027835629e-15 7.6272655948558 
vertex -10.499943591105762 2.6286555605956665 9.11797757985566 
vertex -11.354045557355446 -2.1751737980398513e-15 4.6458416248560805 
endloop
endfacet
facet normal 0.3035309991033432 0.9341723589627156 -0.18759247408508 
outer loop
vertex 3.3326383504633963 10.256806186580093 3.5078980492602696 
vertex 0.7446610096299922 10.798339013634937 2.01718606426041 
vertex 3.5085930321302037 10.798339013634937 6.48932201925999 
endloop
endfacet
facet normal 0.3035309991033432 0.9341723589627156 -0.18759247408508006 
outer loop
vertex 3.3326383504633963 10.256806186580093 3.5078980492602696 
vertex 3.5085930321302037 10.798339013634937 6.48932201925999 
vertex 5.7446610096299935 9.173740532470404 2.0171860642604096 
endloop
endfacet
facet normal 0.3035309991033432 0.9341723589627156 -0.18759247408508004 
outer loop
vertex 3.3326383504633963 10.256806186580093 3.5078980492602696 
vertex 5.7446610096299935 9.173740532470404 2.0171860642604096 
vertex 0.7446610096299922 10.798339013634937 2.01718606426041 
endloop
endfacet
facet normal -0.3035309991033433 0.9341723589627156 0.18759247408508006 
outer loop
vertex -3.3326383504634 10.256806186580093 7.6272655948558 
vertex -3.5085930321302077 10.798339013634937 4.64584162485608 
vertex -5.744661009629995 9.173740532470404 9.11797757985566 
endloop
endfacet
facet normal -0.3035309991033433 0.9341723589627156 0.1875924740850802 
outer loop
vertex -3.3326383504634 10.256806186580093 7.6272655948558 
vertex -5.744661009629995 9.173740532470404 9.11797757985566 
vertex -0.7446610096299964 10.798339013634937 9.117977579855658 
endloop
endfacet
facet normal -0.30353099910334325 0.9341723589627156 0.18759247408508004 
outer loop
vertex -3.3326383504634 10.256806186580093 7.6272655948558 
vertex -0.7446610096299964 10.798339013634937 9.117977579855658 
vertex -3.5085930321302077 10.798339013634937 4.64584162485608 
endloop
endfacet
facet normal 0.7946544722917661 0.5773502691896257 0.18759247408507979 
outer loop
vertex 8.724960473724558 6.339054839326693 7.627265594855799 
vertex 9.185615810807926 6.673740532470404 4.645841624856079 
vertex 6.949547833308136 8.298339013634937 9.117977579855658 
endloop
endfacet
facet normal 0.7946544722917661 0.5773502691896257 0.18759247408507987 
outer loop
vertex 8.724960473724558 6.339054839326693 7.627265594855799 
vertex 6.949547833308136 8.298339013634937 9.117977579855658 
vertex 10.03971777705761 4.045084971874736 9.117977579855658 
endloop
endfacet
facet normal 0.7946544722917661 0.5773502691896256 0.1875924740850798 
outer loop
vertex 8.724960473724558 6.339054839326693 7.627265594855799 
vertex 10.03971777705761 4.045084971874736 9.117977579855658 
vertex 9.185615810807926 6.673740532470404 4.645841624856079 
endloop
endfacet
facet normal 0.49112347318842325 -0.3568220897730902 0.7946544722917658 
outer loop
vertex 5.392322123261166 -3.9177513472533985 14.292542295782596 
vertex 4.822920812428042 -6.753254041760197 13.371231621615859 
vertex 7.913090756177516 -2.499999999999999 13.371231621615859 
endloop
endfacet
facet normal 0.491123473188423 -0.3568220897730896 0.7946544722917662 
outer loop
vertex 5.392322123261166 -3.9177513472533985 14.292542295782596 
vertex 7.913090756177516 -2.499999999999999 13.371231621615859 
vertex 3.440954801177937 -2.499999999999998 16.13516364411607 
endloop
endfacet
facet normal 0.4911234731884226 -0.3568220897730902 0.7946544722917662 
outer loop
vertex 5.392322123261166 -3.9177513472533985 14.292542295782596 
vertex 3.440954801177937 -2.499999999999998 16.13516364411607 
vertex 4.822920812428042 -6.753254041760197 13.371231621615859 
endloop
endfacet
facet normal -0.18759247408507995 -0.5773502691896258 0.794654472291766 
outer loop
vertex -2.059683772797762 -6.33905483932669 14.292542295782596 
vertex 0.06763823095227317 -8.298339013634934 13.371231621615859 
vertex -1.314327780297832 -4.045084971874735 16.13516364411607 
endloop
endfacet
facet normal -0.18759247408507923 -0.5773502691896261 0.7946544722917661 
outer loop
vertex -2.059683772797762 -6.33905483932669 14.292542295782596 
vertex -1.314327780297832 -4.045084971874735 16.13516364411607 
vertex -4.932361769047728 -6.673740532470402 13.37123162161586 
endloop
endfacet
facet normal -0.1875924740850794 -0.5773502691896254 0.7946544722917664 
outer loop
vertex -2.059683772797762 -6.33905483932669 14.292542295782596 
vertex -4.932361769047728 -6.673740532470402 13.37123162161586 
vertex 0.06763823095227317 -8.298339013634934 13.371231621615859 
endloop
endfacet
facet normal -0.6070619982066863 3.339525292048099e-16 0.794654472291766 
outer loop
vertex -6.665276700926796 5.477100254817439e-15 14.292542295782596 
vertex -7.871288030510096 -2.6286555605956625 13.371231621615859 
vertex -4.2532540417602 5.921905400813651e-15 16.13516364411607 
endloop
endfacet
facet normal -0.6070619982066862 0.0 0.7946544722917661 
outer loop
vertex -6.665276700926796 5.477100254817439e-15 14.292542295782596 
vertex -4.2532540417602 5.921905400813651e-15 16.13516364411607 
vertex -7.871288030510095 2.628655560595673 13.371231621615859 
endloop
endfacet
facet normal -0.6070619982066859 1.0255800994045669e-16 0.7946544722917662 
outer loop
vertex -6.665276700926796 5.477100254817439e-15 14.292542295782596 
vertex -7.871288030510095 2.628655560595673 13.371231621615859 
vertex -7.871288030510096 -2.6286555605956625 13.371231621615859 
endloop
endfacet
facet normal -0.18759247408507998 0.5773502691896257 0.794654472291766 
outer loop
vertex -2.0596837727977597 6.339054839326693 14.292542295782596 
vertex -4.932361769047724 6.673740532470404 13.371231621615859 
vertex -1.3143277802978293 4.045084971874737 16.13516364411607 
endloop
endfacet
facet normal -0.18759247408508026 0.5773502691896257 0.794654472291766 
outer loop
vertex -2.0596837727977597 6.339054839326693 14.292542295782596 
vertex -1.3143277802978293 4.045084971874737 16.13516364411607 
vertex 0.06763823095227472 8.298339013634937 13.371231621615859 
endloop
endfacet
facet normal -0.18759247408508004 0.5773502691896256 0.7946544722917662 
outer loop
vertex -2.0596837727977597 6.339054839326693 14.292542295782596 
vertex 0.06763823095227472 8.298339013634937 13.371231621615859 
vertex -4.932361769047724 6.673740532470404 13.371231621615859 
endloop
endfacet
facet normal 0.49112347318842275 0.3568220897730899 0.7946544722917662 
outer loop
vertex 5.392322123261163 3.9177513472533985 14.29254229578259 
vertex 4.82292081242804 6.753254041760198 13.371231621615854 
vertex 3.440954801177936 2.499999999999999 16.135163644116062 
endloop
endfacet
facet normal 0.49112347318842325 0.3568220897730893 0.7946544722917662 
outer loop
vertex 5.392322123261163 3.9177513472533985 14.29254229578259 
vertex 3.440954801177936 2.499999999999999 16.135163644116062 
vertex 7.913090756177515 2.499999999999998 13.371231621615852 
endloop
endfacet
facet normal 0.49112347318842337 0.3568220897730899 0.7946544722917659 
outer loop
vertex 5.392322123261163 3.9177513472533985 14.29254229578259 
vertex 7.913090756177515 2.499999999999998 13.371231621615852 
vertex 4.82292081242804 6.753254041760198 13.371231621615854 
endloop
endfacet
facet normal 0.42532540417602005 -0.3090169943749474 -0.8506508083520399 
outer loop
vertex 4.592807905403965 -3.336870266235202 -3.6180339887498945 
vertex 4.253254041760199 -7.97633917279202e-17 -5.0 
vertex 7.871288030510095 -2.628655560595668 -2.236067977499789 
endloop
endfacet
facet normal 0.42532540417602005 -0.30901699437494745 -0.8506508083520398 
outer loop
vertex 4.592807905403965 -3.336870266235202 -3.6180339887498945 
vertex 7.871288030510095 -2.628655560595668 -2.236067977499789 
vertex 4.932361769047729 -6.673740532470405 -2.236067977499789 
endloop
endfacet
facet normal 0.4253254041760201 -0.30901699437494756 -0.8506508083520398 
outer loop
vertex 4.592807905403965 -3.336870266235202 -3.6180339887498945 
vertex 4.932361769047729 -6.673740532470405 -2.236067977499789 
vertex 1.3143277802978337 -4.045084971874737 -5.0 
endloop
endfacet
facet normal 0.42532540417602005 -0.3090169943749474 -0.8506508083520398 
outer loop
vertex 4.592807905403965 -3.336870266235202 -3.6180339887498945 
vertex 1.3143277802978337 -4.045084971874737 -5.0 
vertex 4.253254041760199 -7.97633917279202e-17 -5.0 
endloop
endfacet
facet normal 0.42532540417601983 0.30901699437494734 -0.85065080835204 
outer loop
vertex 4.592807905403964 3.336870266235203 -3.618033988749895 
vertex 4.253254041760199 -7.97633917279202e-17 -5.0 
vertex 1.3143277802978328 4.045084971874737 -5.0 
endloop
endfacet
facet normal 0.42532540417601983 0.3090169943749473 -0.8506508083520401 
outer loop
vertex 4.592807905403964 3.336870266235203 -3.618033988749895 
vertex 1.3143277802978328 4.045084971874737 -5.0 
vertex 4.932361769047729 6.673740532470406 -2.2360679774997902 
endloop
endfacet
facet normal 0.4253254041760197 0.3090169943749473 -0.8506508083520401 
outer loop
vertex 4.592807905403964 3.336870266235203 -3.618033988749895 
vertex 4.932361769047729 6.673740532470406 -2.2360679774997902 
vertex 7.871288030510096 2.6286555605956683 -2.2360679774997902 
endloop
endfacet
facet normal 0.42532540417601966 0.30901699437494745 -0.8506508083520401 
outer loop
vertex 4.592807905403964 3.336870266235203 -3.618033988749895 
vertex 7.871288030510096 2.6286555605956683 -2.2360679774997902 
vertex 4.253254041760199 -7.97633917279202e-17 -5.0 
endloop
endfacet
facet normal 0.8506508083520395 -2.769370500699161e-16 -0.5257311121191341 
outer loop
vertex 9.185615810807931 -2.220446049250313e-16 -0.10944095661968933 
vertex 7.871288030510095 -2.628655560595668 -2.236067977499789 
vertex 7.871288030510096 2.6286555605956683 -2.2360679774997902 
endloop
endfacet
facet normal 0.8506508083520399 2.0272988968524853e-16 -0.5257311121191337 
outer loop
vertex 9.185615810807931 -2.220446049250313e-16 -0.10944095661968933 
vertex 7.871288030510096 2.6286555605956683 -2.2360679774997902 
vertex 10.499943591105765 2.6286555605956674 2.0171860642604105 
endloop
endfacet
facet normal 0.8506508083520401 -1.3322676295501876e-16 -0.5257311121191334 
outer loop
vertex 9.185615810807931 -2.220446049250313e-16 -0.10944095661968933 
vertex 10.499943591105765 2.6286555605956674 2.0171860642604105 
vertex 10.499943591105765 -2.6286555605956687 2.017186064260412 
endloop
endfacet
facet normal 0.8506508083520398 -6.081896690557455e-16 -0.5257311121191339 
outer loop
vertex 9.185615810807931 -2.220446049250313e-16 -0.10944095661968933 
vertex 10.499943591105765 -2.6286555605956687 2.017186064260412 
vertex 7.871288030510095 -2.628655560595668 -2.236067977499789 
endloop
endfacet
facet normal -0.1624598481164531 -0.5000000000000001 -0.8506508083520399 
outer loop
vertex -1.7542965160651027 -5.3991695068174685 -3.618033988749895 
vertex 1.3143277802978337 -4.045084971874737 -5.0 
vertex -0.06763823095227117 -8.298339013634937 -2.2360679774997894 
endloop
endfacet
facet normal -0.16245984811645306 -0.5 -0.85065080835204 
outer loop
vertex -1.7542965160651027 -5.3991695068174685 -3.618033988749895 
vertex -0.06763823095227117 -8.298339013634937 -2.2360679774997894 
vertex -4.822920812428039 -6.753254041760201 -2.2360679774997894 
endloop
endfacet
facet normal -0.16245984811645314 -0.4999999999999999 -0.85065080835204 
outer loop
vertex -1.7542965160651027 -5.3991695068174685 -3.618033988749895 
vertex -4.822920812428039 -6.753254041760201 -2.2360679774997894 
vertex -3.4409548011779343 -2.5000000000000004 -5.0 
endloop
endfacet
facet normal -0.16245984811645311 -0.5 -0.8506508083520399 
outer loop
vertex -1.7542965160651027 -5.3991695068174685 -3.618033988749895 
vertex -3.4409548011779343 -2.5000000000000004 -5.0 
vertex 1.3143277802978337 -4.045084971874737 -5.0 
endloop
endfacet
facet normal 0.26286555605956696 -0.8090169943749475 -0.5257311121191336 
outer loop
vertex 2.838511389338862 -8.73603977305267 -0.10944095661968922 
vertex 4.932361769047729 -6.673740532470405 -2.236067977499789 
vertex 5.744661009629995 -9.173740532470404 2.017186064260411 
endloop
endfacet
facet normal 0.262865556059567 -0.8090169943749473 -0.5257311121191336 
outer loop
vertex 2.838511389338862 -8.73603977305267 -0.10944095661968922 
vertex 5.744661009629995 -9.173740532470404 2.017186064260411 
vertex 0.744661009629995 -10.798339013634937 2.0171860642604105 
endloop
endfacet
facet normal 0.26286555605956713 -0.8090169943749473 -0.5257311121191336 
outer loop
vertex 2.838511389338862 -8.73603977305267 -0.10944095661968922 
vertex 0.744661009629995 -10.798339013634937 2.0171860642604105 
vertex -0.06763823095227117 -8.298339013634937 -2.2360679774997894 
endloop
endfacet
facet normal 0.26286555605956696 -0.8090169943749476 -0.5257311121191336 
outer loop
vertex 2.838511389338862 -8.73603977305267 -0.10944095661968922 
vertex -0.06763823095227117 -8.298339013634937 -2.2360679774997894 
vertex 4.932361769047729 -6.673740532470405 -2.236067977499789 
endloop
endfacet
facet normal -0.6881909602355869 -0.5000000000000001 -0.5257311121191334 
outer loop
vertex -7.431319294742826 -5.3991695068174685 -0.10944095661968944 
vertex -4.822920812428039 -6.753254041760201 -2.2360679774997894 
vertex -6.949547833308138 -8.298339013634937 2.0171860642604105 
endloop
endfacet
facet normal -0.6881909602355869 -0.5000000000000001 -0.5257311121191335 
outer loop
vertex -7.431319294742826 -5.3991695068174685 -0.10944095661968944 
vertex -6.949547833308138 -8.298339013634937 2.0171860642604105 
vertex -10.039717777057612 -4.045084971874737 2.0171860642604105 
endloop
endfacet
facet normal -0.6881909602355869 -0.5000000000000002 -0.5257311121191334 
outer loop
vertex -7.431319294742826 -5.3991695068174685 -0.10944095661968944 
vertex -10.039717777057612 -4.045084971874737 2.0171860642604105 
vertex -7.913090756177514 -2.500000000000001 -2.2360679774997894 
endloop
endfacet
facet normal -0.688190960235587 -0.5000000000000001 -0.5257311121191333 
outer loop
vertex -7.431319294742826 -5.3991695068174685 -0.10944095661968944 
vertex -7.913090756177514 -2.500000000000001 -2.2360679774997894 
vertex -4.822920812428039 -6.753254041760201 -2.2360679774997894 
endloop
endfacet
facet normal -0.5257311121191336 -1.3515325979016573e-16 -0.8506508083520399 
outer loop
vertex -5.677022778677724 -7.771561172376096e-16 -3.618033988749895 
vertex -3.4409548011779343 -2.5000000000000004 -5.0 
vertex -7.913090756177514 -2.500000000000001 -2.2360679774997894 
endloop
endfacet
facet normal -0.5257311121191336 0.0 -0.8506508083520398 
outer loop
vertex -5.677022778677724 -7.771561172376096e-16 -3.618033988749895 
vertex -7.913090756177514 -2.500000000000001 -2.2360679774997894 
vertex -7.913090756177514 2.499999999999999 -2.2360679774997894 
endloop
endfacet
facet normal -0.5257311121191336 6.757662989508286e-17 -0.85065080835204 
outer loop
vertex -5.677022778677724 -7.771561172376096e-16 -3.618033988749895 
vertex -7.913090756177514 2.499999999999999 -2.2360679774997894 
vertex -3.4409548011779347 2.4999999999999996 -5.0 
endloop
endfacet
facet normal -0.5257311121191336 -4.6694302834916144e-17 -0.85065080835204 
outer loop
vertex -5.677022778677724 -7.771561172376096e-16 -3.618033988749895 
vertex -3.4409548011779347 2.4999999999999996 -5.0 
vertex -3.4409548011779343 -2.5000000000000004 -5.0 
endloop
endfacet
facet normal -0.6881909602355869 0.4999999999999998 -0.5257311121191337 
outer loop
vertex -7.431319294742827 5.3991695068174685 -0.10944095661968967 
vertex -7.913090756177514 2.499999999999999 -2.2360679774997894 
vertex -10.039717777057614 4.045084971874736 2.0171860642604105 
endloop
endfacet
facet normal -0.6881909602355869 0.49999999999999994 -0.5257311121191336 
outer loop
vertex -7.431319294742827 5.3991695068174685 -0.10944095661968967 
vertex -10.039717777057614 4.045084971874736 2.0171860642604105 
vertex -6.94954783330814 8.298339013634937 2.01718606426041 
endloop
endfacet
facet normal -0.6881909602355869 0.4999999999999998 -0.5257311121191335 
outer loop
vertex -7.431319294742827 5.3991695068174685 -0.10944095661968967 
vertex -6.94954783330814 8.298339013634937 2.01718606426041 
vertex -4.822920812428041 6.753254041760199 -2.23606797749979 
endloop
endfacet
facet normal -0.688190960235587 0.4999999999999999 -0.5257311121191336 
outer loop
vertex -7.431319294742827 5.3991695068174685 -0.10944095661968967 
vertex -4.822920812428041 6.753254041760199 -2.23606797749979 
vertex -7.913090756177514 2.499999999999999 -2.2360679774997894 
endloop
endfacet
facet normal -0.1624598481164534 0.5 -0.8506508083520399 
outer loop
vertex -1.7542965160651038 5.3991695068174685 -3.618033988749895 
vertex -3.4409548011779347 2.4999999999999996 -5.0 
vertex -4.822920812428041 6.753254041760199 -2.23606797749979 
endloop
endfacet
facet normal -0.16245984811645325 0.5 -0.8506508083520399 
outer loop
vertex -1.7542965160651038 5.3991695068174685 -3.618033988749895 
vertex -4.822920812428041 6.753254041760199 -2.23606797749979 
vertex -0.06763823095227317 8.298339013634937 -2.23606797749979 
endloop
endfacet
facet normal -0.1624598481164532 0.5 -0.85065080835204 
outer loop
vertex -1.7542965160651038 5.3991695068174685 -3.618033988749895 
vertex -0.06763823095227317 8.298339013634937 -2.23606797749979 
vertex 1.3143277802978328 4.045084971874737 -5.0 
endloop
endfacet
facet normal -0.16245984811645323 0.49999999999999994 -0.85065080835204 
outer loop
vertex -1.7542965160651038 5.3991695068174685 -3.618033988749895 
vertex 1.3143277802978328 4.045084971874737 -5.0 
vertex -3.4409548011779347 2.4999999999999996 -5.0 
endloop
endfacet
facet normal 0.26286555605956685 0.8090169943749473 -0.5257311121191336 
outer loop
vertex 2.8385113893388603 8.73603977305267 -0.10944095661969011 
vertex -0.06763823095227317 8.298339013634937 -2.23606797749979 
vertex 0.7446610096299922 10.798339013634937 2.01718606426041 
endloop
endfacet
facet normal 0.2628655560595669 0.8090169943749475 -0.5257311121191336 
outer loop
vertex 2.8385113893388603 8.73603977305267 -0.10944095661969011 
vertex 0.7446610096299922 10.798339013634937 2.01718606426041 
vertex 5.7446610096299935 9.173740532470404 2.0171860642604096 
endloop
endfacet
facet normal 0.26286555605956663 0.8090169943749477 -0.5257311121191333 
outer loop
vertex 2.8385113893388603 8.73603977305267 -0.10944095661969011 
vertex 5.7446610096299935 9.173740532470404 2.0171860642604096 
vertex 4.932361769047729 6.673740532470406 -2.2360679774997902 
endloop
endfacet
facet normal 0.2628655560595667 0.8090169943749476 -0.5257311121191333 
outer loop
vertex 2.8385113893388603 8.73603977305267 -0.10944095661969011 
vertex 4.932361769047729 6.673740532470406 -2.2360679774997902 
vertex -0.06763823095227317 8.298339013634937 -2.23606797749979 
endloop
endfacet
facet normal 0.0 -1.0 0.0 
outer loop
vertex 1.3322676295501878e-15 -10.798339013634937 5.567581822058036 
vertex 0.744661009629995 -10.798339013634937 2.0171860642604105 
vertex 3.5085930321302063 -10.798339013634937 6.4893220192599905 
endloop
endfacet
facet normal -0.0 -1.0 0.0 
outer loop
vertex 1.3322676295501878e-15 -10.798339013634937 5.567581822058036 
vertex 3.5085930321302063 -10.798339013634937 6.4893220192599905 
vertex -0.7446610096299926 -10.798339013634937 9.117977579855662 
endloop
endfacet
facet normal 0.0 -1.0 -0.0 
outer loop
vertex 1.3322676295501878e-15 -10.798339013634937 5.567581822058036 
vertex -0.7446610096299926 -10.798339013634937 9.117977579855662 
vertex -3.5085930321302037 -10.798339013634937 4.6458416248560805 
endloop
endfacet
facet normal 0.0 -1.0 0.0 
outer loop
vertex 1.3322676295501878e-15 -10.798339013634937 5.567581822058036 
vertex -3.5085930321302037 -10.798339013634937 4.6458416248560805 
vertex 0.744661009629995 -10.798339013634937 2.0171860642604105 
endloop
endfacet
facet normal 0.5877852522924731 -0.8090169943749473 -3.2098899200164373e-16 
outer loop
vertex 6.347104421469068 -8.73603977305267 5.567581822058035 
vertex 5.744661009629995 -9.173740532470404 2.017186064260411 
vertex 9.18561581080793 -6.673740532470405 4.64584162485608 
endloop
endfacet
facet normal 0.587785252292473 -0.8090169943749475 -2.0272988968524863e-16 
outer loop
vertex 6.347104421469068 -8.73603977305267 5.567581822058035 
vertex 9.18561581080793 -6.673740532470405 4.64584162485608 
vertex 6.949547833308141 -8.298339013634937 9.117977579855658 
endloop
endfacet
facet normal 0.5877852522924731 -0.8090169943749473 -1.8583573221147785e-16 
outer loop
vertex 6.347104421469068 -8.73603977305267 5.567581822058035 
vertex 6.949547833308141 -8.298339013634937 9.117977579855658 
vertex 3.5085930321302063 -10.798339013634937 6.4893220192599905 
endloop
endfacet
facet normal 0.5877852522924731 -0.8090169943749473 -3.3788314947541426e-16 
outer loop
vertex 6.347104421469068 -8.73603977305267 5.567581822058035 
vertex 3.5085930321302063 -10.798339013634937 6.4893220192599905 
vertex 5.744661009629995 -9.173740532470404 2.017186064260411 
endloop
endfacet
facet normal 0.9510565162951532 0.3090169943749483 5.152718029500067e-16 
outer loop
vertex 10.269830684081688 3.3368702662352017 5.567581822058035 
vertex 10.499943591105765 2.6286555605956674 2.0171860642604105 
vertex 9.185615810807926 6.673740532470404 4.645841624856079 
endloop
endfacet
facet normal 0.9510565162951532 0.30901699437494823 4.730364092655799e-16 
outer loop
vertex 10.269830684081688 3.3368702662352017 5.567581822058035 
vertex 9.185615810807926 6.673740532470404 4.645841624856079 
vertex 10.03971777705761 4.045084971874736 9.117977579855658 
endloop
endfacet
facet normal 0.9510565162951532 0.30901699437494823 4.814834880024653e-16 
outer loop
vertex 10.269830684081688 3.3368702662352017 5.567581822058035 
vertex 10.03971777705761 4.045084971874736 9.117977579855658 
vertex 11.35404555735545 -1.2222036358128702e-15 6.48932201925999 
endloop
endfacet
facet normal 0.9510565162951533 0.30901699437494823 5.068247242131213e-16 
outer loop
vertex 10.269830684081688 3.3368702662352017 5.567581822058035 
vertex 11.35404555735545 -1.2222036358128702e-15 6.48932201925999 
vertex 10.499943591105765 2.6286555605956674 2.0171860642604105 
endloop
endfacet
facet normal 0.9510565162951535 -0.3090169943749478 1.5204741726393653e-16 
outer loop
vertex 10.26983068408169 -3.336870266235203 5.567581822058035 
vertex 10.499943591105765 -2.6286555605956687 2.017186064260412 
vertex 11.35404555735545 -1.2222036358128702e-15 6.48932201925999 
endloop
endfacet
facet normal 0.9510565162951535 -0.3090169943749478 1.3515325979016578e-16 
outer loop
vertex 10.26983068408169 -3.336870266235203 5.567581822058035 
vertex 11.35404555735545 -1.2222036358128702e-15 6.48932201925999 
vertex 10.039717777057614 -4.045084971874737 9.117977579855658 
endloop
endfacet
facet normal 0.9510565162951535 -0.30901699437494773 1.6049449600082184e-16 
outer loop
vertex 10.26983068408169 -3.336870266235203 5.567581822058035 
vertex 10.039717777057614 -4.045084971874737 9.117977579855658 
vertex 9.18561581080793 -6.673740532470405 4.64584162485608 
endloop
endfacet
facet normal 0.9510565162951535 -0.3090169943749478 1.351532597901658e-16 
outer loop
vertex 10.26983068408169 -3.336870266235203 5.567581822058035 
vertex 9.18561581080793 -6.673740532470405 4.64584162485608 
vertex 10.499943591105765 -2.6286555605956687 2.017186064260412 
endloop
endfacet
facet normal 0.6881909602355869 -0.5 0.5257311121191334 
outer loop
vertex 7.431319294742829 -5.399169506817468 11.244604600735759 
vertex 6.949547833308141 -8.298339013634937 9.117977579855658 
vertex 10.039717777057614 -4.045084971874737 9.117977579855658 
endloop
endfacet
facet normal 0.6881909602355869 -0.49999999999999994 0.5257311121191335 
outer loop
vertex 7.431319294742829 -5.399169506817468 11.244604600735759 
vertex 10.039717777057614 -4.045084971874737 9.117977579855658 
vertex 7.913090756177516 -2.499999999999999 13.371231621615859 
endloop
endfacet
facet normal 0.6881909602355868 -0.5000000000000001 0.5257311121191336 
outer loop
vertex 7.431319294742829 -5.399169506817468 11.244604600735759 
vertex 7.913090756177516 -2.499999999999999 13.371231621615859 
vertex 4.822920812428042 -6.753254041760197 13.371231621615859 
endloop
endfacet
facet normal 0.6881909602355867 -0.5000000000000001 0.5257311121191336 
outer loop
vertex 7.431319294742829 -5.399169506817468 11.244604600735759 
vertex 4.822920812428042 -6.753254041760197 13.371231621615859 
vertex 6.949547833308141 -8.298339013634937 9.117977579855658 
endloop
endfacet
facet normal -0.5877852522924731 -0.8090169943749475 1.8583573221147776e-16 
outer loop
vertex -6.347104421469066 -8.73603977305267 5.567581822058036 
vertex -6.949547833308138 -8.298339013634937 2.0171860642604105 
vertex -3.5085930321302037 -10.798339013634937 4.6458416248560805 
endloop
endfacet
facet normal -0.5877852522924732 -0.8090169943749475 1.3515325979016565e-16 
outer loop
vertex -6.347104421469066 -8.73603977305267 5.567581822058036 
vertex -3.5085930321302037 -10.798339013634937 4.6458416248560805 
vertex -5.7446610096299935 -9.173740532470404 9.117977579855662 
endloop
endfacet
facet normal -0.5877852522924731 -0.8090169943749476 1.858357322114778e-16 
outer loop
vertex -6.347104421469066 -8.73603977305267 5.567581822058036 
vertex -5.7446610096299935 -9.173740532470404 9.117977579855662 
vertex -9.185615810807928 -6.673740532470404 6.4893220192599905 
endloop
endfacet
facet normal -0.5877852522924732 -0.8090169943749473 1.3515325979016568e-16 
outer loop
vertex -6.347104421469066 -8.73603977305267 5.567581822058036 
vertex -9.185615810807928 -6.673740532470404 6.4893220192599905 
vertex -6.949547833308138 -8.298339013634937 2.0171860642604105 
endloop
endfacet
facet normal -0.9510565162951534 -0.3090169943749478 -1.4360033852705107e-16 
outer loop
vertex -10.269830684081688 -3.336870266235203 5.567581822058036 
vertex -10.039717777057612 -4.045084971874737 2.0171860642604105 
vertex -9.185615810807928 -6.673740532470404 6.4893220192599905 
endloop
endfacet
facet normal -0.9510565162951535 -0.30901699437494773 2.703065195803316e-16 
outer loop
vertex -10.269830684081688 -3.336870266235203 5.567581822058036 
vertex -9.185615810807928 -6.673740532470404 6.4893220192599905 
vertex -10.499943591105762 -2.628655560595669 9.11797757985566 
endloop
endfacet
facet normal -0.9510565162951536 -0.3090169943749473 1.85835732211478e-16 
outer loop
vertex -10.269830684081688 -3.336870266235203 5.567581822058036 
vertex -10.499943591105762 -2.628655560595669 9.11797757985566 
vertex -11.354045557355446 -2.1751737980398513e-15 4.6458416248560805 
endloop
endfacet
facet normal -0.9510565162951535 -0.3090169943749474 -2.0272988968524858e-16 
outer loop
vertex -10.269830684081688 -3.336870266235203 5.567581822058036 
vertex -11.354045557355446 -2.1751737980398513e-15 4.6458416248560805 
vertex -10.039717777057612 -4.045084971874737 2.0171860642604105 
endloop
endfacet
facet normal -0.2628655560595668 -0.8090169943749469 0.5257311121191343 
outer loop
vertex -2.8385113893388603 -8.736039773052669 11.24460460073576 
vertex -0.7446610096299926 -10.798339013634937 9.117977579855662 
vertex 0.06763823095227317 -8.298339013634934 13.371231621615859 
endloop
endfacet
facet normal -0.26286555605956646 -0.8090169943749473 0.5257311121191339 
outer loop
vertex -2.8385113893388603 -8.736039773052669 11.24460460073576 
vertex 0.06763823095227317 -8.298339013634934 13.371231621615859 
vertex -4.932361769047728 -6.673740532470402 13.37123162161586 
endloop
endfacet
facet normal -0.2628655560595664 -0.8090169943749473 0.5257311121191339 
outer loop
vertex -2.8385113893388603 -8.736039773052669 11.24460460073576 
vertex -4.932361769047728 -6.673740532470402 13.37123162161586 
vertex -5.7446610096299935 -9.173740532470404 9.117977579855662 
endloop
endfacet
facet normal -0.2628655560595668 -0.8090169943749469 0.5257311121191343 
outer loop
vertex -2.8385113893388603 -8.736039773052669 11.24460460073576 
vertex -5.7446610096299935 -9.173740532470404 9.117977579855662 
vertex -0.7446610096299926 -10.798339013634937 9.117977579855662 
endloop
endfacet
facet normal -0.9510565162951535 0.3090169943749474 8.024724800041086e-16 
outer loop
vertex -10.269830684081686 3.336870266235201 5.5675818220580355 
vertex -10.039717777057614 4.045084971874736 2.0171860642604105 
vertex -11.354045557355446 -2.1751737980398513e-15 4.6458416248560805 
endloop
endfacet
facet normal -0.9510565162951535 0.3090169943749476 -1.3515325979016565e-16 
outer loop
vertex -10.269830684081686 3.336870266235201 5.5675818220580355 
vertex -11.354045557355446 -2.1751737980398513e-15 4.6458416248560805 
vertex -10.499943591105762 2.6286555605956665 9.11797757985566 
endloop
endfacet
facet normal -0.9510565162951536 0.3090169943749471 -2.3651820463278996e-16 
outer loop
vertex -10.269830684081686 3.336870266235201 5.5675818220580355 
vertex -10.499943591105762 2.6286555605956665 9.11797757985566 
vertex -9.185615810807928 6.673740532470404 6.4893220192599905 
endloop
endfacet
facet normal -0.9510565162951536 0.30901699437494695 7.0955461389837e-16 
outer loop
vertex -10.269830684081686 3.336870266235201 5.5675818220580355 
vertex -9.185615810807928 6.673740532470404 6.4893220192599905 
vertex -10.039717777057614 4.045084971874736 2.0171860642604105 
endloop
endfacet
facet normal -0.5877852522924734 0.8090169943749472 2.3651820463279e-16 
outer loop
vertex -6.3471044214690675 8.73603977305267 5.5675818220580355 
vertex -6.94954783330814 8.298339013634937 2.01718606426041 
vertex -9.185615810807928 6.673740532470404 6.4893220192599905 
endloop
endfacet
facet normal -0.5877852522924735 0.8090169943749472 2.703065195803315e-16 
outer loop
vertex -6.3471044214690675 8.73603977305267 5.5675818220580355 
vertex -9.185615810807928 6.673740532470404 6.4893220192599905 
vertex -5.744661009629995 9.173740532470404 9.11797757985566 
endloop
endfacet
facet normal -0.5877852522924735 0.8090169943749472 2.5341236210656083e-16 
outer loop
vertex -6.3471044214690675 8.73603977305267 5.5675818220580355 
vertex -5.744661009629995 9.173740532470404 9.11797757985566 
vertex -3.5085930321302077 10.798339013634937 4.64584162485608 
endloop
endfacet
facet normal -0.5877852522924734 0.8090169943749472 2.0272988968524858e-16 
outer loop
vertex -6.3471044214690675 8.73603977305267 5.5675818220580355 
vertex -3.5085930321302077 10.798339013634937 4.64584162485608 
vertex -6.94954783330814 8.298339013634937 2.01718606426041 
endloop
endfacet
facet normal -0.8506508083520401 4.730364092655803e-16 0.5257311121191334 
outer loop
vertex -9.185615810807928 1.887379141862766e-15 11.244604600735759 
vertex -10.499943591105762 -2.628655560595669 9.11797757985566 
vertex -7.871288030510096 -2.6286555605956625 13.371231621615859 
endloop
endfacet
facet normal -0.8506508083520403 1.4371028711489726e-16 0.5257311121191331 
outer loop
vertex -9.185615810807928 1.887379141862766e-15 11.244604600735759 
vertex -7.871288030510096 -2.6286555605956625 13.371231621615859 
vertex -7.871288030510095 2.628655560595673 13.371231621615859 
endloop
endfacet
facet normal -0.85065080835204 -3.378831494754144e-16 0.5257311121191335 
outer loop
vertex -9.185615810807928 1.887379141862766e-15 11.244604600735759 
vertex -7.871288030510095 2.628655560595673 13.371231621615859 
vertex -10.499943591105762 2.6286555605956665 9.11797757985566 
endloop
endfacet
facet normal -0.8506508083520399 0.0 0.5257311121191338 
outer loop
vertex -9.185615810807928 1.887379141862766e-15 11.244604600735759 
vertex -10.499943591105762 2.6286555605956665 9.11797757985566 
vertex -10.499943591105762 -2.628655560595669 9.11797757985566 
endloop
endfacet
facet normal 0.0 1.0 0.0 
outer loop
vertex -1.9984014443252818e-15 10.798339013634937 5.567581822058035 
vertex 0.7446610096299922 10.798339013634937 2.01718606426041 
vertex -3.5085930321302077 10.798339013634937 4.64584162485608 
endloop
endfacet
facet normal 0.0 1.0 0.0 
outer loop
vertex -1.9984014443252818e-15 10.798339013634937 5.567581822058035 
vertex -3.5085930321302077 10.798339013634937 4.64584162485608 
vertex -0.7446610096299964 10.798339013634937 9.117977579855658 
endloop
endfacet
facet normal 0.0 1.0 0.0 
outer loop
vertex -1.9984014443252818e-15 10.798339013634937 5.567581822058035 
vertex -0.7446610096299964 10.798339013634937 9.117977579855658 
vertex 3.5085930321302037 10.798339013634937 6.48932201925999 
endloop
endfacet
facet normal 0.0 1.0 0.0 
outer loop
vertex -1.9984014443252818e-15 10.798339013634937 5.567581822058035 
vertex 3.5085930321302037 10.798339013634937 6.48932201925999 
vertex 0.7446610096299922 10.798339013634937 2.01718606426041 
endloop
endfacet
facet normal 0.5877852522924735 0.8090169943749471 4.22353936844268e-17 
outer loop
vertex 6.347104421469064 8.73603977305267 5.567581822058034 
vertex 5.7446610096299935 9.173740532470404 2.0171860642604096 
vertex 3.5085930321302037 10.798339013634937 6.48932201925999 
endloop
endfacet
facet normal 0.5877852522924735 0.8090169943749472 -2.703065195803315e-16 
outer loop
vertex 6.347104421469064 8.73603977305267 5.567581822058034 
vertex 3.5085930321302037 10.798339013634937 6.48932201925999 
vertex 6.949547833308136 8.298339013634937 9.117977579855658 
endloop
endfacet
facet normal 0.5877852522924731 0.8090169943749473 -1.773886534745925e-16 
outer loop
vertex 6.347104421469064 8.73603977305267 5.567581822058034 
vertex 6.949547833308136 8.298339013634937 9.117977579855658 
vertex 9.185615810807926 6.673740532470404 4.645841624856079 
endloop
endfacet
facet normal 0.5877852522924731 0.8090169943749473 6.757662989508286e-17 
outer loop
vertex 6.347104421469064 8.73603977305267 5.567581822058034 
vertex 9.185615810807926 6.673740532470404 4.645841624856079 
vertex 5.7446610096299935 9.173740532470404 2.0171860642604096 
endloop
endfacet
facet normal -0.26286555605956685 0.8090169943749472 0.5257311121191339 
outer loop
vertex -2.8385113893388607 8.73603977305267 11.244604600735759 
vertex -5.744661009629995 9.173740532470404 9.11797757985566 
vertex -4.932361769047724 6.673740532470404 13.371231621615859 
endloop
endfacet
facet normal -0.26286555605956696 0.8090169943749472 0.5257311121191337 
outer loop
vertex -2.8385113893388607 8.73603977305267 11.244604600735759 
vertex -4.932361769047724 6.673740532470404 13.371231621615859 
vertex 0.06763823095227472 8.298339013634937 13.371231621615859 
endloop
endfacet
facet normal -0.26286555605956696 0.8090169943749473 0.5257311121191337 
outer loop
vertex -2.8385113893388607 8.73603977305267 11.244604600735759 
vertex 0.06763823095227472 8.298339013634937 13.371231621615859 
vertex -0.7446610096299964 10.798339013634937 9.117977579855658 
endloop
endfacet
facet normal -0.2628655560595668 0.8090169943749472 0.5257311121191339 
outer loop
vertex -2.8385113893388607 8.73603977305267 11.244604600735759 
vertex -0.7446610096299964 10.798339013634937 9.117977579855658 
vertex -5.744661009629995 9.173740532470404 9.11797757985566 
endloop
endfacet
facet normal 0.6881909602355869 0.49999999999999967 0.5257311121191337 
outer loop
vertex 7.431319294742825 5.399169506817467 11.244604600735755 
vertex 6.949547833308136 8.298339013634937 9.117977579855658 
vertex 4.82292081242804 6.753254041760198 13.371231621615854 
endloop
endfacet
facet normal 0.688190960235587 0.4999999999999999 0.5257311121191336 
outer loop
vertex 7.431319294742825 5.399169506817467 11.244604600735755 
vertex 4.82292081242804 6.753254041760198 13.371231621615854 
vertex 7.913090756177515 2.499999999999998 13.371231621615852 
endloop
endfacet
facet normal 0.6881909602355866 0.5000000000000001 0.5257311121191338 
outer loop
vertex 7.431319294742825 5.399169506817467 11.244604600735755 
vertex 7.913090756177515 2.499999999999998 13.371231621615852 
vertex 10.03971777705761 4.045084971874736 9.117977579855658 
endloop
endfacet
facet normal 0.6881909602355865 0.4999999999999998 0.525731112119134 
outer loop
vertex 7.431319294742825 5.399169506817467 11.244604600735755 
vertex 10.03971777705761 4.045084971874736 9.117977579855658 
vertex 6.949547833308136 8.298339013634937 9.117977579855658 
endloop
endfacet
facet normal 0.16245984811645367 -0.4999999999999999 0.8506508083520399 
outer loop
vertex 1.754296516065105 -5.399169506817466 14.753197632865966 
vertex 4.822920812428042 -6.753254041760197 13.371231621615859 
vertex 3.440954801177937 -2.499999999999998 16.13516364411607 
endloop
endfacet
facet normal 0.16245984811645295 -0.4999999999999995 0.8506508083520402 
outer loop
vertex 1.754296516065105 -5.399169506817466 14.753197632865966 
vertex 3.440954801177937 -2.499999999999998 16.13516364411607 
vertex -1.314327780297832 -4.045084971874735 16.13516364411607 
endloop
endfacet
facet normal 0.16245984811645253 -0.5000000000000002 0.8506508083520399 
outer loop
vertex 1.754296516065105 -5.399169506817466 14.753197632865966 
vertex -1.314327780297832 -4.045084971874735 16.13516364411607 
vertex 0.06763823095227317 -8.298339013634934 13.371231621615859 
endloop
endfacet
facet normal 0.16245984811645323 -0.5000000000000006 0.8506508083520395 
outer loop
vertex 1.754296516065105 -5.399169506817466 14.753197632865966 
vertex 0.06763823095227317 -8.298339013634934 13.371231621615859 
vertex 4.822920812428042 -6.753254041760197 13.371231621615859 
endloop
endfacet
facet normal 0.5257311121191336 1.3022361107558312e-15 0.8506508083520399 
outer loop
vertex 5.677022778677726 0.0 14.75319763286596 
vertex 7.913090756177516 -2.499999999999999 13.371231621615859 
vertex 7.913090756177515 2.499999999999998 13.371231621615852 
endloop
endfacet
facet normal 0.5257311121191336 1.2839559680065753e-15 0.8506508083520398 
outer loop
vertex 5.677022778677726 0.0 14.75319763286596 
vertex 7.913090756177515 2.499999999999998 13.371231621615852 
vertex 3.440954801177936 2.499999999999999 16.135163644116062 
endloop
endfacet
facet normal 0.5257311121191336 1.3022361107558312e-15 0.8506508083520399 
outer loop
vertex 5.677022778677726 0.0 14.75319763286596 
vertex 3.440954801177936 2.499999999999999 16.135163644116062 
vertex 3.440954801177937 -2.499999999999998 16.13516364411607 
endloop
endfacet
facet normal 0.5257311121191336 1.2839559680065753e-15 0.8506508083520398 
outer loop
vertex 5.677022778677726 0.0 14.75319763286596 
vertex 3.440954801177937 -2.499999999999998 16.13516364411607 
vertex 7.913090756177516 -2.499999999999999 13.371231621615859 
endloop
endfacet
facet normal -0.42532540417601944 -0.30901699437494745 0.8506508083520401 
outer loop
vertex -4.592807905403964 -3.3368702662351986 14.753197632865966 
vertex -4.932361769047728 -6.673740532470402 13.37123162161586 
vertex -1.314327780297832 -4.045084971874735 16.13516364411607 
endloop
endfacet
facet normal -0.42532540417601955 -0.30901699437494706 0.8506508083520404 
outer loop
vertex -4.592807905403964 -3.3368702662351986 14.753197632865966 
vertex -1.314327780297832 -4.045084971874735 16.13516364411607 
vertex -4.2532540417602 5.921905400813651e-15 16.13516364411607 
endloop
endfacet
facet normal -0.4253254041760202 -0.30901699437494684 0.85065080835204 
outer loop
vertex -4.592807905403964 -3.3368702662351986 14.753197632865966 
vertex -4.2532540417602 5.921905400813651e-15 16.13516364411607 
vertex -7.871288030510096 -2.6286555605956625 13.371231621615859 
endloop
endfacet
facet normal -0.42532540417602027 -0.30901699437494723 0.8506508083520398 
outer loop
vertex -4.592807905403964 -3.3368702662351986 14.753197632865966 
vertex -7.871288030510096 -2.6286555605956625 13.371231621615859 
vertex -4.932361769047728 -6.673740532470402 13.37123162161586 
endloop
endfacet
facet normal -0.42532540417601994 0.3090169943749476 0.85065080835204 
outer loop
vertex -4.592807905403962 3.336870266235205 14.753197632865966 
vertex -7.871288030510095 2.628655560595673 13.371231621615859 
vertex -4.2532540417602 5.921905400813651e-15 16.13516364411607 
endloop
endfacet
facet normal -0.42532540417601916 0.3090169943749478 0.8506508083520402 
outer loop
vertex -4.592807905403962 3.336870266235205 14.753197632865966 
vertex -4.2532540417602 5.921905400813651e-15 16.13516364411607 
vertex -1.3143277802978293 4.045084971874737 16.13516364411607 
endloop
endfacet
facet normal -0.4253254041760191 0.30901699437494856 0.8506508083520399 
outer loop
vertex -4.592807905403962 3.336870266235205 14.753197632865966 
vertex -1.3143277802978293 4.045084971874737 16.13516364411607 
vertex -4.932361769047724 6.673740532470404 13.371231621615859 
endloop
endfacet
facet normal -0.42532540417601994 0.3090169943749484 0.8506508083520397 
outer loop
vertex -4.592807905403962 3.336870266235205 14.753197632865966 
vertex -4.932361769047724 6.673740532470404 13.371231621615859 
vertex -7.871288030510095 2.628655560595673 13.371231621615859 
endloop
endfacet
facet normal 0.16245984811645456 0.4999999999999996 0.85065080835204 
outer loop
vertex 1.7542965160651054 5.399169506817468 14.75319763286596 
vertex 0.06763823095227472 8.298339013634937 13.371231621615859 
vertex -1.3143277802978293 4.045084971874737 16.13516364411607 
endloop
endfacet
facet normal 0.16245984811645447 0.4999999999999996 0.8506508083520399 
outer loop
vertex 1.7542965160651054 5.399169506817468 14.75319763286596 
vertex -1.3143277802978293 4.045084971874737 16.13516364411607 
vertex 3.440954801177936 2.499999999999999 16.135163644116062 
endloop
endfacet
facet normal 0.16245984811645411 0.49999999999999944 0.8506508083520401 
outer loop
vertex 1.7542965160651054 5.399169506817468 14.75319763286596 
vertex 3.440954801177936 2.499999999999999 16.135163644116062 
vertex 4.82292081242804 6.753254041760198 13.371231621615854 
endloop
endfacet
facet normal 0.16245984811645417 0.4999999999999994 0.8506508083520401 
outer loop
vertex 1.7542965160651054 5.399169506817468 14.75319763286596 
vertex 4.82292081242804 6.753254041760198 13.371231621615854 
vertex 0.06763823095227472 8.298339013634937 13.371231621615859 
endloop
endfacet
endsolid test
