solid test
facet normal 0.457495710997814 -0.7624928516630233 0.457495710997814 
outer loop
vertex 1.3333333333333333 1.0 1.3333333333333333 
vertex 0.0 0.0 1.0 
vertex 1.0 0.0 0.0 
endloop
endfacet
facet normal 0.45749571099781394 -0.7624928516630233 0.45749571099781405 
outer loop
vertex 1.3333333333333333 1.0 1.3333333333333333 
vertex 1.0 0.0 0.0 
vertex 3 3 3 
endloop
endfacet
facet normal 0.457495710997814 -0.7624928516630233 0.457495710997814 
outer loop
vertex 1.3333333333333333 1.0 1.3333333333333333 
vertex 3 3 3 
vertex 0.0 0.0 1.0 
endloop
endfacet
facet normal 0.457495710997814 0.457495710997814 -0.7624928516630233 
outer loop
vertex 1.3333333333333333 1.3333333333333333 1.0 
vertex 1.0 0.0 0.0 
vertex 0.0 1.0 0.0 
endloop
endfacet
facet normal 0.45749571099781405 0.45749571099781394 -0.7624928516630233 
outer loop
vertex 1.3333333333333333 1.3333333333333333 1.0 
vertex 0.0 1.0 0.0 
vertex 3 3 3 
endloop
endfacet
facet normal 0.457495710997814 0.457495710997814 -0.7624928516630233 
outer loop
vertex 1.3333333333333333 1.3333333333333333 1.0 
vertex 3 3 3 
vertex 1.0 0.0 0.0 
endloop
endfacet
facet normal -0.7624928516630233 0.457495710997814 0.457495710997814 
outer loop
vertex 1.0 1.3333333333333333 1.3333333333333333 
vertex 0.0 1.0 0.0 
vertex 0.0 0.0 1.0 
endloop
endfacet
facet normal -0.7624928516630233 0.45749571099781405 0.45749571099781394 
outer loop
vertex 1.0 1.3333333333333333 1.3333333333333333 
vertex 0.0 0.0 1.0 
vertex 3 3 3 
endloop
endfacet
facet normal -0.7624928516630233 0.457495710997814 0.457495710997814 
outer loop
vertex 1.0 1.3333333333333333 1.3333333333333333 
vertex 3 3 3 
vertex 0.0 1.0 0.0 
endloop
endfacet
facet normal -1.0 0.0 0.0 
outer loop
vertex 0.0 0.3333333333333333 0.3333333333333333 
vertex 0.0 0.0 0.0 
vertex 0.0 0.0 1.0 
endloop
endfacet
facet normal -1.0 0.0 0.0 
outer loop
vertex 0.0 0.3333333333333333 0.3333333333333333 
vertex 0.0 0.0 1.0 
vertex 0.0 1.0 0.0 
endloop
endfacet
facet normal -1.0 0.0 0.0 
outer loop
vertex 0.0 0.3333333333333333 0.3333333333333333 
vertex 0.0 1.0 0.0 
vertex 0.0 0.0 0.0 
endloop
endfacet
facet normal 0.0 -1.0 0.0 
outer loop
vertex 0.3333333333333333 0.0 0.3333333333333333 
vertex 0.0 0.0 0.0 
vertex 1.0 0.0 0.0 
endloop
endfacet
facet normal 0.0 -1.0 0.0 
outer loop
vertex 0.3333333333333333 0.0 0.3333333333333333 
vertex 1.0 0.0 0.0 
vertex 0.0 0.0 1.0 
endloop
endfacet
facet normal 0.0 -1.0 0.0 
outer loop
vertex 0.3333333333333333 0.0 0.3333333333333333 
vertex 0.0 0.0 1.0 
vertex 0.0 0.0 0.0 
endloop
endfacet
facet normal 0.0 0.0 -1.0 
outer loop
vertex 0.3333333333333333 0.3333333333333333 0.0 
vertex 0.0 0.0 0.0 
vertex 0.0 1.0 0.0 
endloop
endfacet
facet normal 0.0 0.0 -1.0 
outer loop
vertex 0.3333333333333333 0.3333333333333333 0.0 
vertex 0.0 1.0 0.0 
vertex 1.0 0.0 0.0 
endloop
endfacet
facet normal 0.0 0.0 -1.0 
outer loop
vertex 0.3333333333333333 0.3333333333333333 0.0 
vertex 1.0 0.0 0.0 
vertex 0.0 0.0 0.0 
endloop
endfacet
endsolid test
