solid test
facet normal 0.49112347318842275 -0.35682208977308977 0.7946544722917663 
outer loop
vertex 0.26286555605956696 -0.8090169943749476 -0.5257311121191334 
vertex 0.8506508083520401 -1.8411485819271075e-16 -0.5257311121191334 
vertex 0.0 0.0 0.0 
endloop
endfacet
facet normal -0.18759247408507973 -0.5773502691896255 0.7946544722917663 
outer loop
vertex -0.6881909602355865 -0.5000000000000003 -0.5257311121191334 
vertex 0.26286555605956696 -0.8090169943749476 -0.5257311121191334 
vertex 0.0 0.0 0.0 
endloop
endfacet
facet normal -0.6070619982066862 -6.739742077840185e-17 0.7946544722917661 
outer loop
vertex -0.6881909602355866 0.4999999999999997 -0.5257311121191334 
vertex -0.6881909602355865 -0.5000000000000003 -0.5257311121191334 
vertex 0.0 0.0 0.0 
endloop
endfacet
facet normal -0.18759247408507995 0.5773502691896257 0.7946544722917661 
outer loop
vertex 0.2628655560595668 0.8090169943749472 -0.5257311121191334 
vertex -0.6881909602355866 0.4999999999999997 -0.5257311121191334 
vertex 0.0 0.0 0.0 
endloop
endfacet
facet normal 0.4911234731884228 0.35682208977308993 0.7946544722917663 
outer loop
vertex 0.8506508083520401 -1.8411485819271075e-16 -0.5257311121191334 
vertex 0.2628655560595668 0.8090169943749472 -0.5257311121191334 
vertex 0.0 0.0 0.0 
endloop
endfacet
facet normal 0.7946544722917661 -0.5773502691896258 0.1875924740850803 
outer loop
vertex 0.8506508083520401 -1.8411485819271075e-16 -0.5257311121191334 
vertex 0.26286555605956696 -0.8090169943749476 -0.5257311121191334 
vertex 0.6881909602355869 -0.5000000000000007 -1.376381920471173 
endloop
endfacet
facet normal 0.3035309991033429 -0.9341723589627158 -0.18759247408507954 
outer loop
vertex 0.26286555605956696 -0.8090169943749476 -0.5257311121191334 
vertex -0.2628655560595668 -0.8090169943749478 -1.3763819204711734 
vertex 0.6881909602355869 -0.5000000000000007 -1.376381920471173 
endloop
endfacet
facet normal -0.3035309991033429 -0.9341723589627157 0.18759247408508012 
outer loop
vertex 0.26286555605956696 -0.8090169943749476 -0.5257311121191334 
vertex -0.6881909602355865 -0.5000000000000003 -0.5257311121191334 
vertex -0.2628655560595668 -0.8090169943749478 -1.3763819204711734 
endloop
endfacet
facet normal -0.7946544722917661 -0.577350269189626 -0.18759247408507945 
outer loop
vertex -0.6881909602355865 -0.5000000000000003 -0.5257311121191334 
vertex -0.8506508083520401 -3.784038875021134e-16 -1.3763819204711738 
vertex -0.2628655560595668 -0.8090169943749478 -1.3763819204711734 
endloop
endfacet
facet normal -0.982246946376846 -1.0905131757353259e-16 0.18759247408508026 
outer loop
vertex -0.6881909602355865 -0.5000000000000003 -0.5257311121191334 
vertex -0.6881909602355866 0.4999999999999997 -0.5257311121191334 
vertex -0.8506508083520401 -3.784038875021134e-16 -1.3763819204711738 
endloop
endfacet
facet normal -0.7946544722917661 0.577350269189626 -0.18759247408507956 
outer loop
vertex -0.6881909602355866 0.4999999999999997 -0.5257311121191334 
vertex -0.26286555605956685 0.8090169943749472 -1.3763819204711734 
vertex -0.8506508083520401 -3.784038875021134e-16 -1.3763819204711738 
endloop
endfacet
facet normal -0.30353099910334325 0.9341723589627157 0.18759247408507998 
outer loop
vertex -0.6881909602355866 0.4999999999999997 -0.5257311121191334 
vertex 0.2628655560595668 0.8090169943749472 -0.5257311121191334 
vertex -0.26286555605956685 0.8090169943749472 -1.3763819204711734 
endloop
endfacet
facet normal 0.3035309991033426 0.934172358962716 -0.1875924740850795 
outer loop
vertex 0.2628655560595668 0.8090169943749472 -0.5257311121191334 
vertex 0.6881909602355873 0.5000000000000002 -1.3763819204711738 
vertex -0.26286555605956685 0.8090169943749472 -1.3763819204711734 
endloop
endfacet
facet normal 0.794654472291766 0.5773502691896258 0.1875924740850806 
outer loop
vertex 0.2628655560595668 0.8090169943749472 -0.5257311121191334 
vertex 0.8506508083520401 -1.8411485819271075e-16 -0.5257311121191334 
vertex 0.6881909602355873 0.5000000000000002 -1.3763819204711738 
endloop
endfacet
facet normal 0.9822469463768461 -6.028208574746526e-16 -0.18759247408507967 
outer loop
vertex 0.8506508083520401 -1.8411485819271075e-16 -0.5257311121191334 
vertex 0.6881909602355869 -0.5000000000000007 -1.376381920471173 
vertex 0.6881909602355873 0.5000000000000002 -1.3763819204711738 
endloop
endfacet
facet normal 0.18759247408507992 -0.5773502691896253 -0.7946544722917664 
outer loop
vertex 0.6881909602355869 -0.5000000000000007 -1.376381920471173 
vertex -0.2628655560595668 -0.8090169943749478 -1.3763819204711734 
vertex 4.77541957283294e-16 -2.4802822758291587e-17 -1.9021130325903064 
endloop
endfacet
facet normal -0.491123473188422 -0.35682208977308977 -0.7946544722917668 
outer loop
vertex -0.2628655560595668 -0.8090169943749478 -1.3763819204711734 
vertex -0.8506508083520401 -3.784038875021134e-16 -1.3763819204711738 
vertex 4.77541957283294e-16 -2.4802822758291587e-17 -1.9021130325903064 
endloop
endfacet
facet normal -0.49112347318842225 0.35682208977308977 -0.7946544722917667 
outer loop
vertex -0.8506508083520401 -3.784038875021134e-16 -1.3763819204711738 
vertex -0.26286555605956685 0.8090169943749472 -1.3763819204711734 
vertex 4.77541957283294e-16 -2.4802822758291587e-17 -1.9021130325903064 
endloop
endfacet
facet normal 0.18759247408507906 0.5773502691896255 -0.7946544722917666 
outer loop
vertex -0.26286555605956685 0.8090169943749472 -1.3763819204711734 
vertex 0.6881909602355873 0.5000000000000002 -1.3763819204711738 
vertex 4.77541957283294e-16 -2.4802822758291587e-17 -1.9021130325903064 
endloop
endfacet
facet normal 0.6070619982066858 -9.753846365213443e-16 -0.7946544722917664 
outer loop
vertex 0.6881909602355873 0.5000000000000002 -1.3763819204711738 
vertex 0.6881909602355869 -0.5000000000000007 -1.376381920471173 
vertex 4.77541957283294e-16 -2.4802822758291587e-17 -1.9021130325903064 
endloop
endfacet
endsolid test
